<?xml version="1.0" encoding="utf-8"?>
<!-- Generator: Adobe Illustrator 24.0.1, SVG Export Plug-In . SVG Version: 6.00 Build 0)  -->
<svg version="1.1" id="Layer_1" xmlns="http://www.w3.org/2000/svg" xmlns:xlink="http://www.w3.org/1999/xlink" x="0px" y="0px"
	 viewBox="0 0 1923 491.1" style="enable-background:new 0 0 1923 491.1;" xml:space="preserve">
<style type="text/css">
	.st0{fill:url(#SVGID_1_);}
	.st1{opacity:0.42;fill:none;stroke:#FFFFFF;enable-background:new    ;}
</style>
<g transform="translate(1025.645 -4551)">
	
		<linearGradient id="SVGID_1_" gradientUnits="userSpaceOnUse" x1="-859.3928" y1="5282.6699" x2="-859.3948" y2="5283.6699" gradientTransform="matrix(1923 0 0 -494 1652550.125 2614683.75)">
		<stop  offset="0" style="stop-color:#009FD8"/>
		<stop  offset="1" style="stop-color:#D6EDFC"/>
	</linearGradient>
	<rect x="-1025.6" y="4551" class="st0" width="1923" height="494"/>
	<line class="st1" x1="-1029" y1="4581.5" x2="501" y2="5044.5"/>
	<polyline class="st1" points="453.1,5045 -1025.6,4597.5 -1029,4596.5 	"/>
	<polyline class="st1" points="400.2,5045 -1025.6,4613.5 -1029,4612.5 	"/>
	<polyline class="st1" points="344,5045 -1025.6,4630.5 -1029,4629.5 	"/>
	<polyline class="st1" points="287.9,5045 -1025.6,4647.5 -1029,4646.5 	"/>
	<polyline class="st1" points="231.7,5045 -1025.6,4664.5 -1029,4663.5 	"/>
	<polyline class="st1" points="172.2,5045 -1025.6,4682.5 -1029,4681.5 	"/>
	<polyline class="st1" points="122.6,5045 -1025.6,4697.5 -1029,4696.5 	"/>
	<polyline class="st1" points="73.1,5045 -1025.6,4712.5 -1029,4711.5 	"/>
	<line class="st1" x1="22.1" y1="5045" x2="-1025.6" y2="4728"/>
	<line class="st1" x1="-26.9" y1="5045" x2="-1025.6" y2="4742.8"/>
	<line class="st1" x1="-78.9" y1="5045" x2="-1025.6" y2="4758.5"/>
	<line class="st1" x1="-125.9" y1="5045" x2="-1025.6" y2="4772.7"/>
	<line class="st1" x1="-176.9" y1="5045" x2="-1025.6" y2="4788.2"/>
	<line class="st1" x1="-227.9" y1="5045" x2="-1025.6" y2="4803.6"/>
	<line class="st1" x1="-276.9" y1="5045" x2="-1025.6" y2="4818.4"/>
	<line class="st1" x1="-323.9" y1="5045" x2="-1025.6" y2="4832.6"/>
	<line class="st1" x1="-372.9" y1="5045" x2="-1025.6" y2="4847.5"/>
	<line class="st1" x1="-424.9" y1="5045" x2="-1025.6" y2="4863.2"/>
	<line class="st1" x1="-478.9" y1="5045" x2="-1025.6" y2="4879.6"/>
	<line class="st1" x1="-534.9" y1="5045" x2="-1025.6" y2="4896.5"/>
	<line class="st1" x1="-591.9" y1="5045" x2="-1025.6" y2="4913.8"/>
	<line class="st1" x1="-648.9" y1="5045" x2="-1025.6" y2="4931"/>
	<line class="st1" x1="-704.9" y1="5045" x2="-1025.6" y2="4948"/>
	<line class="st1" x1="-765.9" y1="5045" x2="-1025.6" y2="4966.4"/>
	<line class="st1" x1="-824.9" y1="5045" x2="-1025.6" y2="4984.3"/>
	<line class="st1" x1="-886.9" y1="5045" x2="-1025.6" y2="5003"/>
	<line class="st1" x1="-941.9" y1="5045" x2="-1025.6" y2="5019.7"/>
</g>
</svg>
