<?xml version="1.0" encoding="utf-8"?>
<!-- Generator: Adobe Illustrator 24.0.1, SVG Export Plug-In . SVG Version: 6.00 Build 0)  -->
<svg version="1.1" id="Layer_1" xmlns="http://www.w3.org/2000/svg" xmlns:xlink="http://www.w3.org/1999/xlink" x="0px" y="0px"
	 viewBox="0 0 282.4 281.3" style="enable-background:new 0 0 282.4 281.3;" xml:space="preserve">
<style type="text/css">
	.st0{fill:#FFFFFF;}
	.st1{fill:#E45135;}
	.st2{fill:#767676;}
	.st3{fill:url(#SVGID_1_);}
	.st4{fill:url(#SVGID_2_);}
	.st5{fill:url(#SVGID_3_);}
	.st6{fill:url(#SVGID_4_);}
	.st7{fill:url(#SVGID_5_);}
	.st8{fill:url(#SVGID_6_);}
	.st9{fill:url(#SVGID_7_);}
	.st10{fill:url(#SVGID_8_);}
	.st11{fill:url(#SVGID_9_);}
	.st12{fill:url(#SVGID_10_);}
	.st13{fill:url(#SVGID_11_);}
	.st14{fill:url(#SVGID_12_);}
	.st15{fill:url(#SVGID_13_);}
	.st16{fill:url(#SVGID_14_);}
	.st17{fill:url(#SVGID_15_);}
	.st18{fill:url(#SVGID_16_);}
	.st19{fill:url(#SVGID_17_);}
	.st20{fill:url(#SVGID_18_);}
	.st21{fill:url(#SVGID_19_);}
	.st22{fill:url(#SVGID_20_);}
	.st23{fill:url(#SVGID_21_);}
	.st24{fill:url(#SVGID_22_);}
	.st25{fill:url(#SVGID_23_);}
	.st26{fill:url(#SVGID_24_);}
	.st27{fill:url(#SVGID_25_);}
	.st28{fill:url(#SVGID_26_);}
	.st29{fill:url(#SVGID_27_);}
	.st30{fill:url(#SVGID_28_);}
	.st31{fill:url(#SVGID_29_);}
	.st32{fill:url(#SVGID_30_);}
	.st33{fill:url(#SVGID_31_);}
	.st34{fill:url(#SVGID_32_);}
	.st35{fill:url(#SVGID_33_);}
	.st36{fill:url(#SVGID_34_);}
	.st37{fill:url(#SVGID_35_);}
	.st38{fill:url(#SVGID_36_);}
	.st39{fill:url(#SVGID_37_);}
	.st40{fill:url(#SVGID_38_);}
	.st41{fill:url(#SVGID_39_);}
	.st42{fill:url(#SVGID_40_);}
	.st43{fill:url(#SVGID_41_);}
	.st44{fill:url(#SVGID_42_);}
	.st45{fill:url(#SVGID_43_);}
	.st46{fill:#E9A447;}
	.st47{fill:url(#SVGID_44_);}
	.st48{fill:url(#SVGID_45_);}
	.st49{fill:url(#SVGID_46_);}
	.st50{fill:url(#SVGID_47_);}
	.st51{fill:url(#SVGID_48_);}
	.st52{fill:url(#SVGID_49_);}
	.st53{fill:url(#SVGID_50_);}
	.st54{fill:url(#SVGID_51_);}
	.st55{fill:url(#SVGID_52_);}
	.st56{fill:url(#SVGID_53_);}
	.st57{fill:url(#SVGID_54_);}
	.st58{fill:url(#SVGID_55_);}
	.st59{fill:url(#SVGID_56_);}
	.st60{fill:url(#SVGID_57_);}
	.st61{fill:#009FD8;}
	.st62{fill:url(#SVGID_58_);}
	.st63{fill:url(#SVGID_59_);}
	.st64{fill:url(#SVGID_60_);}
	.st65{fill:url(#SVGID_61_);}
	.st66{fill:url(#SVGID_62_);}
	.st67{fill:url(#SVGID_63_);}
	.st68{fill:url(#SVGID_64_);}
	.st69{fill:url(#SVGID_65_);}
	.st70{fill:url(#SVGID_66_);}
	.st71{fill:url(#SVGID_67_);}
	.st72{fill:url(#SVGID_68_);}
	.st73{fill:url(#SVGID_69_);}
	.st74{fill:url(#SVGID_70_);}
	.st75{fill:url(#SVGID_71_);}
	.st76{fill:url(#SVGID_72_);}
	.st77{fill:url(#SVGID_73_);}
	.st78{fill:url(#SVGID_74_);}
	.st79{fill:url(#SVGID_75_);}
	.st80{fill:url(#SVGID_76_);}
	.st81{fill:url(#SVGID_77_);}
	.st82{fill:url(#SVGID_78_);}
	.st83{fill:url(#SVGID_79_);}
	.st84{fill:url(#SVGID_80_);}
	.st85{fill:url(#SVGID_81_);}
	.st86{fill:url(#SVGID_82_);}
	.st87{fill:url(#SVGID_83_);}
	.st88{fill:url(#SVGID_84_);}
	.st89{fill:url(#SVGID_85_);}
	.st90{fill:url(#SVGID_86_);}
	.st91{fill:url(#SVGID_87_);}
	.st92{fill:url(#SVGID_88_);}
	.st93{fill:url(#SVGID_89_);}
	.st94{fill:url(#SVGID_90_);}
	.st95{fill:url(#SVGID_91_);}
	.st96{fill:url(#SVGID_92_);}
	.st97{fill:url(#SVGID_93_);}
	.st98{fill:url(#SVGID_94_);}
	.st99{fill:url(#SVGID_95_);}
	.st100{fill:url(#SVGID_96_);}
	.st101{fill:url(#SVGID_97_);}
	.st102{fill:url(#SVGID_98_);}
	.st103{fill:url(#SVGID_99_);}
	.st104{fill:url(#SVGID_100_);}
	.st105{fill:url(#SVGID_101_);}
	.st106{fill:url(#SVGID_102_);}
	.st107{fill:url(#SVGID_103_);}
	.st108{fill:url(#SVGID_104_);}
	.st109{fill:url(#SVGID_105_);}
	.st110{fill:url(#SVGID_106_);}
	.st111{fill:url(#SVGID_107_);}
	.st112{fill:url(#SVGID_108_);}
	.st113{fill:url(#SVGID_109_);}
	.st114{fill:url(#SVGID_110_);}
	.st115{fill:url(#SVGID_111_);}
	.st116{fill:url(#SVGID_112_);}
	.st117{fill:url(#SVGID_113_);}
	.st118{fill:url(#SVGID_114_);}
	.st119{fill:url(#SVGID_115_);}
	.st120{fill:url(#SVGID_116_);}
	.st121{fill:url(#SVGID_117_);}
	.st122{fill:url(#SVGID_118_);}
	.st123{fill:url(#SVGID_119_);}
	.st124{fill:url(#SVGID_120_);}
	.st125{fill:url(#SVGID_121_);}
	.st126{fill:url(#SVGID_122_);}
	.st127{fill:url(#SVGID_123_);}
	.st128{fill:url(#SVGID_124_);}
	.st129{fill:url(#SVGID_125_);}
	.st130{fill:url(#SVGID_126_);}
	.st131{fill:url(#SVGID_127_);}
	.st132{fill:url(#SVGID_128_);}
	.st133{fill:url(#SVGID_129_);}
	.st134{fill:url(#SVGID_130_);}
	.st135{fill:url(#SVGID_131_);}
	.st136{fill:url(#SVGID_132_);}
	.st137{fill:url(#SVGID_133_);}
	.st138{fill:url(#SVGID_134_);}
	.st139{fill:url(#SVGID_135_);}
	.st140{fill:url(#SVGID_136_);}
	.st141{fill:url(#SVGID_137_);}
	.st142{fill:url(#SVGID_138_);}
	.st143{fill:url(#SVGID_139_);}
	.st144{fill:url(#SVGID_140_);}
	.st145{fill:url(#SVGID_141_);}
	.st146{fill:url(#SVGID_142_);}
	.st147{fill:url(#SVGID_143_);}
	.st148{fill:url(#SVGID_144_);}
	.st149{fill:url(#SVGID_145_);}
	.st150{fill:url(#SVGID_146_);}
	.st151{fill:url(#SVGID_147_);}
	.st152{fill:url(#SVGID_148_);}
	.st153{fill:url(#SVGID_149_);}
	.st154{fill:url(#SVGID_150_);}
	.st155{fill:url(#SVGID_151_);}
	.st156{fill:url(#SVGID_152_);}
	.st157{fill:url(#SVGID_153_);}
	.st158{fill:url(#SVGID_154_);}
	.st159{fill:url(#SVGID_155_);}
	.st160{fill:url(#SVGID_156_);}
	.st161{fill:url(#SVGID_157_);}
	.st162{fill:url(#SVGID_158_);}
	.st163{fill:url(#SVGID_159_);}
	.st164{fill:url(#SVGID_160_);}
	.st165{fill:url(#SVGID_161_);}
	.st166{fill:url(#SVGID_162_);}
	.st167{fill:url(#SVGID_163_);}
	.st168{fill:url(#SVGID_164_);}
	.st169{fill:url(#SVGID_165_);}
	.st170{fill:url(#SVGID_166_);}
	.st171{fill:url(#SVGID_167_);}
	.st172{fill:url(#SVGID_168_);}
	.st173{fill:url(#SVGID_169_);}
	.st174{fill:url(#SVGID_170_);}
	.st175{fill:url(#SVGID_171_);}
	.st176{fill:url(#SVGID_172_);}
	.st177{fill:url(#SVGID_173_);}
	.st178{fill:url(#SVGID_174_);}
	.st179{fill:url(#SVGID_175_);}
	.st180{fill:url(#SVGID_176_);}
	.st181{fill:url(#SVGID_177_);}
	.st182{fill:url(#SVGID_178_);}
	.st183{fill:url(#SVGID_179_);}
	.st184{fill:url(#SVGID_180_);}
	.st185{fill:url(#SVGID_181_);}
	.st186{fill:url(#SVGID_182_);}
	.st187{fill:url(#SVGID_183_);}
	.st188{fill:url(#SVGID_184_);}
	.st189{fill:url(#SVGID_185_);}
	.st190{fill:url(#SVGID_186_);}
	.st191{fill:url(#SVGID_187_);}
	.st192{fill:url(#SVGID_188_);}
	.st193{fill:url(#SVGID_189_);}
</style>
<g>
	<g>
		<g>
			<path class="st61" d="M210.3,105.8c-2.1-0.8-3.9-1.9-5.5-3.1c-0.8-0.6-1.6-1.3-2.4-2c-0.8-0.7-1.5-1.4-2.1-2.3
				c-1.2-1.7-2.1-3.7-3.4-5.3c-1.3-1.6-3-2.8-4.7-3.9c-1.8-1.1-3.5-2.3-5.1-3.6c-1.6-1.3-3.2-2.6-4.6-4.1c-1.4-1.5-2.7-3.1-3.9-4.8
				c-1.2-1.7-2.3-3.5-3.1-5.6l0.4-0.4c2.1,0.8,3.8,2,5.6,3.1c1.7,1.2,3.3,2.5,4.8,3.9c1.5,1.4,2.8,3,4.1,4.6
				c1.4,1.5,2.5,3.3,3.6,5.1c1.1,1.8,2.4,3.4,3.9,4.7c1.6,1.3,3.6,2.2,5.3,3.4c0.8,0.6,1.6,1.3,2.3,2.1c0.7,0.8,1.4,1.5,2,2.4
				c1.2,1.7,2.4,3.4,3.1,5.5L210.3,105.8z"/>
		</g>
		<g>
			<path class="st61" d="M175.6,71c-6-5.5-12-11.1-17.9-16.8l-8.9-8.5l-8.8-8.5h2.3l-8.8,9.1l-8.9,9.1l-8.9,9.1l-8.9,9v-3.1
				c8.9,8.7,17.6,17.6,26.3,26.5l25.9,27c8.6,9,17.3,18,26.1,26.8c8.8,8.8,17.6,17.6,26.6,26.3l-1.4,1.4l-0.6-0.6h1.4l-16.5,17.8
				c-5.5,5.9-11.2,11.7-16.8,17.5c-5.7,5.8-11.2,11.6-17,17.3l-4.3,4.3l-4.3,4.2c-2.9,2.8-5.8,5.7-8.7,8.4l-1.8,1.7l-1.6-1.7
				l-17.3-17.8c-5.8-5.9-11.5-11.9-17.2-17.9c-5.7-6-11.4-12-17.1-18c-5.7-6-11.4-12-17-18.1l0.4-0.4c6.1,5.6,12.1,11.3,18.1,17
				c6,5.7,12,11.4,18,17.1c6,5.7,11.9,11.5,17.9,17.2l17.8,17.3h-3.4c2.8-2.9,5.6-5.8,8.4-8.7l4.2-4.3l4.3-4.3
				c5.7-5.7,11.6-11.3,17.3-17c5.8-5.6,11.6-11.3,17.5-16.8l17.8-16.5l0.8-0.7l0.7,0.7l0.6,0.6l-1.4,1.4
				c-8.7-8.9-17.4-17.8-26.3-26.6c-8.8-8.8-17.8-17.5-26.8-26.1l-27-25.9c-8.9-8.7-17.8-17.5-26.5-26.3L102,72l1.6-1.5l9-8.9
				l9.1-8.9l9.1-8.9l9.1-8.8l1.2-1.2l1.1,1.2l8.5,8.8l8.5,8.9c5.6,5.9,11.2,11.9,16.8,17.9L175.6,71z"/>
		</g>
		<g>
			<path class="st61" d="M105.3,72.2c-2.5,3.1-5.2,6.1-7.8,9.1c-2.7,3-5.3,5.9-8.1,8.9c-5.4,5.9-11,11.6-16.6,17.3v-3.2
				c5.9,5.7,11.5,11.7,17,17.8c5.5,6.1,11,12.2,16.8,18c5.8,5.8,11.6,11.6,17.6,17.2c5.9,5.7,12,11.2,18.2,16.6l-3,3
				c-5.4-6.2-11-12.2-16.6-18.2c-5.6-6-11.4-11.8-17.2-17.6c-5.8-5.8-11.9-11.3-18-16.8c-6.1-5.5-12.1-11.1-17.8-17l-1.6-1.6
				l1.6-1.6c5.7-5.6,11.4-11.1,17.3-16.6c2.9-2.7,5.9-5.4,8.9-8.1c3-2.6,6-5.3,9.1-7.8L105.3,72.2z"/>
		</g>
		<linearGradient id="SVGID_1_" gradientUnits="userSpaceOnUse" x1="76.9607" y1="111.6438" x2="169.2555" y2="203.9386">
			<stop  offset="0" style="stop-color:#009FD8"/>
			<stop  offset="0.3442" style="stop-color:#E45135"/>
			<stop  offset="0.6558" style="stop-color:#E9A447"/>
			<stop  offset="1" style="stop-color:#009FD8"/>
		</linearGradient>
		<circle class="st3" cx="71.6" cy="106.3" r="18.7"/>
		<linearGradient id="SVGID_2_" gradientUnits="userSpaceOnUse" x1="76.9607" y1="111.6438" x2="169.2555" y2="203.9386">
			<stop  offset="0" style="stop-color:#009FD8"/>
			<stop  offset="0.3442" style="stop-color:#E45135"/>
			<stop  offset="0.6558" style="stop-color:#E9A447"/>
			<stop  offset="1" style="stop-color:#009FD8"/>
		</linearGradient>
		<circle class="st4" cx="106.2" cy="140.9" r="18.7"/>
		<linearGradient id="SVGID_3_" gradientUnits="userSpaceOnUse" x1="76.9607" y1="111.6438" x2="169.2555" y2="203.9386">
			<stop  offset="0" style="stop-color:#009FD8"/>
			<stop  offset="0.3442" style="stop-color:#E45135"/>
			<stop  offset="0.6558" style="stop-color:#E9A447"/>
			<stop  offset="1" style="stop-color:#009FD8"/>
		</linearGradient>
		<circle class="st5" cx="140.8" cy="175.5" r="18.7"/>
		<linearGradient id="SVGID_4_" gradientUnits="userSpaceOnUse" x1="76.9607" y1="111.6438" x2="169.2555" y2="203.9386">
			<stop  offset="0" style="stop-color:#009FD8"/>
			<stop  offset="0.3442" style="stop-color:#E45135"/>
			<stop  offset="0.6558" style="stop-color:#E9A447"/>
			<stop  offset="1" style="stop-color:#009FD8"/>
		</linearGradient>
		<circle class="st6" cx="175.6" cy="210.3" r="17.4"/>
		<linearGradient id="SVGID_5_" gradientUnits="userSpaceOnUse" x1="111.7844" y1="76.8201" x2="204.0792" y2="169.1149">
			<stop  offset="0" style="stop-color:#009FD8"/>
			<stop  offset="0.3442" style="stop-color:#E45135"/>
			<stop  offset="0.6558" style="stop-color:#E9A447"/>
			<stop  offset="1" style="stop-color:#009FD8"/>
		</linearGradient>
		<circle class="st7" cx="210.5" cy="175.5" r="19"/>
		<linearGradient id="SVGID_6_" gradientUnits="userSpaceOnUse" x1="111.7749" y1="76.8295" x2="204.0698" y2="169.1244">
			<stop  offset="0" style="stop-color:#009FD8"/>
			<stop  offset="0.3442" style="stop-color:#E45135"/>
			<stop  offset="0.6558" style="stop-color:#E9A447"/>
			<stop  offset="1" style="stop-color:#009FD8"/>
		</linearGradient>
		<circle class="st8" cx="175.6" cy="140.7" r="18.4"/>
		<linearGradient id="SVGID_7_" gradientUnits="userSpaceOnUse" x1="112.03" y1="76.5744" x2="204.3249" y2="168.8693">
			<stop  offset="0" style="stop-color:#009FD8"/>
			<stop  offset="0.3442" style="stop-color:#E45135"/>
			<stop  offset="0.6558" style="stop-color:#E9A447"/>
			<stop  offset="1" style="stop-color:#009FD8"/>
		</linearGradient>
		<circle class="st9" cx="141.1" cy="105.6" r="18.4"/>
		<linearGradient id="SVGID_8_" gradientUnits="userSpaceOnUse" x1="111.8647" y1="76.7398" x2="204.1595" y2="169.0346">
			<stop  offset="0" style="stop-color:#009FD8"/>
			<stop  offset="0.3442" style="stop-color:#E45135"/>
			<stop  offset="0.6558" style="stop-color:#E9A447"/>
			<stop  offset="1" style="stop-color:#009FD8"/>
		</linearGradient>
		<circle class="st10" cx="106" cy="70.9" r="17.9"/>
		<linearGradient id="SVGID_9_" gradientUnits="userSpaceOnUse" x1="146.7687" y1="41.8358" x2="239.0636" y2="134.1306">
			<stop  offset="0" style="stop-color:#009FD8"/>
			<stop  offset="0.3442" style="stop-color:#E45135"/>
			<stop  offset="0.6558" style="stop-color:#E9A447"/>
			<stop  offset="1" style="stop-color:#009FD8"/>
		</linearGradient>
		<circle class="st11" cx="141.1" cy="36.1" r="13.5"/>
		<linearGradient id="SVGID_10_" gradientUnits="userSpaceOnUse" x1="42.085" y1="146.5194" x2="134.3799" y2="238.8143">
			<stop  offset="0" style="stop-color:#009FD8"/>
			<stop  offset="0.3442" style="stop-color:#E45135"/>
			<stop  offset="0.6558" style="stop-color:#E9A447"/>
			<stop  offset="1" style="stop-color:#009FD8"/>
		</linearGradient>
		<circle class="st12" cx="140.8" cy="245.2" r="13.5"/>
		<linearGradient id="SVGID_11_" gradientUnits="userSpaceOnUse" x1="54.4396" y1="161.9122" x2="116.1133" y2="219.958">
			<stop  offset="0" style="stop-color:#009FD8"/>
			<stop  offset="0.3442" style="stop-color:#E45135"/>
			<stop  offset="0.6558" style="stop-color:#E9A447"/>
			<stop  offset="1" style="stop-color:#009FD8"/>
		</linearGradient>
		<circle class="st13" cx="106.1" cy="210.5" r="11.3"/>
		<linearGradient id="SVGID_12_" gradientUnits="userSpaceOnUse" x1="55.4698" y1="160.8177" x2="117.1434" y2="218.8635">
			<stop  offset="0" style="stop-color:#009FD8"/>
			<stop  offset="0.3442" style="stop-color:#E45135"/>
			<stop  offset="0.6558" style="stop-color:#E9A447"/>
			<stop  offset="1" style="stop-color:#009FD8"/>
		</linearGradient>
		<circle class="st14" cx="71.3" cy="175.7" r="9.6"/>
		<linearGradient id="SVGID_13_" gradientUnits="userSpaceOnUse" x1="222.7968" y1="128.1767" x2="163.9448" y2="56.4256">
			<stop  offset="0" style="stop-color:#009FD8"/>
			<stop  offset="0.3442" style="stop-color:#E45135"/>
			<stop  offset="0.6558" style="stop-color:#E9A447"/>
			<stop  offset="1" style="stop-color:#009FD8"/>
		</linearGradient>
		<circle class="st15" cx="175.7" cy="70.8" r="11.3"/>
		<linearGradient id="SVGID_14_" gradientUnits="userSpaceOnUse" x1="226.524" y1="125.1195" x2="167.672" y2="53.3685">
			<stop  offset="0" style="stop-color:#009FD8"/>
			<stop  offset="0.3442" style="stop-color:#E45135"/>
			<stop  offset="0.6558" style="stop-color:#E9A447"/>
			<stop  offset="1" style="stop-color:#009FD8"/>
		</linearGradient>
		<circle class="st16" cx="210.5" cy="105.6" r="9.6"/>
	</g>
</g>
</svg>
