<?xml version="1.0" encoding="utf-8"?>
<!-- Generator: Adobe Illustrator 24.0.1, SVG Export Plug-In . SVG Version: 6.00 Build 0)  -->
<svg version="1.1" id="Layer_1" xmlns="http://www.w3.org/2000/svg" xmlns:xlink="http://www.w3.org/1999/xlink" x="0px" y="0px"
	 viewBox="0 0 320 320" style="enable-background:new 0 0 320 320;" xml:space="preserve">
<style type="text/css">
	.st0{opacity:5.000000e-02;fill:url(#SVGID_3_);enable-background:new    ;}
	.st1{opacity:0.7;}
	.st2{fill:#009FD8;}
	.st3{opacity:0.2;fill:#008CB2;enable-background:new    ;}
	.st4{fill:#E44235;}
	.st5{fill:#FFFFFF;}
	.st6{opacity:0.72;stroke:#FFFFFF;stroke-miterlimit:10;enable-background:new    ;}
	.st7{fill:none;stroke:url(#SVGID_4_);stroke-width:0.5;stroke-miterlimit:10;}
	.st8{fill:#0084A3;}
	.st9{fill:#0094BC;}
	.st10{fill-rule:evenodd;clip-rule:evenodd;fill:#FFFFFF;}
	.st11{opacity:0.8;}
	.st12{opacity:0.72;}
	.st13{fill:none;stroke:#FFFFFF;stroke-miterlimit:10;}
	.st14{fill:url(#SVGID_5_);}
	.st15{fill:url(#SVGID_6_);}
	.st16{fill:url(#SVGID_7_);}
	.st17{fill:url(#SVGID_8_);}
	.st18{fill:url(#SVGID_9_);}
	.st19{fill:url(#SVGID_10_);}
	.st20{fill:url(#SVGID_11_);}
	.st21{fill:url(#SVGID_12_);}
	.st22{fill:url(#SVGID_13_);}
	.st23{fill:url(#SVGID_14_);}
	.st24{fill:url(#SVGID_15_);}
	.st25{fill:url(#SVGID_16_);}
	.st26{fill:url(#SVGID_17_);}
	.st27{fill:url(#SVGID_18_);}
	.st28{opacity:0.1;fill:#0084A3;enable-background:new    ;}
	.st29{opacity:0.4;fill:#EAE9E8;enable-background:new    ;}
	.st30{fill:none;stroke:#999999;stroke-width:0.5;stroke-miterlimit:10;stroke-dasharray:1;}
	.st31{fill:url(#SVGID_19_);}
	.st32{fill:url(#SVGID_20_);}
	.st33{fill:url(#SVGID_21_);}
	.st34{fill:url(#SVGID_22_);}
	.st35{fill:url(#SVGID_23_);}
	.st36{fill:url(#SVGID_24_);}
	.st37{fill:url(#SVGID_25_);}
	.st38{fill:url(#SVGID_26_);}
	.st39{fill:url(#SVGID_27_);}
	.st40{fill:url(#SVGID_28_);}
	.st41{fill:url(#SVGID_29_);}
	.st42{fill:url(#SVGID_30_);}
	.st43{fill:url(#SVGID_31_);}
	.st44{fill:url(#SVGID_32_);}
	.st45{fill:url(#SVGID_33_);}
	.st46{fill:none;stroke:#009FD8;stroke-width:0.5;stroke-miterlimit:10;stroke-dasharray:1;}
	.st47{fill:url(#SVGID_34_);}
	.st48{opacity:0.72;enable-background:new    ;}
	.st49{fill:none;stroke:#009FD8;stroke-miterlimit:10;}
	.st50{fill:none;stroke:#0068D8;stroke-miterlimit:10;}
	.st51{fill:#F4F4F4;}
	.st52{fill-rule:evenodd;clip-rule:evenodd;fill:#009FD8;}
	.st53{opacity:0.4;fill-rule:evenodd;clip-rule:evenodd;fill:#EAE9E8;enable-background:new    ;}
	.st54{opacity:0.2;fill-rule:evenodd;clip-rule:evenodd;fill:url(#SVGID_35_);enable-background:new    ;}
	.st55{fill-rule:evenodd;clip-rule:evenodd;fill:url(#SVGID_36_);}
	.st56{fill-rule:evenodd;clip-rule:evenodd;fill:url(#SVGID_37_);}
	.st57{fill-rule:evenodd;clip-rule:evenodd;fill:url(#SVGID_38_);}
	.st58{fill-rule:evenodd;clip-rule:evenodd;fill:url(#SVGID_39_);}
	.st59{fill-rule:evenodd;clip-rule:evenodd;fill:url(#SVGID_40_);}
	.st60{fill-rule:evenodd;clip-rule:evenodd;fill:url(#SVGID_41_);}
	.st61{fill-rule:evenodd;clip-rule:evenodd;fill:url(#SVGID_42_);}
	.st62{fill-rule:evenodd;clip-rule:evenodd;fill:url(#SVGID_43_);}
	.st63{fill-rule:evenodd;clip-rule:evenodd;fill:url(#SVGID_44_);}
	.st64{fill-rule:evenodd;clip-rule:evenodd;fill:url(#SVGID_45_);}
	.st65{fill-rule:evenodd;clip-rule:evenodd;fill:url(#SVGID_46_);}
	.st66{fill-rule:evenodd;clip-rule:evenodd;fill:url(#SVGID_47_);}
	.st67{fill-rule:evenodd;clip-rule:evenodd;fill:url(#SVGID_48_);}
	.st68{fill-rule:evenodd;clip-rule:evenodd;fill:url(#SVGID_49_);}
	.st69{fill-rule:evenodd;clip-rule:evenodd;fill:url(#SVGID_50_);}
	.st70{fill-rule:evenodd;clip-rule:evenodd;fill:url(#SVGID_51_);}
	.st71{fill-rule:evenodd;clip-rule:evenodd;fill:url(#SVGID_52_);}
	.st72{fill-rule:evenodd;clip-rule:evenodd;fill:url(#SVGID_53_);}
	.st73{fill-rule:evenodd;clip-rule:evenodd;fill:url(#SVGID_54_);}
	.st74{fill-rule:evenodd;clip-rule:evenodd;fill:url(#SVGID_55_);}
	.st75{fill-rule:evenodd;clip-rule:evenodd;fill:url(#SVGID_56_);}
	.st76{fill-rule:evenodd;clip-rule:evenodd;fill:url(#SVGID_57_);}
	.st77{fill-rule:evenodd;clip-rule:evenodd;fill:url(#SVGID_58_);}
	.st78{fill-rule:evenodd;clip-rule:evenodd;fill:url(#SVGID_59_);}
	.st79{fill-rule:evenodd;clip-rule:evenodd;fill:url(#SVGID_60_);}
	.st80{fill-rule:evenodd;clip-rule:evenodd;fill:url(#SVGID_61_);}
	.st81{fill-rule:evenodd;clip-rule:evenodd;fill:url(#SVGID_62_);}
	.st82{fill-rule:evenodd;clip-rule:evenodd;fill:url(#SVGID_63_);}
	.st83{fill-rule:evenodd;clip-rule:evenodd;fill:url(#SVGID_64_);}
	.st84{fill-rule:evenodd;clip-rule:evenodd;fill:url(#SVGID_65_);}
	.st85{fill-rule:evenodd;clip-rule:evenodd;fill:url(#SVGID_66_);}
	.st86{fill-rule:evenodd;clip-rule:evenodd;fill:url(#SVGID_67_);}
	.st87{fill-rule:evenodd;clip-rule:evenodd;fill:url(#SVGID_68_);}
	.st88{fill-rule:evenodd;clip-rule:evenodd;fill:url(#SVGID_69_);}
	.st89{fill-rule:evenodd;clip-rule:evenodd;fill:url(#SVGID_70_);}
	.st90{fill-rule:evenodd;clip-rule:evenodd;fill:url(#SVGID_71_);}
	.st91{fill-rule:evenodd;clip-rule:evenodd;fill:url(#SVGID_72_);}
	.st92{fill-rule:evenodd;clip-rule:evenodd;fill:url(#SVGID_73_);}
	.st93{fill-rule:evenodd;clip-rule:evenodd;fill:url(#SVGID_74_);}
	.st94{fill-rule:evenodd;clip-rule:evenodd;fill:url(#SVGID_75_);}
	.st95{fill-rule:evenodd;clip-rule:evenodd;fill:url(#SVGID_76_);}
	.st96{fill-rule:evenodd;clip-rule:evenodd;fill:url(#SVGID_77_);}
	.st97{fill-rule:evenodd;clip-rule:evenodd;fill:url(#SVGID_78_);}
	.st98{fill-rule:evenodd;clip-rule:evenodd;fill:url(#SVGID_79_);}
	.st99{fill-rule:evenodd;clip-rule:evenodd;fill:url(#SVGID_80_);}
	.st100{fill-rule:evenodd;clip-rule:evenodd;fill:url(#SVGID_81_);}
	.st101{fill-rule:evenodd;clip-rule:evenodd;fill:url(#SVGID_82_);}
	.st102{fill-rule:evenodd;clip-rule:evenodd;fill:url(#SVGID_83_);}
	.st103{fill-rule:evenodd;clip-rule:evenodd;fill:url(#SVGID_84_);}
	.st104{fill-rule:evenodd;clip-rule:evenodd;fill:url(#SVGID_85_);}
	.st105{fill-rule:evenodd;clip-rule:evenodd;fill:url(#SVGID_86_);}
	.st106{fill-rule:evenodd;clip-rule:evenodd;fill:url(#SVGID_87_);}
	.st107{fill-rule:evenodd;clip-rule:evenodd;fill:url(#SVGID_88_);}
	.st108{fill-rule:evenodd;clip-rule:evenodd;fill:url(#SVGID_89_);}
	.st109{fill-rule:evenodd;clip-rule:evenodd;fill:url(#SVGID_90_);}
	.st110{fill-rule:evenodd;clip-rule:evenodd;fill:url(#SVGID_91_);}
	.st111{fill-rule:evenodd;clip-rule:evenodd;fill:url(#SVGID_92_);}
	.st112{fill-rule:evenodd;clip-rule:evenodd;fill:url(#SVGID_93_);}
	.st113{fill-rule:evenodd;clip-rule:evenodd;fill:url(#SVGID_94_);}
	.st114{fill-rule:evenodd;clip-rule:evenodd;fill:url(#SVGID_95_);}
	.st115{fill-rule:evenodd;clip-rule:evenodd;fill:url(#SVGID_96_);}
	.st116{fill-rule:evenodd;clip-rule:evenodd;fill:url(#SVGID_97_);}
	.st117{fill-rule:evenodd;clip-rule:evenodd;fill:url(#SVGID_98_);}
	.st118{fill-rule:evenodd;clip-rule:evenodd;fill:url(#SVGID_99_);}
	.st119{fill-rule:evenodd;clip-rule:evenodd;fill:url(#SVGID_100_);}
	.st120{fill-rule:evenodd;clip-rule:evenodd;fill:url(#SVGID_101_);}
	.st121{fill-rule:evenodd;clip-rule:evenodd;fill:url(#SVGID_102_);}
	.st122{fill-rule:evenodd;clip-rule:evenodd;fill:url(#SVGID_103_);}
	.st123{fill-rule:evenodd;clip-rule:evenodd;fill:url(#SVGID_104_);}
	.st124{fill-rule:evenodd;clip-rule:evenodd;fill:url(#SVGID_105_);}
	.st125{fill-rule:evenodd;clip-rule:evenodd;fill:url(#SVGID_106_);}
	.st126{fill-rule:evenodd;clip-rule:evenodd;fill:url(#SVGID_107_);}
	.st127{fill-rule:evenodd;clip-rule:evenodd;fill:url(#SVGID_108_);}
	.st128{fill-rule:evenodd;clip-rule:evenodd;fill:url(#SVGID_109_);}
	.st129{fill-rule:evenodd;clip-rule:evenodd;fill:url(#SVGID_110_);}
	.st130{fill-rule:evenodd;clip-rule:evenodd;fill:url(#SVGID_111_);}
	.st131{fill-rule:evenodd;clip-rule:evenodd;fill:url(#SVGID_112_);}
	.st132{fill-rule:evenodd;clip-rule:evenodd;fill:url(#SVGID_113_);}
	.st133{opacity:0.2;fill-rule:evenodd;clip-rule:evenodd;fill:url(#SVGID_114_);enable-background:new    ;}
	.st134{fill:#FFFFFF;stroke:url(#SVGID_115_);stroke-miterlimit:10;}
	.st135{fill:url(#SVGID_116_);}
	.st136{fill:url(#SVGID_117_);}
	.st137{fill:url(#SVGID_118_);}
	.st138{fill:url(#SVGID_119_);}
	.st139{fill:#FFFFFF;stroke:url(#SVGID_120_);stroke-miterlimit:10;}
	.st140{fill:url(#SVGID_121_);}
	.st141{fill:url(#SVGID_122_);}
	.st142{fill:url(#SVGID_123_);}
	.st143{fill:url(#SVGID_124_);}
	.st144{fill-rule:evenodd;clip-rule:evenodd;fill:url(#SVGID_125_);}
	.st145{fill-rule:evenodd;clip-rule:evenodd;fill:url(#SVGID_126_);}
	.st146{fill-rule:evenodd;clip-rule:evenodd;fill:url(#SVGID_127_);}
	.st147{fill-rule:evenodd;clip-rule:evenodd;fill:url(#SVGID_128_);}
	.st148{fill-rule:evenodd;clip-rule:evenodd;fill:url(#SVGID_129_);}
	.st149{fill-rule:evenodd;clip-rule:evenodd;fill:url(#SVGID_130_);}
	.st150{fill-rule:evenodd;clip-rule:evenodd;fill:url(#SVGID_131_);}
	.st151{fill-rule:evenodd;clip-rule:evenodd;fill:url(#SVGID_132_);}
	.st152{fill-rule:evenodd;clip-rule:evenodd;fill:url(#SVGID_133_);}
	.st153{fill-rule:evenodd;clip-rule:evenodd;fill:url(#SVGID_134_);}
	.st154{fill-rule:evenodd;clip-rule:evenodd;fill:url(#SVGID_135_);}
	.st155{fill-rule:evenodd;clip-rule:evenodd;fill:url(#SVGID_136_);}
	.st156{fill-rule:evenodd;clip-rule:evenodd;fill:url(#SVGID_137_);}
	.st157{fill-rule:evenodd;clip-rule:evenodd;fill:url(#SVGID_138_);}
	.st158{fill-rule:evenodd;clip-rule:evenodd;fill:url(#SVGID_139_);}
	.st159{fill-rule:evenodd;clip-rule:evenodd;fill:url(#SVGID_140_);}
	.st160{fill-rule:evenodd;clip-rule:evenodd;fill:url(#SVGID_141_);}
	.st161{fill-rule:evenodd;clip-rule:evenodd;fill:url(#SVGID_142_);}
	.st162{fill-rule:evenodd;clip-rule:evenodd;fill:url(#SVGID_143_);}
	.st163{fill-rule:evenodd;clip-rule:evenodd;fill:url(#SVGID_144_);}
	.st164{fill-rule:evenodd;clip-rule:evenodd;fill:url(#SVGID_145_);}
	.st165{fill-rule:evenodd;clip-rule:evenodd;fill:url(#SVGID_146_);}
	.st166{fill-rule:evenodd;clip-rule:evenodd;fill:url(#SVGID_147_);}
	.st167{fill-rule:evenodd;clip-rule:evenodd;fill:url(#SVGID_148_);}
	.st168{fill-rule:evenodd;clip-rule:evenodd;fill:url(#SVGID_149_);}
	.st169{fill-rule:evenodd;clip-rule:evenodd;fill:url(#SVGID_150_);}
	.st170{fill-rule:evenodd;clip-rule:evenodd;fill:url(#SVGID_151_);}
	.st171{fill-rule:evenodd;clip-rule:evenodd;fill:url(#SVGID_152_);}
	.st172{fill-rule:evenodd;clip-rule:evenodd;fill:url(#SVGID_153_);}
	.st173{fill-rule:evenodd;clip-rule:evenodd;fill:url(#SVGID_154_);}
	.st174{fill-rule:evenodd;clip-rule:evenodd;fill:url(#SVGID_155_);}
	.st175{fill-rule:evenodd;clip-rule:evenodd;fill:url(#SVGID_156_);}
	.st176{fill-rule:evenodd;clip-rule:evenodd;fill:url(#SVGID_157_);}
	.st177{fill-rule:evenodd;clip-rule:evenodd;fill:url(#SVGID_158_);}
	.st178{fill-rule:evenodd;clip-rule:evenodd;fill:url(#SVGID_159_);}
	.st179{fill-rule:evenodd;clip-rule:evenodd;fill:url(#SVGID_160_);}
	.st180{fill-rule:evenodd;clip-rule:evenodd;fill:url(#SVGID_161_);}
	.st181{fill-rule:evenodd;clip-rule:evenodd;fill:url(#SVGID_162_);}
	.st182{fill-rule:evenodd;clip-rule:evenodd;fill:url(#SVGID_163_);}
	.st183{fill-rule:evenodd;clip-rule:evenodd;fill:url(#SVGID_164_);}
	.st184{fill-rule:evenodd;clip-rule:evenodd;fill:url(#SVGID_165_);}
	.st185{fill-rule:evenodd;clip-rule:evenodd;fill:url(#SVGID_166_);}
	.st186{fill-rule:evenodd;clip-rule:evenodd;fill:url(#SVGID_167_);}
	.st187{fill-rule:evenodd;clip-rule:evenodd;fill:url(#SVGID_168_);}
	.st188{fill-rule:evenodd;clip-rule:evenodd;fill:url(#SVGID_169_);}
	.st189{fill-rule:evenodd;clip-rule:evenodd;fill:url(#SVGID_170_);}
	.st190{fill-rule:evenodd;clip-rule:evenodd;fill:url(#SVGID_171_);}
	.st191{fill-rule:evenodd;clip-rule:evenodd;fill:url(#SVGID_172_);}
	.st192{fill-rule:evenodd;clip-rule:evenodd;fill:url(#SVGID_173_);}
	.st193{fill-rule:evenodd;clip-rule:evenodd;fill:url(#SVGID_174_);}
	.st194{opacity:0.1;fill:url(#SVGID_175_);enable-background:new    ;}
	.st195{fill:url(#SVGID_176_);}
	.st196{fill:url(#SVGID_177_);}
	.st197{opacity:0.3;}
	.st198{fill:url(#SVGID_178_);}
	.st199{fill:url(#SVGID_179_);}
	.st200{opacity:0.3;fill:#009FD8;enable-background:new    ;}
	.st201{fill:url(#SVGID_180_);}
	.st202{fill:#ECECEC;}
	.st203{fill:#007CFF;}
	.st204{fill:#1A2E35;}
	.st205{opacity:0.2;fill:#007CFF;enable-background:new    ;}
	.st206{opacity:0.5;fill:#FFFFFF;enable-background:new    ;}
	.st207{opacity:0.4;fill:#007CFF;enable-background:new    ;}
	.st208{opacity:0.8;fill:#FFFFFF;enable-background:new    ;}
	.st209{opacity:0.5;fill:#007CFF;enable-background:new    ;}
	.st210{fill:url(#SVGID_181_);}
	.st211{fill:url(#SVGID_182_);}
	.st212{opacity:0.3;fill:#007CFF;enable-background:new    ;}
	.st213{opacity:0.8;fill-rule:evenodd;clip-rule:evenodd;fill:#FFFFFF;enable-background:new    ;}
	.st214{opacity:5.000000e-02;fill:url(#SVGID_183_);enable-background:new    ;}
	.st215{fill:url(#SVGID_184_);}
	.st216{fill:url(#SVGID_185_);}
	.st217{fill:#E7E7E7;}
	.st218{fill:#E1E1E1;}
	.st219{opacity:0.5;fill:#FAFAFA;enable-background:new    ;}
	.st220{opacity:0.6;fill:#FFFFFF;enable-background:new    ;}
	.st221{fill:#F0F0F0;}
	.st222{fill:#121F23;}
	.st223{opacity:0.1;enable-background:new    ;}
	.st224{fill:none;stroke:#007CFF;stroke-linecap:round;stroke-linejoin:round;stroke-miterlimit:10;}
	.st225{fill:none;stroke:#007CFF;stroke-miterlimit:10;}
	.st226{opacity:0.4;fill:#FFFFFF;enable-background:new    ;}
	.st227{opacity:0.3;fill:#FFFFFF;enable-background:new    ;}
	.st228{opacity:0.2;fill:#FFFFFF;enable-background:new    ;}
	.st229{opacity:0.6;fill:#1A2E35;enable-background:new    ;}
</style>
<g>
	<path class="st53" d="M111.8,53.9c-11.2,21.3-2,49.2-24.3,68.4c-12.2,10.5-51.1,20.9-51.9,39.7c-0.9,22.9,53.2,27.2,64.1,67.2
		c3.4,12.6,0,23.4-2.8,35.7c-2,8.8-1.3,19.9,6.6,24.5c3.2,1.9,7,2.3,10.6,2.4c21.3,1,41.8-5.7,59.9-16.6
		c27.9-16.9,40.4-51.3,67.5-66.9c13.8-7.9,28.7,2.7,41.9-5.6c15.5-9.7,15.9-36.3,8.5-51c-16.1-32.2-100.5-21.1-59.6-73
		c44.5-56.6-87.4-62.6-114.7-33.3C115.3,48.2,113.3,51,111.8,53.9z"/>
	
		<linearGradient id="SVGID_3_" gradientUnits="userSpaceOnUse" x1="110.25" y1="2860.2039" x2="110.25" y2="2860.9431" gradientTransform="matrix(1 0 0 -1 0 3131.3333)">
		<stop  offset="0" style="stop-color:#328AB6"/>
		<stop  offset="1" style="stop-color:#0068D8"/>
	</linearGradient>
	<circle style="fill-rule:evenodd;clip-rule:evenodd;fill:url(#SVGID_3_);" cx="110.2" cy="270.8" r="0.4"/>
	
		<linearGradient id="SVGID_4_" gradientUnits="userSpaceOnUse" x1="118.35" y1="2862.301" x2="118.35" y2="2863.4714" gradientTransform="matrix(1 0 0 -1 0 3131.3333)">
		<stop  offset="0" style="stop-color:#328AB6"/>
		<stop  offset="1" style="stop-color:#0068D8"/>
	</linearGradient>
	<circle style="fill-rule:evenodd;clip-rule:evenodd;fill:url(#SVGID_4_);" cx="118.3" cy="268.5" r="0.6"/>
	
		<linearGradient id="SVGID_5_" gradientUnits="userSpaceOnUse" x1="122.85" y1="2859.0566" x2="122.85" y2="2860.2271" gradientTransform="matrix(1 0 0 -1 0 3131.3333)">
		<stop  offset="0" style="stop-color:#328AB6"/>
		<stop  offset="1" style="stop-color:#0068D8"/>
	</linearGradient>
	<circle style="fill-rule:evenodd;clip-rule:evenodd;fill:url(#SVGID_5_);" cx="122.8" cy="271.7" r="0.6"/>
	
		<linearGradient id="SVGID_6_" gradientUnits="userSpaceOnUse" x1="139.65" y1="2855.209" x2="139.65" y2="2856.3794" gradientTransform="matrix(1 0 0 -1 0 3131.3333)">
		<stop  offset="0" style="stop-color:#328AB6"/>
		<stop  offset="1" style="stop-color:#0068D8"/>
	</linearGradient>
	<circle style="fill-rule:evenodd;clip-rule:evenodd;fill:url(#SVGID_6_);" cx="139.7" cy="275.6" r="0.6"/>
	
		<linearGradient id="SVGID_7_" gradientUnits="userSpaceOnUse" x1="148.05" y1="2863.6709" x2="148.05" y2="2864.8413" gradientTransform="matrix(1 0 0 -1 0 3131.3333)">
		<stop  offset="0" style="stop-color:#328AB6"/>
		<stop  offset="1" style="stop-color:#0068D8"/>
	</linearGradient>
	<circle style="fill-rule:evenodd;clip-rule:evenodd;fill:url(#SVGID_7_);" cx="148" cy="267.1" r="0.6"/>
	
		<linearGradient id="SVGID_8_" gradientUnits="userSpaceOnUse" x1="107.55" y1="2861.2996" x2="107.55" y2="2862.47" gradientTransform="matrix(1 0 0 -1 0 3131.3333)">
		<stop  offset="0" style="stop-color:#328AB6"/>
		<stop  offset="1" style="stop-color:#0068D8"/>
	</linearGradient>
	<circle style="fill-rule:evenodd;clip-rule:evenodd;fill:url(#SVGID_8_);" cx="107.5" cy="269.5" r="0.6"/>
	
		<linearGradient id="SVGID_9_" gradientUnits="userSpaceOnUse" x1="105.85" y1="2858.0654" x2="105.85" y2="2858.8047" gradientTransform="matrix(1 0 0 -1 0 3131.3333)">
		<stop  offset="0" style="stop-color:#328AB6"/>
		<stop  offset="1" style="stop-color:#0068D8"/>
	</linearGradient>
	<path style="fill-rule:evenodd;clip-rule:evenodd;fill:url(#SVGID_9_);" d="M105.8,272.5c0.2,0,0.4,0.2,0.4,0.4s-0.2,0.4-0.4,0.4
		c-0.2,0-0.4-0.2-0.4-0.4S105.6,272.5,105.8,272.5z"/>
	
		<linearGradient id="SVGID_10_" gradientUnits="userSpaceOnUse" x1="116.15" y1="2857.8005" x2="116.15" y2="2858.5398" gradientTransform="matrix(1 0 0 -1 0 3131.3333)">
		<stop  offset="0" style="stop-color:#328AB6"/>
		<stop  offset="1" style="stop-color:#0068D8"/>
	</linearGradient>
	<circle style="fill-rule:evenodd;clip-rule:evenodd;fill:url(#SVGID_10_);" cx="116.2" cy="273.2" r="0.4"/>
	
		<linearGradient id="SVGID_11_" gradientUnits="userSpaceOnUse" x1="128.95" y1="2855.0623" x2="128.95" y2="2855.8015" gradientTransform="matrix(1 0 0 -1 0 3131.3333)">
		<stop  offset="0" style="stop-color:#328AB6"/>
		<stop  offset="1" style="stop-color:#0068D8"/>
	</linearGradient>
	<circle style="fill-rule:evenodd;clip-rule:evenodd;fill:url(#SVGID_11_);" cx="128.9" cy="275.9" r="0.4"/>
	
		<linearGradient id="SVGID_12_" gradientUnits="userSpaceOnUse" x1="158.15" y1="2865.6909" x2="158.15" y2="2866.4302" gradientTransform="matrix(1 0 0 -1 0 3131.3333)">
		<stop  offset="0" style="stop-color:#328AB6"/>
		<stop  offset="1" style="stop-color:#0068D8"/>
	</linearGradient>
	<circle style="fill-rule:evenodd;clip-rule:evenodd;fill:url(#SVGID_12_);" cx="158.2" cy="265.3" r="0.4"/>
	
		<linearGradient id="SVGID_13_" gradientUnits="userSpaceOnUse" x1="151.65" y1="2862.0857" x2="151.65" y2="2862.825" gradientTransform="matrix(1 0 0 -1 0 3131.3333)">
		<stop  offset="0" style="stop-color:#328AB6"/>
		<stop  offset="1" style="stop-color:#0068D8"/>
	</linearGradient>
	<circle style="fill-rule:evenodd;clip-rule:evenodd;fill:url(#SVGID_13_);" cx="151.7" cy="268.9" r="0.4"/>
	
		<linearGradient id="SVGID_14_" gradientUnits="userSpaceOnUse" x1="149.05" y1="2857.8005" x2="149.05" y2="2858.5398" gradientTransform="matrix(1 0 0 -1 0 3131.3333)">
		<stop  offset="0" style="stop-color:#328AB6"/>
		<stop  offset="1" style="stop-color:#0068D8"/>
	</linearGradient>
	<circle style="fill-rule:evenodd;clip-rule:evenodd;fill:url(#SVGID_14_);" cx="149" cy="273.2" r="0.4"/>
	
		<linearGradient id="SVGID_15_" gradientUnits="userSpaceOnUse" x1="137.25" y1="2859.271" x2="137.25" y2="2860.0103" gradientTransform="matrix(1 0 0 -1 0 3131.3333)">
		<stop  offset="0" style="stop-color:#328AB6"/>
		<stop  offset="1" style="stop-color:#0068D8"/>
	</linearGradient>
	<circle style="fill-rule:evenodd;clip-rule:evenodd;fill:url(#SVGID_15_);" cx="137.2" cy="271.7" r="0.4"/>
	
		<linearGradient id="SVGID_16_" gradientUnits="userSpaceOnUse" x1="125.85" y1="2862.4465" x2="125.85" y2="2863.1858" gradientTransform="matrix(1 0 0 -1 0 3131.3333)">
		<stop  offset="0" style="stop-color:#328AB6"/>
		<stop  offset="1" style="stop-color:#0068D8"/>
	</linearGradient>
	<circle style="fill-rule:evenodd;clip-rule:evenodd;fill:url(#SVGID_16_);" cx="125.8" cy="268.5" r="0.4"/>
	
		<linearGradient id="SVGID_17_" gradientUnits="userSpaceOnUse" x1="124.55" y1="2857.0784" x2="124.55" y2="2857.8176" gradientTransform="matrix(1 0 0 -1 0 3131.3333)">
		<stop  offset="0" style="stop-color:#328AB6"/>
		<stop  offset="1" style="stop-color:#0068D8"/>
	</linearGradient>
	<circle style="fill-rule:evenodd;clip-rule:evenodd;fill:url(#SVGID_17_);" cx="124.5" cy="273.9" r="0.4"/>
	
		<linearGradient id="SVGID_18_" gradientUnits="userSpaceOnUse" x1="138.75" y1="2864.9685" x2="138.75" y2="2865.7078" gradientTransform="matrix(1 0 0 -1 0 3131.3333)">
		<stop  offset="0" style="stop-color:#328AB6"/>
		<stop  offset="1" style="stop-color:#0068D8"/>
	</linearGradient>
	<circle style="fill-rule:evenodd;clip-rule:evenodd;fill:url(#SVGID_18_);" cx="138.7" cy="266" r="0.4"/>
	
		<linearGradient id="SVGID_19_" gradientUnits="userSpaceOnUse" x1="108.35" y1="2864.2466" x2="108.35" y2="2864.9858" gradientTransform="matrix(1 0 0 -1 0 3131.3333)">
		<stop  offset="0" style="stop-color:#328AB6"/>
		<stop  offset="1" style="stop-color:#0068D8"/>
	</linearGradient>
	<circle style="fill-rule:evenodd;clip-rule:evenodd;fill:url(#SVGID_19_);" cx="108.3" cy="266.7" r="0.4"/>
	
		<linearGradient id="SVGID_20_" gradientUnits="userSpaceOnUse" x1="82.55" y1="2959.9927" x2="82.55" y2="2960.7927" gradientTransform="matrix(1 0 0 -1 0 3131.3333)">
		<stop  offset="0" style="stop-color:#328AB6"/>
		<stop  offset="1" style="stop-color:#0068D8"/>
	</linearGradient>
	<circle style="fill-rule:evenodd;clip-rule:evenodd;fill:url(#SVGID_20_);" cx="82.5" cy="171" r="0.4"/>
	
		<linearGradient id="SVGID_21_" gradientUnits="userSpaceOnUse" x1="84.15" y1="2984.6238" x2="84.15" y2="2985.4238" gradientTransform="matrix(1 0 0 -1 0 3131.3333)">
		<stop  offset="0" style="stop-color:#328AB6"/>
		<stop  offset="1" style="stop-color:#0068D8"/>
	</linearGradient>
	<circle style="fill-rule:evenodd;clip-rule:evenodd;fill:url(#SVGID_21_);" cx="84.1" cy="146.3" r="0.4"/>
	
		<linearGradient id="SVGID_22_" gradientUnits="userSpaceOnUse" x1="108.05" y1="2970.4438" x2="108.05" y2="2971.2439" gradientTransform="matrix(1 0 0 -1 0 3131.3333)">
		<stop  offset="0" style="stop-color:#328AB6"/>
		<stop  offset="1" style="stop-color:#0068D8"/>
	</linearGradient>
	<circle style="fill-rule:evenodd;clip-rule:evenodd;fill:url(#SVGID_22_);" cx="108" cy="160.5" r="0.4"/>
	
		<linearGradient id="SVGID_23_" gradientUnits="userSpaceOnUse" x1="90.85" y1="2966.1467" x2="90.85" y2="2966.9468" gradientTransform="matrix(1 0 0 -1 0 3131.3333)">
		<stop  offset="0" style="stop-color:#328AB6"/>
		<stop  offset="1" style="stop-color:#0068D8"/>
	</linearGradient>
	<circle style="fill-rule:evenodd;clip-rule:evenodd;fill:url(#SVGID_23_);" cx="90.8" cy="164.8" r="0.4"/>
	
		<linearGradient id="SVGID_24_" gradientUnits="userSpaceOnUse" x1="91.55" y1="2974.8533" x2="91.55" y2="2975.6533" gradientTransform="matrix(1 0 0 -1 0 3131.3333)">
		<stop  offset="0" style="stop-color:#328AB6"/>
		<stop  offset="1" style="stop-color:#0068D8"/>
	</linearGradient>
	<circle style="fill-rule:evenodd;clip-rule:evenodd;fill:url(#SVGID_24_);" cx="91.5" cy="156.1" r="0.4"/>
	
		<linearGradient id="SVGID_25_" gradientUnits="userSpaceOnUse" x1="113.85" y1="2976.7102" x2="113.85" y2="2977.5103" gradientTransform="matrix(1 0 0 -1 0 3131.3333)">
		<stop  offset="0" style="stop-color:#328AB6"/>
		<stop  offset="1" style="stop-color:#0068D8"/>
	</linearGradient>
	<circle style="fill-rule:evenodd;clip-rule:evenodd;fill:url(#SVGID_25_);" cx="113.8" cy="154.2" r="0.4"/>
	
		<linearGradient id="SVGID_26_" gradientUnits="userSpaceOnUse" x1="91.15" y1="2990.7053" x2="91.15" y2="2991.5054" gradientTransform="matrix(1 0 0 -1 0 3131.3333)">
		<stop  offset="0" style="stop-color:#328AB6"/>
		<stop  offset="1" style="stop-color:#0068D8"/>
	</linearGradient>
	<circle style="fill-rule:evenodd;clip-rule:evenodd;fill:url(#SVGID_26_);" cx="91.1" cy="140.2" r="0.4"/>
	
		<linearGradient id="SVGID_27_" gradientUnits="userSpaceOnUse" x1="109.5611" y1="3345.792" x2="109.5611" y2="3347.01" gradientTransform="matrix(0.7347 0.6784 0.6784 -0.7347 -2278.3457 2548.4641)">
		<stop  offset="0" style="stop-color:#328AB6"/>
		<stop  offset="1" style="stop-color:#0068D8"/>
	</linearGradient>
	<circle style="fill-rule:evenodd;clip-rule:evenodd;fill:url(#SVGID_27_);" cx="72.3" cy="164.2" r="0.6"/>
	
		<linearGradient id="SVGID_28_" gradientUnits="userSpaceOnUse" x1="112.4366" y1="3355.7646" x2="112.4366" y2="3356.9827" gradientTransform="matrix(0.7347 0.6784 0.6784 -0.7347 -2278.3457 2548.4641)">
		<stop  offset="0" style="stop-color:#328AB6"/>
		<stop  offset="1" style="stop-color:#0068D8"/>
	</linearGradient>
	<circle style="fill-rule:evenodd;clip-rule:evenodd;fill:url(#SVGID_28_);" cx="81.2" cy="158.8" r="0.6"/>
	
		<linearGradient id="SVGID_29_" gradientUnits="userSpaceOnUse" x1="118.2272" y1="3375.0166" x2="118.2272" y2="3376.2346" gradientTransform="matrix(0.7347 0.6784 0.6784 -0.7347 -2278.3457 2548.4641)">
		<stop  offset="0" style="stop-color:#328AB6"/>
		<stop  offset="1" style="stop-color:#0068D8"/>
	</linearGradient>
	<circle style="fill-rule:evenodd;clip-rule:evenodd;fill:url(#SVGID_29_);" cx="98.5" cy="148.6" r="0.6"/>
	
		<linearGradient id="SVGID_30_" gradientUnits="userSpaceOnUse" x1="105.85" y1="2989.6672" x2="105.85" y2="2990.4673" gradientTransform="matrix(1 0 0 -1 0 3131.3333)">
		<stop  offset="0" style="stop-color:#328AB6"/>
		<stop  offset="1" style="stop-color:#0068D8"/>
	</linearGradient>
	<path style="fill-rule:evenodd;clip-rule:evenodd;fill:url(#SVGID_30_);" d="M105.8,140.9c0.2,0,0.4,0.2,0.4,0.4s-0.2,0.4-0.4,0.4
		c-0.2,0-0.4-0.2-0.4-0.4S105.6,140.9,105.8,140.9z"/>
	
		<linearGradient id="SVGID_31_" gradientUnits="userSpaceOnUse" x1="-944.4883" y1="2654.6218" x2="-944.4883" y2="2655.4219" gradientTransform="matrix(-0.7071 -0.7071 -0.7071 0.7071 1465.714 -2373.9727)">
		<stop  offset="0" style="stop-color:#328AB6"/>
		<stop  offset="1" style="stop-color:#0068D8"/>
	</linearGradient>
	<circle style="fill-rule:evenodd;clip-rule:evenodd;fill:url(#SVGID_31_);" cx="256.2" cy="171.3" r="0.4"/>
	
		<linearGradient id="SVGID_32_" gradientUnits="userSpaceOnUse" x1="-931.9017" y1="2646.9404" x2="-931.9017" y2="2647.7405" gradientTransform="matrix(-0.7071 -0.7071 -0.7071 0.7071 1465.714 -2373.9727)">
		<stop  offset="0" style="stop-color:#328AB6"/>
		<stop  offset="1" style="stop-color:#0068D8"/>
	</linearGradient>
	<circle style="fill-rule:evenodd;clip-rule:evenodd;fill:url(#SVGID_32_);" cx="252.7" cy="156.9" r="0.4"/>
	
		<linearGradient id="SVGID_33_" gradientUnits="userSpaceOnUse" x1="-955.4485" y1="2646.1587" x2="-955.4485" y2="2646.9587" gradientTransform="matrix(-0.7071 -0.7071 -0.7071 0.7071 1465.714 -2373.9727)">
		<stop  offset="0" style="stop-color:#328AB6"/>
		<stop  offset="1" style="stop-color:#0068D8"/>
	</linearGradient>
	<circle style="fill-rule:evenodd;clip-rule:evenodd;fill:url(#SVGID_33_);" cx="270" cy="173" r="0.4"/>
	
		<linearGradient id="SVGID_34_" gradientUnits="userSpaceOnUse" x1="-925.1841" y1="2628.4631" x2="-925.1841" y2="2629.2632" gradientTransform="matrix(-0.7071 -0.7071 -0.7071 0.7071 1465.714 -2373.9727)">
		<stop  offset="0" style="stop-color:#328AB6"/>
		<stop  offset="1" style="stop-color:#0068D8"/>
	</linearGradient>
	<circle style="fill-rule:evenodd;clip-rule:evenodd;fill:url(#SVGID_34_);" cx="261" cy="139.1" r="0.4"/>
	
		<linearGradient id="SVGID_35_" gradientUnits="userSpaceOnUse" x1="-944.4883" y1="2638.2454" x2="-944.4883" y2="2639.0454" gradientTransform="matrix(-0.7071 -0.7071 -0.7071 0.7071 1465.714 -2373.9727)">
		<stop  offset="0" style="stop-color:#328AB6"/>
		<stop  offset="1" style="stop-color:#0068D8"/>
	</linearGradient>
	<circle style="fill-rule:evenodd;clip-rule:evenodd;fill:url(#SVGID_35_);" cx="267.8" cy="159.7" r="0.4"/>
	
		<linearGradient id="SVGID_36_" gradientUnits="userSpaceOnUse" x1="-932.2552" y1="2636.8408" x2="-932.2552" y2="2637.6409" gradientTransform="matrix(-0.7071 -0.7071 -0.7071 0.7071 1465.714 -2373.9727)">
		<stop  offset="0" style="stop-color:#328AB6"/>
		<stop  offset="1" style="stop-color:#0068D8"/>
	</linearGradient>
	<circle class="st55" cx="260.2" cy="150" r="0.4"/>
	
		<linearGradient id="SVGID_37_" gradientUnits="userSpaceOnUse" x1="-924.8305" y1="2653.022" x2="-924.8305" y2="2653.822" gradientTransform="matrix(-0.7071 -0.7071 -0.7071 0.7071 1465.714 -2373.9727)">
		<stop  offset="0" style="stop-color:#328AB6"/>
		<stop  offset="1" style="stop-color:#0068D8"/>
	</linearGradient>
	<circle class="st56" cx="243.4" cy="156.2" r="0.4"/>
	
		<linearGradient id="SVGID_38_" gradientUnits="userSpaceOnUse" x1="-407.8091" y1="2408.4348" x2="-407.8091" y2="2409.6531" gradientTransform="matrix(-3.980956e-02 -0.9992 -0.9992 3.980956e-02 2664.583 -350.7971)">
		<stop  offset="0" style="stop-color:#328AB6"/>
		<stop  offset="1" style="stop-color:#0068D8"/>
	</linearGradient>
	<circle class="st57" cx="273.8" cy="152.6" r="0.6"/>
	
		<linearGradient id="SVGID_39_" gradientUnits="userSpaceOnUse" x1="-417.0046" y1="2426.3127" x2="-417.0046" y2="2427.5308" gradientTransform="matrix(-3.980956e-02 -0.9992 -0.9992 3.980956e-02 2664.583 -350.7971)">
		<stop  offset="0" style="stop-color:#328AB6"/>
		<stop  offset="1" style="stop-color:#0068D8"/>
	</linearGradient>
	<circle class="st58" cx="256.3" cy="162.5" r="0.6"/>
	
		<linearGradient id="SVGID_40_" gradientUnits="userSpaceOnUse" x1="-399.1366" y1="2437.6597" x2="-399.1366" y2="2438.8777" gradientTransform="matrix(-3.980956e-02 -0.9992 -0.9992 3.980956e-02 2664.583 -350.7971)">
		<stop  offset="0" style="stop-color:#328AB6"/>
		<stop  offset="1" style="stop-color:#0068D8"/>
	</linearGradient>
	<circle class="st59" cx="244.2" cy="145.1" r="0.6"/>
	
		<linearGradient id="SVGID_41_" gradientUnits="userSpaceOnUse" x1="-910.1226" y1="2651.9841" x2="-910.1226" y2="2652.7842" gradientTransform="matrix(-0.7071 -0.7071 -0.7071 0.7071 1465.714 -2373.9727)">
		<stop  offset="0" style="stop-color:#328AB6"/>
		<stop  offset="1" style="stop-color:#0068D8"/>
	</linearGradient>
	<circle class="st60" cx="233.7" cy="145.1" r="0.4"/>
	
		<linearGradient id="SVGID_42_" gradientUnits="userSpaceOnUse" x1="186.6185" y1="2866.6064" x2="186.6185" y2="3049.032" gradientTransform="matrix(1 0 0 -1 0 3131.3333)">
		<stop  offset="0" style="stop-color:#328AB6"/>
		<stop  offset="1" style="stop-color:#0068D8"/>
	</linearGradient>
	<path style="opacity:0.2;fill-rule:evenodd;clip-rule:evenodd;fill:url(#SVGID_42_);enable-background:new    ;" d="M173.4,143.4
		c-2.9,6.3-13.7,2.6-35.4,10.9c-6.6,2.5-31.8,12.1-32.1,25c-0.2,5.8,4.7,9,10.9,15.6c18.1,19.6,14.7,34.3,24.6,47.2
		c19.2,25.2,78.5,30.3,107.2,1.4c14.4-14.5,16.7-33.1,17.9-43.4c5.1-41.9-16.3-92.7-56.7-109.1c-26.8-10.9-60.3-6-64.2,5.7
		C140.8,110.5,179,131.1,173.4,143.4z"/>
	<g>
		<path class="st2" d="M192.3,165.8c-0.3,11.4-17.1,20.5-37.8,20.5s-37.6-9.2-37.8-20.5c-31.7,2.9-56.6,29.6-56.6,62.1
			c0,31,22.7,32.6,52.4,32.6c3.2,0,6.6,0,10,0h64.2c3.4,0,6.7,0,9.9,0c29.7,0,52.4-1.5,52.4-32.6C248.9,195.4,224,168.7,192.3,165.8
			L192.3,165.8z"/>
		<path class="st2" d="M205.2,90.5c-0.1-0.5-0.2-1-0.4-1.4V77.7c0-26.1-22.6-47.4-50.4-47.4c-27.8,0-50.4,21.3-50.4,47.4v12.6
			c0,0.1,0,0.1,0,0.2C97.6,92.2,93,97.7,93,104.1v11.1c0,6.5,4.7,12,11,13.7c1.3,0.3,2.7,0.5,4.1,0.5c8.5,22.9,26.1,44.6,46.5,44.6
			c13.3,0,25.4-9.2,34.6-22l0.1-0.1c4.5-6.2,8.2-13.2,11.1-20.4c0.6-0.7,1.3-1.4,1.9-2.1c0.9-0.1,1.8-0.2,2.7-0.4
			c6.5-1.6,11.3-7.1,11.3-13.7v-11.1C216,97.6,211.4,92.2,205.2,90.5z M154.3,40.2c17.9,0,33.2,11.2,38.2,26.5
			c-9.5-10.2-23-16.6-38-16.6c-15.3,0-28.9,6.6-38.5,17.1C120.9,51.6,136.2,40.2,154.3,40.2z M194.2,128.1
			c-6.3,5.8-16.9,10.1-29.1,11.1c-1.2-1.8-3.2-3-5.5-3h-8.7c-3.6,0-6.6,2.9-6.6,6.6c0,3.6,2.9,6.6,6.6,6.6h8.7
			c2.5,0,4.7-1.5,5.8-3.6c9-0.7,17.1-3,23.8-6.3c-8.4,14.7-20.8,26.4-34.7,26.4c-17.3,0-32.4-18.1-40-37.6V91.5
			c4.1-8.6,9-12.7,9-12.7c7.8,23.6,61.4,13,61.4,13c4.3-0.3,7.3,1.1,9.4,3.3v33H194.2z"/>
	</g>
	<path class="st5" d="M144.3,142.7c0,3.6,2.9,6.6,6.6,6.6h8.7c2.5,0,4.7-1.5,5.8-3.6c9-0.7,17.1-3,23.8-6.3
		c-8.4,14.7-20.8,26.4-34.7,26.4c-17.3,0-32.4-18.1-40-37.6V91.4c4.1-8.6,9-12.7,9-12.7c7.8,23.6,61.4,13,61.4,13
		c4.3-0.3,7.3,1.1,9.4,3.3v33c-6.3,5.8-16.9,10.1-29.1,11.1c-1.2-1.8-3.2-3-5.5-3H151C147.2,136.2,144.3,139.1,144.3,142.7z"/>
	<g class="st11">
		
			<linearGradient id="SVGID_43_" gradientUnits="userSpaceOnUse" x1="379.7823" y1="3075.8467" x2="469.0258" y2="3075.8467" gradientTransform="matrix(-1 0 0 -1 679.8323 3131.3333)">
			<stop  offset="0" style="stop-color:#328AB6"/>
			<stop  offset="1" style="stop-color:#0068D8"/>
		</linearGradient>
		<path style="fill:#FFFFFF;stroke:url(#SVGID_43_);stroke-miterlimit:10;" d="M212.7,77.1h85.4c0.8,0,1.4-0.6,1.4-1.4V35.3
			c0-0.8-0.6-1.4-1.4-1.4h-70.4c-0.8,0-1.4,0.6-1.4,1.4v29.5c0,0.5-0.3,0.9-0.7,1.2l-13.7,8.5C210.7,75.2,211.3,77.1,212.7,77.1z"/>
		
			<linearGradient id="SVGID_44_" gradientUnits="userSpaceOnUse" x1="386.9006" y1="3089.2466" x2="447.0149" y2="3089.2466" gradientTransform="matrix(-1 0 0 -1 679.8323 3131.3333)">
			<stop  offset="0" style="stop-color:#328AB6"/>
			<stop  offset="1" style="stop-color:#0068D8"/>
		</linearGradient>
		<path style="fill:url(#SVGID_44_);" d="M233.8,43.3h58c0.6,0,1-0.5,1-1v-0.4c0-0.6-0.5-1-1-1h-58c-0.6,0-1,0.5-1,1v0.4
			C232.8,42.9,233.2,43.3,233.8,43.3z"/>
		
			<linearGradient id="SVGID_45_" gradientUnits="userSpaceOnUse" x1="386.9006" y1="3080.0466" x2="447.0149" y2="3080.0466" gradientTransform="matrix(-1 0 0 -1 679.8323 3131.3333)">
			<stop  offset="0" style="stop-color:#328AB6"/>
			<stop  offset="1" style="stop-color:#0068D8"/>
		</linearGradient>
		<path style="fill:url(#SVGID_45_);" d="M233.8,52.5h58c0.6,0,1-0.5,1-1v-0.4c0-0.6-0.5-1-1-1h-58c-0.6,0-1,0.5-1,1v0.4
			C232.8,52,233.2,52.5,233.8,52.5z"/>
		
			<linearGradient id="SVGID_46_" gradientUnits="userSpaceOnUse" x1="386.9006" y1="3070.8467" x2="447.0149" y2="3070.8467" gradientTransform="matrix(-1 0 0 -1 679.8323 3131.3333)">
			<stop  offset="0" style="stop-color:#328AB6"/>
			<stop  offset="1" style="stop-color:#0068D8"/>
		</linearGradient>
		<path style="fill:url(#SVGID_46_);" d="M233.8,61.7h58c0.6,0,1-0.5,1-1v-0.4c0-0.6-0.5-1-1-1h-58c-0.6,0-1,0.5-1,1v0.4
			C232.8,61.2,233.2,61.7,233.8,61.7z"/>
		
			<linearGradient id="SVGID_47_" gradientUnits="userSpaceOnUse" x1="386.8824" y1="3061.7466" x2="416.2466" y2="3061.7466" gradientTransform="matrix(-1 0 0 -1 679.8323 3131.3333)">
			<stop  offset="0" style="stop-color:#328AB6"/>
			<stop  offset="1" style="stop-color:#0068D8"/>
		</linearGradient>
		<path style="fill:url(#SVGID_47_);" d="M264.7,70.8H292c0.6,0,1-0.5,1-1v-0.4c0-0.6-0.5-1-1-1h-27.3c-0.6,0-1,0.5-1,1v0.4
			C263.5,70.4,264,70.8,264.7,70.8z"/>
	</g>
	<g class="st11">
		
			<linearGradient id="SVGID_48_" gradientUnits="userSpaceOnUse" x1="596.7023" y1="3281.4053" x2="661.9037" y2="3281.4053" gradientTransform="matrix(1 0 0 1 -576.7523 -3150.5186)">
			<stop  offset="0" style="stop-color:#328AB6"/>
			<stop  offset="1" style="stop-color:#0068D8"/>
		</linearGradient>
		<path style="fill:#FFFFFF;stroke:url(#SVGID_48_);stroke-miterlimit:10;" d="M83.6,115.2H21.4c-0.6,0-1,0.5-1,1v29.4
			c0,0.6,0.5,1,1,1h51.3c0.6,0,1-0.5,1-1v-21.4c0-0.4,0.2-0.7,0.5-0.9l9.9-6.2C85,116.6,84.6,115.2,83.6,115.2z"/>
		
			<linearGradient id="SVGID_49_" gradientUnits="userSpaceOnUse" x1="602.0023" y1="3291.2053" x2="645.756" y2="3291.2053" gradientTransform="matrix(1 0 0 1 -576.7523 -3150.5186)">
			<stop  offset="0" style="stop-color:#328AB6"/>
			<stop  offset="1" style="stop-color:#0068D8"/>
		</linearGradient>
		<path style="fill:url(#SVGID_49_);" d="M68.1,139.8h-42c-0.5,0-0.9,0.4-0.9,0.9l0,0c0,0.5,0.4,0.9,0.9,0.9h42
			c0.5,0,0.9-0.4,0.9-0.9l0,0C69,140.2,68.6,139.8,68.1,139.8z"/>
		
			<linearGradient id="SVGID_50_" gradientUnits="userSpaceOnUse" x1="602.0023" y1="3284.5054" x2="645.756" y2="3284.5054" gradientTransform="matrix(1 0 0 1 -576.7523 -3150.5186)">
			<stop  offset="0" style="stop-color:#328AB6"/>
			<stop  offset="1" style="stop-color:#0068D8"/>
		</linearGradient>
		<path style="fill:url(#SVGID_50_);" d="M68.1,133.1h-42c-0.5,0-0.9,0.4-0.9,0.9l0,0c0,0.5,0.4,0.9,0.9,0.9h42
			c0.5,0,0.9-0.4,0.9-0.9l0,0C69,133.5,68.6,133.1,68.1,133.1z"/>
		
			<linearGradient id="SVGID_51_" gradientUnits="userSpaceOnUse" x1="602.0023" y1="3277.8054" x2="645.756" y2="3277.8054" gradientTransform="matrix(1 0 0 1 -576.7523 -3150.5186)">
			<stop  offset="0" style="stop-color:#328AB6"/>
			<stop  offset="1" style="stop-color:#0068D8"/>
		</linearGradient>
		<path style="fill:url(#SVGID_51_);" d="M68.1,126.4h-42c-0.5,0-0.9,0.4-0.9,0.9l0,0c0,0.5,0.4,0.9,0.9,0.9h42
			c0.5,0,0.9-0.4,0.9-0.9l0,0C69,126.8,68.6,126.4,68.1,126.4z"/>
		
			<linearGradient id="SVGID_52_" gradientUnits="userSpaceOnUse" x1="602.0023" y1="3271.2053" x2="623.3749" y2="3271.2053" gradientTransform="matrix(1 0 0 1 -576.7523 -3150.5186)">
			<stop  offset="0" style="stop-color:#328AB6"/>
			<stop  offset="1" style="stop-color:#0068D8"/>
		</linearGradient>
		<path style="fill:url(#SVGID_52_);" d="M45.7,119.8H26.1c-0.5,0-0.9,0.4-0.9,0.9l0,0c0,0.5,0.4,0.9,0.9,0.9h19.6
			c0.5,0,0.9-0.4,0.9-0.9l0,0C46.6,120.2,46.2,119.8,45.7,119.8z"/>
	</g>
</g>
</svg>
