<?xml version="1.0" encoding="utf-8"?>
<!-- Generator: Adobe Illustrator 24.0.1, SVG Export Plug-In . SVG Version: 6.00 Build 0)  -->
<svg version="1.1" id="Layer_1" xmlns="http://www.w3.org/2000/svg" xmlns:xlink="http://www.w3.org/1999/xlink" x="0px" y="0px"
	 viewBox="0 0 320 320" style="enable-background:new 0 0 320 320;" xml:space="preserve">
<style type="text/css">
	.st0{opacity:5.000000e-02;fill:url(#SVGID_1_);}
	.st1{opacity:0.8;}
	.st2{fill:url(#SVGID_2_);}
	.st3{opacity:0.8;fill:url(#SVGID_3_);}
	.st4{opacity:0.8;fill:url(#SVGID_4_);}
	.st5{opacity:0.2;fill:url(#SVGID_5_);}
	.st6{fill:#0000FF;}
	.st7{fill:#E44235;}
	.st8{fill:#FFFFFF;}
	.st9{opacity:0.7;}
	.st10{opacity:0.72;stroke:#FFFFFF;stroke-miterlimit:10;}
	.st11{fill:none;stroke:url(#SVGID_6_);stroke-width:0.5;stroke-miterlimit:10;}
	.st12{fill:url(#SVGID_7_);}
	.st13{fill:url(#SVGID_8_);}
	.st14{fill:url(#SVGID_9_);}
	.st15{fill:url(#SVGID_10_);}
	.st16{fill:url(#SVGID_11_);}
	.st17{fill:url(#SVGID_12_);}
	.st18{opacity:0.5;fill:url(#SVGID_13_);}
	.st19{opacity:0.15;}
	.st20{fill:url(#SVGID_14_);}
	.st21{fill:#009FD8;}
	.st22{fill-rule:evenodd;clip-rule:evenodd;fill:#FFFFFF;}
	.st23{opacity:0.72;}
	.st24{fill:none;stroke:#FFFFFF;stroke-miterlimit:10;}
	.st25{fill:url(#SVGID_15_);}
	.st26{fill:url(#SVGID_16_);}
	.st27{fill:url(#SVGID_17_);}
	.st28{fill:url(#SVGID_18_);}
	.st29{fill:url(#SVGID_19_);}
	.st30{fill:url(#SVGID_20_);}
	.st31{fill:url(#SVGID_21_);}
	.st32{fill:url(#SVGID_22_);}
	.st33{fill:url(#SVGID_23_);}
	.st34{fill:url(#SVGID_24_);}
	.st35{fill:url(#SVGID_25_);}
	.st36{fill:url(#SVGID_26_);}
	.st37{fill:url(#SVGID_27_);}
	.st38{fill:url(#SVGID_28_);}
	.st39{fill:url(#SVGID_29_);}
	.st40{fill:url(#SVGID_30_);}
	.st41{fill:url(#SVGID_31_);}
	.st42{fill:url(#SVGID_32_);}
	.st43{opacity:0.22;fill:url(#SVGID_33_);}
	.st44{opacity:0.4;fill:#EAE9E8;}
	.st45{fill:url(#SVGID_34_);}
	.st46{fill:url(#SVGID_35_);}
	.st47{fill:url(#SVGID_36_);}
	.st48{fill:url(#SVGID_37_);}
	.st49{fill:url(#SVGID_38_);}
	.st50{fill:url(#SVGID_39_);}
	.st51{fill:url(#SVGID_40_);}
	.st52{fill:url(#SVGID_41_);}
	.st53{fill:url(#SVGID_42_);}
	.st54{fill:none;stroke:#999999;stroke-width:0.5;stroke-miterlimit:10;stroke-dasharray:1;}
	.st55{fill:url(#SVGID_43_);}
	.st56{fill:url(#SVGID_44_);}
	.st57{fill:url(#SVGID_45_);}
	.st58{fill:url(#SVGID_46_);}
	.st59{fill:url(#SVGID_47_);}
	.st60{fill:url(#SVGID_48_);}
	.st61{fill:url(#SVGID_49_);}
	.st62{fill:url(#SVGID_50_);}
	.st63{fill:url(#SVGID_51_);}
	.st64{fill:url(#SVGID_52_);}
	.st65{fill:url(#SVGID_53_);}
	.st66{fill:url(#SVGID_54_);}
	.st67{fill:url(#SVGID_55_);}
	.st68{fill:url(#SVGID_56_);}
	.st69{fill:url(#SVGID_57_);}
	.st70{fill:none;stroke:url(#SVGID_58_);stroke-width:0.5;stroke-miterlimit:10;stroke-dasharray:1;}
	.st71{fill:none;stroke:url(#SVGID_59_);stroke-width:0.5;stroke-miterlimit:10;stroke-dasharray:1;}
	.st72{fill:none;stroke:url(#SVGID_60_);stroke-width:0.5;stroke-miterlimit:10;stroke-dasharray:1;}
	.st73{fill:none;stroke:url(#SVGID_61_);stroke-width:0.5;stroke-miterlimit:10;stroke-dasharray:1;}
	.st74{fill:none;stroke:url(#SVGID_62_);stroke-width:0.5;stroke-miterlimit:10;stroke-dasharray:1;}
	.st75{fill:url(#SVGID_63_);}
	.st76{fill:url(#SVGID_64_);}
	.st77{fill:url(#SVGID_65_);}
	.st78{fill:url(#SVGID_66_);}
	.st79{fill:url(#SVGID_67_);}
	.st80{fill:url(#SVGID_68_);}
	.st81{fill:url(#SVGID_69_);}
	.st82{fill:url(#SVGID_70_);}
	.st83{fill:url(#SVGID_71_);}
	.st84{fill:url(#SVGID_72_);}
	.st85{fill:url(#SVGID_73_);}
	.st86{fill:none;stroke:url(#SVGID_74_);stroke-miterlimit:10;}
	.st87{fill:none;stroke:#0068D8;stroke-miterlimit:10;}
	.st88{fill:#F4F4F4;}
	.st89{fill-rule:evenodd;clip-rule:evenodd;fill:#009FD8;}
	.st90{opacity:0.4;fill-rule:evenodd;clip-rule:evenodd;fill:#EAE9E8;}
	.st91{fill-rule:evenodd;clip-rule:evenodd;fill:url(#SVGID_75_);}
	.st92{fill-rule:evenodd;clip-rule:evenodd;fill:url(#SVGID_76_);}
	.st93{fill-rule:evenodd;clip-rule:evenodd;fill:url(#SVGID_77_);}
	.st94{fill-rule:evenodd;clip-rule:evenodd;fill:url(#SVGID_78_);}
	.st95{fill-rule:evenodd;clip-rule:evenodd;fill:url(#SVGID_79_);}
	.st96{fill-rule:evenodd;clip-rule:evenodd;fill:url(#SVGID_80_);}
	.st97{fill-rule:evenodd;clip-rule:evenodd;fill:url(#SVGID_81_);}
	.st98{fill-rule:evenodd;clip-rule:evenodd;fill:url(#SVGID_82_);}
	.st99{fill-rule:evenodd;clip-rule:evenodd;fill:url(#SVGID_83_);}
	.st100{fill-rule:evenodd;clip-rule:evenodd;fill:url(#SVGID_84_);}
	.st101{fill-rule:evenodd;clip-rule:evenodd;fill:url(#SVGID_85_);}
	.st102{fill-rule:evenodd;clip-rule:evenodd;fill:url(#SVGID_86_);}
	.st103{fill-rule:evenodd;clip-rule:evenodd;fill:url(#SVGID_87_);}
	.st104{fill-rule:evenodd;clip-rule:evenodd;fill:url(#SVGID_88_);}
	.st105{fill-rule:evenodd;clip-rule:evenodd;fill:url(#SVGID_89_);}
	.st106{fill-rule:evenodd;clip-rule:evenodd;fill:url(#SVGID_90_);}
	.st107{fill-rule:evenodd;clip-rule:evenodd;fill:url(#SVGID_91_);}
	.st108{fill-rule:evenodd;clip-rule:evenodd;fill:url(#SVGID_92_);}
	.st109{fill-rule:evenodd;clip-rule:evenodd;fill:url(#SVGID_93_);}
	.st110{fill-rule:evenodd;clip-rule:evenodd;fill:url(#SVGID_94_);}
	.st111{fill-rule:evenodd;clip-rule:evenodd;fill:url(#SVGID_95_);}
	.st112{fill-rule:evenodd;clip-rule:evenodd;fill:url(#SVGID_96_);}
	.st113{fill-rule:evenodd;clip-rule:evenodd;fill:url(#SVGID_97_);}
	.st114{fill-rule:evenodd;clip-rule:evenodd;fill:url(#SVGID_98_);}
	.st115{fill-rule:evenodd;clip-rule:evenodd;fill:url(#SVGID_99_);}
	.st116{fill-rule:evenodd;clip-rule:evenodd;fill:url(#SVGID_100_);}
	.st117{fill-rule:evenodd;clip-rule:evenodd;fill:url(#SVGID_101_);}
	.st118{fill-rule:evenodd;clip-rule:evenodd;fill:url(#SVGID_102_);}
	.st119{fill-rule:evenodd;clip-rule:evenodd;fill:url(#SVGID_103_);}
	.st120{fill-rule:evenodd;clip-rule:evenodd;fill:url(#SVGID_104_);}
	.st121{fill-rule:evenodd;clip-rule:evenodd;fill:url(#SVGID_105_);}
	.st122{fill-rule:evenodd;clip-rule:evenodd;fill:url(#SVGID_106_);}
	.st123{fill-rule:evenodd;clip-rule:evenodd;fill:url(#SVGID_107_);}
	.st124{fill-rule:evenodd;clip-rule:evenodd;fill:url(#SVGID_108_);}
	.st125{fill-rule:evenodd;clip-rule:evenodd;fill:url(#SVGID_109_);}
	.st126{fill-rule:evenodd;clip-rule:evenodd;fill:url(#SVGID_110_);}
	.st127{fill-rule:evenodd;clip-rule:evenodd;fill:url(#SVGID_111_);}
	.st128{fill-rule:evenodd;clip-rule:evenodd;fill:url(#SVGID_112_);}
	.st129{fill-rule:evenodd;clip-rule:evenodd;fill:url(#SVGID_113_);}
	.st130{opacity:0.2;fill-rule:evenodd;clip-rule:evenodd;fill:url(#SVGID_114_);}
	.st131{fill-rule:evenodd;clip-rule:evenodd;fill:url(#SVGID_115_);}
	.st132{fill-rule:evenodd;clip-rule:evenodd;fill:url(#SVGID_116_);}
	.st133{fill-rule:evenodd;clip-rule:evenodd;fill:url(#SVGID_117_);}
	.st134{fill-rule:evenodd;clip-rule:evenodd;fill:url(#SVGID_118_);}
	.st135{fill-rule:evenodd;clip-rule:evenodd;fill:url(#SVGID_119_);}
	.st136{fill-rule:evenodd;clip-rule:evenodd;fill:url(#SVGID_120_);}
	.st137{fill-rule:evenodd;clip-rule:evenodd;fill:url(#SVGID_121_);}
	.st138{fill-rule:evenodd;clip-rule:evenodd;fill:url(#SVGID_122_);}
	.st139{fill-rule:evenodd;clip-rule:evenodd;fill:url(#SVGID_123_);}
	.st140{fill-rule:evenodd;clip-rule:evenodd;fill:url(#SVGID_124_);}
	.st141{fill-rule:evenodd;clip-rule:evenodd;fill:url(#SVGID_125_);}
	.st142{fill-rule:evenodd;clip-rule:evenodd;fill:url(#SVGID_126_);}
	.st143{fill-rule:evenodd;clip-rule:evenodd;fill:url(#SVGID_127_);}
	.st144{fill-rule:evenodd;clip-rule:evenodd;fill:url(#SVGID_128_);}
	.st145{fill-rule:evenodd;clip-rule:evenodd;fill:url(#SVGID_129_);}
	.st146{fill-rule:evenodd;clip-rule:evenodd;fill:url(#SVGID_130_);}
	.st147{fill-rule:evenodd;clip-rule:evenodd;fill:url(#SVGID_131_);}
	.st148{fill-rule:evenodd;clip-rule:evenodd;fill:url(#SVGID_132_);}
	.st149{fill-rule:evenodd;clip-rule:evenodd;fill:url(#SVGID_133_);}
	.st150{fill-rule:evenodd;clip-rule:evenodd;fill:url(#SVGID_134_);}
	.st151{fill-rule:evenodd;clip-rule:evenodd;fill:url(#SVGID_135_);}
	.st152{fill-rule:evenodd;clip-rule:evenodd;fill:url(#SVGID_136_);}
	.st153{fill-rule:evenodd;clip-rule:evenodd;fill:url(#SVGID_137_);}
	.st154{fill-rule:evenodd;clip-rule:evenodd;fill:url(#SVGID_138_);}
	.st155{fill-rule:evenodd;clip-rule:evenodd;fill:url(#SVGID_139_);}
	.st156{fill-rule:evenodd;clip-rule:evenodd;fill:url(#SVGID_140_);}
	.st157{fill-rule:evenodd;clip-rule:evenodd;fill:url(#SVGID_141_);}
	.st158{fill-rule:evenodd;clip-rule:evenodd;fill:url(#SVGID_142_);}
	.st159{fill-rule:evenodd;clip-rule:evenodd;fill:url(#SVGID_143_);}
	.st160{fill-rule:evenodd;clip-rule:evenodd;fill:url(#SVGID_144_);}
	.st161{fill-rule:evenodd;clip-rule:evenodd;fill:url(#SVGID_145_);}
	.st162{fill-rule:evenodd;clip-rule:evenodd;fill:url(#SVGID_146_);}
	.st163{fill-rule:evenodd;clip-rule:evenodd;fill:url(#SVGID_147_);}
	.st164{fill-rule:evenodd;clip-rule:evenodd;fill:url(#SVGID_148_);}
	.st165{fill-rule:evenodd;clip-rule:evenodd;fill:url(#SVGID_149_);}
	.st166{fill-rule:evenodd;clip-rule:evenodd;fill:url(#SVGID_150_);}
	.st167{fill-rule:evenodd;clip-rule:evenodd;fill:url(#SVGID_151_);}
	.st168{fill-rule:evenodd;clip-rule:evenodd;fill:url(#SVGID_152_);}
	.st169{fill-rule:evenodd;clip-rule:evenodd;fill:url(#SVGID_153_);}
	.st170{fill-rule:evenodd;clip-rule:evenodd;fill:url(#SVGID_154_);}
	.st171{fill-rule:evenodd;clip-rule:evenodd;fill:url(#SVGID_155_);}
	.st172{fill-rule:evenodd;clip-rule:evenodd;fill:url(#SVGID_156_);}
	.st173{fill-rule:evenodd;clip-rule:evenodd;fill:url(#SVGID_157_);}
	.st174{opacity:0.2;fill-rule:evenodd;clip-rule:evenodd;fill:url(#SVGID_158_);}
	.st175{fill:url(#SVGID_159_);}
	.st176{fill:url(#SVGID_160_);}
	.st177{fill:#FFFFFF;stroke:url(#SVGID_161_);stroke-miterlimit:10;}
	.st178{fill:url(#SVGID_162_);}
	.st179{fill:url(#SVGID_163_);}
	.st180{fill:url(#SVGID_164_);}
	.st181{fill:url(#SVGID_165_);}
	.st182{fill:#FFFFFF;stroke:url(#SVGID_166_);stroke-miterlimit:10;}
	.st183{fill:url(#SVGID_167_);}
	.st184{fill:url(#SVGID_168_);}
	.st185{fill:url(#SVGID_169_);}
	.st186{fill:url(#SVGID_170_);}
</style>
<path class="st90" d="M105.7,58.3c-11.2,21.3-2,49.2-24.3,68.4c-12.2,10.5-51.1,20.9-51.9,39.7c-0.9,22.9,53.2,27.2,64.1,67.2
	c3.4,12.6,0,23.4-2.8,35.7c-2,8.8-1.3,19.9,6.6,24.5c3.2,1.9,7,2.3,10.6,2.4c21.3,1,41.8-5.7,59.9-16.6
	c27.9-16.9,40.4-51.3,67.5-66.9c13.8-7.9,28.7,2.7,41.9-5.6c15.5-9.7,15.9-36.3,8.5-51c-16.1-32.2-100.5-21.1-59.6-73
	c44.5-56.6-87.4-62.6-114.7-33.3C109.1,52.6,107.2,55.4,105.7,58.3z"/>
<linearGradient id="SVGID_1_" gradientUnits="userSpaceOnUse" x1="104.0699" y1="275.5427" x2="104.0699" y2="274.8034">
	<stop  offset="0" style="stop-color:#328AB6"/>
	<stop  offset="1" style="stop-color:#0068D8"/>
</linearGradient>
<circle style="fill-rule:evenodd;clip-rule:evenodd;fill:url(#SVGID_1_);" cx="104.1" cy="275.2" r="0.4"/>
<linearGradient id="SVGID_2_" gradientUnits="userSpaceOnUse" x1="112.1606" y1="273.4456" x2="112.1606" y2="272.2752">
	<stop  offset="0" style="stop-color:#328AB6"/>
	<stop  offset="1" style="stop-color:#0068D8"/>
</linearGradient>
<circle style="fill-rule:evenodd;clip-rule:evenodd;fill:url(#SVGID_2_);" cx="112.2" cy="272.9" r="0.6"/>
<linearGradient id="SVGID_3_" gradientUnits="userSpaceOnUse" x1="116.6203" y1="276.6899" x2="116.6203" y2="275.5195">
	<stop  offset="0" style="stop-color:#328AB6"/>
	<stop  offset="1" style="stop-color:#0068D8"/>
</linearGradient>
<circle style="fill-rule:evenodd;clip-rule:evenodd;fill:url(#SVGID_3_);" cx="116.6" cy="276.1" r="0.6"/>
<linearGradient id="SVGID_4_" gradientUnits="userSpaceOnUse" x1="133.4481" y1="280.5376" x2="133.4481" y2="279.3671">
	<stop  offset="0" style="stop-color:#328AB6"/>
	<stop  offset="1" style="stop-color:#0068D8"/>
</linearGradient>
<circle style="fill-rule:evenodd;clip-rule:evenodd;fill:url(#SVGID_4_);" cx="133.4" cy="280" r="0.6"/>
<linearGradient id="SVGID_5_" gradientUnits="userSpaceOnUse" x1="141.8798" y1="272.0758" x2="141.8798" y2="270.9054">
	<stop  offset="0" style="stop-color:#328AB6"/>
	<stop  offset="1" style="stop-color:#0068D8"/>
</linearGradient>
<circle style="fill-rule:evenodd;clip-rule:evenodd;fill:url(#SVGID_5_);" cx="141.9" cy="271.5" r="0.6"/>
<linearGradient id="SVGID_6_" gradientUnits="userSpaceOnUse" x1="101.3114" y1="274.4471" x2="101.3114" y2="273.2766">
	<stop  offset="0" style="stop-color:#328AB6"/>
	<stop  offset="1" style="stop-color:#0068D8"/>
</linearGradient>
<circle style="fill-rule:evenodd;clip-rule:evenodd;fill:url(#SVGID_6_);" cx="101.3" cy="273.9" r="0.6"/>
<linearGradient id="SVGID_7_" gradientUnits="userSpaceOnUse" x1="99.6422" y1="277.6813" x2="99.6422" y2="276.942">
	<stop  offset="0" style="stop-color:#328AB6"/>
	<stop  offset="1" style="stop-color:#0068D8"/>
</linearGradient>
<circle style="fill-rule:evenodd;clip-rule:evenodd;fill:url(#SVGID_7_);" cx="99.6" cy="277.3" r="0.4"/>
<linearGradient id="SVGID_8_" gradientUnits="userSpaceOnUse" x1="109.9158" y1="277.946" x2="109.9158" y2="277.2068">
	<stop  offset="0" style="stop-color:#328AB6"/>
	<stop  offset="1" style="stop-color:#0068D8"/>
</linearGradient>
<circle style="fill-rule:evenodd;clip-rule:evenodd;fill:url(#SVGID_8_);" cx="109.9" cy="277.6" r="0.4"/>
<linearGradient id="SVGID_9_" gradientUnits="userSpaceOnUse" x1="122.747" y1="280.6844" x2="122.747" y2="279.9452">
	<stop  offset="0" style="stop-color:#328AB6"/>
	<stop  offset="1" style="stop-color:#0068D8"/>
</linearGradient>
<circle style="fill-rule:evenodd;clip-rule:evenodd;fill:url(#SVGID_9_);" cx="122.7" cy="280.3" r="0.4"/>
<linearGradient id="SVGID_10_" gradientUnits="userSpaceOnUse" x1="151.9867" y1="270.0558" x2="151.9867" y2="269.3165">
	<stop  offset="0" style="stop-color:#328AB6"/>
	<stop  offset="1" style="stop-color:#0068D8"/>
</linearGradient>
<circle style="fill-rule:evenodd;clip-rule:evenodd;fill:url(#SVGID_10_);" cx="152" cy="269.7" r="0.4"/>
<linearGradient id="SVGID_11_" gradientUnits="userSpaceOnUse" x1="145.4113" y1="273.661" x2="145.4113" y2="272.9217">
	<stop  offset="0" style="stop-color:#328AB6"/>
	<stop  offset="1" style="stop-color:#0068D8"/>
</linearGradient>
<circle style="fill-rule:evenodd;clip-rule:evenodd;fill:url(#SVGID_11_);" cx="145.4" cy="273.3" r="0.4"/>
<linearGradient id="SVGID_12_" gradientUnits="userSpaceOnUse" x1="142.8127" y1="277.946" x2="142.8127" y2="277.2068">
	<stop  offset="0" style="stop-color:#328AB6"/>
	<stop  offset="1" style="stop-color:#0068D8"/>
</linearGradient>
<circle style="fill-rule:evenodd;clip-rule:evenodd;fill:url(#SVGID_12_);" cx="142.8" cy="277.6" r="0.4"/>
<linearGradient id="SVGID_13_" gradientUnits="userSpaceOnUse" x1="131.0722" y1="276.4756" x2="131.0722" y2="275.7364">
	<stop  offset="0" style="stop-color:#328AB6"/>
	<stop  offset="1" style="stop-color:#0068D8"/>
</linearGradient>
<circle style="fill-rule:evenodd;clip-rule:evenodd;fill:url(#SVGID_13_);" cx="131.1" cy="276.1" r="0.4"/>
<linearGradient id="SVGID_14_" gradientUnits="userSpaceOnUse" x1="119.6563" y1="273.2999" x2="119.6563" y2="272.5606">
	<stop  offset="0" style="stop-color:#328AB6"/>
	<stop  offset="1" style="stop-color:#0068D8"/>
</linearGradient>
<circle style="fill-rule:evenodd;clip-rule:evenodd;fill:url(#SVGID_14_);" cx="119.7" cy="272.9" r="0.4"/>
<linearGradient id="SVGID_15_" gradientUnits="userSpaceOnUse" x1="118.3395" y1="278.6683" x2="118.3395" y2="277.929">
	<stop  offset="0" style="stop-color:#328AB6"/>
	<stop  offset="1" style="stop-color:#0068D8"/>
</linearGradient>
<circle style="fill-rule:evenodd;clip-rule:evenodd;fill:url(#SVGID_15_);" cx="118.3" cy="278.3" r="0.4"/>
<linearGradient id="SVGID_16_" gradientUnits="userSpaceOnUse" x1="132.5152" y1="270.7781" x2="132.5152" y2="270.0388">
	<stop  offset="0" style="stop-color:#328AB6"/>
	<stop  offset="1" style="stop-color:#0068D8"/>
</linearGradient>
<circle style="fill-rule:evenodd;clip-rule:evenodd;fill:url(#SVGID_16_);" cx="132.5" cy="270.4" r="0.4"/>
<linearGradient id="SVGID_17_" gradientUnits="userSpaceOnUse" x1="102.1095" y1="271.5004" x2="102.1095" y2="270.7611">
	<stop  offset="0" style="stop-color:#328AB6"/>
	<stop  offset="1" style="stop-color:#0068D8"/>
</linearGradient>
<circle style="fill-rule:evenodd;clip-rule:evenodd;fill:url(#SVGID_17_);" cx="102.1" cy="271.1" r="0.4"/>
<linearGradient id="SVGID_18_" gradientUnits="userSpaceOnUse" x1="76.3633" y1="175.7539" x2="76.3633" y2="174.954">
	<stop  offset="0" style="stop-color:#328AB6"/>
	<stop  offset="1" style="stop-color:#0068D8"/>
</linearGradient>
<circle style="fill-rule:evenodd;clip-rule:evenodd;fill:url(#SVGID_18_);" cx="76.4" cy="175.4" r="0.4"/>
<linearGradient id="SVGID_19_" gradientUnits="userSpaceOnUse" x1="77.9392" y1="151.123" x2="77.9392" y2="150.323">
	<stop  offset="0" style="stop-color:#328AB6"/>
	<stop  offset="1" style="stop-color:#0068D8"/>
</linearGradient>
<circle style="fill-rule:evenodd;clip-rule:evenodd;fill:url(#SVGID_19_);" cx="77.9" cy="150.7" r="0.4"/>
<linearGradient id="SVGID_20_" gradientUnits="userSpaceOnUse" x1="101.8605" y1="165.3029" x2="101.8605" y2="164.5029">
	<stop  offset="0" style="stop-color:#328AB6"/>
	<stop  offset="1" style="stop-color:#0068D8"/>
</linearGradient>
<circle style="fill-rule:evenodd;clip-rule:evenodd;fill:url(#SVGID_20_);" cx="101.9" cy="164.9" r="0.4"/>
<linearGradient id="SVGID_21_" gradientUnits="userSpaceOnUse" x1="84.6071" y1="169.6001" x2="84.6071" y2="168.8001">
	<stop  offset="0" style="stop-color:#328AB6"/>
	<stop  offset="1" style="stop-color:#0068D8"/>
</linearGradient>
<circle style="fill-rule:evenodd;clip-rule:evenodd;fill:url(#SVGID_21_);" cx="84.6" cy="169.2" r="0.4"/>
<linearGradient id="SVGID_22_" gradientUnits="userSpaceOnUse" x1="85.3887" y1="160.8934" x2="85.3887" y2="160.0934">
	<stop  offset="0" style="stop-color:#328AB6"/>
	<stop  offset="1" style="stop-color:#0068D8"/>
</linearGradient>
<circle style="fill-rule:evenodd;clip-rule:evenodd;fill:url(#SVGID_22_);" cx="85.4" cy="160.5" r="0.4"/>
<linearGradient id="SVGID_23_" gradientUnits="userSpaceOnUse" x1="107.6071" y1="159.0365" x2="107.6071" y2="158.2365">
	<stop  offset="0" style="stop-color:#328AB6"/>
	<stop  offset="1" style="stop-color:#0068D8"/>
</linearGradient>
<circle style="fill-rule:evenodd;clip-rule:evenodd;fill:url(#SVGID_23_);" cx="107.6" cy="158.6" r="0.4"/>
<linearGradient id="SVGID_24_" gradientUnits="userSpaceOnUse" x1="84.9979" y1="145.0413" x2="84.9979" y2="144.2413">
	<stop  offset="0" style="stop-color:#328AB6"/>
	<stop  offset="1" style="stop-color:#0068D8"/>
</linearGradient>
<circle style="fill-rule:evenodd;clip-rule:evenodd;fill:url(#SVGID_24_);" cx="85" cy="144.6" r="0.4"/>
<linearGradient id="SVGID_25_" gradientUnits="userSpaceOnUse" x1="1.4945" y1="-104.6879" x2="1.4945" y2="-105.906" gradientTransform="matrix(0.7347 0.6784 -0.6784 0.7347 -6.3886 244.9521)">
	<stop  offset="0" style="stop-color:#328AB6"/>
	<stop  offset="1" style="stop-color:#0068D8"/>
</linearGradient>
<circle style="fill-rule:evenodd;clip-rule:evenodd;fill:url(#SVGID_25_);" cx="66.1" cy="168.6" r="0.6"/>
<linearGradient id="SVGID_26_" gradientUnits="userSpaceOnUse" x1="4.3762" y1="-114.6605" x2="4.3762" y2="-115.8785" gradientTransform="matrix(0.7347 0.6784 -0.6784 0.7347 -6.3886 244.9521)">
	<stop  offset="0" style="stop-color:#328AB6"/>
	<stop  offset="1" style="stop-color:#0068D8"/>
</linearGradient>
<circle style="fill-rule:evenodd;clip-rule:evenodd;fill:url(#SVGID_26_);" cx="75" cy="163.2" r="0.6"/>
<linearGradient id="SVGID_27_" gradientUnits="userSpaceOnUse" x1="10.1335" y1="-133.9126" x2="10.1335" y2="-135.1306" gradientTransform="matrix(0.7347 0.6784 -0.6784 0.7347 -6.3886 244.9521)">
	<stop  offset="0" style="stop-color:#328AB6"/>
	<stop  offset="1" style="stop-color:#0068D8"/>
</linearGradient>
<circle style="fill-rule:evenodd;clip-rule:evenodd;fill:url(#SVGID_27_);" cx="92.3" cy="153" r="0.6"/>
<linearGradient id="SVGID_28_" gradientUnits="userSpaceOnUse" x1="99.6648" y1="146.0793" x2="99.6648" y2="145.2793">
	<stop  offset="0" style="stop-color:#328AB6"/>
	<stop  offset="1" style="stop-color:#0068D8"/>
</linearGradient>
<circle style="fill-rule:evenodd;clip-rule:evenodd;fill:url(#SVGID_28_);" cx="99.7" cy="145.7" r="0.4"/>
<linearGradient id="SVGID_29_" gradientUnits="userSpaceOnUse" x1="-678.3345" y1="734.1568" x2="-678.3345" y2="733.3568" gradientTransform="matrix(-0.7071 -0.7071 0.7071 -0.7071 -748.5026 214.849)">
	<stop  offset="0" style="stop-color:#328AB6"/>
	<stop  offset="1" style="stop-color:#0068D8"/>
</linearGradient>
<circle style="fill-rule:evenodd;clip-rule:evenodd;fill:url(#SVGID_29_);" cx="250" cy="175.7" r="0.4"/>
<linearGradient id="SVGID_30_" gradientUnits="userSpaceOnUse" x1="-665.7315" y1="741.8383" x2="-665.7315" y2="741.0383" gradientTransform="matrix(-0.7071 -0.7071 0.7071 -0.7071 -748.5026 214.849)">
	<stop  offset="0" style="stop-color:#328AB6"/>
	<stop  offset="1" style="stop-color:#0068D8"/>
</linearGradient>
<circle style="fill-rule:evenodd;clip-rule:evenodd;fill:url(#SVGID_30_);" cx="246.5" cy="161.3" r="0.4"/>
<linearGradient id="SVGID_31_" gradientUnits="userSpaceOnUse" x1="-689.3256" y1="742.6199" x2="-689.3256" y2="741.8199" gradientTransform="matrix(-0.7071 -0.7071 0.7071 -0.7071 -748.5026 214.849)">
	<stop  offset="0" style="stop-color:#328AB6"/>
	<stop  offset="1" style="stop-color:#0068D8"/>
</linearGradient>
<circle style="fill-rule:evenodd;clip-rule:evenodd;fill:url(#SVGID_31_);" cx="263.8" cy="177.4" r="0.4"/>
<linearGradient id="SVGID_32_" gradientUnits="userSpaceOnUse" x1="-659.0637" y1="760.3154" x2="-659.0637" y2="759.5154" gradientTransform="matrix(-0.7071 -0.7071 0.7071 -0.7071 -748.5026 214.849)">
	<stop  offset="0" style="stop-color:#328AB6"/>
	<stop  offset="1" style="stop-color:#0068D8"/>
</linearGradient>
<circle style="fill-rule:evenodd;clip-rule:evenodd;fill:url(#SVGID_32_);" cx="254.9" cy="143.5" r="0.4"/>
<linearGradient id="SVGID_33_" gradientUnits="userSpaceOnUse" x1="-678.3345" y1="750.5334" x2="-678.3345" y2="749.7334" gradientTransform="matrix(-0.7071 -0.7071 0.7071 -0.7071 -748.5026 214.849)">
	<stop  offset="0" style="stop-color:#328AB6"/>
	<stop  offset="1" style="stop-color:#0068D8"/>
</linearGradient>
<circle style="fill-rule:evenodd;clip-rule:evenodd;fill:url(#SVGID_33_);" cx="261.6" cy="164.1" r="0.4"/>
<linearGradient id="SVGID_34_" gradientUnits="userSpaceOnUse" x1="-666.1223" y1="751.9378" x2="-666.1223" y2="751.1378" gradientTransform="matrix(-0.7071 -0.7071 0.7071 -0.7071 -748.5026 214.849)">
	<stop  offset="0" style="stop-color:#328AB6"/>
	<stop  offset="1" style="stop-color:#0068D8"/>
</linearGradient>
<circle style="fill-rule:evenodd;clip-rule:evenodd;fill:url(#SVGID_34_);" cx="253.9" cy="154.4" r="0.4"/>
<linearGradient id="SVGID_35_" gradientUnits="userSpaceOnUse" x1="-658.6729" y1="735.7566" x2="-658.6729" y2="734.9566" gradientTransform="matrix(-0.7071 -0.7071 0.7071 -0.7071 -748.5026 214.849)">
	<stop  offset="0" style="stop-color:#328AB6"/>
	<stop  offset="1" style="stop-color:#0068D8"/>
</linearGradient>
<circle style="fill-rule:evenodd;clip-rule:evenodd;fill:url(#SVGID_35_);" cx="237.2" cy="160.6" r="0.4"/>
<linearGradient id="SVGID_36_" gradientUnits="userSpaceOnUse" x1="-144.138" y1="833.812" x2="-144.138" y2="832.5939" gradientTransform="matrix(-3.980956e-02 -0.9992 0.9992 -3.980956e-02 -570.7779 46.1591)">
	<stop  offset="0" style="stop-color:#328AB6"/>
	<stop  offset="1" style="stop-color:#0068D8"/>
</linearGradient>
<circle style="fill-rule:evenodd;clip-rule:evenodd;fill:url(#SVGID_36_);" cx="267.5" cy="157" r="0.6"/>
<linearGradient id="SVGID_37_" gradientUnits="userSpaceOnUse" x1="-153.296" y1="815.9341" x2="-153.296" y2="814.716" gradientTransform="matrix(-3.980956e-02 -0.9992 0.9992 -3.980956e-02 -570.7779 46.1591)">
	<stop  offset="0" style="stop-color:#328AB6"/>
	<stop  offset="1" style="stop-color:#0068D8"/>
</linearGradient>
<circle style="fill-rule:evenodd;clip-rule:evenodd;fill:url(#SVGID_37_);" cx="250" cy="166.9" r="0.6"/>
<linearGradient id="SVGID_38_" gradientUnits="userSpaceOnUse" x1="-135.499" y1="804.5873" x2="-135.499" y2="803.3692" gradientTransform="matrix(-3.980956e-02 -0.9992 0.9992 -3.980956e-02 -570.7779 46.1591)">
	<stop  offset="0" style="stop-color:#328AB6"/>
	<stop  offset="1" style="stop-color:#0068D8"/>
</linearGradient>
<circle style="fill-rule:evenodd;clip-rule:evenodd;fill:url(#SVGID_38_);" cx="238" cy="149.5" r="0.6"/>
<linearGradient id="SVGID_39_" gradientUnits="userSpaceOnUse" x1="-644.006" y1="736.7946" x2="-644.006" y2="735.9946" gradientTransform="matrix(-0.7071 -0.7071 0.7071 -0.7071 -748.5026 214.849)">
	<stop  offset="0" style="stop-color:#328AB6"/>
	<stop  offset="1" style="stop-color:#0068D8"/>
</linearGradient>
<circle style="fill-rule:evenodd;clip-rule:evenodd;fill:url(#SVGID_39_);" cx="227.6" cy="149.5" r="0.4"/>
<path d="M213.6,157.1C213.6,157.1,213.6,157.1,213.6,157.1L213.6,157.1L213.6,157.1z"/>
<linearGradient id="SVGID_40_" gradientUnits="userSpaceOnUse" x1="180.3403" y1="269.1402" x2="180.3403" y2="86.7147">
	<stop  offset="0" style="stop-color:#328AB6"/>
	<stop  offset="1" style="stop-color:#0068D8"/>
</linearGradient>
<path style="opacity:0.2;fill-rule:evenodd;clip-rule:evenodd;fill:url(#SVGID_40_);" d="M167.2,147.8c-2.9,6.3-13.7,2.6-35.4,10.9
	c-6.6,2.5-31.8,12.1-32.1,25c-0.2,5.8,4.7,9,10.9,15.6c18.1,19.6,14.7,34.3,24.6,47.2c19.2,25.2,78.5,30.3,107.2,1.4
	c14.4-14.5,16.7-33.1,17.9-43.4c5.1-41.9-16.3-92.7-56.7-109.1c-26.8-10.9-60.3-6-64.2,5.7C134.7,114.9,172.8,135.5,167.2,147.8z"/>
<g>
	<linearGradient id="SVGID_41_" gradientUnits="userSpaceOnUse" x1="148.3187" y1="257.5855" x2="148.3187" y2="37.4003">
		<stop  offset="0" style="stop-color:#328AB6"/>
		<stop  offset="1" style="stop-color:#0068D8"/>
	</linearGradient>
	<path class="st52" d="M186.2,170.2c-0.3,11.4-17.1,20.5-37.8,20.5c-20.7,0-37.6-9.2-37.8-20.5c-31.7,2.9-56.6,29.6-56.6,62.1
		c0,31,22.7,32.6,52.4,32.6c3.2,0,6.6,0,10,0h64.2c3.4,0,6.7,0,9.9,0c29.7,0,52.4-1.5,52.4-32.6
		C242.8,199.8,217.9,173.1,186.2,170.2L186.2,170.2z"/>
	<linearGradient id="SVGID_42_" gradientUnits="userSpaceOnUse" x1="148.3138" y1="257.5855" x2="148.3138" y2="37.4003">
		<stop  offset="0" style="stop-color:#328AB6"/>
		<stop  offset="1" style="stop-color:#0068D8"/>
	</linearGradient>
	<path class="st53" d="M199,94.9c-0.1-0.5-0.2-1-0.4-1.4V82.1c0-26.1-22.6-47.4-50.4-47.4c-27.8,0-50.4,21.3-50.4,47.4v12.6
		c0,0.1,0,0.1,0,0.2c-6.3,1.7-10.9,7.2-10.9,13.6v11.1c0,6.5,4.7,12,11,13.7c1.3,0.3,2.7,0.5,4.1,0.5c8.5,22.9,26.1,44.6,46.5,44.6
		c13.3,0,25.4-9.2,34.6-22c0,0,0.1-0.1,0.1-0.1c4.5-6.2,8.2-13.2,11.1-20.4c0.6-0.7,1.3-1.4,1.9-2.1c0.9-0.1,1.8-0.2,2.7-0.4
		c6.5-1.6,11.3-7.1,11.3-13.7v-11.1C209.9,102,205.2,96.6,199,94.9z M148.2,44.6c17.9,0,33.2,11.2,38.2,26.5
		c-9.5-10.2-23-16.6-38-16.6c-15.3,0-28.9,6.6-38.5,17.1C114.7,56,130,44.6,148.2,44.6z M188.1,132.5c-6.3,5.8-16.9,10.1-29.1,11.1
		c-1.2-1.8-3.2-3-5.5-3h-8.7c-3.6,0-6.6,2.9-6.6,6.6s2.9,6.6,6.6,6.6h8.7c2.5,0,4.7-1.5,5.8-3.6c9-0.7,17.1-3,23.8-6.3
		c-8.4,14.7-20.8,26.4-34.7,26.4c-17.3,0-32.4-18.1-40-37.6l0-36.8c4.1-8.6,9-12.7,9-12.7c7.8,23.6,61.4,13,61.4,13
		c4.3-0.3,7.3,1.1,9.4,3.3V132.5z"/>
</g>
<path class="st8" d="M138.1,147.1c0,3.6,2.9,6.6,6.6,6.6h8.7c2.5,0,4.7-1.5,5.8-3.6c9-0.7,17.1-3,23.8-6.3
	c-8.4,14.7-20.8,26.4-34.7,26.4c-17.3,0-32.4-18.1-40-37.6l0-36.8c4.1-8.6,9-12.7,9-12.7c7.8,23.6,61.4,13,61.4,13
	c4.3-0.3,7.3,1.1,9.4,3.3v33c-6.3,5.8-16.9,10.1-29.1,11.1c-1.2-1.8-3.2-3-5.5-3h-8.7C141.1,140.6,138.1,143.5,138.1,147.1z"/>
<g class="st1">
	
		<linearGradient id="SVGID_43_" gradientUnits="userSpaceOnUse" x1="541.0899" y1="59.8364" x2="630.3607" y2="59.8364" gradientTransform="matrix(-1 0 0 1 834.9788 0)">
		<stop  offset="0" style="stop-color:#328AB6"/>
		<stop  offset="1" style="stop-color:#0068D8"/>
	</linearGradient>
	<path style="fill:#FFFFFF;stroke:url(#SVGID_43_);stroke-miterlimit:10;" d="M206.5,81.5H292c0.8,0,1.4-0.6,1.4-1.4V39.6
		c0-0.8-0.6-1.4-1.4-1.4h-70.4c-0.8,0-1.4,0.6-1.4,1.4v29.5c0,0.5-0.3,0.9-0.7,1.2l-13.7,8.5C204.6,79.6,205.1,81.5,206.5,81.5z"/>
	
		<linearGradient id="SVGID_44_" gradientUnits="userSpaceOnUse" x1="548.2414" y1="46.5225" x2="608.3558" y2="46.5225" gradientTransform="matrix(-1 0 0 1 834.9788 0)">
		<stop  offset="0" style="stop-color:#328AB6"/>
		<stop  offset="1" style="stop-color:#0068D8"/>
	</linearGradient>
	<path class="st56" d="M227.7,47.7h58c0.6,0,1-0.5,1-1v-0.4c0-0.6-0.5-1-1-1h-58c-0.6,0-1,0.5-1,1v0.4
		C226.6,47.3,227.1,47.7,227.7,47.7z"/>
	
		<linearGradient id="SVGID_45_" gradientUnits="userSpaceOnUse" x1="548.2414" y1="55.6889" x2="608.3558" y2="55.6889" gradientTransform="matrix(-1 0 0 1 834.9788 0)">
		<stop  offset="0" style="stop-color:#328AB6"/>
		<stop  offset="1" style="stop-color:#0068D8"/>
	</linearGradient>
	<path class="st57" d="M227.7,56.9h58c0.6,0,1-0.5,1-1v-0.4c0-0.6-0.5-1-1-1h-58c-0.6,0-1,0.5-1,1v0.4
		C226.6,56.4,227.1,56.9,227.7,56.9z"/>
	
		<linearGradient id="SVGID_46_" gradientUnits="userSpaceOnUse" x1="548.2414" y1="64.8552" x2="608.3558" y2="64.8552" gradientTransform="matrix(-1 0 0 1 834.9788 0)">
		<stop  offset="0" style="stop-color:#328AB6"/>
		<stop  offset="1" style="stop-color:#0068D8"/>
	</linearGradient>
	<path class="st58" d="M227.7,66.1h58c0.6,0,1-0.5,1-1v-0.4c0-0.6-0.5-1-1-1h-58c-0.6,0-1,0.5-1,1V65
		C226.6,65.6,227.1,66.1,227.7,66.1z"/>
	
		<linearGradient id="SVGID_47_" gradientUnits="userSpaceOnUse" x1="548.2414" y1="74.0216" x2="577.6058" y2="74.0216" gradientTransform="matrix(-1 0 0 1 834.9788 0)">
		<stop  offset="0" style="stop-color:#328AB6"/>
		<stop  offset="1" style="stop-color:#0068D8"/>
	</linearGradient>
	<path class="st59" d="M258.4,75.2h27.3c0.6,0,1-0.5,1-1v-0.4c0-0.6-0.5-1-1-1h-27.3c-0.6,0-1,0.5-1,1v0.4
		C257.4,74.8,257.8,75.2,258.4,75.2z"/>
</g>
<g class="st1">
	
		<linearGradient id="SVGID_48_" gradientUnits="userSpaceOnUse" x1="590.4824" y1="220.101" x2="655.7296" y2="220.101" gradientTransform="matrix(1 0 0 -1 -576.7523 355.4815)">
		<stop  offset="0" style="stop-color:#328AB6"/>
		<stop  offset="1" style="stop-color:#0068D8"/>
	</linearGradient>
	<path style="fill:#FFFFFF;stroke:url(#SVGID_48_);stroke-miterlimit:10;" d="M77.4,119.6H15.3c-0.6,0-1,0.5-1,1v29.4
		c0,0.6,0.5,1,1,1h51.3c0.6,0,1-0.5,1-1v-21.4c0-0.4,0.2-0.7,0.5-0.9l9.9-6.2C78.9,121,78.5,119.6,77.4,119.6z"/>
	
		<linearGradient id="SVGID_49_" gradientUnits="userSpaceOnUse" x1="595.8236" y1="210.4106" x2="639.5774" y2="210.4106" gradientTransform="matrix(1 0 0 -1 -576.7523 355.4815)">
		<stop  offset="0" style="stop-color:#328AB6"/>
		<stop  offset="1" style="stop-color:#0068D8"/>
	</linearGradient>
	<path class="st61" d="M61.9,144.2H20c-0.5,0-0.9,0.4-0.9,0.9l0,0c0,0.5,0.4,0.9,0.9,0.9h42c0.5,0,0.9-0.4,0.9-0.9l0,0
		C62.8,144.6,62.4,144.2,61.9,144.2z"/>
	
		<linearGradient id="SVGID_50_" gradientUnits="userSpaceOnUse" x1="595.8236" y1="217.0822" x2="639.5774" y2="217.0822" gradientTransform="matrix(1 0 0 -1 -576.7523 355.4815)">
		<stop  offset="0" style="stop-color:#328AB6"/>
		<stop  offset="1" style="stop-color:#0068D8"/>
	</linearGradient>
	<path class="st62" d="M61.9,137.5H20c-0.5,0-0.9,0.4-0.9,0.9l0,0c0,0.5,0.4,0.9,0.9,0.9h42c0.5,0,0.9-0.4,0.9-0.9l0,0
		C62.8,137.9,62.4,137.5,61.9,137.5z"/>
	
		<linearGradient id="SVGID_51_" gradientUnits="userSpaceOnUse" x1="595.8236" y1="223.7539" x2="639.5774" y2="223.7539" gradientTransform="matrix(1 0 0 -1 -576.7523 355.4815)">
		<stop  offset="0" style="stop-color:#328AB6"/>
		<stop  offset="1" style="stop-color:#0068D8"/>
	</linearGradient>
	<path class="st63" d="M61.9,130.8H20c-0.5,0-0.9,0.4-0.9,0.9l0,0c0,0.5,0.4,0.9,0.9,0.9h42c0.5,0,0.9-0.4,0.9-0.9l0,0
		C62.8,131.2,62.4,130.8,61.9,130.8z"/>
	
		<linearGradient id="SVGID_52_" gradientUnits="userSpaceOnUse" x1="595.8236" y1="230.4256" x2="617.1962" y2="230.4256" gradientTransform="matrix(1 0 0 -1 -576.7523 355.4815)">
		<stop  offset="0" style="stop-color:#328AB6"/>
		<stop  offset="1" style="stop-color:#0068D8"/>
	</linearGradient>
	<path class="st64" d="M39.6,124.2H20c-0.5,0-0.9,0.4-0.9,0.9l0,0c0,0.5,0.4,0.9,0.9,0.9h19.6c0.5,0,0.9-0.4,0.9-0.9l0,0
		C40.4,124.6,40,124.2,39.6,124.2z"/>
</g>
</svg>
