<?xml version="1.0" encoding="utf-8"?>
<!-- Generator: Adobe Illustrator 24.0.1, SVG Export Plug-In . SVG Version: 6.00 Build 0)  -->
<svg version="1.1" id="Layer_1" xmlns="http://www.w3.org/2000/svg" xmlns:xlink="http://www.w3.org/1999/xlink" x="0px" y="0px"
	 viewBox="0 0 320 320" style="enable-background:new 0 0 320 320;" xml:space="preserve">
<style type="text/css">
	.st0{opacity:5.000000e-02;fill:url(#SVGID_1_);}
	.st1{opacity:0.8;}
	.st2{fill:url(#SVGID_2_);}
	.st3{opacity:0.8;fill:url(#SVGID_3_);}
	.st4{opacity:0.8;fill:url(#SVGID_4_);}
	.st5{opacity:0.2;fill:url(#SVGID_5_);}
	.st6{fill:#0000FF;}
	.st7{fill:#E44235;}
	.st8{fill:#FFFFFF;}
	.st9{opacity:0.7;}
	.st10{opacity:0.72;stroke:#FFFFFF;stroke-miterlimit:10;}
	.st11{fill:none;stroke:url(#SVGID_6_);stroke-width:0.5;stroke-miterlimit:10;}
	.st12{fill:url(#SVGID_7_);}
	.st13{fill:url(#SVGID_8_);}
	.st14{fill:url(#SVGID_9_);}
	.st15{fill:url(#SVGID_10_);}
	.st16{fill:url(#SVGID_11_);}
	.st17{fill:url(#SVGID_12_);}
	.st18{opacity:0.5;fill:url(#SVGID_13_);}
	.st19{opacity:0.15;}
	.st20{fill:url(#SVGID_14_);}
	.st21{fill:#009FD8;}
	.st22{fill-rule:evenodd;clip-rule:evenodd;fill:#FFFFFF;}
	.st23{opacity:0.72;}
	.st24{fill:none;stroke:#FFFFFF;stroke-miterlimit:10;}
	.st25{fill:url(#SVGID_15_);}
	.st26{fill:url(#SVGID_16_);}
	.st27{fill:url(#SVGID_17_);}
	.st28{fill:url(#SVGID_18_);}
	.st29{fill:url(#SVGID_19_);}
	.st30{fill:url(#SVGID_20_);}
	.st31{fill:url(#SVGID_21_);}
	.st32{fill:url(#SVGID_22_);}
	.st33{fill:url(#SVGID_23_);}
	.st34{fill:url(#SVGID_24_);}
	.st35{fill:url(#SVGID_25_);}
	.st36{fill:url(#SVGID_26_);}
	.st37{fill:url(#SVGID_27_);}
	.st38{fill:url(#SVGID_28_);}
	.st39{fill:url(#SVGID_29_);}
	.st40{fill:url(#SVGID_30_);}
	.st41{fill:url(#SVGID_31_);}
	.st42{fill:url(#SVGID_32_);}
	.st43{opacity:0.22;fill:url(#SVGID_33_);}
	.st44{opacity:0.4;fill:#EAE9E8;}
	.st45{fill:url(#SVGID_34_);}
	.st46{fill:url(#SVGID_35_);}
	.st47{fill:url(#SVGID_36_);}
	.st48{fill:url(#SVGID_37_);}
	.st49{fill:url(#SVGID_38_);}
	.st50{fill:url(#SVGID_39_);}
	.st51{fill:url(#SVGID_40_);}
	.st52{fill:url(#SVGID_41_);}
	.st53{fill:url(#SVGID_42_);}
	.st54{fill:none;stroke:#999999;stroke-width:0.5;stroke-miterlimit:10;stroke-dasharray:1;}
	.st55{fill:url(#SVGID_43_);}
	.st56{fill:url(#SVGID_44_);}
	.st57{fill:url(#SVGID_45_);}
	.st58{fill:url(#SVGID_46_);}
	.st59{fill:url(#SVGID_47_);}
	.st60{fill:url(#SVGID_48_);}
	.st61{fill:url(#SVGID_49_);}
	.st62{fill:url(#SVGID_50_);}
	.st63{fill:url(#SVGID_51_);}
	.st64{fill:url(#SVGID_52_);}
	.st65{fill:url(#SVGID_53_);}
	.st66{fill:url(#SVGID_54_);}
	.st67{fill:url(#SVGID_55_);}
	.st68{fill:url(#SVGID_56_);}
	.st69{fill:url(#SVGID_57_);}
	.st70{fill:none;stroke:url(#SVGID_58_);stroke-width:0.5;stroke-miterlimit:10;stroke-dasharray:1;}
	.st71{fill:none;stroke:url(#SVGID_59_);stroke-width:0.5;stroke-miterlimit:10;stroke-dasharray:1;}
	.st72{fill:none;stroke:url(#SVGID_60_);stroke-width:0.5;stroke-miterlimit:10;stroke-dasharray:1;}
	.st73{fill:none;stroke:url(#SVGID_61_);stroke-width:0.5;stroke-miterlimit:10;stroke-dasharray:1;}
	.st74{fill:none;stroke:url(#SVGID_62_);stroke-width:0.5;stroke-miterlimit:10;stroke-dasharray:1;}
	.st75{fill:url(#SVGID_63_);}
	.st76{fill:url(#SVGID_64_);}
	.st77{fill:url(#SVGID_65_);}
	.st78{fill:url(#SVGID_66_);}
	.st79{fill:url(#SVGID_67_);}
	.st80{fill:url(#SVGID_68_);}
	.st81{fill:url(#SVGID_69_);}
	.st82{fill:url(#SVGID_70_);}
	.st83{fill:url(#SVGID_71_);}
	.st84{fill:url(#SVGID_72_);}
	.st85{fill:url(#SVGID_73_);}
	.st86{fill:none;stroke:url(#SVGID_74_);stroke-miterlimit:10;}
	.st87{fill:none;stroke:#0068D8;stroke-miterlimit:10;}
	.st88{fill:#F4F4F4;}
	.st89{fill-rule:evenodd;clip-rule:evenodd;fill:#009FD8;}
	.st90{opacity:0.4;fill-rule:evenodd;clip-rule:evenodd;fill:#EAE9E8;}
	.st91{fill-rule:evenodd;clip-rule:evenodd;fill:url(#SVGID_75_);}
	.st92{fill-rule:evenodd;clip-rule:evenodd;fill:url(#SVGID_76_);}
	.st93{fill-rule:evenodd;clip-rule:evenodd;fill:url(#SVGID_77_);}
	.st94{fill-rule:evenodd;clip-rule:evenodd;fill:url(#SVGID_78_);}
	.st95{fill-rule:evenodd;clip-rule:evenodd;fill:url(#SVGID_79_);}
	.st96{fill-rule:evenodd;clip-rule:evenodd;fill:url(#SVGID_80_);}
	.st97{fill-rule:evenodd;clip-rule:evenodd;fill:url(#SVGID_81_);}
	.st98{fill-rule:evenodd;clip-rule:evenodd;fill:url(#SVGID_82_);}
	.st99{fill-rule:evenodd;clip-rule:evenodd;fill:url(#SVGID_83_);}
	.st100{fill-rule:evenodd;clip-rule:evenodd;fill:url(#SVGID_84_);}
	.st101{fill-rule:evenodd;clip-rule:evenodd;fill:url(#SVGID_85_);}
	.st102{fill-rule:evenodd;clip-rule:evenodd;fill:url(#SVGID_86_);}
	.st103{fill-rule:evenodd;clip-rule:evenodd;fill:url(#SVGID_87_);}
	.st104{fill-rule:evenodd;clip-rule:evenodd;fill:url(#SVGID_88_);}
	.st105{fill-rule:evenodd;clip-rule:evenodd;fill:url(#SVGID_89_);}
	.st106{fill-rule:evenodd;clip-rule:evenodd;fill:url(#SVGID_90_);}
	.st107{fill-rule:evenodd;clip-rule:evenodd;fill:url(#SVGID_91_);}
	.st108{fill-rule:evenodd;clip-rule:evenodd;fill:url(#SVGID_92_);}
	.st109{fill-rule:evenodd;clip-rule:evenodd;fill:url(#SVGID_93_);}
	.st110{fill-rule:evenodd;clip-rule:evenodd;fill:url(#SVGID_94_);}
	.st111{fill-rule:evenodd;clip-rule:evenodd;fill:url(#SVGID_95_);}
	.st112{fill-rule:evenodd;clip-rule:evenodd;fill:url(#SVGID_96_);}
	.st113{fill-rule:evenodd;clip-rule:evenodd;fill:url(#SVGID_97_);}
	.st114{fill-rule:evenodd;clip-rule:evenodd;fill:url(#SVGID_98_);}
	.st115{fill-rule:evenodd;clip-rule:evenodd;fill:url(#SVGID_99_);}
	.st116{fill-rule:evenodd;clip-rule:evenodd;fill:url(#SVGID_100_);}
	.st117{fill-rule:evenodd;clip-rule:evenodd;fill:url(#SVGID_101_);}
	.st118{fill-rule:evenodd;clip-rule:evenodd;fill:url(#SVGID_102_);}
	.st119{fill-rule:evenodd;clip-rule:evenodd;fill:url(#SVGID_103_);}
	.st120{fill-rule:evenodd;clip-rule:evenodd;fill:url(#SVGID_104_);}
	.st121{fill-rule:evenodd;clip-rule:evenodd;fill:url(#SVGID_105_);}
	.st122{fill-rule:evenodd;clip-rule:evenodd;fill:url(#SVGID_106_);}
	.st123{fill-rule:evenodd;clip-rule:evenodd;fill:url(#SVGID_107_);}
	.st124{fill-rule:evenodd;clip-rule:evenodd;fill:url(#SVGID_108_);}
	.st125{fill-rule:evenodd;clip-rule:evenodd;fill:url(#SVGID_109_);}
	.st126{fill-rule:evenodd;clip-rule:evenodd;fill:url(#SVGID_110_);}
	.st127{fill-rule:evenodd;clip-rule:evenodd;fill:url(#SVGID_111_);}
	.st128{fill-rule:evenodd;clip-rule:evenodd;fill:url(#SVGID_112_);}
	.st129{fill-rule:evenodd;clip-rule:evenodd;fill:url(#SVGID_113_);}
	.st130{fill-rule:evenodd;clip-rule:evenodd;fill:url(#SVGID_114_);}
	.st131{fill-rule:evenodd;clip-rule:evenodd;fill:url(#SVGID_115_);}
	.st132{fill-rule:evenodd;clip-rule:evenodd;fill:url(#SVGID_116_);}
	.st133{fill-rule:evenodd;clip-rule:evenodd;fill:url(#SVGID_117_);}
	.st134{fill-rule:evenodd;clip-rule:evenodd;fill:url(#SVGID_118_);}
	.st135{fill-rule:evenodd;clip-rule:evenodd;fill:url(#SVGID_119_);}
	.st136{fill-rule:evenodd;clip-rule:evenodd;fill:url(#SVGID_120_);}
	.st137{fill-rule:evenodd;clip-rule:evenodd;fill:url(#SVGID_121_);}
	.st138{fill-rule:evenodd;clip-rule:evenodd;fill:url(#SVGID_122_);}
	.st139{fill-rule:evenodd;clip-rule:evenodd;fill:url(#SVGID_123_);}
	.st140{fill-rule:evenodd;clip-rule:evenodd;fill:url(#SVGID_124_);}
	.st141{opacity:0.2;fill-rule:evenodd;clip-rule:evenodd;fill:url(#SVGID_125_);}
	.st142{fill-rule:evenodd;clip-rule:evenodd;fill:url(#SVGID_126_);}
	.st143{fill-rule:evenodd;clip-rule:evenodd;fill:url(#SVGID_127_);}
	.st144{fill-rule:evenodd;clip-rule:evenodd;fill:url(#SVGID_128_);}
	.st145{fill-rule:evenodd;clip-rule:evenodd;fill:url(#SVGID_129_);}
	.st146{fill-rule:evenodd;clip-rule:evenodd;fill:url(#SVGID_130_);}
	.st147{fill-rule:evenodd;clip-rule:evenodd;fill:url(#SVGID_131_);}
	.st148{fill-rule:evenodd;clip-rule:evenodd;fill:url(#SVGID_132_);}
	.st149{fill-rule:evenodd;clip-rule:evenodd;fill:url(#SVGID_133_);}
	.st150{fill-rule:evenodd;clip-rule:evenodd;fill:url(#SVGID_134_);}
	.st151{fill-rule:evenodd;clip-rule:evenodd;fill:url(#SVGID_135_);}
	.st152{fill-rule:evenodd;clip-rule:evenodd;fill:url(#SVGID_136_);}
	.st153{fill-rule:evenodd;clip-rule:evenodd;fill:url(#SVGID_137_);}
	.st154{fill-rule:evenodd;clip-rule:evenodd;fill:url(#SVGID_138_);}
	.st155{fill-rule:evenodd;clip-rule:evenodd;fill:url(#SVGID_139_);}
	.st156{fill-rule:evenodd;clip-rule:evenodd;fill:url(#SVGID_140_);}
	.st157{fill-rule:evenodd;clip-rule:evenodd;fill:url(#SVGID_141_);}
	.st158{fill-rule:evenodd;clip-rule:evenodd;fill:url(#SVGID_142_);}
	.st159{fill-rule:evenodd;clip-rule:evenodd;fill:url(#SVGID_143_);}
	.st160{fill-rule:evenodd;clip-rule:evenodd;fill:url(#SVGID_144_);}
	.st161{fill-rule:evenodd;clip-rule:evenodd;fill:url(#SVGID_145_);}
	.st162{fill-rule:evenodd;clip-rule:evenodd;fill:url(#SVGID_146_);}
	.st163{fill-rule:evenodd;clip-rule:evenodd;fill:url(#SVGID_147_);}
	.st164{fill-rule:evenodd;clip-rule:evenodd;fill:url(#SVGID_148_);}
	.st165{fill-rule:evenodd;clip-rule:evenodd;fill:url(#SVGID_149_);}
	.st166{fill-rule:evenodd;clip-rule:evenodd;fill:url(#SVGID_150_);}
	.st167{fill-rule:evenodd;clip-rule:evenodd;fill:url(#SVGID_151_);}
	.st168{fill-rule:evenodd;clip-rule:evenodd;fill:url(#SVGID_152_);}
	.st169{fill-rule:evenodd;clip-rule:evenodd;fill:url(#SVGID_153_);}
	.st170{fill-rule:evenodd;clip-rule:evenodd;fill:url(#SVGID_154_);}
	.st171{fill-rule:evenodd;clip-rule:evenodd;fill:url(#SVGID_155_);}
	.st172{fill-rule:evenodd;clip-rule:evenodd;fill:url(#SVGID_156_);}
	.st173{fill-rule:evenodd;clip-rule:evenodd;fill:url(#SVGID_157_);}
	.st174{fill-rule:evenodd;clip-rule:evenodd;fill:url(#SVGID_158_);}
	.st175{fill-rule:evenodd;clip-rule:evenodd;fill:url(#SVGID_159_);}
	.st176{fill-rule:evenodd;clip-rule:evenodd;fill:url(#SVGID_160_);}
	.st177{fill-rule:evenodd;clip-rule:evenodd;fill:url(#SVGID_161_);}
	.st178{fill-rule:evenodd;clip-rule:evenodd;fill:url(#SVGID_162_);}
	.st179{fill-rule:evenodd;clip-rule:evenodd;fill:url(#SVGID_163_);}
	.st180{fill-rule:evenodd;clip-rule:evenodd;fill:url(#SVGID_164_);}
	.st181{fill-rule:evenodd;clip-rule:evenodd;fill:url(#SVGID_165_);}
	.st182{fill-rule:evenodd;clip-rule:evenodd;fill:url(#SVGID_166_);}
	.st183{fill-rule:evenodd;clip-rule:evenodd;fill:url(#SVGID_167_);}
	.st184{fill-rule:evenodd;clip-rule:evenodd;fill:url(#SVGID_168_);}
	.st185{fill-rule:evenodd;clip-rule:evenodd;fill:url(#SVGID_169_);}
	.st186{fill-rule:evenodd;clip-rule:evenodd;fill:url(#SVGID_170_);}
	.st187{fill-rule:evenodd;clip-rule:evenodd;fill:url(#SVGID_171_);}
	.st188{fill-rule:evenodd;clip-rule:evenodd;fill:url(#SVGID_172_);}
	.st189{fill-rule:evenodd;clip-rule:evenodd;fill:url(#SVGID_173_);}
	.st190{fill-rule:evenodd;clip-rule:evenodd;fill:url(#SVGID_174_);}
	.st191{fill-rule:evenodd;clip-rule:evenodd;fill:url(#SVGID_175_);}
	.st192{fill-rule:evenodd;clip-rule:evenodd;fill:url(#SVGID_176_);}
	.st193{fill-rule:evenodd;clip-rule:evenodd;fill:url(#SVGID_177_);}
	.st194{fill-rule:evenodd;clip-rule:evenodd;fill:url(#SVGID_178_);}
	.st195{fill-rule:evenodd;clip-rule:evenodd;fill:url(#SVGID_179_);}
	.st196{fill-rule:evenodd;clip-rule:evenodd;fill:url(#SVGID_180_);}
	.st197{fill-rule:evenodd;clip-rule:evenodd;fill:url(#SVGID_181_);}
	.st198{fill-rule:evenodd;clip-rule:evenodd;fill:url(#SVGID_182_);}
	.st199{fill-rule:evenodd;clip-rule:evenodd;fill:url(#SVGID_183_);}
	.st200{fill-rule:evenodd;clip-rule:evenodd;fill:url(#SVGID_184_);}
	.st201{fill-rule:evenodd;clip-rule:evenodd;fill:url(#SVGID_185_);}
	.st202{fill-rule:evenodd;clip-rule:evenodd;fill:url(#SVGID_186_);}
	.st203{fill-rule:evenodd;clip-rule:evenodd;fill:url(#SVGID_187_);}
	.st204{fill-rule:evenodd;clip-rule:evenodd;fill:url(#SVGID_188_);}
	.st205{fill-rule:evenodd;clip-rule:evenodd;fill:url(#SVGID_189_);}
	.st206{fill-rule:evenodd;clip-rule:evenodd;fill:url(#SVGID_190_);}
	.st207{fill-rule:evenodd;clip-rule:evenodd;fill:url(#SVGID_191_);}
	.st208{fill-rule:evenodd;clip-rule:evenodd;fill:url(#SVGID_192_);}
	.st209{fill-rule:evenodd;clip-rule:evenodd;fill:url(#SVGID_193_);}
	.st210{fill-rule:evenodd;clip-rule:evenodd;fill:url(#SVGID_194_);}
	.st211{fill-rule:evenodd;clip-rule:evenodd;fill:url(#SVGID_195_);}
	.st212{fill-rule:evenodd;clip-rule:evenodd;fill:url(#SVGID_196_);}
	.st213{fill-rule:evenodd;clip-rule:evenodd;fill:url(#SVGID_197_);}
	.st214{fill-rule:evenodd;clip-rule:evenodd;fill:url(#SVGID_198_);}
	.st215{fill-rule:evenodd;clip-rule:evenodd;fill:url(#SVGID_199_);}
	.st216{fill-rule:evenodd;clip-rule:evenodd;fill:url(#SVGID_200_);}
	.st217{fill-rule:evenodd;clip-rule:evenodd;fill:url(#SVGID_201_);}
	.st218{fill-rule:evenodd;clip-rule:evenodd;fill:url(#SVGID_202_);}
	.st219{fill-rule:evenodd;clip-rule:evenodd;fill:url(#SVGID_203_);}
	.st220{fill-rule:evenodd;clip-rule:evenodd;fill:url(#SVGID_204_);}
	.st221{fill-rule:evenodd;clip-rule:evenodd;fill:url(#SVGID_205_);}
	.st222{fill-rule:evenodd;clip-rule:evenodd;fill:url(#SVGID_206_);}
	.st223{fill-rule:evenodd;clip-rule:evenodd;fill:url(#SVGID_207_);}
	.st224{opacity:0.2;fill-rule:evenodd;clip-rule:evenodd;fill:url(#SVGID_208_);}
	.st225{fill:url(#SVGID_209_);}
	.st226{fill:url(#SVGID_210_);}
	.st227{fill:#FFFFFF;stroke:url(#SVGID_211_);stroke-miterlimit:10;}
	.st228{fill:url(#SVGID_212_);}
	.st229{fill:url(#SVGID_213_);}
	.st230{fill:url(#SVGID_214_);}
	.st231{fill:url(#SVGID_215_);}
	.st232{fill:#FFFFFF;stroke:url(#SVGID_216_);stroke-miterlimit:10;}
	.st233{fill:url(#SVGID_217_);}
	.st234{fill:url(#SVGID_218_);}
	.st235{fill:url(#SVGID_219_);}
	.st236{fill:url(#SVGID_220_);}
	.st237{opacity:0.1;fill:url(#SVGID_221_);}
	.st238{fill:url(#SVGID_222_);}
	.st239{fill:url(#SVGID_223_);}
	.st240{fill:url(#SVGID_224_);}
	.st241{fill:url(#SVGID_225_);}
	.st242{fill:url(#SVGID_226_);}
	.st243{fill:url(#SVGID_227_);}
	.st244{fill:url(#SVGID_228_);}
	.st245{fill:url(#SVGID_229_);}
	.st246{fill:url(#SVGID_230_);}
	.st247{fill:url(#SVGID_231_);}
</style>
<path class="st90" d="M105.9,58.3c-11.2,21.3-2,49.2-24.3,68.4c-12.2,10.5-51.1,20.9-51.9,39.7c-0.9,22.9,53.2,27.2,64.1,67.2
	c3.4,12.6,0,23.4-2.8,35.7c-2,8.8-1.3,19.9,6.6,24.5c3.2,1.9,7,2.3,10.6,2.4c21.3,1,41.8-5.7,59.9-16.6
	c27.9-16.9,40.4-51.3,67.5-66.9c13.8-7.9,28.7,2.7,41.9-5.6c15.5-9.7,15.9-36.3,8.5-51c-16.1-32.2-100.5-21.1-59.6-73
	c44.5-56.6-87.4-62.6-114.7-33.3C109.3,52.6,107.4,55.4,105.9,58.3z"/>
<linearGradient id="SVGID_1_" gradientUnits="userSpaceOnUse" x1="149.9541" y1="265.4321" x2="149.9541" y2="264.6928">
	<stop  offset="0" style="stop-color:#328AB6"/>
	<stop  offset="1" style="stop-color:#0068D8"/>
</linearGradient>
<circle style="fill-rule:evenodd;clip-rule:evenodd;fill:url(#SVGID_1_);" cx="150" cy="265.1" r="0.4"/>
<linearGradient id="SVGID_2_" gradientUnits="userSpaceOnUse" x1="158.0448" y1="263.335" x2="158.0448" y2="262.1645">
	<stop  offset="0" style="stop-color:#328AB6"/>
	<stop  offset="1" style="stop-color:#0068D8"/>
</linearGradient>
<circle style="fill-rule:evenodd;clip-rule:evenodd;fill:url(#SVGID_2_);" cx="158" cy="262.8" r="0.6"/>
<linearGradient id="SVGID_3_" gradientUnits="userSpaceOnUse" x1="162.5044" y1="266.5793" x2="162.5044" y2="265.4088">
	<stop  offset="0" style="stop-color:#328AB6"/>
	<stop  offset="1" style="stop-color:#0068D8"/>
</linearGradient>
<circle style="fill-rule:evenodd;clip-rule:evenodd;fill:url(#SVGID_3_);" cx="162.5" cy="266" r="0.6"/>
<linearGradient id="SVGID_4_" gradientUnits="userSpaceOnUse" x1="179.3323" y1="270.4269" x2="179.3323" y2="269.2565">
	<stop  offset="0" style="stop-color:#328AB6"/>
	<stop  offset="1" style="stop-color:#0068D8"/>
</linearGradient>
<circle style="fill-rule:evenodd;clip-rule:evenodd;fill:url(#SVGID_4_);" cx="179.3" cy="269.8" r="0.6"/>
<linearGradient id="SVGID_5_" gradientUnits="userSpaceOnUse" x1="187.7639" y1="261.9651" x2="187.7639" y2="260.7947">
	<stop  offset="0" style="stop-color:#328AB6"/>
	<stop  offset="1" style="stop-color:#0068D8"/>
</linearGradient>
<circle style="fill-rule:evenodd;clip-rule:evenodd;fill:url(#SVGID_5_);" cx="187.8" cy="261.4" r="0.6"/>
<linearGradient id="SVGID_6_" gradientUnits="userSpaceOnUse" x1="147.1956" y1="264.3364" x2="147.1956" y2="263.166">
	<stop  offset="0" style="stop-color:#328AB6"/>
	<stop  offset="1" style="stop-color:#0068D8"/>
</linearGradient>
<circle style="fill-rule:evenodd;clip-rule:evenodd;fill:url(#SVGID_6_);" cx="147.2" cy="263.8" r="0.6"/>
<linearGradient id="SVGID_7_" gradientUnits="userSpaceOnUse" x1="145.5264" y1="267.5706" x2="145.5264" y2="266.8313">
	<stop  offset="0" style="stop-color:#328AB6"/>
	<stop  offset="1" style="stop-color:#0068D8"/>
</linearGradient>
<circle style="fill-rule:evenodd;clip-rule:evenodd;fill:url(#SVGID_7_);" cx="145.5" cy="267.2" r="0.4"/>
<linearGradient id="SVGID_8_" gradientUnits="userSpaceOnUse" x1="155.7999" y1="267.8354" x2="155.7999" y2="267.0961">
	<stop  offset="0" style="stop-color:#328AB6"/>
	<stop  offset="1" style="stop-color:#0068D8"/>
</linearGradient>
<circle style="fill-rule:evenodd;clip-rule:evenodd;fill:url(#SVGID_8_);" cx="155.8" cy="267.5" r="0.4"/>
<linearGradient id="SVGID_9_" gradientUnits="userSpaceOnUse" x1="168.6312" y1="270.5738" x2="168.6312" y2="269.8345">
	<stop  offset="0" style="stop-color:#328AB6"/>
	<stop  offset="1" style="stop-color:#0068D8"/>
</linearGradient>
<circle style="fill-rule:evenodd;clip-rule:evenodd;fill:url(#SVGID_9_);" cx="168.6" cy="270.2" r="0.4"/>
<linearGradient id="SVGID_10_" gradientUnits="userSpaceOnUse" x1="197.8709" y1="259.9451" x2="197.8709" y2="259.2058">
	<stop  offset="0" style="stop-color:#328AB6"/>
	<stop  offset="1" style="stop-color:#0068D8"/>
</linearGradient>
<circle style="fill-rule:evenodd;clip-rule:evenodd;fill:url(#SVGID_10_);" cx="197.9" cy="259.6" r="0.4"/>
<linearGradient id="SVGID_11_" gradientUnits="userSpaceOnUse" x1="191.2955" y1="263.5504" x2="191.2955" y2="262.8111">
	<stop  offset="0" style="stop-color:#328AB6"/>
	<stop  offset="1" style="stop-color:#0068D8"/>
</linearGradient>
<circle style="fill-rule:evenodd;clip-rule:evenodd;fill:url(#SVGID_11_);" cx="191.3" cy="263.2" r="0.4"/>
<linearGradient id="SVGID_12_" gradientUnits="userSpaceOnUse" x1="188.6968" y1="267.8354" x2="188.6968" y2="267.0961">
	<stop  offset="0" style="stop-color:#328AB6"/>
	<stop  offset="1" style="stop-color:#0068D8"/>
</linearGradient>
<circle style="fill-rule:evenodd;clip-rule:evenodd;fill:url(#SVGID_12_);" cx="188.7" cy="267.5" r="0.4"/>
<linearGradient id="SVGID_13_" gradientUnits="userSpaceOnUse" x1="176.9564" y1="266.365" x2="176.9564" y2="265.6257">
	<stop  offset="0" style="stop-color:#328AB6"/>
	<stop  offset="1" style="stop-color:#0068D8"/>
</linearGradient>
<circle style="fill-rule:evenodd;clip-rule:evenodd;fill:url(#SVGID_13_);" cx="177" cy="266" r="0.4"/>
<linearGradient id="SVGID_14_" gradientUnits="userSpaceOnUse" x1="165.5404" y1="263.1892" x2="165.5404" y2="262.4499">
	<stop  offset="0" style="stop-color:#328AB6"/>
	<stop  offset="1" style="stop-color:#0068D8"/>
</linearGradient>
<circle style="fill-rule:evenodd;clip-rule:evenodd;fill:url(#SVGID_14_);" cx="165.5" cy="262.8" r="0.4"/>
<linearGradient id="SVGID_15_" gradientUnits="userSpaceOnUse" x1="164.2237" y1="268.5577" x2="164.2237" y2="267.8184">
	<stop  offset="0" style="stop-color:#328AB6"/>
	<stop  offset="1" style="stop-color:#0068D8"/>
</linearGradient>
<circle style="fill-rule:evenodd;clip-rule:evenodd;fill:url(#SVGID_15_);" cx="164.2" cy="268.2" r="0.4"/>
<linearGradient id="SVGID_16_" gradientUnits="userSpaceOnUse" x1="178.3994" y1="260.6674" x2="178.3994" y2="259.9281">
	<stop  offset="0" style="stop-color:#328AB6"/>
	<stop  offset="1" style="stop-color:#0068D8"/>
</linearGradient>
<circle style="fill-rule:evenodd;clip-rule:evenodd;fill:url(#SVGID_16_);" cx="178.4" cy="260.3" r="0.4"/>
<linearGradient id="SVGID_17_" gradientUnits="userSpaceOnUse" x1="147.9937" y1="261.3897" x2="147.9937" y2="260.6504">
	<stop  offset="0" style="stop-color:#328AB6"/>
	<stop  offset="1" style="stop-color:#0068D8"/>
</linearGradient>
<circle style="fill-rule:evenodd;clip-rule:evenodd;fill:url(#SVGID_17_);" cx="148" cy="261" r="0.4"/>
<linearGradient id="SVGID_18_" gradientUnits="userSpaceOnUse" x1="163.8456" y1="60.3297" x2="163.8456" y2="59.5297">
	<stop  offset="0" style="stop-color:#328AB6"/>
	<stop  offset="1" style="stop-color:#0068D8"/>
</linearGradient>
<circle style="fill-rule:evenodd;clip-rule:evenodd;fill:url(#SVGID_18_);" cx="163.8" cy="59.9" r="0.4"/>
<linearGradient id="SVGID_19_" gradientUnits="userSpaceOnUse" x1="165.4215" y1="35.6987" x2="165.4215" y2="34.8988">
	<stop  offset="0" style="stop-color:#328AB6"/>
	<stop  offset="1" style="stop-color:#0068D8"/>
</linearGradient>
<circle style="fill-rule:evenodd;clip-rule:evenodd;fill:url(#SVGID_19_);" cx="165.4" cy="35.3" r="0.4"/>
<linearGradient id="SVGID_20_" gradientUnits="userSpaceOnUse" x1="189.3428" y1="49.8787" x2="189.3428" y2="49.0787">
	<stop  offset="0" style="stop-color:#328AB6"/>
	<stop  offset="1" style="stop-color:#0068D8"/>
</linearGradient>
<circle style="fill-rule:evenodd;clip-rule:evenodd;fill:url(#SVGID_20_);" cx="189.3" cy="49.5" r="0.4"/>
<linearGradient id="SVGID_21_" gradientUnits="userSpaceOnUse" x1="172.0894" y1="54.1758" x2="172.0894" y2="53.3759">
	<stop  offset="0" style="stop-color:#328AB6"/>
	<stop  offset="1" style="stop-color:#0068D8"/>
</linearGradient>
<circle style="fill-rule:evenodd;clip-rule:evenodd;fill:url(#SVGID_21_);" cx="172.1" cy="53.8" r="0.4"/>
<linearGradient id="SVGID_22_" gradientUnits="userSpaceOnUse" x1="172.871" y1="45.4692" x2="172.871" y2="44.6692">
	<stop  offset="0" style="stop-color:#328AB6"/>
	<stop  offset="1" style="stop-color:#0068D8"/>
</linearGradient>
<circle style="fill-rule:evenodd;clip-rule:evenodd;fill:url(#SVGID_22_);" cx="172.9" cy="45.1" r="0.4"/>
<linearGradient id="SVGID_23_" gradientUnits="userSpaceOnUse" x1="195.0894" y1="43.6123" x2="195.0894" y2="42.8123">
	<stop  offset="0" style="stop-color:#328AB6"/>
	<stop  offset="1" style="stop-color:#0068D8"/>
</linearGradient>
<circle style="fill-rule:evenodd;clip-rule:evenodd;fill:url(#SVGID_23_);" cx="195.1" cy="43.2" r="0.4"/>
<linearGradient id="SVGID_24_" gradientUnits="userSpaceOnUse" x1="172.4802" y1="29.617" x2="172.4802" y2="28.8171">
	<stop  offset="0" style="stop-color:#328AB6"/>
	<stop  offset="1" style="stop-color:#0068D8"/>
</linearGradient>
<circle style="fill-rule:evenodd;clip-rule:evenodd;fill:url(#SVGID_24_);" cx="172.5" cy="29.2" r="0.4"/>
<linearGradient id="SVGID_25_" gradientUnits="userSpaceOnUse" x1="-119.6009" y1="-522.608" x2="-119.6009" y2="-523.8261" gradientTransform="matrix(0.7347 0.6784 -0.6784 0.7347 -113.4535 518.7228)">
	<stop  offset="0" style="stop-color:#328AB6"/>
	<stop  offset="1" style="stop-color:#0068D8"/>
</linearGradient>
<circle style="fill-rule:evenodd;clip-rule:evenodd;fill:url(#SVGID_25_);" cx="153.6" cy="53.2" r="0.6"/>
<linearGradient id="SVGID_26_" gradientUnits="userSpaceOnUse" x1="-116.7193" y1="-532.5806" x2="-116.7193" y2="-533.7987" gradientTransform="matrix(0.7347 0.6784 -0.6784 0.7347 -113.4535 518.7228)">
	<stop  offset="0" style="stop-color:#328AB6"/>
	<stop  offset="1" style="stop-color:#0068D8"/>
</linearGradient>
<circle style="fill-rule:evenodd;clip-rule:evenodd;fill:url(#SVGID_26_);" cx="162.5" cy="47.8" r="0.6"/>
<linearGradient id="SVGID_27_" gradientUnits="userSpaceOnUse" x1="-110.962" y1="-551.8327" x2="-110.962" y2="-553.0508" gradientTransform="matrix(0.7347 0.6784 -0.6784 0.7347 -113.4535 518.7228)">
	<stop  offset="0" style="stop-color:#328AB6"/>
	<stop  offset="1" style="stop-color:#0068D8"/>
</linearGradient>
<circle style="fill-rule:evenodd;clip-rule:evenodd;fill:url(#SVGID_27_);" cx="179.8" cy="37.6" r="0.6"/>
<linearGradient id="SVGID_28_" gradientUnits="userSpaceOnUse" x1="187.1471" y1="30.6551" x2="187.1471" y2="29.8551">
	<stop  offset="0" style="stop-color:#328AB6"/>
	<stop  offset="1" style="stop-color:#0068D8"/>
</linearGradient>
<circle style="fill-rule:evenodd;clip-rule:evenodd;fill:url(#SVGID_28_);" cx="187.1" cy="30.3" r="0.4"/>
<linearGradient id="SVGID_29_" gradientUnits="userSpaceOnUse" x1="-1409.4178" y1="1002.8782" x2="-1409.4178" y2="1002.0782" gradientTransform="matrix(-0.7071 -0.7071 0.7071 -0.7071 -1437.415 -70.5079)">
	<stop  offset="0" style="stop-color:#328AB6"/>
	<stop  offset="1" style="stop-color:#0068D8"/>
</linearGradient>
<circle style="fill-rule:evenodd;clip-rule:evenodd;fill:url(#SVGID_29_);" cx="268.1" cy="217.2" r="0.4"/>
<linearGradient id="SVGID_30_" gradientUnits="userSpaceOnUse" x1="-1396.8148" y1="1010.5597" x2="-1396.8148" y2="1009.7597" gradientTransform="matrix(-0.7071 -0.7071 0.7071 -0.7071 -1437.415 -70.5079)">
	<stop  offset="0" style="stop-color:#328AB6"/>
	<stop  offset="1" style="stop-color:#0068D8"/>
</linearGradient>
<circle style="fill-rule:evenodd;clip-rule:evenodd;fill:url(#SVGID_30_);" cx="264.6" cy="202.9" r="0.4"/>
<linearGradient id="SVGID_31_" gradientUnits="userSpaceOnUse" x1="-1420.4088" y1="1011.3413" x2="-1420.4088" y2="1010.5413" gradientTransform="matrix(-0.7071 -0.7071 0.7071 -0.7071 -1437.415 -70.5079)">
	<stop  offset="0" style="stop-color:#328AB6"/>
	<stop  offset="1" style="stop-color:#0068D8"/>
</linearGradient>
<circle style="fill-rule:evenodd;clip-rule:evenodd;fill:url(#SVGID_31_);" cx="281.8" cy="219" r="0.4"/>
<linearGradient id="SVGID_32_" gradientUnits="userSpaceOnUse" x1="-1390.147" y1="1029.0369" x2="-1390.147" y2="1028.2368" gradientTransform="matrix(-0.7071 -0.7071 0.7071 -0.7071 -1437.415 -70.5079)">
	<stop  offset="0" style="stop-color:#328AB6"/>
	<stop  offset="1" style="stop-color:#0068D8"/>
</linearGradient>
<circle style="fill-rule:evenodd;clip-rule:evenodd;fill:url(#SVGID_32_);" cx="272.9" cy="185.1" r="0.4"/>
<linearGradient id="SVGID_33_" gradientUnits="userSpaceOnUse" x1="-1409.4178" y1="1019.2548" x2="-1409.4178" y2="1018.4548" gradientTransform="matrix(-0.7071 -0.7071 0.7071 -0.7071 -1437.415 -70.5079)">
	<stop  offset="0" style="stop-color:#328AB6"/>
	<stop  offset="1" style="stop-color:#0068D8"/>
</linearGradient>
<circle style="fill-rule:evenodd;clip-rule:evenodd;fill:url(#SVGID_33_);" cx="279.6" cy="205.7" r="0.4"/>
<linearGradient id="SVGID_34_" gradientUnits="userSpaceOnUse" x1="-1397.2056" y1="1020.6592" x2="-1397.2056" y2="1019.8593" gradientTransform="matrix(-0.7071 -0.7071 0.7071 -0.7071 -1437.415 -70.5079)">
	<stop  offset="0" style="stop-color:#328AB6"/>
	<stop  offset="1" style="stop-color:#0068D8"/>
</linearGradient>
<circle style="fill-rule:evenodd;clip-rule:evenodd;fill:url(#SVGID_34_);" cx="272" cy="196" r="0.4"/>
<linearGradient id="SVGID_35_" gradientUnits="userSpaceOnUse" x1="-1389.7561" y1="1004.478" x2="-1389.7561" y2="1003.678" gradientTransform="matrix(-0.7071 -0.7071 0.7071 -0.7071 -1437.415 -70.5079)">
	<stop  offset="0" style="stop-color:#328AB6"/>
	<stop  offset="1" style="stop-color:#0068D8"/>
</linearGradient>
<circle style="fill-rule:evenodd;clip-rule:evenodd;fill:url(#SVGID_35_);" cx="255.3" cy="202.2" r="0.4"/>
<linearGradient id="SVGID_36_" gradientUnits="userSpaceOnUse" x1="-606.0271" y1="1253.4342" x2="-606.0271" y2="1252.2161" gradientTransform="matrix(-3.980956e-02 -0.9992 0.9992 -3.980956e-02 -990.3989 -357.0766)">
	<stop  offset="0" style="stop-color:#328AB6"/>
	<stop  offset="1" style="stop-color:#0068D8"/>
</linearGradient>
<circle style="fill-rule:evenodd;clip-rule:evenodd;fill:url(#SVGID_36_);" cx="285.6" cy="198.6" r="0.6"/>
<linearGradient id="SVGID_37_" gradientUnits="userSpaceOnUse" x1="-615.1851" y1="1235.5563" x2="-615.1851" y2="1234.3383" gradientTransform="matrix(-3.980956e-02 -0.9992 0.9992 -3.980956e-02 -990.3989 -357.0766)">
	<stop  offset="0" style="stop-color:#328AB6"/>
	<stop  offset="1" style="stop-color:#0068D8"/>
</linearGradient>
<circle style="fill-rule:evenodd;clip-rule:evenodd;fill:url(#SVGID_37_);" cx="268.1" cy="208.5" r="0.6"/>
<linearGradient id="SVGID_38_" gradientUnits="userSpaceOnUse" x1="-597.3881" y1="1224.2095" x2="-597.3881" y2="1222.9915" gradientTransform="matrix(-3.980956e-02 -0.9992 0.9992 -3.980956e-02 -990.3989 -357.0766)">
	<stop  offset="0" style="stop-color:#328AB6"/>
	<stop  offset="1" style="stop-color:#0068D8"/>
</linearGradient>
<circle style="fill-rule:evenodd;clip-rule:evenodd;fill:url(#SVGID_38_);" cx="256" cy="191.1" r="0.6"/>
<linearGradient id="SVGID_39_" gradientUnits="userSpaceOnUse" x1="-1375.0892" y1="1005.5161" x2="-1375.0892" y2="1004.7161" gradientTransform="matrix(-0.7071 -0.7071 0.7071 -0.7071 -1437.415 -70.5079)">
	<stop  offset="0" style="stop-color:#328AB6"/>
	<stop  offset="1" style="stop-color:#0068D8"/>
</linearGradient>
<circle style="fill-rule:evenodd;clip-rule:evenodd;fill:url(#SVGID_39_);" cx="245.6" cy="191.1" r="0.4"/>
<linearGradient id="SVGID_40_" gradientUnits="userSpaceOnUse" x1="-1243.4579" y1="873.0984" x2="-1243.4579" y2="872.2984" gradientTransform="matrix(-0.813 0.5822 -0.5822 -0.813 -412.3488 1588.0143)">
	<stop  offset="0" style="stop-color:#328AB6"/>
	<stop  offset="1" style="stop-color:#0068D8"/>
</linearGradient>
<circle style="fill-rule:evenodd;clip-rule:evenodd;fill:url(#SVGID_40_);" cx="90.5" cy="154.5" r="0.4"/>
<linearGradient id="SVGID_41_" gradientUnits="userSpaceOnUse" x1="-1230.855" y1="880.7798" x2="-1230.855" y2="879.9799" gradientTransform="matrix(-0.813 0.5822 -0.5822 -0.813 -412.3488 1588.0143)">
	<stop  offset="0" style="stop-color:#328AB6"/>
	<stop  offset="1" style="stop-color:#0068D8"/>
</linearGradient>
<circle style="fill-rule:evenodd;clip-rule:evenodd;fill:url(#SVGID_41_);" cx="75.8" cy="155.6" r="0.4"/>
<linearGradient id="SVGID_42_" gradientUnits="userSpaceOnUse" x1="-1254.449" y1="881.5615" x2="-1254.449" y2="880.7615" gradientTransform="matrix(-0.813 0.5822 -0.5822 -0.813 -412.3488 1588.0143)">
	<stop  offset="0" style="stop-color:#328AB6"/>
	<stop  offset="1" style="stop-color:#0068D8"/>
</linearGradient>
<circle style="fill-rule:evenodd;clip-rule:evenodd;fill:url(#SVGID_42_);" cx="94.5" cy="141.2" r="0.4"/>
<linearGradient id="SVGID_43_" gradientUnits="userSpaceOnUse" x1="-1224.187" y1="899.257" x2="-1224.187" y2="898.457" gradientTransform="matrix(-0.813 0.5822 -0.5822 -0.813 -412.3488 1588.0143)">
	<stop  offset="0" style="stop-color:#328AB6"/>
	<stop  offset="1" style="stop-color:#0068D8"/>
</linearGradient>
<circle style="fill-rule:evenodd;clip-rule:evenodd;fill:url(#SVGID_43_);" cx="59.6" cy="144.5" r="0.4"/>
<linearGradient id="SVGID_44_" gradientUnits="userSpaceOnUse" x1="-1243.4579" y1="889.475" x2="-1243.4579" y2="888.675" gradientTransform="matrix(-0.813 0.5822 -0.5822 -0.813 -412.3488 1588.0143)">
	<stop  offset="0" style="stop-color:#328AB6"/>
	<stop  offset="1" style="stop-color:#0068D8"/>
</linearGradient>
<circle style="fill-rule:evenodd;clip-rule:evenodd;fill:url(#SVGID_44_);" cx="81" cy="141.2" r="0.4"/>
<linearGradient id="SVGID_45_" gradientUnits="userSpaceOnUse" x1="-1231.2457" y1="890.8794" x2="-1231.2457" y2="890.0794" gradientTransform="matrix(-0.813 0.5822 -0.5822 -0.813 -412.3488 1588.0143)">
	<stop  offset="0" style="stop-color:#328AB6"/>
	<stop  offset="1" style="stop-color:#0068D8"/>
</linearGradient>
<circle style="fill-rule:evenodd;clip-rule:evenodd;fill:url(#SVGID_45_);" cx="70.2" cy="147.2" r="0.4"/>
<linearGradient id="SVGID_46_" gradientUnits="userSpaceOnUse" x1="-1223.7963" y1="874.6982" x2="-1223.7963" y2="873.8982" gradientTransform="matrix(-0.813 0.5822 -0.5822 -0.813 -412.3488 1588.0143)">
	<stop  offset="0" style="stop-color:#328AB6"/>
	<stop  offset="1" style="stop-color:#0068D8"/>
</linearGradient>
<circle style="fill-rule:evenodd;clip-rule:evenodd;fill:url(#SVGID_46_);" cx="73.6" cy="164.7" r="0.4"/>
<linearGradient id="SVGID_47_" gradientUnits="userSpaceOnUse" x1="-572.1393" y1="1045.4988" x2="-572.1393" y2="1044.2808" gradientTransform="matrix(-0.9923 -0.1238 0.1238 -0.9923 -622.1144 1100.2197)">
	<stop  offset="0" style="stop-color:#328AB6"/>
	<stop  offset="1" style="stop-color:#0068D8"/>
</linearGradient>
<circle style="fill-rule:evenodd;clip-rule:evenodd;fill:url(#SVGID_47_);" cx="75" cy="134.2" r="0.6"/>
<linearGradient id="SVGID_48_" gradientUnits="userSpaceOnUse" x1="-581.2973" y1="1027.621" x2="-581.2973" y2="1026.4028" gradientTransform="matrix(-0.9923 -0.1238 0.1238 -0.9923 -622.1144 1100.2197)">
	<stop  offset="0" style="stop-color:#328AB6"/>
	<stop  offset="1" style="stop-color:#0068D8"/>
</linearGradient>
<circle style="fill-rule:evenodd;clip-rule:evenodd;fill:url(#SVGID_48_);" cx="81.9" cy="153.1" r="0.6"/>
<linearGradient id="SVGID_49_" gradientUnits="userSpaceOnUse" x1="-563.5003" y1="1016.2742" x2="-563.5003" y2="1015.0561" gradientTransform="matrix(-0.9923 -0.1238 0.1238 -0.9923 -622.1144 1100.2197)">
	<stop  offset="0" style="stop-color:#328AB6"/>
	<stop  offset="1" style="stop-color:#0068D8"/>
</linearGradient>
<circle style="fill-rule:evenodd;clip-rule:evenodd;fill:url(#SVGID_49_);" cx="62.8" cy="162.1" r="0.6"/>
<linearGradient id="SVGID_50_" gradientUnits="userSpaceOnUse" x1="-1209.1294" y1="875.7362" x2="-1209.1294" y2="874.9362" gradientTransform="matrix(-0.813 0.5822 -0.5822 -0.813 -412.3488 1588.0143)">
	<stop  offset="0" style="stop-color:#328AB6"/>
	<stop  offset="1" style="stop-color:#0068D8"/>
</linearGradient>
<circle style="fill-rule:evenodd;clip-rule:evenodd;fill:url(#SVGID_50_);" cx="61.1" cy="172.4" r="0.4"/>
<linearGradient id="SVGID_51_" gradientUnits="userSpaceOnUse" x1="25.2617" y1="155.128" x2="240.2123" y2="155.128">
	<stop  offset="0" style="stop-color:#328AB6"/>
	<stop  offset="1" style="stop-color:#0068D8"/>
</linearGradient>
<path style="opacity:0.1;fill:url(#SVGID_51_);" d="M76.9,65.2c-8.4,5.1-32.6,20.2-44.8,50.7c-20.9,51.8,12.2,99.5,14.9,103.3
	c3.5,4.9,37.6,51.1,72.1,44.2c31.9-6.4,28.7-51.2,81.8-83.8c18.4-11.3,27.1-11,33.8-22.7c14-24.4-0.7-65.8-26-88.3
	C172.1,35.7,113.4,43.1,76.9,65.2z"/>
<g>
	<linearGradient id="SVGID_52_" gradientUnits="userSpaceOnUse" x1="158.0954" y1="117.1555" x2="236.9964" y2="117.1555">
		<stop  offset="0" style="stop-color:#328AB6"/>
		<stop  offset="1" style="stop-color:#0068D8"/>
	</linearGradient>
	<path class="st64" d="M182.9,135.2c14.6,0,28.7,5,40,14.2l14.2-14.2L186.8,85L159,112.9v6.3c0,1.9-0.3,3.7-0.9,5.5l11.8,11.8h0
		C174.2,135.6,178.5,135.1,182.9,135.2L182.9,135.2z"/>
	<linearGradient id="SVGID_53_" gradientUnits="userSpaceOnUse" x1="228.7139" y1="149.3579" x2="247.6888" y2="149.3579">
		<stop  offset="0" style="stop-color:#328AB6"/>
		<stop  offset="1" style="stop-color:#0068D8"/>
	</linearGradient>
	<path class="st65" d="M234.5,161.6l13.2-13.2l-1.7-11.2v0c-0.2,0.3-0.3,0.6-0.6,0.8l-16.7,16.7
		C230.8,156.9,232.7,159.2,234.5,161.6L234.5,161.6z"/>
	<linearGradient id="SVGID_54_" gradientUnits="userSpaceOnUse" x1="158.9543" y1="96.5023" x2="270.326" y2="96.5023">
		<stop  offset="0" style="stop-color:#328AB6"/>
		<stop  offset="1" style="stop-color:#0068D8"/>
	</linearGradient>
	<path class="st66" d="M189.7,76.5l55.6,55.6l-6.2-41.4c-3.6-1.1-6.4-3.9-7.7-7.5c-1.2-3.6-0.7-7.5,1.4-10.6c2.1-3.1,5.6-5,9.4-5.2
		c3.8-0.1,7.4,1.5,9.7,4.4c2.4,2.9,3.2,6.8,2.2,10.5c-1,3.6-3.6,6.6-7.1,8l7.6,50.9l15.6-15.6l-7.4-66.6l-66.6-7.4L159,89v12.6
		L184,76.6C185.6,75,188.1,75,189.7,76.5L189.7,76.5z"/>
	<linearGradient id="SVGID_55_" gradientUnits="userSpaceOnUse" x1="49.0329" y1="202.489" x2="161.1805" y2="202.489">
		<stop  offset="0" style="stop-color:#328AB6"/>
		<stop  offset="1" style="stop-color:#0068D8"/>
	</linearGradient>
	<path class="st67" d="M135.6,241.5l-12,12l-5.6-5.6l12.7-12.7c-1.9-2.7-3.5-5.5-4.9-8.5l-14.4,14.4l-5.6-5.6l16.8-16.8h0
		c-1.2-3.6-2-7.2-2.5-10.9l-21,21l-5.6-5.6l25.9-25.9l0.1,0.1v0c0.3-12.8,4.5-25.3,12-35.7s17.9-18.3,30-22.7l-7-7v0
		c-3.7,4.5-9.3,7.1-15.1,7.1h-23l3,15.1c0.3,1.6-0.4,3.2-1.7,4.1c-0.6,0.4-1.4,0.6-2.2,0.7c-0.8,0-1.6-0.3-2.3-0.7l-13.5-9.7
		L49,198.9l74.1,74.1l22.5-22.5C141.9,247.9,138.6,244.8,135.6,241.5L135.6,241.5z M68.5,198.5l25.9-25.9l5.6,5.6l-25.9,25.9
		L68.5,198.5z M80.8,210.8l25.9-25.9l5.6,5.6l-25.9,25.9L80.8,210.8z"/>
	<linearGradient id="SVGID_56_" gradientUnits="userSpaceOnUse" x1="238.6454" y1="79.3659" x2="246.6146" y2="79.3659">
		<stop  offset="0" style="stop-color:#328AB6"/>
		<stop  offset="1" style="stop-color:#0068D8"/>
	</linearGradient>
	<path class="st68" d="M246.6,79.4c0,2.2-1.8,4-4,4c-2.2,0-4-1.8-4-4c0-2.2,1.8-4,4-4C244.8,75.4,246.6,77.2,246.6,79.4L246.6,79.4z
		"/>
	<linearGradient id="SVGID_57_" gradientUnits="userSpaceOnUse" x1="127.0764" y1="198.9041" x2="238.6454" y2="198.9041">
		<stop  offset="0" style="stop-color:#328AB6"/>
		<stop  offset="1" style="stop-color:#0068D8"/>
	</linearGradient>
	<path class="st69" d="M182.9,143.1c-14.8,0-29,5.9-39.4,16.3s-16.3,24.7-16.3,39.4c0,14.8,5.9,29,16.3,39.4
		c10.5,10.5,24.7,16.3,39.4,16.3c14.8,0,29-5.9,39.4-16.3c10.5-10.5,16.3-24.7,16.3-39.4c0-14.8-5.9-29-16.4-39.4
		C211.8,149,197.7,143.1,182.9,143.1z M182.9,246.7c-12.7,0-24.8-5-33.8-14c-9-9-14-21.1-14-33.8c0-12.7,5-24.8,14-33.8
		c9-9,21.1-14,33.8-14c12.7,0,24.8,5,33.8,14c9,9,14,21.1,14,33.8c0,12.7-5.1,24.8-14,33.8C207.7,241.7,195.5,246.7,182.9,246.7z"/>
	<linearGradient id="SVGID_58_" gradientUnits="userSpaceOnUse" x1="143.0149" y1="198.9041" x2="222.707" y2="198.9041">
		<stop  offset="0" style="stop-color:#328AB6"/>
		<stop  offset="1" style="stop-color:#0068D8"/>
	</linearGradient>
	<path style="fill:url(#SVGID_58_);" d="M182.9,159.1c-10.6,0-20.7,4.2-28.2,11.7S143,188.3,143,198.9s4.2,20.7,11.7,28.2
		c7.5,7.5,17.6,11.7,28.2,11.7s20.7-4.2,28.2-11.7c7.5-7.5,11.7-17.6,11.7-28.2c0-10.6-4.2-20.7-11.7-28.2
		C203.6,163.3,193.4,159.1,182.9,159.1z M178.9,194.9h8c3.2,0,6.2,1.3,8.5,3.5c2.2,2.2,3.5,5.3,3.5,8.5v4c0,3.2-1.3,6.2-3.5,8.5
		c-2.2,2.2-5.3,3.5-8.5,3.5v8h-8v-8c-3.2,0-6.2-1.3-8.5-3.5c-2.2-2.2-3.5-5.3-3.5-8.5h8c0,1.1,0.4,2.1,1.2,2.8
		c0.7,0.7,1.8,1.2,2.8,1.2h8c1.1,0,2.1-0.4,2.8-1.2s1.2-1.8,1.2-2.8v-4c0-1.1-0.4-2.1-1.2-2.8c-0.7-0.7-1.8-1.2-2.8-1.2h-8
		c-3.2,0-6.2-1.3-8.5-3.5c-2.2-2.2-3.5-5.3-3.5-8.5v-4c0-3.2,1.3-6.2,3.5-8.5c2.2-2.2,5.3-3.5,8.5-3.5v-8h8v8c3.2,0,6.2,1.3,8.5,3.5
		c2.2,2.2,3.5,5.3,3.5,8.5h-8c0-1.1-0.4-2.1-1.2-2.8c-0.7-0.7-1.8-1.2-2.8-1.2h-8c-2.2,0-4,1.8-4,4v4c0,1.1,0.4,2.1,1.2,2.8
		C176.8,194.5,177.8,194.9,178.9,194.9z"/>
	<linearGradient id="SVGID_59_" gradientUnits="userSpaceOnUse" x1="256.1795" y1="161.0502" x2="270.5365" y2="161.0502">
		<stop  offset="0" style="stop-color:#328AB6"/>
		<stop  offset="1" style="stop-color:#0068D8"/>
	</linearGradient>
	<path style="fill:url(#SVGID_59_);" d="M270.4,172.4l-6.2-29.3l-8,8l3.4,22.9c0.2,1.5,0.9,2.8,2.1,3.7c1.2,0.9,2.7,1.3,4.2,1.1
		c1.5-0.2,2.8-1,3.7-2.3C270.4,175.4,270.7,173.9,270.4,172.4L270.4,172.4z"/>
	<linearGradient id="SVGID_60_" gradientUnits="userSpaceOnUse" x1="226.6911" y1="256.552" x2="262.5524" y2="256.552">
		<stop  offset="0" style="stop-color:#328AB6"/>
		<stop  offset="1" style="stop-color:#0068D8"/>
	</linearGradient>
	<path style="fill:url(#SVGID_60_);" d="M232.7,238.5c-1.9,2.3-3.9,4.5-6.1,6.6l28.2,28.2c1.3,1.3,3.2,1.7,4.9,1
		c1.7-0.7,2.8-2.3,2.8-4.1c0-1.2-0.5-2.3-1.3-3.2L232.7,238.5z"/>
</g>
<linearGradient id="SVGID_61_" gradientUnits="userSpaceOnUse" x1="47.3845" y1="98.7289" x2="150.9845" y2="98.7289">
	<stop  offset="0" style="stop-color:#328AB6"/>
	<stop  offset="1" style="stop-color:#0068D8"/>
</linearGradient>
<path style="fill:url(#SVGID_61_);" d="M147.5,55c-2.2-2.2-5.3-3.5-8.4-3.5H59.3c-3.2,0-6.2,1.3-8.5,3.5c-2.2,2.2-3.5,5.3-3.5,8.5
	v55.8c0,3.2,1.3,6.2,3.5,8.5s5.3,3.5,8.5,3.5h27.9c0.8,0,1.6,0.3,2.3,0.7l19.7,14.1l-2-10c0-0.3-0.1-0.5-0.1-0.8
	c0-0.9,0.3-1.8,0.9-2.5c0.8-0.9,1.9-1.5,3.1-1.5H139c3.2,0,6.2-1.3,8.4-3.5c2.2-2.3,3.5-5.3,3.5-8.5V63.4
	C151,60.3,149.7,57.2,147.5,55z M128.9,67.9h7.3v46.4h-7.3V67.9z M118.6,103.3h7.3v11h-7.3V103.3z M108.2,85.2h7.3v29.1h-7.3V85.2z
	 M97.9,70.5h7.3v43.8h-7.3V70.5z M87.6,95.4h7.3v18.8h-7.3V95.4z M77.1,98.9h7.3v15.3h-7.3V98.9z M66.2,91.9h7.3v22.4h-7.3V91.9z
	 M62.6,119.8h-3.6V65.7h3.6V119.8z M138.6,119.8H64.4v-4.5h74.3V119.8z"/>
</svg>
