<?xml version="1.0" encoding="utf-8"?>
<!-- Generator: Adobe Illustrator 24.0.1, SVG Export Plug-In . SVG Version: 6.00 Build 0)  -->
<svg version="1.1" id="Layer_1" xmlns="http://www.w3.org/2000/svg" xmlns:xlink="http://www.w3.org/1999/xlink" x="0px" y="0px"
	 viewBox="0 0 320 320" style="enable-background:new 0 0 320 320;" xml:space="preserve">
<style type="text/css">
	.st0{opacity:5.000000e-02;fill:url(#SVGID_3_);enable-background:new    ;}
	.st1{opacity:0.7;}
	.st2{fill:#009FD8;}
	.st3{opacity:0.2;fill:#008CB2;enable-background:new    ;}
	.st4{fill:#E44235;}
	.st5{fill:#FFFFFF;}
	.st6{opacity:0.72;stroke:#FFFFFF;stroke-miterlimit:10;enable-background:new    ;}
	.st7{fill:none;stroke:url(#SVGID_4_);stroke-width:0.5;stroke-miterlimit:10;}
	.st8{fill:#0084A3;}
	.st9{fill:#0094BC;}
	.st10{fill-rule:evenodd;clip-rule:evenodd;fill:#FFFFFF;}
	.st11{opacity:0.8;}
	.st12{opacity:0.72;}
	.st13{fill:none;stroke:#FFFFFF;stroke-miterlimit:10;}
	.st14{fill:url(#SVGID_5_);}
	.st15{fill:url(#SVGID_6_);}
	.st16{fill:url(#SVGID_7_);}
	.st17{fill:url(#SVGID_8_);}
	.st18{fill:url(#SVGID_9_);}
	.st19{fill:url(#SVGID_10_);}
	.st20{fill:url(#SVGID_11_);}
	.st21{fill:url(#SVGID_12_);}
	.st22{fill:url(#SVGID_13_);}
	.st23{fill:url(#SVGID_14_);}
	.st24{fill:url(#SVGID_15_);}
	.st25{fill:url(#SVGID_16_);}
	.st26{fill:url(#SVGID_17_);}
	.st27{fill:url(#SVGID_18_);}
	.st28{opacity:0.1;fill:#0084A3;enable-background:new    ;}
	.st29{opacity:0.4;fill:#EAE9E8;enable-background:new    ;}
	.st30{fill:none;stroke:#999999;stroke-width:0.5;stroke-miterlimit:10;stroke-dasharray:1;}
	.st31{fill:url(#SVGID_19_);}
	.st32{fill:url(#SVGID_20_);}
	.st33{fill:url(#SVGID_21_);}
	.st34{fill:url(#SVGID_22_);}
	.st35{fill:url(#SVGID_23_);}
	.st36{fill:url(#SVGID_24_);}
	.st37{fill:url(#SVGID_25_);}
	.st38{fill:url(#SVGID_26_);}
	.st39{fill:url(#SVGID_27_);}
	.st40{fill:url(#SVGID_28_);}
	.st41{fill:url(#SVGID_29_);}
	.st42{fill:url(#SVGID_30_);}
	.st43{fill:url(#SVGID_31_);}
	.st44{fill:url(#SVGID_32_);}
	.st45{fill:url(#SVGID_33_);}
	.st46{fill:none;stroke:#009FD8;stroke-width:0.5;stroke-miterlimit:10;stroke-dasharray:1;}
	.st47{fill:url(#SVGID_34_);}
	.st48{opacity:0.72;enable-background:new    ;}
	.st49{fill:none;stroke:#009FD8;stroke-miterlimit:10;}
	.st50{fill:none;stroke:#0068D8;stroke-miterlimit:10;}
	.st51{fill:#F4F4F4;}
	.st52{fill-rule:evenodd;clip-rule:evenodd;fill:#009FD8;}
	.st53{opacity:0.4;fill-rule:evenodd;clip-rule:evenodd;fill:#EAE9E8;enable-background:new    ;}
	.st54{opacity:0.2;fill-rule:evenodd;clip-rule:evenodd;fill:url(#SVGID_35_);enable-background:new    ;}
	.st55{fill-rule:evenodd;clip-rule:evenodd;fill:url(#SVGID_36_);}
	.st56{fill-rule:evenodd;clip-rule:evenodd;fill:url(#SVGID_37_);}
	.st57{fill-rule:evenodd;clip-rule:evenodd;fill:url(#SVGID_38_);}
	.st58{fill-rule:evenodd;clip-rule:evenodd;fill:url(#SVGID_39_);}
	.st59{fill-rule:evenodd;clip-rule:evenodd;fill:url(#SVGID_40_);}
	.st60{fill-rule:evenodd;clip-rule:evenodd;fill:url(#SVGID_41_);}
	.st61{fill-rule:evenodd;clip-rule:evenodd;fill:url(#SVGID_42_);}
	.st62{fill-rule:evenodd;clip-rule:evenodd;fill:url(#SVGID_43_);}
	.st63{fill-rule:evenodd;clip-rule:evenodd;fill:url(#SVGID_44_);}
	.st64{fill-rule:evenodd;clip-rule:evenodd;fill:url(#SVGID_45_);}
	.st65{fill-rule:evenodd;clip-rule:evenodd;fill:url(#SVGID_46_);}
	.st66{fill-rule:evenodd;clip-rule:evenodd;fill:url(#SVGID_47_);}
	.st67{fill-rule:evenodd;clip-rule:evenodd;fill:url(#SVGID_48_);}
	.st68{fill-rule:evenodd;clip-rule:evenodd;fill:url(#SVGID_49_);}
	.st69{fill-rule:evenodd;clip-rule:evenodd;fill:url(#SVGID_50_);}
	.st70{fill-rule:evenodd;clip-rule:evenodd;fill:url(#SVGID_51_);}
	.st71{fill-rule:evenodd;clip-rule:evenodd;fill:url(#SVGID_52_);}
	.st72{fill-rule:evenodd;clip-rule:evenodd;fill:url(#SVGID_53_);}
	.st73{fill-rule:evenodd;clip-rule:evenodd;fill:url(#SVGID_54_);}
	.st74{fill-rule:evenodd;clip-rule:evenodd;fill:url(#SVGID_55_);}
	.st75{fill-rule:evenodd;clip-rule:evenodd;fill:url(#SVGID_56_);}
	.st76{fill-rule:evenodd;clip-rule:evenodd;fill:url(#SVGID_57_);}
	.st77{fill-rule:evenodd;clip-rule:evenodd;fill:url(#SVGID_58_);}
	.st78{fill-rule:evenodd;clip-rule:evenodd;fill:url(#SVGID_59_);}
	.st79{fill-rule:evenodd;clip-rule:evenodd;fill:url(#SVGID_60_);}
	.st80{fill-rule:evenodd;clip-rule:evenodd;fill:url(#SVGID_61_);}
	.st81{fill-rule:evenodd;clip-rule:evenodd;fill:url(#SVGID_62_);}
	.st82{fill-rule:evenodd;clip-rule:evenodd;fill:url(#SVGID_63_);}
	.st83{fill-rule:evenodd;clip-rule:evenodd;fill:url(#SVGID_64_);}
	.st84{fill-rule:evenodd;clip-rule:evenodd;fill:url(#SVGID_65_);}
	.st85{fill-rule:evenodd;clip-rule:evenodd;fill:url(#SVGID_66_);}
	.st86{fill-rule:evenodd;clip-rule:evenodd;fill:url(#SVGID_67_);}
	.st87{fill-rule:evenodd;clip-rule:evenodd;fill:url(#SVGID_68_);}
	.st88{fill-rule:evenodd;clip-rule:evenodd;fill:url(#SVGID_69_);}
	.st89{fill-rule:evenodd;clip-rule:evenodd;fill:url(#SVGID_70_);}
	.st90{fill-rule:evenodd;clip-rule:evenodd;fill:url(#SVGID_71_);}
	.st91{fill-rule:evenodd;clip-rule:evenodd;fill:url(#SVGID_72_);}
	.st92{fill-rule:evenodd;clip-rule:evenodd;fill:url(#SVGID_73_);}
	.st93{fill-rule:evenodd;clip-rule:evenodd;fill:url(#SVGID_74_);}
	.st94{fill-rule:evenodd;clip-rule:evenodd;fill:url(#SVGID_75_);}
	.st95{fill-rule:evenodd;clip-rule:evenodd;fill:url(#SVGID_76_);}
	.st96{fill-rule:evenodd;clip-rule:evenodd;fill:url(#SVGID_77_);}
	.st97{fill-rule:evenodd;clip-rule:evenodd;fill:url(#SVGID_78_);}
	.st98{fill-rule:evenodd;clip-rule:evenodd;fill:url(#SVGID_79_);}
	.st99{fill-rule:evenodd;clip-rule:evenodd;fill:url(#SVGID_80_);}
	.st100{fill-rule:evenodd;clip-rule:evenodd;fill:url(#SVGID_81_);}
	.st101{fill-rule:evenodd;clip-rule:evenodd;fill:url(#SVGID_82_);}
	.st102{fill-rule:evenodd;clip-rule:evenodd;fill:url(#SVGID_83_);}
	.st103{fill-rule:evenodd;clip-rule:evenodd;fill:url(#SVGID_84_);}
	.st104{fill-rule:evenodd;clip-rule:evenodd;fill:url(#SVGID_85_);}
	.st105{fill-rule:evenodd;clip-rule:evenodd;fill:url(#SVGID_86_);}
	.st106{fill-rule:evenodd;clip-rule:evenodd;fill:url(#SVGID_87_);}
	.st107{fill-rule:evenodd;clip-rule:evenodd;fill:url(#SVGID_88_);}
	.st108{fill-rule:evenodd;clip-rule:evenodd;fill:url(#SVGID_89_);}
	.st109{fill-rule:evenodd;clip-rule:evenodd;fill:url(#SVGID_90_);}
	.st110{fill-rule:evenodd;clip-rule:evenodd;fill:url(#SVGID_91_);}
	.st111{fill-rule:evenodd;clip-rule:evenodd;fill:url(#SVGID_92_);}
	.st112{fill-rule:evenodd;clip-rule:evenodd;fill:url(#SVGID_93_);}
	.st113{fill-rule:evenodd;clip-rule:evenodd;fill:url(#SVGID_94_);}
	.st114{fill-rule:evenodd;clip-rule:evenodd;fill:url(#SVGID_95_);}
	.st115{fill-rule:evenodd;clip-rule:evenodd;fill:url(#SVGID_96_);}
	.st116{fill-rule:evenodd;clip-rule:evenodd;fill:url(#SVGID_97_);}
	.st117{fill-rule:evenodd;clip-rule:evenodd;fill:url(#SVGID_98_);}
	.st118{fill-rule:evenodd;clip-rule:evenodd;fill:url(#SVGID_99_);}
	.st119{fill-rule:evenodd;clip-rule:evenodd;fill:url(#SVGID_100_);}
	.st120{fill-rule:evenodd;clip-rule:evenodd;fill:url(#SVGID_101_);}
	.st121{fill-rule:evenodd;clip-rule:evenodd;fill:url(#SVGID_102_);}
	.st122{fill-rule:evenodd;clip-rule:evenodd;fill:url(#SVGID_103_);}
	.st123{fill-rule:evenodd;clip-rule:evenodd;fill:url(#SVGID_104_);}
	.st124{fill-rule:evenodd;clip-rule:evenodd;fill:url(#SVGID_105_);}
	.st125{fill-rule:evenodd;clip-rule:evenodd;fill:url(#SVGID_106_);}
	.st126{fill-rule:evenodd;clip-rule:evenodd;fill:url(#SVGID_107_);}
	.st127{fill-rule:evenodd;clip-rule:evenodd;fill:url(#SVGID_108_);}
	.st128{fill-rule:evenodd;clip-rule:evenodd;fill:url(#SVGID_109_);}
	.st129{fill-rule:evenodd;clip-rule:evenodd;fill:url(#SVGID_110_);}
	.st130{fill-rule:evenodd;clip-rule:evenodd;fill:url(#SVGID_111_);}
	.st131{fill-rule:evenodd;clip-rule:evenodd;fill:url(#SVGID_112_);}
	.st132{fill-rule:evenodd;clip-rule:evenodd;fill:url(#SVGID_113_);}
	.st133{opacity:0.2;fill-rule:evenodd;clip-rule:evenodd;fill:url(#SVGID_114_);enable-background:new    ;}
	.st134{fill:#FFFFFF;stroke:url(#SVGID_115_);stroke-miterlimit:10;}
	.st135{fill:url(#SVGID_116_);}
	.st136{fill:url(#SVGID_117_);}
	.st137{fill:url(#SVGID_118_);}
	.st138{fill:url(#SVGID_119_);}
	.st139{fill:#FFFFFF;stroke:url(#SVGID_120_);stroke-miterlimit:10;}
	.st140{fill:url(#SVGID_121_);}
	.st141{fill:url(#SVGID_122_);}
	.st142{fill:url(#SVGID_123_);}
	.st143{fill:url(#SVGID_124_);}
	.st144{fill-rule:evenodd;clip-rule:evenodd;fill:url(#SVGID_125_);}
	.st145{fill-rule:evenodd;clip-rule:evenodd;fill:url(#SVGID_126_);}
	.st146{fill-rule:evenodd;clip-rule:evenodd;fill:url(#SVGID_127_);}
	.st147{fill-rule:evenodd;clip-rule:evenodd;fill:url(#SVGID_128_);}
	.st148{fill-rule:evenodd;clip-rule:evenodd;fill:url(#SVGID_129_);}
	.st149{fill-rule:evenodd;clip-rule:evenodd;fill:url(#SVGID_130_);}
	.st150{fill-rule:evenodd;clip-rule:evenodd;fill:url(#SVGID_131_);}
	.st151{fill-rule:evenodd;clip-rule:evenodd;fill:url(#SVGID_132_);}
	.st152{fill-rule:evenodd;clip-rule:evenodd;fill:url(#SVGID_133_);}
	.st153{fill-rule:evenodd;clip-rule:evenodd;fill:url(#SVGID_134_);}
	.st154{fill-rule:evenodd;clip-rule:evenodd;fill:url(#SVGID_135_);}
	.st155{fill-rule:evenodd;clip-rule:evenodd;fill:url(#SVGID_136_);}
	.st156{fill-rule:evenodd;clip-rule:evenodd;fill:url(#SVGID_137_);}
	.st157{fill-rule:evenodd;clip-rule:evenodd;fill:url(#SVGID_138_);}
	.st158{fill-rule:evenodd;clip-rule:evenodd;fill:url(#SVGID_139_);}
	.st159{fill-rule:evenodd;clip-rule:evenodd;fill:url(#SVGID_140_);}
	.st160{fill-rule:evenodd;clip-rule:evenodd;fill:url(#SVGID_141_);}
	.st161{fill-rule:evenodd;clip-rule:evenodd;fill:url(#SVGID_142_);}
	.st162{fill-rule:evenodd;clip-rule:evenodd;fill:url(#SVGID_143_);}
	.st163{fill-rule:evenodd;clip-rule:evenodd;fill:url(#SVGID_144_);}
	.st164{fill-rule:evenodd;clip-rule:evenodd;fill:url(#SVGID_145_);}
	.st165{fill-rule:evenodd;clip-rule:evenodd;fill:url(#SVGID_146_);}
	.st166{fill-rule:evenodd;clip-rule:evenodd;fill:url(#SVGID_147_);}
	.st167{fill-rule:evenodd;clip-rule:evenodd;fill:url(#SVGID_148_);}
	.st168{fill-rule:evenodd;clip-rule:evenodd;fill:url(#SVGID_149_);}
	.st169{fill-rule:evenodd;clip-rule:evenodd;fill:url(#SVGID_150_);}
	.st170{fill-rule:evenodd;clip-rule:evenodd;fill:url(#SVGID_151_);}
	.st171{fill-rule:evenodd;clip-rule:evenodd;fill:url(#SVGID_152_);}
	.st172{fill-rule:evenodd;clip-rule:evenodd;fill:url(#SVGID_153_);}
	.st173{fill-rule:evenodd;clip-rule:evenodd;fill:url(#SVGID_154_);}
	.st174{fill-rule:evenodd;clip-rule:evenodd;fill:url(#SVGID_155_);}
	.st175{fill-rule:evenodd;clip-rule:evenodd;fill:url(#SVGID_156_);}
	.st176{fill-rule:evenodd;clip-rule:evenodd;fill:url(#SVGID_157_);}
	.st177{fill-rule:evenodd;clip-rule:evenodd;fill:url(#SVGID_158_);}
	.st178{fill-rule:evenodd;clip-rule:evenodd;fill:url(#SVGID_159_);}
	.st179{fill-rule:evenodd;clip-rule:evenodd;fill:url(#SVGID_160_);}
	.st180{fill-rule:evenodd;clip-rule:evenodd;fill:url(#SVGID_161_);}
	.st181{fill-rule:evenodd;clip-rule:evenodd;fill:url(#SVGID_162_);}
	.st182{fill-rule:evenodd;clip-rule:evenodd;fill:url(#SVGID_163_);}
	.st183{fill-rule:evenodd;clip-rule:evenodd;fill:url(#SVGID_164_);}
	.st184{fill-rule:evenodd;clip-rule:evenodd;fill:url(#SVGID_165_);}
	.st185{fill-rule:evenodd;clip-rule:evenodd;fill:url(#SVGID_166_);}
	.st186{fill-rule:evenodd;clip-rule:evenodd;fill:url(#SVGID_167_);}
	.st187{fill-rule:evenodd;clip-rule:evenodd;fill:url(#SVGID_168_);}
	.st188{fill-rule:evenodd;clip-rule:evenodd;fill:url(#SVGID_169_);}
	.st189{fill-rule:evenodd;clip-rule:evenodd;fill:url(#SVGID_170_);}
	.st190{fill-rule:evenodd;clip-rule:evenodd;fill:url(#SVGID_171_);}
	.st191{fill-rule:evenodd;clip-rule:evenodd;fill:url(#SVGID_172_);}
	.st192{fill-rule:evenodd;clip-rule:evenodd;fill:url(#SVGID_173_);}
	.st193{fill-rule:evenodd;clip-rule:evenodd;fill:url(#SVGID_174_);}
	.st194{opacity:0.1;fill:url(#SVGID_175_);enable-background:new    ;}
	.st195{fill:url(#SVGID_176_);}
	.st196{fill:url(#SVGID_177_);}
	.st197{opacity:0.3;}
	.st198{fill:url(#SVGID_178_);}
	.st199{fill:url(#SVGID_179_);}
	.st200{opacity:0.3;fill:#009FD8;enable-background:new    ;}
	.st201{fill:url(#SVGID_180_);}
	.st202{fill:#ECECEC;}
	.st203{fill:#007CFF;}
	.st204{fill:#1A2E35;}
	.st205{opacity:0.2;fill:#007CFF;enable-background:new    ;}
	.st206{opacity:0.5;fill:#FFFFFF;enable-background:new    ;}
	.st207{opacity:0.4;fill:#007CFF;enable-background:new    ;}
	.st208{opacity:0.8;fill:#FFFFFF;enable-background:new    ;}
	.st209{opacity:0.5;fill:#007CFF;enable-background:new    ;}
	.st210{fill:url(#SVGID_181_);}
	.st211{fill:url(#SVGID_182_);}
	.st212{opacity:0.3;fill:#007CFF;enable-background:new    ;}
	.st213{opacity:0.8;fill-rule:evenodd;clip-rule:evenodd;fill:#FFFFFF;enable-background:new    ;}
	.st214{opacity:5.000000e-02;fill:url(#SVGID_183_);enable-background:new    ;}
	.st215{fill:url(#SVGID_184_);}
	.st216{fill:url(#SVGID_185_);}
	.st217{fill:#E7E7E7;}
	.st218{fill:#E1E1E1;}
	.st219{opacity:0.5;fill:#FAFAFA;enable-background:new    ;}
	.st220{opacity:0.6;fill:#FFFFFF;enable-background:new    ;}
	.st221{fill:#F0F0F0;}
	.st222{fill:#121F23;}
	.st223{opacity:0.1;enable-background:new    ;}
	.st224{fill:none;stroke:#007CFF;stroke-linecap:round;stroke-linejoin:round;stroke-miterlimit:10;}
	.st225{fill:none;stroke:#007CFF;stroke-miterlimit:10;}
	.st226{opacity:0.4;fill:#FFFFFF;enable-background:new    ;}
	.st227{opacity:0.3;fill:#FFFFFF;enable-background:new    ;}
	.st228{opacity:0.2;fill:#FFFFFF;enable-background:new    ;}
	.st229{opacity:0.6;fill:#1A2E35;enable-background:new    ;}
</style>
<g>
	<path class="st53" d="M108,55.8c-11.2,21.3-2,49.2-24.3,68.4c-12.2,10.5-51.1,20.9-51.9,39.7c-0.9,22.9,53.2,27.2,64.1,67.2
		c3.4,12.6,0,23.4-2.8,35.7c-2,8.8-1.3,19.9,6.6,24.5c3.2,1.9,7,2.3,10.6,2.4c21.3,1,41.8-5.7,59.9-16.6
		c27.9-16.9,40.4-51.3,67.5-66.9c13.8-7.9,28.7,2.7,41.9-5.6c15.5-9.7,15.9-36.3,8.5-51c-16.1-32.2-100.5-21.1-59.6-73
		C273,24,141.1,18,113.8,47.3C111.4,50.1,109.5,52.9,108,55.8z"/>
	
		<linearGradient id="SVGID_3_" gradientUnits="userSpaceOnUse" x1="152.0576" y1="2882.4504" x2="152.0576" y2="2883.1897" gradientTransform="matrix(1 0 0 -1 0 3145.3333)">
		<stop  offset="0" style="stop-color:#328AB6"/>
		<stop  offset="1" style="stop-color:#0068D8"/>
	</linearGradient>
	<circle style="fill-rule:evenodd;clip-rule:evenodd;fill:url(#SVGID_3_);" cx="152.1" cy="262.6" r="0.4"/>
	
		<linearGradient id="SVGID_4_" gradientUnits="userSpaceOnUse" x1="160.0576" y1="2884.5476" x2="160.0576" y2="2885.718" gradientTransform="matrix(1 0 0 -1 0 3145.3333)">
		<stop  offset="0" style="stop-color:#328AB6"/>
		<stop  offset="1" style="stop-color:#0068D8"/>
	</linearGradient>
	<circle style="fill-rule:evenodd;clip-rule:evenodd;fill:url(#SVGID_4_);" cx="160.1" cy="260.3" r="0.6"/>
	
		<linearGradient id="SVGID_5_" gradientUnits="userSpaceOnUse" x1="164.5576" y1="2881.3032" x2="164.5576" y2="2882.4736" gradientTransform="matrix(1 0 0 -1 0 3145.3333)">
		<stop  offset="0" style="stop-color:#328AB6"/>
		<stop  offset="1" style="stop-color:#0068D8"/>
	</linearGradient>
	<circle style="fill-rule:evenodd;clip-rule:evenodd;fill:url(#SVGID_5_);" cx="164.6" cy="263.5" r="0.6"/>
	
		<linearGradient id="SVGID_6_" gradientUnits="userSpaceOnUse" x1="181.3576" y1="2877.4556" x2="181.3576" y2="2878.626" gradientTransform="matrix(1 0 0 -1 0 3145.3333)">
		<stop  offset="0" style="stop-color:#328AB6"/>
		<stop  offset="1" style="stop-color:#0068D8"/>
	</linearGradient>
	<circle style="fill-rule:evenodd;clip-rule:evenodd;fill:url(#SVGID_6_);" cx="181.4" cy="267.3" r="0.6"/>
	
		<linearGradient id="SVGID_7_" gradientUnits="userSpaceOnUse" x1="189.8576" y1="2885.9175" x2="189.8576" y2="2887.0879" gradientTransform="matrix(1 0 0 -1 0 3145.3333)">
		<stop  offset="0" style="stop-color:#328AB6"/>
		<stop  offset="1" style="stop-color:#0068D8"/>
	</linearGradient>
	<circle style="fill-rule:evenodd;clip-rule:evenodd;fill:url(#SVGID_7_);" cx="189.9" cy="258.9" r="0.6"/>
	
		<linearGradient id="SVGID_8_" gradientUnits="userSpaceOnUse" x1="149.2576" y1="2883.5461" x2="149.2576" y2="2884.7166" gradientTransform="matrix(1 0 0 -1 0 3145.3333)">
		<stop  offset="0" style="stop-color:#328AB6"/>
		<stop  offset="1" style="stop-color:#0068D8"/>
	</linearGradient>
	<circle style="fill-rule:evenodd;clip-rule:evenodd;fill:url(#SVGID_8_);" cx="149.3" cy="261.3" r="0.6"/>
	
		<linearGradient id="SVGID_9_" gradientUnits="userSpaceOnUse" x1="147.5576" y1="2880.3118" x2="147.5576" y2="2881.0513" gradientTransform="matrix(1 0 0 -1 0 3145.3333)">
		<stop  offset="0" style="stop-color:#328AB6"/>
		<stop  offset="1" style="stop-color:#0068D8"/>
	</linearGradient>
	<circle style="fill-rule:evenodd;clip-rule:evenodd;fill:url(#SVGID_9_);" cx="147.6" cy="264.7" r="0.4"/>
	
		<linearGradient id="SVGID_10_" gradientUnits="userSpaceOnUse" x1="157.8576" y1="2880.0471" x2="157.8576" y2="2880.7864" gradientTransform="matrix(1 0 0 -1 0 3145.3333)">
		<stop  offset="0" style="stop-color:#328AB6"/>
		<stop  offset="1" style="stop-color:#0068D8"/>
	</linearGradient>
	<circle style="fill-rule:evenodd;clip-rule:evenodd;fill:url(#SVGID_10_);" cx="157.9" cy="265" r="0.4"/>
	
		<linearGradient id="SVGID_11_" gradientUnits="userSpaceOnUse" x1="170.6576" y1="2877.3088" x2="170.6576" y2="2878.0481" gradientTransform="matrix(1 0 0 -1 0 3145.3333)">
		<stop  offset="0" style="stop-color:#328AB6"/>
		<stop  offset="1" style="stop-color:#0068D8"/>
	</linearGradient>
	<circle style="fill-rule:evenodd;clip-rule:evenodd;fill:url(#SVGID_11_);" cx="170.7" cy="267.7" r="0.4"/>
	
		<linearGradient id="SVGID_12_" gradientUnits="userSpaceOnUse" x1="199.9577" y1="2887.9375" x2="199.9577" y2="2888.6768" gradientTransform="matrix(1 0 0 -1 0 3145.3333)">
		<stop  offset="0" style="stop-color:#328AB6"/>
		<stop  offset="1" style="stop-color:#0068D8"/>
	</linearGradient>
	<circle style="fill-rule:evenodd;clip-rule:evenodd;fill:url(#SVGID_12_);" cx="200" cy="257.1" r="0.4"/>
	
		<linearGradient id="SVGID_13_" gradientUnits="userSpaceOnUse" x1="193.3576" y1="2884.332" x2="193.3576" y2="2885.0715" gradientTransform="matrix(1 0 0 -1 0 3145.3333)">
		<stop  offset="0" style="stop-color:#328AB6"/>
		<stop  offset="1" style="stop-color:#0068D8"/>
	</linearGradient>
	<circle style="fill-rule:evenodd;clip-rule:evenodd;fill:url(#SVGID_13_);" cx="193.4" cy="260.7" r="0.4"/>
	
		<linearGradient id="SVGID_14_" gradientUnits="userSpaceOnUse" x1="190.7576" y1="2880.0471" x2="190.7576" y2="2880.7864" gradientTransform="matrix(1 0 0 -1 0 3145.3333)">
		<stop  offset="0" style="stop-color:#328AB6"/>
		<stop  offset="1" style="stop-color:#0068D8"/>
	</linearGradient>
	<circle style="fill-rule:evenodd;clip-rule:evenodd;fill:url(#SVGID_14_);" cx="190.8" cy="265" r="0.4"/>
	
		<linearGradient id="SVGID_15_" gradientUnits="userSpaceOnUse" x1="179.0576" y1="2881.5176" x2="179.0576" y2="2882.2568" gradientTransform="matrix(1 0 0 -1 0 3145.3333)">
		<stop  offset="0" style="stop-color:#328AB6"/>
		<stop  offset="1" style="stop-color:#0068D8"/>
	</linearGradient>
	<circle style="fill-rule:evenodd;clip-rule:evenodd;fill:url(#SVGID_15_);" cx="179.1" cy="263.5" r="0.4"/>
	
		<linearGradient id="SVGID_16_" gradientUnits="userSpaceOnUse" x1="167.5576" y1="2884.6934" x2="167.5576" y2="2885.4326" gradientTransform="matrix(1 0 0 -1 0 3145.3333)">
		<stop  offset="0" style="stop-color:#328AB6"/>
		<stop  offset="1" style="stop-color:#0068D8"/>
	</linearGradient>
	<circle style="fill-rule:evenodd;clip-rule:evenodd;fill:url(#SVGID_16_);" cx="167.6" cy="260.3" r="0.4"/>
	
		<linearGradient id="SVGID_17_" gradientUnits="userSpaceOnUse" x1="166.2576" y1="2879.3247" x2="166.2576" y2="2880.0642" gradientTransform="matrix(1 0 0 -1 0 3145.3333)">
		<stop  offset="0" style="stop-color:#328AB6"/>
		<stop  offset="1" style="stop-color:#0068D8"/>
	</linearGradient>
	<circle style="fill-rule:evenodd;clip-rule:evenodd;fill:url(#SVGID_17_);" cx="166.3" cy="265.7" r="0.4"/>
	
		<linearGradient id="SVGID_18_" gradientUnits="userSpaceOnUse" x1="180.4577" y1="2887.2151" x2="180.4577" y2="2887.9543" gradientTransform="matrix(1 0 0 -1 0 3145.3333)">
		<stop  offset="0" style="stop-color:#328AB6"/>
		<stop  offset="1" style="stop-color:#0068D8"/>
	</linearGradient>
	<circle style="fill-rule:evenodd;clip-rule:evenodd;fill:url(#SVGID_18_);" cx="180.5" cy="257.8" r="0.4"/>
	
		<linearGradient id="SVGID_19_" gradientUnits="userSpaceOnUse" x1="150.0576" y1="2886.4929" x2="150.0576" y2="2887.2322" gradientTransform="matrix(1 0 0 -1 0 3145.3333)">
		<stop  offset="0" style="stop-color:#328AB6"/>
		<stop  offset="1" style="stop-color:#0068D8"/>
	</linearGradient>
	<circle style="fill-rule:evenodd;clip-rule:evenodd;fill:url(#SVGID_19_);" cx="150.1" cy="258.5" r="0.4"/>
	
		<linearGradient id="SVGID_20_" gradientUnits="userSpaceOnUse" x1="165.8576" y1="3087.5527" x2="165.8576" y2="3088.3528" gradientTransform="matrix(1 0 0 -1 0 3145.3333)">
		<stop  offset="0" style="stop-color:#328AB6"/>
		<stop  offset="1" style="stop-color:#0068D8"/>
	</linearGradient>
	<circle style="fill-rule:evenodd;clip-rule:evenodd;fill:url(#SVGID_20_);" cx="165.9" cy="57.4" r="0.4"/>
	
		<linearGradient id="SVGID_21_" gradientUnits="userSpaceOnUse" x1="167.4577" y1="3112.1838" x2="167.4577" y2="3112.9839" gradientTransform="matrix(1 0 0 -1 0 3145.3333)">
		<stop  offset="0" style="stop-color:#328AB6"/>
		<stop  offset="1" style="stop-color:#0068D8"/>
	</linearGradient>
	<circle style="fill-rule:evenodd;clip-rule:evenodd;fill:url(#SVGID_21_);" cx="167.5" cy="32.8" r="0.4"/>
	
		<linearGradient id="SVGID_22_" gradientUnits="userSpaceOnUse" x1="191.3576" y1="3098.0039" x2="191.3576" y2="3098.804" gradientTransform="matrix(1 0 0 -1 0 3145.3333)">
		<stop  offset="0" style="stop-color:#328AB6"/>
		<stop  offset="1" style="stop-color:#0068D8"/>
	</linearGradient>
	<circle style="fill-rule:evenodd;clip-rule:evenodd;fill:url(#SVGID_22_);" cx="191.4" cy="47" r="0.4"/>
	
		<linearGradient id="SVGID_23_" gradientUnits="userSpaceOnUse" x1="174.1576" y1="3093.7068" x2="174.1576" y2="3094.5068" gradientTransform="matrix(1 0 0 -1 0 3145.3333)">
		<stop  offset="0" style="stop-color:#328AB6"/>
		<stop  offset="1" style="stop-color:#0068D8"/>
	</linearGradient>
	<circle style="fill-rule:evenodd;clip-rule:evenodd;fill:url(#SVGID_23_);" cx="174.2" cy="51.3" r="0.4"/>
	
		<linearGradient id="SVGID_24_" gradientUnits="userSpaceOnUse" x1="174.9577" y1="3102.4133" x2="174.9577" y2="3103.2134" gradientTransform="matrix(1 0 0 -1 0 3145.3333)">
		<stop  offset="0" style="stop-color:#328AB6"/>
		<stop  offset="1" style="stop-color:#0068D8"/>
	</linearGradient>
	<circle style="fill-rule:evenodd;clip-rule:evenodd;fill:url(#SVGID_24_);" cx="175" cy="42.6" r="0.4"/>
	
		<linearGradient id="SVGID_25_" gradientUnits="userSpaceOnUse" x1="197.1576" y1="3104.2703" x2="197.1576" y2="3105.0703" gradientTransform="matrix(1 0 0 -1 0 3145.3333)">
		<stop  offset="0" style="stop-color:#328AB6"/>
		<stop  offset="1" style="stop-color:#0068D8"/>
	</linearGradient>
	<circle style="fill-rule:evenodd;clip-rule:evenodd;fill:url(#SVGID_25_);" cx="197.2" cy="40.7" r="0.4"/>
	
		<linearGradient id="SVGID_26_" gradientUnits="userSpaceOnUse" x1="174.5576" y1="3118.2654" x2="174.5576" y2="3119.0654" gradientTransform="matrix(1 0 0 -1 0 3145.3333)">
		<stop  offset="0" style="stop-color:#328AB6"/>
		<stop  offset="1" style="stop-color:#0068D8"/>
	</linearGradient>
	<circle style="fill-rule:evenodd;clip-rule:evenodd;fill:url(#SVGID_26_);" cx="174.6" cy="26.7" r="0.4"/>
	
		<linearGradient id="SVGID_27_" gradientUnits="userSpaceOnUse" x1="-18.8912" y1="3773.7776" x2="-18.8912" y2="3774.9958" gradientTransform="matrix(0.7347 0.6784 0.6784 -0.7347 -2390.9785 2836.4778)">
		<stop  offset="0" style="stop-color:#328AB6"/>
		<stop  offset="1" style="stop-color:#0068D8"/>
	</linearGradient>
	<circle style="fill-rule:evenodd;clip-rule:evenodd;fill:url(#SVGID_27_);" cx="155.7" cy="50.7" r="0.6"/>
	
		<linearGradient id="SVGID_28_" gradientUnits="userSpaceOnUse" x1="-16.0157" y1="3783.7498" x2="-16.0157" y2="3784.9678" gradientTransform="matrix(0.7347 0.6784 0.6784 -0.7347 -2390.9785 2836.4778)">
		<stop  offset="0" style="stop-color:#328AB6"/>
		<stop  offset="1" style="stop-color:#0068D8"/>
	</linearGradient>
	<circle style="fill-rule:evenodd;clip-rule:evenodd;fill:url(#SVGID_28_);" cx="164.6" cy="45.3" r="0.6"/>
	
		<linearGradient id="SVGID_29_" gradientUnits="userSpaceOnUse" x1="-10.2252" y1="3803.0024" x2="-10.2252" y2="3804.2205" gradientTransform="matrix(0.7347 0.6784 0.6784 -0.7347 -2390.9785 2836.4778)">
		<stop  offset="0" style="stop-color:#328AB6"/>
		<stop  offset="1" style="stop-color:#0068D8"/>
	</linearGradient>
	<circle style="fill-rule:evenodd;clip-rule:evenodd;fill:url(#SVGID_29_);" cx="181.9" cy="35.1" r="0.6"/>
	
		<linearGradient id="SVGID_30_" gradientUnits="userSpaceOnUse" x1="189.1576" y1="3117.2275" x2="189.1576" y2="3118.0276" gradientTransform="matrix(1 0 0 -1 0 3145.3333)">
		<stop  offset="0" style="stop-color:#328AB6"/>
		<stop  offset="1" style="stop-color:#0068D8"/>
	</linearGradient>
	<circle style="fill-rule:evenodd;clip-rule:evenodd;fill:url(#SVGID_30_);" cx="189.2" cy="27.8" r="0.4"/>
	
		<linearGradient id="SVGID_31_" gradientUnits="userSpaceOnUse" x1="-1674.3029" y1="2390.0066" x2="-1674.3029" y2="2390.8066" gradientTransform="matrix(-0.7071 -0.7071 -0.7071 0.7071 776.4732 -2659.4639)">
		<stop  offset="0" style="stop-color:#328AB6"/>
		<stop  offset="1" style="stop-color:#0068D8"/>
	</linearGradient>
	<circle style="fill-rule:evenodd;clip-rule:evenodd;fill:url(#SVGID_31_);" cx="270.2" cy="214.7" r="0.4"/>
	
		<linearGradient id="SVGID_32_" gradientUnits="userSpaceOnUse" x1="-1661.7163" y1="2382.3252" x2="-1661.7163" y2="2383.1252" gradientTransform="matrix(-0.7071 -0.7071 -0.7071 0.7071 776.4732 -2659.4639)">
		<stop  offset="0" style="stop-color:#328AB6"/>
		<stop  offset="1" style="stop-color:#0068D8"/>
	</linearGradient>
	<circle style="fill-rule:evenodd;clip-rule:evenodd;fill:url(#SVGID_32_);" cx="266.7" cy="200.4" r="0.4"/>
	
		<linearGradient id="SVGID_33_" gradientUnits="userSpaceOnUse" x1="-1685.2632" y1="2381.5435" x2="-1685.2632" y2="2382.3435" gradientTransform="matrix(-0.7071 -0.7071 -0.7071 0.7071 776.4732 -2659.4639)">
		<stop  offset="0" style="stop-color:#328AB6"/>
		<stop  offset="1" style="stop-color:#0068D8"/>
	</linearGradient>
	<circle style="fill-rule:evenodd;clip-rule:evenodd;fill:url(#SVGID_33_);" cx="283.9" cy="216.5" r="0.4"/>
	
		<linearGradient id="SVGID_34_" gradientUnits="userSpaceOnUse" x1="-1654.9987" y1="2363.8479" x2="-1654.9987" y2="2364.6482" gradientTransform="matrix(-0.7071 -0.7071 -0.7071 0.7071 776.4732 -2659.4639)">
		<stop  offset="0" style="stop-color:#328AB6"/>
		<stop  offset="1" style="stop-color:#0068D8"/>
	</linearGradient>
	<circle style="fill-rule:evenodd;clip-rule:evenodd;fill:url(#SVGID_34_);" cx="275" cy="182.6" r="0.4"/>
	
		<linearGradient id="SVGID_35_" gradientUnits="userSpaceOnUse" x1="-1674.3029" y1="2373.6301" x2="-1674.3029" y2="2374.4302" gradientTransform="matrix(-0.7071 -0.7071 -0.7071 0.7071 776.4732 -2659.4639)">
		<stop  offset="0" style="stop-color:#328AB6"/>
		<stop  offset="1" style="stop-color:#0068D8"/>
	</linearGradient>
	<circle style="fill-rule:evenodd;clip-rule:evenodd;fill:url(#SVGID_35_);" cx="281.7" cy="203.2" r="0.4"/>
	
		<linearGradient id="SVGID_36_" gradientUnits="userSpaceOnUse" x1="-1662.0698" y1="2372.2256" x2="-1662.0698" y2="2373.0256" gradientTransform="matrix(-0.7071 -0.7071 -0.7071 0.7071 776.4732 -2659.4639)">
		<stop  offset="0" style="stop-color:#328AB6"/>
		<stop  offset="1" style="stop-color:#0068D8"/>
	</linearGradient>
	<circle class="st55" cx="274.1" cy="193.5" r="0.4"/>
	
		<linearGradient id="SVGID_37_" gradientUnits="userSpaceOnUse" x1="-1654.6451" y1="2388.4067" x2="-1654.6451" y2="2389.2068" gradientTransform="matrix(-0.7071 -0.7071 -0.7071 0.7071 776.4732 -2659.4639)">
		<stop  offset="0" style="stop-color:#328AB6"/>
		<stop  offset="1" style="stop-color:#0068D8"/>
	</linearGradient>
	<circle class="st56" cx="257.4" cy="199.7" r="0.4"/>
	
		<linearGradient id="SVGID_38_" gradientUnits="userSpaceOnUse" x1="-867.636" y1="1996.6508" x2="-867.636" y2="1997.8689" gradientTransform="matrix(-3.980956e-02 -0.9992 -0.9992 3.980956e-02 2248.74 -750.3995)">
		<stop  offset="0" style="stop-color:#328AB6"/>
		<stop  offset="1" style="stop-color:#0068D8"/>
	</linearGradient>
	<circle class="st57" cx="287.7" cy="196.1" r="0.6"/>
	
		<linearGradient id="SVGID_39_" gradientUnits="userSpaceOnUse" x1="-876.8315" y1="2014.5287" x2="-876.8315" y2="2015.7467" gradientTransform="matrix(-3.980956e-02 -0.9992 -0.9992 3.980956e-02 2248.74 -750.3995)">
		<stop  offset="0" style="stop-color:#328AB6"/>
		<stop  offset="1" style="stop-color:#0068D8"/>
	</linearGradient>
	<circle class="st58" cx="270.2" cy="206" r="0.6"/>
	
		<linearGradient id="SVGID_40_" gradientUnits="userSpaceOnUse" x1="-858.9635" y1="2025.8755" x2="-858.9635" y2="2027.0935" gradientTransform="matrix(-3.980956e-02 -0.9992 -0.9992 3.980956e-02 2248.74 -750.3995)">
		<stop  offset="0" style="stop-color:#328AB6"/>
		<stop  offset="1" style="stop-color:#0068D8"/>
	</linearGradient>
	<circle class="st59" cx="258.1" cy="188.6" r="0.6"/>
	
		<linearGradient id="SVGID_41_" gradientUnits="userSpaceOnUse" x1="-1639.9371" y1="2387.3687" x2="-1639.9371" y2="2388.1687" gradientTransform="matrix(-0.7071 -0.7071 -0.7071 0.7071 776.4732 -2659.4639)">
		<stop  offset="0" style="stop-color:#328AB6"/>
		<stop  offset="1" style="stop-color:#0068D8"/>
	</linearGradient>
	<circle class="st60" cx="247.7" cy="188.6" r="0.4"/>
	
		<linearGradient id="SVGID_42_" gradientUnits="userSpaceOnUse" x1="-1287.8684" y1="2645.2832" x2="-1287.8684" y2="2646.0833" gradientTransform="matrix(-0.813 0.5822 0.5822 0.813 -2494.791 -1249.1853)">
		<stop  offset="0" style="stop-color:#328AB6"/>
		<stop  offset="1" style="stop-color:#0068D8"/>
	</linearGradient>
	<circle class="st61" cx="92.6" cy="152" r="0.4"/>
	
		<linearGradient id="SVGID_43_" gradientUnits="userSpaceOnUse" x1="-1275.276" y1="2637.6018" x2="-1275.276" y2="2638.4019" gradientTransform="matrix(-0.813 0.5822 0.5822 0.813 -2494.791 -1249.1853)">
		<stop  offset="0" style="stop-color:#328AB6"/>
		<stop  offset="1" style="stop-color:#0068D8"/>
	</linearGradient>
	<circle class="st62" cx="77.9" cy="153.1" r="0.4"/>
	
		<linearGradient id="SVGID_44_" gradientUnits="userSpaceOnUse" x1="-1298.8645" y1="2636.8201" x2="-1298.8645" y2="2637.6201" gradientTransform="matrix(-0.813 0.5822 0.5822 0.813 -2494.791 -1249.1853)">
		<stop  offset="0" style="stop-color:#328AB6"/>
		<stop  offset="1" style="stop-color:#0068D8"/>
	</linearGradient>
	<circle class="st63" cx="96.6" cy="138.7" r="0.4"/>
	
		<linearGradient id="SVGID_45_" gradientUnits="userSpaceOnUse" x1="-1268.5673" y1="2619.1245" x2="-1268.5673" y2="2619.9248" gradientTransform="matrix(-0.813 0.5822 0.5822 0.813 -2494.791 -1249.1853)">
		<stop  offset="0" style="stop-color:#328AB6"/>
		<stop  offset="1" style="stop-color:#0068D8"/>
	</linearGradient>
	<circle class="st64" cx="61.7" cy="142" r="0.4"/>
	
		<linearGradient id="SVGID_46_" gradientUnits="userSpaceOnUse" x1="-1287.8882" y1="2628.9067" x2="-1287.8882" y2="2629.7068" gradientTransform="matrix(-0.813 0.5822 0.5822 0.813 -2494.791 -1249.1853)">
		<stop  offset="0" style="stop-color:#328AB6"/>
		<stop  offset="1" style="stop-color:#0068D8"/>
	</linearGradient>
	<circle class="st65" cx="83.1" cy="138.7" r="0.4"/>
	
		<linearGradient id="SVGID_47_" gradientUnits="userSpaceOnUse" x1="-1275.6138" y1="2627.5022" x2="-1275.6138" y2="2628.3022" gradientTransform="matrix(-0.813 0.5822 0.5822 0.813 -2494.791 -1249.1853)">
		<stop  offset="0" style="stop-color:#328AB6"/>
		<stop  offset="1" style="stop-color:#0068D8"/>
	</linearGradient>
	<circle class="st66" cx="72.3" cy="144.7" r="0.4"/>
	
		<linearGradient id="SVGID_48_" gradientUnits="userSpaceOnUse" x1="-1268.1888" y1="2643.6833" x2="-1268.1888" y2="2644.4836" gradientTransform="matrix(-0.813 0.5822 0.5822 0.813 -2494.791 -1249.1853)">
		<stop  offset="0" style="stop-color:#328AB6"/>
		<stop  offset="1" style="stop-color:#0068D8"/>
	</linearGradient>
	<circle class="st67" cx="75.7" cy="162.2" r="0.4"/>
	
		<linearGradient id="SVGID_49_" gradientUnits="userSpaceOnUse" x1="-756.9061" y1="2446.3442" x2="-756.9061" y2="2447.5623" gradientTransform="matrix(-0.9923 -0.1238 -0.1238 0.9923 -371.0883 -2390.1584)">
		<stop  offset="0" style="stop-color:#328AB6"/>
		<stop  offset="1" style="stop-color:#0068D8"/>
	</linearGradient>
	<circle class="st68" cx="77.1" cy="131.7" r="0.6"/>
	
		<linearGradient id="SVGID_50_" gradientUnits="userSpaceOnUse" x1="-766.0929" y1="2464.2219" x2="-766.0929" y2="2465.4402" gradientTransform="matrix(-0.9923 -0.1238 -0.1238 0.9923 -371.0883 -2390.1584)">
		<stop  offset="0" style="stop-color:#328AB6"/>
		<stop  offset="1" style="stop-color:#0068D8"/>
	</linearGradient>
	<circle class="st69" cx="84" cy="150.6" r="0.6"/>
	
		<linearGradient id="SVGID_51_" gradientUnits="userSpaceOnUse" x1="-748.2539" y1="2475.5688" x2="-748.2539" y2="2476.7869" gradientTransform="matrix(-0.9923 -0.1238 -0.1238 0.9923 -371.0883 -2390.1584)">
		<stop  offset="0" style="stop-color:#328AB6"/>
		<stop  offset="1" style="stop-color:#0068D8"/>
	</linearGradient>
	<circle class="st70" cx="64.9" cy="159.6" r="0.6"/>
	
		<linearGradient id="SVGID_52_" gradientUnits="userSpaceOnUse" x1="-1253.5422" y1="2642.6455" x2="-1253.5422" y2="2643.4456" gradientTransform="matrix(-0.813 0.5822 0.5822 0.813 -2494.791 -1249.1853)">
		<stop  offset="0" style="stop-color:#328AB6"/>
		<stop  offset="1" style="stop-color:#0068D8"/>
	</linearGradient>
	<circle class="st71" cx="63.2" cy="169.9" r="0.4"/>
	
		<linearGradient id="SVGID_53_" gradientUnits="userSpaceOnUse" x1="27.2736" y1="2992.7083" x2="242.1783" y2="2992.7083" gradientTransform="matrix(1 0 0 -1 0 3145.3333)">
		<stop  offset="0" style="stop-color:#328AB6"/>
		<stop  offset="1" style="stop-color:#0068D8"/>
	</linearGradient>
	<path style="opacity:0.1;fill:url(#SVGID_53_);enable-background:new    ;" d="M79,62.7c-8.4,5.1-32.6,20.2-44.8,50.7
		c-20.9,51.8,12.2,99.5,14.9,103.3c3.5,4.9,37.6,51.1,72.1,44.2c31.9-6.4,28.7-51.2,81.8-83.8c18.4-11.3,27.1-11,33.8-22.7
		c14-24.4-0.7-65.8-26-88.3C174.2,33.2,115.5,40.6,79,62.7z"/>
	<g>
		<path class="st2" d="M185,132.7c14.6,0,28.7,5,40,14.2l14.2-14.2L189,82.5l-27.9,27.9v6.3c0,1.9-0.3,3.7-0.9,5.5L172,134l0,0
			C176.3,133.1,180.6,132.7,185,132.7L185,132.7z"/>
		<path class="st2" d="M236.6,159.1l13.2-13.2l-1.7-11.2l0,0c-0.2,0.3-0.3,0.6-0.6,0.8l-16.7,16.7
			C232.9,154.4,234.8,156.7,236.6,159.1L236.6,159.1z"/>
		<path class="st2" d="M191.8,74l55.6,55.6l-6.2-41.4c-3.6-1.1-6.4-3.9-7.7-7.5c-1.2-3.6-0.7-7.5,1.4-10.6s5.6-5,9.4-5.2
			c3.8-0.1,7.4,1.5,9.7,4.4c2.4,2.9,3.2,6.8,2.2,10.5c-1,3.6-3.6,6.6-7.1,8l7.6,50.9l15.6-15.6l-7.4-66.6l-66.6-7.4l-37.2,37.4v12.6
			L186.2,74C187.7,72.5,190.2,72.5,191.8,74L191.8,74z"/>
		<path class="st2" d="M137.7,239l-12,12l-5.6-5.6l12.7-12.7c-1.9-2.7-3.5-5.5-4.9-8.5l-14.4,14.4l-5.6-5.6l16.8-16.8l0,0
			c-1.2-3.6-2-7.2-2.5-10.9l-21,21l-5.6-5.6l25.9-25.9l0.1,0.1l0,0c0.3-12.8,4.5-25.3,12-35.7c7.5-10.4,17.9-18.3,30-22.7l-7-7l0,0
			c-3.7,4.5-9.3,7.1-15.1,7.1h-23l3,15.1c0.3,1.6-0.4,3.2-1.7,4.1c-0.6,0.4-1.4,0.6-2.2,0.7c-0.8,0-1.6-0.3-2.3-0.7l-13.5-9.7
			l-50.3,50.3l74.1,74.1l22.5-22.5C144,245.4,140.7,242.3,137.7,239L137.7,239z M70.6,196l25.9-25.9l5.6,5.6l-25.9,25.9L70.6,196z
			 M82.9,208.3l25.9-25.9l5.6,5.6l-25.9,25.9L82.9,208.3z"/>
		
			<linearGradient id="SVGID_54_" gradientUnits="userSpaceOnUse" x1="240.703" y1="3068.4824" x2="248.6723" y2="3068.4824" gradientTransform="matrix(1 0 0 -1 0 3145.3333)">
			<stop  offset="0" style="stop-color:#328AB6"/>
			<stop  offset="1" style="stop-color:#0068D8"/>
		</linearGradient>
		<path style="fill:url(#SVGID_54_);" d="M248.7,76.9c0,2.2-1.8,4-4,4s-4-1.8-4-4s1.8-4,4-4C246.9,72.9,248.7,74.7,248.7,76.9
			L248.7,76.9z"/>
		<path class="st2" d="M185,140.6c-14.8,0-29,5.9-39.4,16.3c-10.5,10.5-16.3,24.7-16.3,39.4c0,14.8,5.9,29,16.3,39.4
			c10.5,10.5,24.7,16.3,39.4,16.3s29-5.9,39.4-16.3c10.5-10.5,16.3-24.7,16.3-39.4c0-14.8-5.9-29-16.4-39.4S199.8,140.6,185,140.6z
			 M185,244.2c-12.7,0-24.8-5-33.8-14s-14-21.1-14-33.8s5-24.8,14-33.8s21.1-14,33.8-14s24.8,5,33.8,14c9,9,14,21.1,14,33.8
			c0,12.7-5.1,24.8-14,33.8C209.8,239.2,197.6,244.2,185,244.2z"/>
		<path class="st2" d="M185,156.6c-10.6,0-20.7,4.2-28.2,11.7s-11.7,17.6-11.7,28.2s4.2,20.7,11.7,28.2s17.6,11.7,28.2,11.7
			c10.6,0,20.7-4.2,28.2-11.7c7.5-7.5,11.7-17.6,11.7-28.2s-4.2-20.7-11.7-28.2C205.7,160.8,195.5,156.6,185,156.6z M181,192.4h8
			c3.2,0,6.2,1.3,8.5,3.5c2.2,2.2,3.5,5.3,3.5,8.5v4c0,3.2-1.3,6.2-3.5,8.5s-5.3,3.5-8.5,3.5v8h-8v-8c-3.2,0-6.2-1.3-8.5-3.5
			c-2.2-2.2-3.5-5.3-3.5-8.5h8c0,1.1,0.4,2.1,1.2,2.8c0.7,0.7,1.8,1.2,2.8,1.2h8c1.1,0,2.1-0.4,2.8-1.2c0.7-0.7,1.2-1.8,1.2-2.8v-4
			c0-1.1-0.4-2.1-1.2-2.8c-0.7-0.7-1.8-1.2-2.8-1.2h-8c-3.2,0-6.2-1.3-8.5-3.5s-3.5-5.3-3.5-8.5v-4c0-3.2,1.3-6.2,3.5-8.5
			c2.2-2.2,5.3-3.5,8.5-3.5v-8h8v8c3.2,0,6.2,1.3,8.5,3.5s3.5,5.3,3.5,8.5h-8c0-1.1-0.4-2.1-1.2-2.8s-1.8-1.2-2.8-1.2h-8
			c-2.2,0-4,1.8-4,4v4c0,1.1,0.4,2.1,1.2,2.8C178.9,192,179.9,192.4,181,192.4z"/>
		<path class="st2" d="M272.5,169.9l-6.2-29.3l-8,8l3.4,22.9c0.2,1.5,0.9,2.8,2.1,3.7s2.7,1.3,4.2,1.1c1.5-0.2,2.8-1,3.7-2.3
			C272.5,172.9,272.8,171.4,272.5,169.9L272.5,169.9z"/>
		<path class="st2" d="M234.8,236c-1.9,2.3-3.9,4.5-6.1,6.6l28.2,28.2c1.3,1.3,3.2,1.7,4.9,1c1.7-0.7,2.8-2.3,2.8-4.1
			c0-1.2-0.5-2.3-1.3-3.2L234.8,236z"/>
	</g>
	<path class="st2" d="M149.6,52.5c-2.2-2.2-5.3-3.5-8.4-3.5H61.5c-3.2,0-6.2,1.3-8.5,3.5c-2.2,2.2-3.5,5.3-3.5,8.4v55.8
		c0,3.2,1.3,6.2,3.5,8.5s5.3,3.5,8.5,3.5h27.9c0.8,0,1.6,0.3,2.3,0.7l19.7,14.1l-2-10.1c0-0.3-0.1-0.5-0.1-0.8
		c0-0.9,0.3-1.8,0.9-2.5c0.8-0.9,1.9-1.5,3.1-1.5h27.8c3.2,0,6.2-1.3,8.4-3.5c2.2-2.3,3.5-5.3,3.5-8.5V60.8
		C153.1,57.8,151.8,54.7,149.6,52.5z M131,65.4h7.3v46.4H131V65.4z M120.7,100.8h7.3v11h-7.3V100.8z M110.3,82.7h7.3v29.1h-7.3V82.7
		z M100,68h7.3v43.8H100V68z M89.7,92.9H97v18.8h-7.3V92.9z M79.2,96.4h7.3v15.3h-7.3V96.4z M68.3,89.4h7.3v22.4h-7.3V89.4z
		 M64.7,117.3h-3.6V63.2h3.6V117.3z M140.7,117.3H66.4v-4.5h74.3V117.3z"/>
</g>
</svg>
