<svg xmlns="http://www.w3.org/2000/svg" width="29.55" height="43.41" viewBox="17.08 12.74 29.55 43.41"><g data-name="Group 60"><path d="M38.22 23.85a6.41 6.41 0 1 1-6.41-6.41c3.54.01 6.41 2.88 6.41 6.41h0Zm0 0" stroke-linejoin="round" stroke-linecap="round" stroke="#009fd8" fill="transparent" data-name="Path 67"/><path d="M31.61 12.74h.16c6.71.11 12.17 5.65 12.17 12.36 0 8.2-8.77 16.51-12.25 19.49-.23-.2-.49-.42-.77-.67-.01 0-.01-.01-.01-.01-3.86-3.43-11.47-11.16-11.47-18.81 0-6.71 5.46-12.26 12.17-12.36h0Z" stroke-linejoin="round" stroke-linecap="round" stroke="#009fd8" fill="transparent" data-name="Path 68"/><path d="M31.86 56.15c-7.34 0-14.78-2.11-14.78-6.13 0-2.82 3.66-4.7 8.38-5.57.91.92 1.78 1.73 2.53 2.4-5.14.57-8.16 2.2-8.16 3.17 0 1.19 4.56 3.38 12.02 3.38s12.02-2.19 12.02-3.38c0-.99-3.15-2.66-8.47-3.2.76-.68 1.64-1.5 2.56-2.43 4.86.85 8.67 2.74 8.67 5.63.01 4.02-7.42 6.13-14.77 6.13h0Z" stroke-linejoin="round" stroke-linecap="round" stroke="#009fd8" fill="transparent" data-name="Path 69"/></g></svg>