<svg xmlns="http://www.w3.org/2000/svg" xmlns:xlink="http://www.w3.org/1999/xlink" width="343.582" height="68.438" viewBox="0 0 343.582 68.438"><defs><linearGradient id="a" x1="0.643" y1="0.643" x2="3.104" y2="3.104" gradientUnits="objectBoundingBox"><stop offset="0" stop-color="#009fd8"/><stop offset="0.344" stop-color="#e45135"/><stop offset="0.656" stop-color="#e9a447"/><stop offset="1" stop-color="#009fd8"/></linearGradient><linearGradient id="b" x1="-0.279" y1="-0.279" x2="2.182" y2="2.182" xlink:href="#a"/><linearGradient id="c" x1="-1.204" y1="-1.203" x2="1.257" y2="1.258" xlink:href="#a"/><linearGradient id="d" x1="-2.329" y1="-2.329" x2="0.318" y2="0.318" xlink:href="#a"/><linearGradient id="e" x1="-2.095" y1="-2.095" x2="0.331" y2="0.331" xlink:href="#a"/><linearGradient id="f" x1="-1.233" y1="-1.233" x2="1.273" y2="1.272" xlink:href="#a"/><linearGradient id="g" x1="-0.288" y1="-0.288" x2="2.217" y2="2.218" xlink:href="#a"/><linearGradient id="h" x1="0.664" y1="0.664" x2="3.247" y2="3.247" xlink:href="#a"/><linearGradient id="i" x1="0.712" y1="0.712" x2="4.141" y2="4.142" xlink:href="#a"/><linearGradient id="j" x1="-3.167" y1="-3.167" x2="0.262" y2="0.262" xlink:href="#a"/><linearGradient id="k" x1="-1.795" y1="-1.66" x2="0.945" y2="0.919" xlink:href="#a"/><linearGradient id="l" x1="-0.329" y1="-0.28" x2="2.897" y2="2.756" xlink:href="#a"/><linearGradient id="m" x1="2.591" y1="3.048" x2="-0.024" y2="-0.139" xlink:href="#a"/><linearGradient id="n" x1="1.337" y1="1.521" x2="-1.741" y2="-2.232" xlink:href="#a"/><linearGradient id="o" x1="0.5" y1="0.915" x2="0.5" y2="-0.499" gradientUnits="objectBoundingBox"><stop offset="0" stop-color="#e45135"/><stop offset="1" stop-color="#e9a447"/></linearGradient></defs><g transform="translate(-63.89 -65.5)"><g transform="translate(63.89 65.829)"><g transform="translate(35.383 13.819)"><path d="M151.276,106.626a4.593,4.593,0,0,1-1.8-.7,6.011,6.011,0,0,1-.718-.54,2.57,2.57,0,0,1-.581-.672,15.818,15.818,0,0,0-.842-1.67,3.643,3.643,0,0,0-1.436-1.07c-.284-.137-.572-.265-.837-.421a7.09,7.09,0,0,1-.741-.512,8.415,8.415,0,0,1-1.354-1.157,8.509,8.509,0,0,1-1.029-1.478,6.52,6.52,0,0,1-.7-1.811l.16-.16a6.664,6.664,0,0,1,1.811.7,8.34,8.34,0,0,1,1.478,1.029,8.654,8.654,0,0,1,1.157,1.354,7.091,7.091,0,0,1,.512.741c.156.265.284.554.421.837a3.687,3.687,0,0,0,1.07,1.436,15.39,15.39,0,0,0,1.67.842,2.569,2.569,0,0,1,.672.581,5.664,5.664,0,0,1,.54.718,4.649,4.649,0,0,1,.7,1.8Z" transform="translate(-141.24 -96.43)" fill="#009fd8"/></g><g transform="translate(5.293 2.822)"><path d="M105.555,83.542c-1.784-1.551-3.536-3.138-5.279-4.734-.878-.791-1.734-1.6-2.6-2.406s-1.729-1.606-2.585-2.42h1.066l-2.52,2.662-2.543,2.639c-.851.878-1.693,1.766-2.552,2.635l-2.571,2.617V83.112c2.575,2.511,5.1,5.078,7.584,7.671s4.922,5.251,7.374,7.886,4.927,5.247,7.465,7.79c2.525,2.562,5.1,5.073,7.694,7.566l-.631.631-.183-.165h.65c-1.569,1.734-3.115,3.486-4.661,5.238s-3.175,3.422-4.78,5.119-3.211,3.39-4.872,5.032l-1.235,1.24-1.263,1.212c-.842.805-1.674,1.624-2.534,2.415l-.833.764-.732-.764-4.949-5.178q-2.477-2.587-4.922-5.206t-4.872-5.256c-1.606-1.77-3.23-3.522-4.808-5.32l.16-.16c1.8,1.578,3.545,3.207,5.32,4.808s3.518,3.234,5.256,4.872,3.481,3.271,5.206,4.922l5.178,4.949H95.016c.791-.86,1.61-1.693,2.415-2.534l1.212-1.263,1.24-1.235c1.642-1.656,3.344-3.257,5.032-4.872s3.376-3.225,5.119-4.78,3.5-3.1,5.238-4.661l.357-.325.293.325.165.183-.631.631q-3.733-3.9-7.566-7.694c-2.543-2.539-5.164-5-7.79-7.465s-5.279-4.895-7.886-7.374-5.16-5.009-7.671-7.584l-.709-.727.709-.7,2.617-2.571c.869-.86,1.757-1.7,2.635-2.553l2.639-2.543,2.662-2.52.558-.531.5.531q1.221,1.283,2.42,2.585c.8.869,1.61,1.725,2.406,2.6,1.6,1.743,3.179,3.495,4.734,5.279Z" transform="translate(-75.46 -72.39)" fill="#009fd8"/></g><g transform="translate(3.865 14.176)"><path d="M83.639,97.37c-.686.942-1.423,1.839-2.155,2.735s-1.491,1.766-2.255,2.63q-2.3,2.587-4.721,5.055v-1.45a69.44,69.44,0,0,1,4.817,5.224c1.532,1.816,3.074,3.618,4.748,5.3s3.367,3.326,5.114,4.931q1.3,1.208,2.644,2.379c.444.393.9.773,1.349,1.157l.686.567.343.284.174.137.087.069.046.037.023.018.009.009,0,0c-.306.311.7-.686-.686.7s-.384.38-.7.686l0,0-.009-.009-.018-.023-.037-.046-.069-.087-.137-.174-.284-.343-.567-.686c-.389-.448-.764-.906-1.157-1.349-.778-.9-1.574-1.775-2.379-2.644-1.6-1.747-3.252-3.445-4.931-5.114s-3.481-3.216-5.3-4.748a69.514,69.514,0,0,1-5.224-4.817l-.718-.746.718-.7q2.47-2.415,5.055-4.721c.865-.764,1.747-1.514,2.63-2.255s1.793-1.468,2.735-2.155Z" transform="translate(-72.34 -97.21)" fill="#009fd8"/></g><circle cx="5.411" cy="5.411" r="5.411" transform="translate(0 18.718)" fill="url(#a)"/><circle cx="5.411" cy="5.411" r="5.411" transform="translate(9.977 28.7)" fill="url(#b)"/><circle cx="5.411" cy="5.411" r="5.411" transform="translate(19.985 38.704)" fill="url(#c)"/><circle cx="5.032" cy="5.032" r="5.032" transform="translate(30.397 49.115)" fill="url(#d)"/><circle cx="5.489" cy="5.489" r="5.489" transform="translate(40.008 38.626)" fill="url(#e)"/><circle cx="5.315" cy="5.315" r="5.315" transform="translate(30.113 28.741)" fill="url(#f)"/><circle cx="5.315" cy="5.315" r="5.315" transform="translate(20.141 18.618)" fill="url(#g)"/><circle cx="5.155" cy="5.155" r="5.155" transform="translate(10.187 8.76)" fill="url(#h)"/><circle cx="3.884" cy="3.884" r="3.884" transform="translate(21.573)" fill="url(#i)"/><circle cx="3.884" cy="3.884" r="3.884" transform="translate(21.49 60.341)" fill="url(#j)"/><circle cx="3.248" cy="3.248" r="3.248" transform="translate(12.118 50.968)" fill="url(#k)"/><circle cx="2.758" cy="2.758" r="2.758" transform="translate(2.571 41.416)" fill="url(#l)"/><circle cx="3.248" cy="3.248" r="3.248" transform="translate(32.217 10.649)" fill="url(#m)"/><circle cx="2.758" cy="2.758" r="2.758" transform="translate(42.743 21.175)" fill="url(#n)"/></g><g transform="translate(132.78 65.5)"><g transform="translate(0 13.138)"><path d="M248.587,123.871c0,6.583-5.11,13.229-16.518,13.229-6.77,0-12.282-2.168-16.395-6.445l-1.185-1.235,5.421-7.7,1.743,2.013a14.622,14.622,0,0,0,10.576,4.551c3.243,0,6.7-1.116,6.7-4.259,0-2.2-3.028-3.1-8.023-4.314-6.249-1.523-14.812-3.6-14.812-12.8,0-7.47,6.473-12.694,15.75-12.694,7.722,0,12.506,3.248,15.164,5.974l1.18,1.212-5.169,7.68-1.77-2.141a12.178,12.178,0,0,0-9.4-3.907c-3.586,0-6.093,1.532-6.093,3.724,0,1.67,2.914,2.488,7.369,3.55C239.64,111.873,248.587,114.013,248.587,123.871Z" transform="translate(-214.49 -94.22)" fill="#009fd8"/></g><g transform="translate(37.272 13.138)"><path d="M314.547,94.22a21.423,21.423,0,0,0-16.239,6.752l-1.162,1.208,5.082,7.557,1.789-1.949a12.349,12.349,0,0,1,9.766-4.437c3.5,0,7.237,1.482,7.237,5.631v2.228a19.234,19.234,0,0,0-10.141-2.626c-7.182,0-14.908,4.446-14.908,14.222,0,9.286,7.68,14.3,14.908,14.3a18.814,18.814,0,0,0,10.141-2.731v1.821h9.89V108.753C330.909,99.65,324.793,94.22,314.547,94.22Zm6.473,31.371a10.505,10.505,0,0,1-8,3.225c-4.24,0-7.086-2.415-7.086-6.015,0-3.554,2.845-5.938,7.086-5.938a10.652,10.652,0,0,1,8,3.161Z" transform="translate(-295.97 -94.22)" fill="#009fd8"/></g><g transform="translate(79.599 13.133)"><path d="M442.9,107.444v28.741h-9.881V109.049c0-4.9-2.383-5.558-4.716-5.558-2.932,0-6.084,2.072-7.7,4.222v28.471h-9.89V109.049c0-4.885-2.264-5.558-4.716-5.558-2.882,0-5.96,2.141-7.621,4.318v28.375H388.5V95.125h9.881v2.553a17.468,17.468,0,0,1,9.913-3.467c4.561,0,8.229,1.843,10.361,5.073A17.6,17.6,0,0,1,430.52,94.21C438.507,94.215,442.9,98.908,442.9,107.444Z" transform="translate(-388.5 -94.21)" fill="#009fd8"/></g><g transform="translate(134.766 14.048)"><path d="M552.3,96.21,535.22,137.265h-9.039L509.1,96.21h10.782l10.823,26.8,10.9-26.8Z" transform="translate(-509.1 -96.21)" fill="#009fd8"/></g><g transform="translate(177.738 1.066)"><path d="M615.09,96.21v41.055H605.2V106.1a9.89,9.89,0,0,1,9.89-9.89Z" transform="translate(-604.212 -83.228)" fill="#009fd8"/><path d="M614.911,73.8a5.833,5.833,0,0,1-5.9,5.9,5.935,5.935,0,1,1,5.9-5.9Z" transform="translate(-603.04 -67.83)" fill="url(#o)"/></g><g transform="translate(193.776)"><path d="M666.974,65.5V82.146A17.1,17.1,0,0,0,656.6,78.633c-11.061,0-18.5,8.632-18.5,21.481,0,12.8,7.433,21.4,18.5,21.4a17.407,17.407,0,0,0,10.375-3.486V120.6h9.881V65.5Zm0,42.3a11.757,11.757,0,0,1-8.92,4.437c-5.974,0-9.839-4.757-9.839-12.127,0-7.415,3.865-12.2,9.839-12.2a11.767,11.767,0,0,1,8.92,4.51Z" transform="translate(-638.1 -65.5)" fill="#009fd8"/></g><g transform="translate(239.908)"><path d="M773.734,92.48v28.128h-9.881V94.236c0-5.315-2.2-6.322-6.244-6.322a12.217,12.217,0,0,0-8.769,4.359v28.334h-9.89V65.5h9.89V82.283A19.634,19.634,0,0,1,759.9,78.638C768.949,78.638,773.734,83.422,773.734,92.48Z" transform="translate(-738.95 -65.5)" fill="#009fd8"/></g></g></g></svg>