<?xml version="1.0" encoding="utf-8"?>
<!-- Generator: Adobe Illustrator 24.0.1, SVG Export Plug-In . SVG Version: 6.00 Build 0)  -->
<svg version="1.1" id="Layer_1" xmlns="http://www.w3.org/2000/svg" xmlns:xlink="http://www.w3.org/1999/xlink" x="0px" y="0px"
	 viewBox="0 0 780.2 219.1" style="enable-background:new 0 0 780.2 219.1;" xml:space="preserve">
<style type="text/css">
	.st0{fill:#009FD8;}
	.st1{fill:url(#SVGID_1_);}
	.st2{fill:url(#SVGID_2_);}
	.st3{fill:url(#SVGID_3_);}
	.st4{fill:url(#SVGID_4_);}
	.st5{fill:url(#SVGID_5_);}
	.st6{fill:url(#SVGID_6_);}
	.st7{fill:url(#SVGID_7_);}
	.st8{fill:url(#SVGID_8_);}
	.st9{fill:url(#SVGID_9_);}
	.st10{fill:url(#SVGID_10_);}
	.st11{fill:url(#SVGID_11_);}
	.st12{fill:url(#SVGID_12_);}
	.st13{fill:url(#SVGID_13_);}
	.st14{fill:url(#SVGID_14_);}
	.st15{fill:url(#SVGID_15_);}
</style>
<title>logo</title>
<g>
	<g>
		<path class="st0" d="M113.8,87.9c-1.4-0.2-2.8-0.8-3.9-1.6c-0.6-0.3-1.1-0.7-1.6-1.2c-0.5-0.4-0.9-0.9-1.3-1.5
			c-0.7-1.1-1-2.6-1.8-3.7c-0.8-1-1.9-1.8-3.1-2.3c-0.6-0.3-1.3-0.6-1.8-0.9c-0.6-0.3-1.1-0.7-1.6-1.1c-1.1-0.7-2.1-1.6-3-2.5
			c-0.8-1-1.6-2.1-2.2-3.2c-0.7-1.3-1.2-2.6-1.5-4l0.3-0.4c1.4,0.3,2.7,0.8,4,1.5c1.2,0.6,2.2,1.4,3.2,2.3c0.9,0.9,1.8,1.9,2.5,3
			c0.4,0.5,0.8,1,1.1,1.6c0.3,0.6,0.6,1.2,0.9,1.8c0.5,1.2,1.3,2.3,2.3,3.2c1,0.8,2.5,1.2,3.7,1.8c0.6,0.3,1.1,0.8,1.5,1.3
			c0.4,0.5,0.8,1,1.2,1.6c0.8,1.2,1.3,2.5,1.5,3.9L113.8,87.9z"/>
		<path class="st0" d="M91.9,66c-3.9-3.4-7.7-6.9-11.5-10.4c-1.9-1.7-3.8-3.5-5.7-5.3s-3.8-3.5-5.7-5.3h2.3l-5.5,5.8l-5.6,5.8
			c-1.9,1.9-3.7,3.9-5.6,5.8l-5.6,5.7V65c5.6,5.5,11.1,11.1,16.6,16.8s10.8,11.5,16.1,17.3s10.8,11.5,16.3,17s11.2,11.1,16.8,16.5
			l-1.4,1.4l-0.4-0.4h1.4c-3.4,3.8-6.8,7.6-10.2,11.4s-6.9,7.5-10.4,11.2s-7,7.4-10.7,11l-2.7,2.7l-2.8,2.7
			c-1.8,1.8-3.7,3.6-5.5,5.3l-1.8,1.7l-1.6-1.7L58,166.6c-3.6-3.8-7.2-7.6-10.8-11.4s-7.1-7.7-10.6-11.5c-3.5-3.9-7.1-7.7-10.5-11.6
			l0.4-0.4c3.9,3.5,7.8,7,11.6,10.5s7.7,7.1,11.5,10.7s7.6,7.1,11.4,10.8l11.3,10.8h-3.4c1.7-1.9,3.5-3.7,5.3-5.5l2.7-2.8l2.7-2.7
			c3.6-3.6,7.3-7.1,11-10.6s7.4-7.1,11.2-10.5s7.7-6.8,11.4-10.2l0.8-0.7l0.6,0.7l0.4,0.4l-1.4,1.4c-5.4-5.7-11-11.3-16.5-16.8
			c-5.6-5.6-11.3-11-17-16.3S68.4,90.2,62.8,84.7S51.5,73.8,46,68.2l-1.5-1.6L46,65l5.7-5.6c1.9-1.9,3.8-3.7,5.8-5.6l5.8-5.6
			l5.8-5.5l1.2-1.2l1.1,1.2c1.8,1.9,3.5,3.8,5.3,5.7s3.5,3.8,5.3,5.7c3.5,3.8,7,7.6,10.3,11.5L91.9,66z"/>
		<path class="st0" d="M47.7,66.8c-1.5,2.1-3.1,4-4.7,6s-3.3,3.9-4.9,5.8c-3.3,3.8-6.8,7.4-10.3,11v-3.1c3.7,3.6,7.2,7.4,10.5,11.4
			c3.3,4,6.7,7.9,10.4,11.6s7.4,7.3,11.2,10.8s7.7,6.9,11.8,10.2l-3,3c-3.3-4.1-6.7-7.9-10.2-11.8s-7.1-7.5-10.8-11.2
			s-7.6-7-11.6-10.4c-4-3.3-7.8-6.8-11.4-10.5L23,87.9l1.6-1.5c3.6-3.5,7.3-7,11.1-10.3c1.9-1.7,3.8-3.3,5.8-4.9s3.9-3.2,6-4.7
			L47.7,66.8z"/>
		
			<linearGradient id="SVGID_1_" gradientUnits="userSpaceOnUse" x1="29.77" y1="128.43" x2="88" y2="70.2" gradientTransform="matrix(1 0 0 -1 0 220)">
			<stop  offset="0" style="stop-color:#009FD8"/>
			<stop  offset="0.34" style="stop-color:#E45135"/>
			<stop  offset="0.66" style="stop-color:#E9A447"/>
			<stop  offset="1" style="stop-color:#009FD8"/>
		</linearGradient>
		<circle class="st1" cx="26.4" cy="88.2" r="11.8"/>
		
			<linearGradient id="SVGID_2_" gradientUnits="userSpaceOnUse" x1="29.77" y1="128.43" x2="88" y2="70.2" gradientTransform="matrix(1 0 0 -1 0 220)">
			<stop  offset="0" style="stop-color:#009FD8"/>
			<stop  offset="0.34" style="stop-color:#E45135"/>
			<stop  offset="0.66" style="stop-color:#E9A447"/>
			<stop  offset="1" style="stop-color:#009FD8"/>
		</linearGradient>
		<circle class="st2" cx="48.2" cy="110" r="11.8"/>
		
			<linearGradient id="SVGID_3_" gradientUnits="userSpaceOnUse" x1="29.765" y1="128.425" x2="87.995" y2="70.195" gradientTransform="matrix(1 0 0 -1 0 220)">
			<stop  offset="0" style="stop-color:#009FD8"/>
			<stop  offset="0.34" style="stop-color:#E45135"/>
			<stop  offset="0.66" style="stop-color:#E9A447"/>
			<stop  offset="1" style="stop-color:#009FD8"/>
		</linearGradient>
		<circle class="st3" cx="70.1" cy="131.9" r="11.8"/>
		
			<linearGradient id="SVGID_4_" gradientUnits="userSpaceOnUse" x1="29.77" y1="128.43" x2="88" y2="70.2" gradientTransform="matrix(1 0 0 -1 0 220)">
			<stop  offset="0" style="stop-color:#009FD8"/>
			<stop  offset="0.34" style="stop-color:#E45135"/>
			<stop  offset="0.66" style="stop-color:#E9A447"/>
			<stop  offset="1" style="stop-color:#009FD8"/>
		</linearGradient>
		<circle class="st4" cx="92" cy="153.8" r="11"/>
		
			<linearGradient id="SVGID_5_" gradientUnits="userSpaceOnUse" x1="51.735" y1="150.395" x2="109.965" y2="92.165" gradientTransform="matrix(1 0 0 -1 0 220)">
			<stop  offset="0" style="stop-color:#009FD8"/>
			<stop  offset="0.34" style="stop-color:#E45135"/>
			<stop  offset="0.66" style="stop-color:#E9A447"/>
			<stop  offset="1" style="stop-color:#009FD8"/>
		</linearGradient>
		<circle class="st5" cx="114" cy="131.9" r="12"/>
		
			<linearGradient id="SVGID_6_" gradientUnits="userSpaceOnUse" x1="51.735" y1="150.395" x2="109.965" y2="92.165" gradientTransform="matrix(1 0 0 -1 0 220)">
			<stop  offset="0" style="stop-color:#009FD8"/>
			<stop  offset="0.34" style="stop-color:#E45135"/>
			<stop  offset="0.66" style="stop-color:#E9A447"/>
			<stop  offset="1" style="stop-color:#009FD8"/>
		</linearGradient>
		<circle class="st6" cx="92" cy="109.9" r="11.6"/>
		
			<linearGradient id="SVGID_7_" gradientUnits="userSpaceOnUse" x1="51.9016" y1="150.5516" x2="110.1216" y2="92.3216" gradientTransform="matrix(1 0 0 -1 0 220)">
			<stop  offset="0" style="stop-color:#009FD8"/>
			<stop  offset="0.34" style="stop-color:#E45135"/>
			<stop  offset="0.66" style="stop-color:#E9A447"/>
			<stop  offset="1" style="stop-color:#009FD8"/>
		</linearGradient>
		<circle class="st7" cx="70.2" cy="87.8" r="11.6"/>
		
			<linearGradient id="SVGID_8_" gradientUnits="userSpaceOnUse" x1="51.79" y1="150.45" x2="110.02" y2="92.22" gradientTransform="matrix(1 0 0 -1 0 220)">
			<stop  offset="0" style="stop-color:#009FD8"/>
			<stop  offset="0.34" style="stop-color:#E45135"/>
			<stop  offset="0.66" style="stop-color:#E9A447"/>
			<stop  offset="1" style="stop-color:#009FD8"/>
		</linearGradient>
		<circle class="st8" cx="48.1" cy="65.9" r="11.3"/>
		
			<linearGradient id="SVGID_9_" gradientUnits="userSpaceOnUse" x1="73.81" y1="172.47" x2="132.04" y2="114.24" gradientTransform="matrix(1 0 0 -1 0 220)">
			<stop  offset="0" style="stop-color:#009FD8"/>
			<stop  offset="0.34" style="stop-color:#E45135"/>
			<stop  offset="0.66" style="stop-color:#E9A447"/>
			<stop  offset="1" style="stop-color:#009FD8"/>
		</linearGradient>
		<circle class="st9" cx="70.2" cy="43.9" r="8.5"/>
		
			<linearGradient id="SVGID_10_" gradientUnits="userSpaceOnUse" x1="7.7647" y1="106.4146" x2="65.9947" y2="48.1946" gradientTransform="matrix(1 0 0 -1 0 220)">
			<stop  offset="0" style="stop-color:#009FD8"/>
			<stop  offset="0.34" style="stop-color:#E45135"/>
			<stop  offset="0.66" style="stop-color:#E9A447"/>
			<stop  offset="1" style="stop-color:#009FD8"/>
		</linearGradient>
		<circle class="st10" cx="70" cy="175.8" r="8.5"/>
		
			<linearGradient id="SVGID_11_" gradientUnits="userSpaceOnUse" x1="15.561" y1="96.711" x2="54.471" y2="60.091" gradientTransform="matrix(1 0 0 -1 0 220)">
			<stop  offset="0" style="stop-color:#009FD8"/>
			<stop  offset="0.34" style="stop-color:#E45135"/>
			<stop  offset="0.66" style="stop-color:#E9A447"/>
			<stop  offset="1" style="stop-color:#009FD8"/>
		</linearGradient>
		<circle class="st11" cx="48.2" cy="154" r="7.1"/>
		
			<linearGradient id="SVGID_12_" gradientUnits="userSpaceOnUse" x1="16.2107" y1="97.4008" x2="55.1207" y2="60.7808" gradientTransform="matrix(1 0 0 -1 0 220)">
			<stop  offset="0" style="stop-color:#009FD8"/>
			<stop  offset="0.34" style="stop-color:#E45135"/>
			<stop  offset="0.66" style="stop-color:#E9A447"/>
			<stop  offset="1" style="stop-color:#009FD8"/>
		</linearGradient>
		<circle class="st12" cx="26.2" cy="132" r="6"/>
		
			<linearGradient id="SVGID_13_" gradientUnits="userSpaceOnUse" x1="121.7795" y1="117.9996" x2="84.6495" y2="163.2596" gradientTransform="matrix(1 0 0 -1 0 220)">
			<stop  offset="0" style="stop-color:#009FD8"/>
			<stop  offset="0.34" style="stop-color:#E45135"/>
			<stop  offset="0.66" style="stop-color:#E9A447"/>
			<stop  offset="1" style="stop-color:#009FD8"/>
		</linearGradient>
		<circle class="st13" cx="92.1" cy="65.8" r="7.1"/>
		
			<linearGradient id="SVGID_14_" gradientUnits="userSpaceOnUse" x1="124.1328" y1="119.9223" x2="87.0028" y2="165.1923" gradientTransform="matrix(1 0 0 -1 0 220)">
			<stop  offset="0" style="stop-color:#009FD8"/>
			<stop  offset="0.34" style="stop-color:#E45135"/>
			<stop  offset="0.66" style="stop-color:#E9A447"/>
			<stop  offset="1" style="stop-color:#009FD8"/>
		</linearGradient>
		<circle class="st14" cx="114" cy="87.8" r="6"/>
	</g>
	<g>
		<path class="st0" d="M239.7,120.5c0,14.4-11.2,28.9-36.1,28.9c-14.8,0-26.9-4.7-35.8-14.1l-2.6-2.7l11.8-16.8l3.8,4.4
			c4.3,5,13.1,10,23.1,10c7.1,0,14.6-2.4,14.6-9.3c0-4.8-6.6-6.8-17.5-9.4c-13.7-3.3-32.4-7.9-32.4-28c0-16.3,14.1-27.8,34.4-27.8
			c16.9,0,27.3,7.1,33.1,13.1l2.6,2.7l-11.3,16.8l-3.9-4.7c-4.4-5.4-12.1-8.5-20.5-8.5c-7.8,0-13.3,3.3-13.3,8.1
			c0,3.7,6.4,5.4,16.1,7.8C220.1,94.3,239.7,99,239.7,120.5z"/>
		<path class="st0" d="M287.3,55.7c-14.3,0-26,4.8-35.5,14.8l-2.6,2.6l11.1,16.5l3.9-4.3c6.1-6.7,12.7-9.7,21.4-9.7
			c7.6,0,15.8,3.2,15.8,12.3v4.9c-6.2-3.8-13.7-5.7-22.2-5.7c-15.7,0-32.6,9.7-32.6,31.1c0,20.3,16.8,31.3,32.6,31.3
			c7.8,0.1,15.5-1.9,22.2-6v4H323v-60C323,67.6,309.6,55.7,287.3,55.7z M301.4,124.3c-3.8,4.4-10.3,7.1-17.5,7.1
			c-9.3,0-15.5-5.3-15.5-13.2s6.2-13,15.5-13c7.2,0,13.6,2.6,17.5,6.9V124.3z"/>
		<path class="st0" d="M458.1,84.6v62.8h-21.6V88.1c0-10.7-5.2-12.2-10.3-12.2c-6.4,0-13.3,4.5-16.8,9.2v62.2h-21.6V88.1
			c0-10.7-5-12.2-10.3-12.2c-6.3,0-13,4.7-16.7,9.4v62h-21.6V57.7h21.6v5.6c5.8-4.2,13.5-7.6,21.7-7.6c10,0,18,4,22.6,11.1
			c6.3-6.1,15.8-11.1,26-11.1C448.5,55.7,458.1,66,458.1,84.6z"/>
		<polygon class="st0" points="554.2,57.7 516.9,147.4 497.1,147.4 459.8,57.7 483.3,57.7 507,116.3 530.8,57.7 		"/>
		<g>
			<path class="st0" d="M577.5,57.7v89.8h-21.6V79.3C555.9,67.4,565.6,57.7,577.5,57.7z"/>
			
				<linearGradient id="SVGID_15_" gradientUnits="userSpaceOnUse" x1="566.6605" y1="166.94" x2="566.6605" y2="203.63" gradientTransform="matrix(1 0 0 -1 0 220)">
				<stop  offset="0" style="stop-color:#E45135"/>
				<stop  offset="1" style="stop-color:#E9A447"/>
			</linearGradient>
			<path class="st15" d="M579.7,42.4c0.1,7-5.6,12.8-12.6,12.9c-0.1,0-0.2,0-0.3,0c-7.2,0.1-13-5.7-13.1-12.9s5.7-13,12.9-13.1
				c7.2-0.1,13,5.7,13.1,12.9C579.7,42.2,579.7,42.3,579.7,42.4z"/>
		</g>
		<path class="st0" d="M651.9,27v36.4c-6.5-5-14.5-7.7-22.7-7.7c-24.2,0-40.4,18.9-40.4,47s16.3,46.8,40.4,46.8
			c8.2,0,16.1-2.7,22.7-7.6v5.6h21.6V27H651.9z M651.9,119.5c-4.7,6-11.9,9.5-19.5,9.7c-13.1,0-21.5-10.4-21.5-26.5
			S619.3,76,632.4,76c7.6,0.2,14.8,3.8,19.5,9.8V119.5z"/>
		<path class="st0" d="M765.7,86v61.5h-21.6V89.8c0-11.6-4.8-13.8-13.7-13.8c-7.6,0-15.1,4.6-19.2,9.5v61.9h-21.6V27h21.6v36.7
			c7.1-5.1,15.5-7.8,24.2-8C755.2,55.7,765.7,66.2,765.7,86z"/>
	</g>
</g>
<g>
	<path d="M167.1,180.2v-0.3c0-5.9,4.2-9.9,9.4-9.9c4,0,7.8,1.9,8.4,6.8h-3c-0.5-3.1-2.7-4.2-5.4-4.2c-3.5,0-6.2,2.8-6.2,7.4v0.3
		c0,4.8,2.6,7.3,6.3,7.3c2.7,0,5.2-1.6,5.6-4.7h2.8c-0.4,4.2-3.8,7.3-8.4,7.3C171.2,190,167.1,186.2,167.1,180.2z"/>
	<path d="M193.3,180.1v-0.3c0-5.8,4-9.9,9.5-9.9c5.5,0,9.5,4,9.5,9.9v0.3c0,5.9-4,9.9-9.6,9.9C197.2,190,193.3,185.8,193.3,180.1z
		 M209.1,180.1v-0.3c0-4.5-2.5-7.4-6.3-7.4c-3.8,0-6.3,2.9-6.3,7.4v0.3c0,4.4,2.4,7.3,6.3,7.3C206.7,187.5,209.1,184.5,209.1,180.1z
		"/>
	<path d="M222.1,170.3h3.1v3.1c1.3-2.2,3.7-3.6,6.2-3.4c4,0,6.8,2.2,6.8,7.8v11.9h-3.1v-12.1c0-3.4-1.4-4.9-4.6-4.9
		c-2.8-0.2-5.2,2-5.4,4.8c0,0.2,0,0.3,0,0.5v11.8h-3.1V170.3z"/>
	<path d="M249.2,170.3h3.1v3.1c1.3-2.2,3.7-3.5,6.2-3.4c4,0,6.8,2.2,6.8,7.8v11.9h-3.1v-12.2c0-3.4-1.4-4.9-4.6-4.9
		c-2.8-0.2-5.2,2-5.4,4.8c0,0.2,0,0.4,0,0.5v11.8h-3.1L249.2,170.3z"/>
	<path d="M274.9,180.2v-0.3c0-5.9,3.7-9.9,9.1-9.9c4.5,0,8.7,2.7,8.7,9.6v1h-14.6c0.1,4.4,2.3,6.9,6.2,6.9c3,0,4.7-1.1,5.2-3.4h3.1
		c-0.7,3.9-3.9,5.9-8.3,5.9C278.8,190,274.9,186.2,274.9,180.2z M289.6,178.1c-0.3-4-2.4-5.6-5.6-5.6c-3.2,0-5.3,2.1-5.8,5.6H289.6z
		"/>
	<path d="M301,180.2v-0.3c0-5.9,4.2-9.9,9.4-9.9c4,0,7.8,1.9,8.4,6.8h-3c-0.5-3.1-2.7-4.2-5.4-4.2c-3.5,0-6.2,2.8-6.2,7.4v0.3
		c0,4.8,2.6,7.3,6.3,7.3c2.7,0,5.2-1.6,5.6-4.7h2.9c-0.4,4.2-3.8,7.3-8.4,7.3C305,190,301,186.2,301,180.2z"/>
	<path d="M329.2,184.8v-12h-2.8v-2.6h2.8v-4.4h3.1v4.4h4.5v2.6h-4.5v11.6c0,1.9,0.8,2.8,2.4,2.8c0.8,0,1.6-0.1,2.4-0.4v2.6
		c-0.8,0.3-1.7,0.4-2.6,0.4C330.9,190,329.2,187.9,329.2,184.8z"/>
	<path d="M346.2,164.2c0-1.1,0.9-2,2-2s2,0.9,2,2s-0.9,2-2,2C347.1,166.2,346.2,165.3,346.2,164.2z M346.7,170.3h3.1v19.4h-3.1
		V170.3z"/>
	<path d="M361.1,170.3h3.1v3.1c1.3-2.2,3.7-3.6,6.2-3.4c4,0,6.8,2.2,6.8,7.8v11.9h-3.1v-12.1c0-3.4-1.4-4.9-4.6-4.9
		c-2.8-0.2-5.2,2-5.4,4.8c0,0.2,0,0.3,0,0.5v11.8h-3.1L361.1,170.3z"/>
	<path d="M387.2,190.8h3.2c0.4,2.2,2.3,3.4,5.6,3.4c3.8,0,6.2-1.8,6.2-6v-2.8c-1.4,2.2-3.9,3.6-6.6,3.7c-5.1,0-8.8-3.9-8.8-9.2v-0.3
		c0-5.3,3.7-9.6,9-9.6c2.6-0.1,5,1.2,6.3,3.4v-3.1h3.1v18.1c0,5.6-3.8,8.4-9.3,8.4C390.2,196.8,387.7,194.1,387.2,190.8z
		 M402.3,179.6v-0.3c0-4.3-2.4-6.9-6.1-6.9c-3.8,0-6.1,2.9-6.1,6.9v0.3c0,4.2,2.7,6.8,6,6.8C399.5,186.5,402.3,184,402.3,179.6z"/>
	<path class="st0" d="M430,181.6h3.1c0.4,3.2,1.7,5.8,7,5.8c3.4,0,6-2,6-5s-1.4-4.3-6.4-5.1c-5.6-0.9-8.9-2.6-8.9-7.3
		c0-4.1,3.5-7.2,8.5-7.2c5.3,0,8.6,2.6,9.1,7.3h-2.9c-0.6-3.3-2.6-4.7-6.2-4.7c-3.7,0-5.5,1.8-5.5,4.3s1,3.9,6.4,4.8
		c5.9,0.9,9,2.7,9,7.7c0,4.4-3.9,7.8-9.2,7.8C433,190,430.4,186.1,430,181.6z"/>
	<path class="st0" d="M457.9,184.3c0-4.5,4.7-6,9.7-6h2.8v-1.4c0-3.1-1.2-4.4-4.1-4.4c-2.7,0-4.1,1.1-4.4,3.5h-3.1
		c0.4-4.4,3.9-6.1,7.7-6.1c3.7,0,7.1,1.5,7.1,6.9v12.8h-3.1v-2.4c-1.4,1.9-3.7,2.9-6,2.8C460.8,190,457.9,188.3,457.9,184.3z
		 M470.4,182.9v-2.4h-2.7c-3.9,0-6.7,1-6.7,3.8c0,2,1,3.3,3.7,3.3C467.9,187.6,470.4,185.9,470.4,182.9z"/>
	<path class="st0" d="M484.6,161h3.1v28.7h-3.1V161z"/>
	<path class="st0" d="M497.5,180.2v-0.3c0-5.9,3.7-9.9,9.1-9.9c4.5,0,8.7,2.7,8.7,9.6v1h-14.6c0.1,4.4,2.3,6.9,6.2,6.9
		c3,0,4.7-1.1,5.1-3.4h3.1c-0.7,3.9-3.9,5.9-8.3,5.9C501.4,190,497.5,186.2,497.5,180.2z M512.2,178.1c-0.3-4-2.4-5.6-5.6-5.6
		s-5.3,2.1-5.8,5.6H512.2z"/>
	<path class="st0" d="M523.6,183.7h3c0.2,2.3,1.4,3.7,4.6,3.7c2.9,0,4.2-1,4.2-3.1s-1.5-2.7-4.5-3.3c-5-0.9-6.7-2.3-6.7-5.7
		c0-3.6,3.5-5.4,6.6-5.4c3.5,0,6.5,1.4,7,5.6h-3c-0.4-2.1-1.6-3-4.1-3c-2.2,0-3.7,1.1-3.7,2.8s1,2.4,4.5,3.1c4,0.8,6.8,1.6,6.8,5.8
		c0,3.5-2.4,5.9-7.1,5.9C526.4,190.1,523.8,187.7,523.6,183.7z"/>
	<path class="st0" d="M548.7,172.9h-2.8v-2.6h2.8v-3.1c0-3.9,1.9-6.2,5.8-6.2c0.8,0,1.6,0.1,2.3,0.4v2.6c-0.7-0.3-1.4-0.4-2.2-0.4
		c-2,0-2.8,1.4-2.8,3.3v3.5h4.7v2.6h-4.7v16.8h-3.1L548.7,172.9z"/>
	<path class="st0" d="M563.4,180.1v-0.3c0-5.8,4-9.9,9.5-9.9c5.5,0,9.5,4,9.5,9.9v0.3c0,5.9-4,9.9-9.5,9.9S563.4,185.8,563.4,180.1z
		 M579.3,180.1v-0.3c0-4.5-2.5-7.4-6.3-7.4c-3.9,0-6.3,2.9-6.3,7.4v0.3c0,4.4,2.4,7.3,6.3,7.3S579.3,184.5,579.3,180.1z"/>
	<path class="st0" d="M592.2,170.3h3.1v3.5c1.2-2.4,3.7-3.9,6.4-3.8v2.9c-3.9,0.2-6.4,1.4-6.4,6.2v10.6h-3.1V170.3z"/>
	<path class="st0" d="M609.2,180.2v-0.3c0-5.9,4.2-9.9,9.4-9.9c4,0,7.8,1.9,8.4,6.8h-3c-0.5-3.1-2.7-4.2-5.4-4.2
		c-3.5,0-6.2,2.8-6.2,7.4v0.3c0,4.8,2.6,7.3,6.3,7.3c2.7,0,5.2-1.6,5.6-4.7h2.8c-0.4,4.2-3.8,7.3-8.4,7.3
		C613.2,190,609.2,186.2,609.2,180.2z"/>
	<path class="st0" d="M635.3,180.2v-0.3c0-5.9,3.7-9.9,9.1-9.9c4.5,0,8.7,2.7,8.7,9.6v1h-14.6c0.1,4.4,2.3,6.9,6.2,6.9
		c3,0,4.7-1.1,5.2-3.4h3.1c-0.7,3.9-3.9,5.9-8.3,5.9C639.2,190,635.3,186.2,635.3,180.2z M649.9,178.1c-0.3-4-2.4-5.6-5.6-5.6
		c-3.2,0-5.3,2.1-5.8,5.6H649.9z"/>
	<path d="M676.1,180.4v-0.3c0-5.9,3.7-10.1,9-10.1c2.6-0.1,5,1.2,6.3,3.4V161h3.1v28.7h-3.1v-3.3c-1.5,2.2-4,3.6-6.6,3.7
		C679.8,190,676.1,186.4,676.1,180.4z M691.6,180.1v-0.3c0-5-2.4-7.3-6.1-7.3c-3.8,0-6.2,2.7-6.2,7.4v0.3c0,4.9,2.6,7.2,5.9,7.2
		C688.8,187.5,691.6,185.1,691.6,180.1L691.6,180.1z"/>
	<path d="M704.3,180.1v-0.3c0-5.8,4-9.9,9.5-9.9s9.5,4,9.5,9.9v0.3c0,5.9-4,9.9-9.6,9.9S704.3,185.8,704.3,180.1z M720.2,180.1v-0.3
		c0-4.5-2.5-7.4-6.3-7.4c-3.8,0-6.3,2.9-6.3,7.4v0.3c0,4.4,2.4,7.3,6.3,7.3C717.8,187.5,720.2,184.5,720.2,180.1z"/>
	<path d="M733.8,184.8v-12H731v-2.6h2.8v-4.4h3.1v4.4h4.5v2.6h-4.5v11.6c0,1.9,0.8,2.8,2.4,2.8c0.8,0,1.6-0.1,2.4-0.4v2.6
		c-0.8,0.3-1.7,0.4-2.6,0.4C735.5,190,733.8,187.9,733.8,184.8z"/>
	<path d="M749.7,183.7h3c0.2,2.3,1.4,3.7,4.6,3.7c2.9,0,4.2-1,4.2-3.1s-1.5-2.7-4.5-3.3c-5-0.9-6.7-2.3-6.7-5.7
		c0-3.6,3.5-5.4,6.6-5.4c3.5,0,6.5,1.4,7,5.6h-3c-0.4-2.1-1.6-3-4.1-3c-2.2,0-3.7,1.1-3.7,2.8s1,2.4,4.5,3.1c4,0.8,6.8,1.6,6.8,5.8
		c0,3.5-2.4,5.9-7.1,5.9C752.5,190.1,749.9,187.7,749.7,183.7z"/>
</g>
</svg>
