<svg xmlns="http://www.w3.org/2000/svg" width="31.73" height="28.21" viewBox="16 17.76 31.73 28.21"><g data-name="Group 62"><path d="m31.86 17.76 14.63 8.87-29.33.06 14.7-8.93Z" stroke-linejoin="round" stroke-linecap="round" stroke="#009fd8" fill="transparent" data-name="Path 73"/><path d="M47.72 43.13h0c0 1.57-1.27 2.84-2.84 2.84H18.84c-1.57 0-2.84-1.27-2.84-2.84V28.15c0-.17.02-.33.04-.49L31.02 37l.06.03.06.03c.11.05.21.1.33.13.01 0 .02.01.03.01.12.03.25.05.37.05h0c.12 0 .25-.02.37-.05.01 0 .02 0 .03-.01.11-.03.22-.07.33-.13l.06-.03.06-.03 14.97-9.33c.03.16.04.32.04.49v14.97Z" stroke-linejoin="round" stroke-linecap="round" stroke="#009fd8" fill="transparent" data-name="Path 74"/></g></svg>