<svg xmlns="http://www.w3.org/2000/svg" width="29.38" height="32.48" viewBox="17.96 15.62 29.38 32.48"><g data-name="Group 61"><path d="M43.43 44.18v1.96c0 1.08-.88 1.96-1.96 1.96H21.88a3.92 3.92 0 0 1-3.92-3.92V19.54a3.92 3.92 0 0 1 3.92-3.92h19.58c1.08 0 1.96.88 1.96 1.96v26.6Z" stroke-linejoin="round" stroke-linecap="round" stroke="#009fd8" fill="transparent" data-name="Path 70"/><path d="M47.34 19.54v26.6c0 1.08-.88 1.96-1.96 1.96h-.53c.33-.58.53-1.25.53-1.96V17.58c0-.71-.2-1.38-.53-1.96h.53c1.08 0 1.96.88 1.96 1.96v1.96Z" stroke-linejoin="round" stroke-linecap="round" stroke="#009fd8" fill="transparent" data-name="Path 71"/><path d="M36.75 34.44s-.74-.89-1.56-.27c-.61.46-1.7 1.47-1.97 1.71 0 0-1.83-.98-2.91-1.87-1.6-1.32-2.68-2.95-3.24-3.87l-.42-.79c.15-.16 1.27-1.36 1.75-2.01.61-.82-.27-1.55-.27-1.55s-2.49-2.49-3.06-2.98c-.57-.49-1.22-.22-1.22-.22-1.19.77-2.43 1.44-2.5 4.66 0 3.02 2.29 6.12 4.76 8.53 2.48 2.72 5.88 5.44 9.17 5.44 3.22-.07 3.89-1.31 4.66-2.5 0 0 .28-.65-.22-1.22-.48-.57-2.97-3.06-2.97-3.06h0Zm0 0" stroke-linejoin="round" stroke-linecap="round" stroke="#009fd8" fill="transparent" data-name="Path 72"/></g></svg>