<?xml version="1.0" encoding="utf-8"?>
<!-- Generator: Adobe Illustrator 24.0.1, SVG Export Plug-In . SVG Version: 6.00 Build 0)  -->
<svg version="1.1" id="Layer_1" xmlns="http://www.w3.org/2000/svg" xmlns:xlink="http://www.w3.org/1999/xlink" x="0px" y="0px"
	 viewBox="0 0 320 320" style="enable-background:new 0 0 320 320;" xml:space="preserve">
<style type="text/css">
	.st0{opacity:5.000000e-02;fill:url(#SVGID_3_);enable-background:new    ;}
	.st1{opacity:0.7;}
	.st2{fill:#009FD8;}
	.st3{opacity:0.2;fill:#008CB2;enable-background:new    ;}
	.st4{fill:#E44235;}
	.st5{fill:#FFFFFF;}
	.st6{opacity:0.72;stroke:#FFFFFF;stroke-miterlimit:10;enable-background:new    ;}
	.st7{fill:none;stroke:url(#SVGID_4_);stroke-width:0.5;stroke-miterlimit:10;}
	.st8{fill:#0084A3;}
	.st9{fill:#0094BC;}
	.st10{fill-rule:evenodd;clip-rule:evenodd;fill:#FFFFFF;}
	.st11{opacity:0.8;}
	.st12{opacity:0.72;}
	.st13{fill:none;stroke:#FFFFFF;stroke-miterlimit:10;}
	.st14{fill:url(#SVGID_5_);}
	.st15{fill:url(#SVGID_6_);}
	.st16{fill:url(#SVGID_7_);}
	.st17{fill:url(#SVGID_8_);}
	.st18{fill:url(#SVGID_9_);}
	.st19{fill:url(#SVGID_10_);}
	.st20{fill:url(#SVGID_11_);}
	.st21{fill:url(#SVGID_12_);}
	.st22{fill:url(#SVGID_13_);}
	.st23{fill:url(#SVGID_14_);}
	.st24{fill:url(#SVGID_15_);}
	.st25{fill:url(#SVGID_16_);}
	.st26{fill:url(#SVGID_17_);}
	.st27{fill:url(#SVGID_18_);}
	.st28{opacity:0.1;fill:#0084A3;enable-background:new    ;}
	.st29{opacity:0.4;fill:#EAE9E8;enable-background:new    ;}
	.st30{fill:none;stroke:#999999;stroke-width:0.5;stroke-miterlimit:10;stroke-dasharray:1;}
	.st31{fill:url(#SVGID_19_);}
	.st32{fill:url(#SVGID_20_);}
	.st33{fill:url(#SVGID_21_);}
	.st34{fill:url(#SVGID_22_);}
	.st35{fill:url(#SVGID_23_);}
	.st36{fill:url(#SVGID_24_);}
	.st37{fill:url(#SVGID_25_);}
	.st38{fill:url(#SVGID_26_);}
	.st39{fill:url(#SVGID_27_);}
	.st40{fill:url(#SVGID_28_);}
	.st41{fill:url(#SVGID_29_);}
	.st42{fill:url(#SVGID_30_);}
	.st43{fill:url(#SVGID_31_);}
	.st44{fill:url(#SVGID_32_);}
	.st45{fill:url(#SVGID_33_);}
	.st46{fill:none;stroke:#009FD8;stroke-width:0.5;stroke-miterlimit:10;stroke-dasharray:1;}
	.st47{fill:url(#SVGID_34_);}
	.st48{opacity:0.72;enable-background:new    ;}
	.st49{fill:none;stroke:#009FD8;stroke-miterlimit:10;}
	.st50{fill:none;stroke:#0068D8;stroke-miterlimit:10;}
	.st51{fill:#F4F4F4;}
	.st52{fill-rule:evenodd;clip-rule:evenodd;fill:#009FD8;}
	.st53{opacity:0.4;fill-rule:evenodd;clip-rule:evenodd;fill:#EAE9E8;enable-background:new    ;}
	.st54{opacity:0.2;fill-rule:evenodd;clip-rule:evenodd;fill:url(#SVGID_35_);enable-background:new    ;}
	.st55{fill-rule:evenodd;clip-rule:evenodd;fill:url(#SVGID_36_);}
	.st56{fill-rule:evenodd;clip-rule:evenodd;fill:url(#SVGID_37_);}
	.st57{fill-rule:evenodd;clip-rule:evenodd;fill:url(#SVGID_38_);}
	.st58{fill-rule:evenodd;clip-rule:evenodd;fill:url(#SVGID_39_);}
	.st59{fill-rule:evenodd;clip-rule:evenodd;fill:url(#SVGID_40_);}
	.st60{fill-rule:evenodd;clip-rule:evenodd;fill:url(#SVGID_41_);}
	.st61{fill-rule:evenodd;clip-rule:evenodd;fill:url(#SVGID_42_);}
	.st62{fill-rule:evenodd;clip-rule:evenodd;fill:url(#SVGID_43_);}
	.st63{fill-rule:evenodd;clip-rule:evenodd;fill:url(#SVGID_44_);}
	.st64{fill-rule:evenodd;clip-rule:evenodd;fill:url(#SVGID_45_);}
	.st65{fill-rule:evenodd;clip-rule:evenodd;fill:url(#SVGID_46_);}
	.st66{fill-rule:evenodd;clip-rule:evenodd;fill:url(#SVGID_47_);}
	.st67{fill-rule:evenodd;clip-rule:evenodd;fill:url(#SVGID_48_);}
	.st68{fill-rule:evenodd;clip-rule:evenodd;fill:url(#SVGID_49_);}
	.st69{fill-rule:evenodd;clip-rule:evenodd;fill:url(#SVGID_50_);}
	.st70{fill-rule:evenodd;clip-rule:evenodd;fill:url(#SVGID_51_);}
	.st71{fill-rule:evenodd;clip-rule:evenodd;fill:url(#SVGID_52_);}
	.st72{fill-rule:evenodd;clip-rule:evenodd;fill:url(#SVGID_53_);}
	.st73{fill-rule:evenodd;clip-rule:evenodd;fill:url(#SVGID_54_);}
	.st74{fill-rule:evenodd;clip-rule:evenodd;fill:url(#SVGID_55_);}
	.st75{fill-rule:evenodd;clip-rule:evenodd;fill:url(#SVGID_56_);}
	.st76{fill-rule:evenodd;clip-rule:evenodd;fill:url(#SVGID_57_);}
	.st77{fill-rule:evenodd;clip-rule:evenodd;fill:url(#SVGID_58_);}
	.st78{fill-rule:evenodd;clip-rule:evenodd;fill:url(#SVGID_59_);}
	.st79{fill-rule:evenodd;clip-rule:evenodd;fill:url(#SVGID_60_);}
	.st80{fill-rule:evenodd;clip-rule:evenodd;fill:url(#SVGID_61_);}
	.st81{fill-rule:evenodd;clip-rule:evenodd;fill:url(#SVGID_62_);}
	.st82{fill-rule:evenodd;clip-rule:evenodd;fill:url(#SVGID_63_);}
	.st83{fill-rule:evenodd;clip-rule:evenodd;fill:url(#SVGID_64_);}
	.st84{fill-rule:evenodd;clip-rule:evenodd;fill:url(#SVGID_65_);}
	.st85{fill-rule:evenodd;clip-rule:evenodd;fill:url(#SVGID_66_);}
	.st86{fill-rule:evenodd;clip-rule:evenodd;fill:url(#SVGID_67_);}
	.st87{fill-rule:evenodd;clip-rule:evenodd;fill:url(#SVGID_68_);}
	.st88{fill-rule:evenodd;clip-rule:evenodd;fill:url(#SVGID_69_);}
	.st89{fill-rule:evenodd;clip-rule:evenodd;fill:url(#SVGID_70_);}
	.st90{fill-rule:evenodd;clip-rule:evenodd;fill:url(#SVGID_71_);}
	.st91{fill-rule:evenodd;clip-rule:evenodd;fill:url(#SVGID_72_);}
	.st92{fill-rule:evenodd;clip-rule:evenodd;fill:url(#SVGID_73_);}
	.st93{fill-rule:evenodd;clip-rule:evenodd;fill:url(#SVGID_74_);}
	.st94{fill-rule:evenodd;clip-rule:evenodd;fill:url(#SVGID_75_);}
	.st95{fill-rule:evenodd;clip-rule:evenodd;fill:url(#SVGID_76_);}
	.st96{fill-rule:evenodd;clip-rule:evenodd;fill:url(#SVGID_77_);}
	.st97{fill-rule:evenodd;clip-rule:evenodd;fill:url(#SVGID_78_);}
	.st98{fill-rule:evenodd;clip-rule:evenodd;fill:url(#SVGID_79_);}
	.st99{fill-rule:evenodd;clip-rule:evenodd;fill:url(#SVGID_80_);}
	.st100{fill-rule:evenodd;clip-rule:evenodd;fill:url(#SVGID_81_);}
	.st101{fill-rule:evenodd;clip-rule:evenodd;fill:url(#SVGID_82_);}
	.st102{fill-rule:evenodd;clip-rule:evenodd;fill:url(#SVGID_83_);}
	.st103{fill-rule:evenodd;clip-rule:evenodd;fill:url(#SVGID_84_);}
	.st104{fill-rule:evenodd;clip-rule:evenodd;fill:url(#SVGID_85_);}
	.st105{fill-rule:evenodd;clip-rule:evenodd;fill:url(#SVGID_86_);}
	.st106{fill-rule:evenodd;clip-rule:evenodd;fill:url(#SVGID_87_);}
	.st107{fill-rule:evenodd;clip-rule:evenodd;fill:url(#SVGID_88_);}
	.st108{fill-rule:evenodd;clip-rule:evenodd;fill:url(#SVGID_89_);}
	.st109{fill-rule:evenodd;clip-rule:evenodd;fill:url(#SVGID_90_);}
	.st110{fill-rule:evenodd;clip-rule:evenodd;fill:url(#SVGID_91_);}
	.st111{fill-rule:evenodd;clip-rule:evenodd;fill:url(#SVGID_92_);}
	.st112{fill-rule:evenodd;clip-rule:evenodd;fill:url(#SVGID_93_);}
	.st113{fill-rule:evenodd;clip-rule:evenodd;fill:url(#SVGID_94_);}
	.st114{fill-rule:evenodd;clip-rule:evenodd;fill:url(#SVGID_95_);}
	.st115{fill-rule:evenodd;clip-rule:evenodd;fill:url(#SVGID_96_);}
	.st116{fill-rule:evenodd;clip-rule:evenodd;fill:url(#SVGID_97_);}
	.st117{fill-rule:evenodd;clip-rule:evenodd;fill:url(#SVGID_98_);}
	.st118{fill-rule:evenodd;clip-rule:evenodd;fill:url(#SVGID_99_);}
	.st119{fill-rule:evenodd;clip-rule:evenodd;fill:url(#SVGID_100_);}
	.st120{fill-rule:evenodd;clip-rule:evenodd;fill:url(#SVGID_101_);}
	.st121{fill-rule:evenodd;clip-rule:evenodd;fill:url(#SVGID_102_);}
	.st122{fill-rule:evenodd;clip-rule:evenodd;fill:url(#SVGID_103_);}
	.st123{fill-rule:evenodd;clip-rule:evenodd;fill:url(#SVGID_104_);}
	.st124{fill-rule:evenodd;clip-rule:evenodd;fill:url(#SVGID_105_);}
	.st125{fill-rule:evenodd;clip-rule:evenodd;fill:url(#SVGID_106_);}
	.st126{fill-rule:evenodd;clip-rule:evenodd;fill:url(#SVGID_107_);}
	.st127{fill-rule:evenodd;clip-rule:evenodd;fill:url(#SVGID_108_);}
	.st128{fill-rule:evenodd;clip-rule:evenodd;fill:url(#SVGID_109_);}
	.st129{fill-rule:evenodd;clip-rule:evenodd;fill:url(#SVGID_110_);}
	.st130{fill-rule:evenodd;clip-rule:evenodd;fill:url(#SVGID_111_);}
	.st131{fill-rule:evenodd;clip-rule:evenodd;fill:url(#SVGID_112_);}
	.st132{fill-rule:evenodd;clip-rule:evenodd;fill:url(#SVGID_113_);}
	.st133{opacity:0.2;fill-rule:evenodd;clip-rule:evenodd;fill:url(#SVGID_114_);enable-background:new    ;}
	.st134{fill:#FFFFFF;stroke:url(#SVGID_115_);stroke-miterlimit:10;}
	.st135{fill:url(#SVGID_116_);}
	.st136{fill:url(#SVGID_117_);}
	.st137{fill:url(#SVGID_118_);}
	.st138{fill:url(#SVGID_119_);}
	.st139{fill:#FFFFFF;stroke:url(#SVGID_120_);stroke-miterlimit:10;}
	.st140{fill:url(#SVGID_121_);}
	.st141{fill:url(#SVGID_122_);}
	.st142{fill:url(#SVGID_123_);}
	.st143{fill:url(#SVGID_124_);}
	.st144{fill-rule:evenodd;clip-rule:evenodd;fill:url(#SVGID_125_);}
	.st145{fill-rule:evenodd;clip-rule:evenodd;fill:url(#SVGID_126_);}
	.st146{fill-rule:evenodd;clip-rule:evenodd;fill:url(#SVGID_127_);}
	.st147{fill-rule:evenodd;clip-rule:evenodd;fill:url(#SVGID_128_);}
	.st148{fill-rule:evenodd;clip-rule:evenodd;fill:url(#SVGID_129_);}
	.st149{fill-rule:evenodd;clip-rule:evenodd;fill:url(#SVGID_130_);}
	.st150{fill-rule:evenodd;clip-rule:evenodd;fill:url(#SVGID_131_);}
	.st151{fill-rule:evenodd;clip-rule:evenodd;fill:url(#SVGID_132_);}
	.st152{fill-rule:evenodd;clip-rule:evenodd;fill:url(#SVGID_133_);}
	.st153{fill-rule:evenodd;clip-rule:evenodd;fill:url(#SVGID_134_);}
	.st154{fill-rule:evenodd;clip-rule:evenodd;fill:url(#SVGID_135_);}
	.st155{fill-rule:evenodd;clip-rule:evenodd;fill:url(#SVGID_136_);}
	.st156{fill-rule:evenodd;clip-rule:evenodd;fill:url(#SVGID_137_);}
	.st157{fill-rule:evenodd;clip-rule:evenodd;fill:url(#SVGID_138_);}
	.st158{fill-rule:evenodd;clip-rule:evenodd;fill:url(#SVGID_139_);}
	.st159{fill-rule:evenodd;clip-rule:evenodd;fill:url(#SVGID_140_);}
	.st160{fill-rule:evenodd;clip-rule:evenodd;fill:url(#SVGID_141_);}
	.st161{fill-rule:evenodd;clip-rule:evenodd;fill:url(#SVGID_142_);}
	.st162{fill-rule:evenodd;clip-rule:evenodd;fill:url(#SVGID_143_);}
	.st163{fill-rule:evenodd;clip-rule:evenodd;fill:url(#SVGID_144_);}
	.st164{fill-rule:evenodd;clip-rule:evenodd;fill:url(#SVGID_145_);}
	.st165{fill-rule:evenodd;clip-rule:evenodd;fill:url(#SVGID_146_);}
	.st166{fill-rule:evenodd;clip-rule:evenodd;fill:url(#SVGID_147_);}
	.st167{fill-rule:evenodd;clip-rule:evenodd;fill:url(#SVGID_148_);}
	.st168{fill-rule:evenodd;clip-rule:evenodd;fill:url(#SVGID_149_);}
	.st169{fill-rule:evenodd;clip-rule:evenodd;fill:url(#SVGID_150_);}
	.st170{fill-rule:evenodd;clip-rule:evenodd;fill:url(#SVGID_151_);}
	.st171{fill-rule:evenodd;clip-rule:evenodd;fill:url(#SVGID_152_);}
	.st172{fill-rule:evenodd;clip-rule:evenodd;fill:url(#SVGID_153_);}
	.st173{fill-rule:evenodd;clip-rule:evenodd;fill:url(#SVGID_154_);}
	.st174{fill-rule:evenodd;clip-rule:evenodd;fill:url(#SVGID_155_);}
	.st175{fill-rule:evenodd;clip-rule:evenodd;fill:url(#SVGID_156_);}
	.st176{fill-rule:evenodd;clip-rule:evenodd;fill:url(#SVGID_157_);}
	.st177{fill-rule:evenodd;clip-rule:evenodd;fill:url(#SVGID_158_);}
	.st178{fill-rule:evenodd;clip-rule:evenodd;fill:url(#SVGID_159_);}
	.st179{fill-rule:evenodd;clip-rule:evenodd;fill:url(#SVGID_160_);}
	.st180{fill-rule:evenodd;clip-rule:evenodd;fill:url(#SVGID_161_);}
	.st181{fill-rule:evenodd;clip-rule:evenodd;fill:url(#SVGID_162_);}
	.st182{fill-rule:evenodd;clip-rule:evenodd;fill:url(#SVGID_163_);}
	.st183{fill-rule:evenodd;clip-rule:evenodd;fill:url(#SVGID_164_);}
	.st184{fill-rule:evenodd;clip-rule:evenodd;fill:url(#SVGID_165_);}
	.st185{fill-rule:evenodd;clip-rule:evenodd;fill:url(#SVGID_166_);}
	.st186{fill-rule:evenodd;clip-rule:evenodd;fill:url(#SVGID_167_);}
	.st187{fill-rule:evenodd;clip-rule:evenodd;fill:url(#SVGID_168_);}
	.st188{fill-rule:evenodd;clip-rule:evenodd;fill:url(#SVGID_169_);}
	.st189{fill-rule:evenodd;clip-rule:evenodd;fill:url(#SVGID_170_);}
	.st190{fill-rule:evenodd;clip-rule:evenodd;fill:url(#SVGID_171_);}
	.st191{fill-rule:evenodd;clip-rule:evenodd;fill:url(#SVGID_172_);}
	.st192{fill-rule:evenodd;clip-rule:evenodd;fill:url(#SVGID_173_);}
	.st193{fill-rule:evenodd;clip-rule:evenodd;fill:url(#SVGID_174_);}
	.st194{opacity:0.1;fill:url(#SVGID_175_);enable-background:new    ;}
	.st195{fill:url(#SVGID_176_);}
	.st196{fill:url(#SVGID_177_);}
	.st197{opacity:0.3;}
	.st198{fill:url(#SVGID_178_);}
	.st199{fill:url(#SVGID_179_);}
	.st200{opacity:0.3;fill:#009FD8;enable-background:new    ;}
	.st201{fill:url(#SVGID_180_);}
	.st202{fill:#ECECEC;}
	.st203{fill:#007CFF;}
	.st204{fill:#1A2E35;}
	.st205{opacity:0.2;fill:#007CFF;enable-background:new    ;}
	.st206{opacity:0.5;fill:#FFFFFF;enable-background:new    ;}
	.st207{opacity:0.4;fill:#007CFF;enable-background:new    ;}
	.st208{opacity:0.8;fill:#FFFFFF;enable-background:new    ;}
	.st209{opacity:0.5;fill:#007CFF;enable-background:new    ;}
	.st210{fill:url(#SVGID_181_);}
	.st211{fill:url(#SVGID_182_);}
	.st212{opacity:0.3;fill:#007CFF;enable-background:new    ;}
	.st213{opacity:0.8;fill-rule:evenodd;clip-rule:evenodd;fill:#FFFFFF;enable-background:new    ;}
	.st214{opacity:5.000000e-02;fill:url(#SVGID_183_);enable-background:new    ;}
	.st215{fill:url(#SVGID_184_);}
	.st216{fill:url(#SVGID_185_);}
	.st217{fill:#E7E7E7;}
	.st218{fill:#E1E1E1;}
	.st219{opacity:0.5;fill:#FAFAFA;enable-background:new    ;}
	.st220{opacity:0.6;fill:#FFFFFF;enable-background:new    ;}
	.st221{fill:#F0F0F0;}
	.st222{fill:#121F23;}
	.st223{opacity:0.1;enable-background:new    ;}
	.st224{fill:none;stroke:#007CFF;stroke-linecap:round;stroke-linejoin:round;stroke-miterlimit:10;}
	.st225{fill:none;stroke:#007CFF;stroke-miterlimit:10;}
	.st226{opacity:0.4;fill:#FFFFFF;enable-background:new    ;}
	.st227{opacity:0.3;fill:#FFFFFF;enable-background:new    ;}
	.st228{opacity:0.2;fill:#FFFFFF;enable-background:new    ;}
	.st229{opacity:0.6;fill:#1A2E35;enable-background:new    ;}
</style>
<g>
	<path class="st2" d="M187.4,125.4l1.9-3.4l0,0c0.7-1.2,0.2-2.7-1-3.3c-1.2-0.7-2.7-0.2-3.3,1l-1.9,3.5l0,0
		c-0.7-0.2-1.4-0.3-2.2-0.3h-22.2c-2.6,0-5.1,1-6.9,2.8c-1.8,1.8-2.9,4.3-2.9,6.9v22.2c0,3.3,1.7,6.3,4.4,8.1l-7.7,11.7
		c-0.7-1.1-1.7-2-2.8-2.7c-2-1.3-4.4-1.9-6.8-1.6c-0.8-1.6-2-2.9-3.5-3.9c-1.6-1-3.4-1.6-5.2-1.6c-1.9-0.1-3.7,0.4-5.3,1.3
		c-0.5-0.6-1.1-1.1-1.8-1.5c-2.1-1.4-4.7-2-7.2-1.6c-2.5,0.4-4.8,1.7-6.4,3.7c-0.2,0.2-0.4,0.4-0.5,0.6l-16,24.3
		c-3.1,4.7-4.2,10.4-3.1,15.9s4.4,10.3,9.1,13.4l15.7,10.4c5.4,3.5,10.1,3,15.1,2.4l0,0c3.2-0.4,6.5-0.6,9.8-0.4
		c9.4,0.7,20.3,6.5,20.4,6.6c0.4,0.2,0.7,0.3,1.1,0.3h0.2c0.6,0,4.7-0.8,6.5-6.9c2.3-7.4-4.3-14.1-12-17.5l0,0
		c-3.1-1.4-6.4-2.5-9.8-3.1l31.6-48.1h5.9c2.6,0,5-1,6.8-2.8s2.8-4.3,2.8-6.8v-22.6C190.5,129.7,189.4,127.2,187.4,125.4
		L187.4,125.4z M153.8,154.6v-22.2c0-2.7,2.2-4.9,4.9-4.9h21.9l-10.7,19.2l-7.2-11.1l0,0c-0.7-1.1-2.3-1.4-3.4-0.7
		c-1.1,0.7-1.4,2.3-0.7,3.4l6.2,9.6l0,0c-1.6,0.7-3,1.8-3.9,3.3l-5,7.5l0,0C154.6,157.8,153.8,156.2,153.8,154.6L153.8,154.6z
		 M172.5,159.3l-35.3,53.6l0,0c-0.4,0.6-0.5,1.4-0.3,2.2c0.3,0.7,0.9,1.2,1.6,1.5c0.9,0.2,1.8,0.4,2.7,0.5l0,0
		c3.4,0.4,6.8,1.4,9.8,2.9c4.6,2,10.8,6.8,9.4,11.7l0,0c-0.3,1.2-1,2.3-2,3.2c-6.7-3.4-14-5.7-21.5-6.6H134c-2.9,0-5.4,0.3-7.7,0.5
		c-4.7,0.6-7.8,0.9-11.8-1.6l-15.7-10.5c-3.6-2.4-6.1-6.1-7-10.4c-0.9-4.2,0-8.7,2.4-12.3l16.1-24.4l-2-1.2l2.2,1.2l0,0
		c1.7-2.2,4.8-2.7,7.2-1.2c0.8,0.5,1.4,1.2,1.8,2c0.4,0.7,1,1.1,1.7,1.3c0.8,0.1,1.6-0.1,2.2-0.7c0.9-0.8,2-1.4,3.3-1.5
		c1.2-0.1,2.5,0.2,3.5,0.8c1.2,0.7,2,1.9,2.3,3.2c0.1,0.7,0.6,1.3,1.2,1.6c0.6,0.3,1.3,0.4,1.9,0.1c1.6-0.6,3.4-0.4,4.8,0.6
		c1.4,0.9,2.3,2.5,2.4,4.2c0.1,1,0.8,1.9,1.8,2.1c1,0.3,2-0.1,2.6-1l17.9-27.2c0.7-1.1,1.8-1.8,3.1-2c1.2-0.2,2.5,0.1,3.5,0.9
		C173.5,154.5,173.9,157.2,172.5,159.3L172.5,159.3z M185.7,154.6c0,2.7-2.2,4.9-4.9,4.9h-3.2c0.7-1.9,0.7-4,0.1-5.9
		c-0.6-1.9-1.7-3.6-3.4-4.9l10.5-18.9c0.5,0.8,0.8,1.7,0.9,2.6L185.7,154.6z"/>
	<path class="st2" d="M162.2,109.1h14.9c1.9,0,3.8-0.8,5.2-2.2s2.1-3.2,2.2-5.2V87c0-1.9-0.8-3.8-2.2-5.1c-1.4-1.4-3.2-2.1-5.2-2.1
		h-14.9c-1.9,0-3.8,0.8-5.1,2.1c-1.4,1.4-2.1,3.2-2.1,5.1v14.8l0,0c0,1.9,0.7,3.8,2.1,5.2C158.5,108.3,160.3,109.1,162.2,109.1
		L162.2,109.1z M159.9,87c0-1.3,1-2.4,2.4-2.4h14.8c1.3,0,2.4,1.1,2.4,2.4v14.8l0,0c0,0.6-0.2,1.3-0.7,1.7c-0.5,0.5-1.1,0.7-1.7,0.7
		h-14.8c-0.6,0-1.3-0.2-1.7-0.7c-0.5-0.5-0.7-1.1-0.7-1.7V87z"/>
	<path class="st2" d="M177.1,177.9h-3.9c-1.3,0-2.4,1.1-2.4,2.4c0,0.6,0.2,1.3,0.7,1.7c0.5,0.5,1.1,0.7,1.7,0.7h3.9
		c1.3,0.1,2.3,1.1,2.3,2.5V200c0,1.3-1.1,2.4-2.4,2.4h-14.8c-0.8,0-1.5-0.4-1.9-0.9c-0.4-0.6-1-1-1.6-1.1c-0.7-0.1-1.4,0.1-1.9,0.5
		s-0.9,1-0.9,1.7c-0.1,0.7,0.2,1.3,0.6,1.8c1.3,1.8,3.5,2.9,5.7,2.9h14.9c1.9,0,3.8-0.8,5.2-2.1c1.4-1.4,2.1-3.2,2.2-5.2v-14.8
		c0-1.9-0.8-3.8-2.2-5.2C180.9,178.7,179,177.9,177.1,177.9L177.1,177.9z"/>
	<path class="st2" d="M113.2,158.2H128c1.9,0,3.8-0.8,5.1-2.1c1.4-1.4,2.1-3.2,2.1-5.1v-14.9c0-1.9-0.8-3.8-2.1-5.1
		c-1.4-1.4-3.2-2.1-5.1-2.1h-14.8c-1.9,0-3.8,0.7-5.2,2.1c-1.4,1.4-2.2,3.2-2.2,5.1V151c0,1.9,0.8,3.8,2.2,5.1
		C109.5,157.4,111.3,158.2,113.2,158.2L113.2,158.2z M110.8,136.1c0-1.3,1.1-2.4,2.4-2.4H128c1.3,0,2.4,1.1,2.4,2.4V151
		c-0.1,1.3-1.1,2.3-2.4,2.4h-14.8c-1.3,0-2.4-1.1-2.4-2.5V136.1z"/>
	<path class="st2" d="M113.2,109.1H128c1.9,0,3.8-0.8,5.1-2.2c1.4-1.4,2.1-3.2,2.1-5.2V87c0-1.9-0.8-3.8-2.1-5.1
		c-1.4-1.4-3.2-2.1-5.1-2.1h-14.8c-1.9,0-3.8,0.8-5.2,2.1c-1.4,1.4-2.1,3.2-2.2,5.1v14.8l0,0c0,1.9,0.8,3.8,2.2,5.2
		C109.4,108.3,111.3,109.1,113.2,109.1L113.2,109.1z M110.8,87c0-0.6,0.2-1.3,0.7-1.7c0.5-0.5,1.1-0.7,1.7-0.7H128
		c1.3,0,2.4,1.1,2.4,2.4v14.8l0,0c0,1.3-1.1,2.4-2.4,2.4h-14.8c-0.6,0-1.3-0.2-1.7-0.7c-0.5-0.5-0.7-1.1-0.7-1.7L110.8,87z"/>
	<path class="st2" d="M226.2,128.9h-14.9c-1.9,0-3.8,0.8-5.1,2.1c-1.4,1.4-2.1,3.2-2.1,5.1V151c0,1.9,0.8,3.7,2.2,5.1
		c1.4,1.4,3.2,2.1,5.1,2.1h14.9c1.9,0,3.8-0.8,5.1-2.1c1.4-1.4,2.1-3.2,2.1-5.1v-14.9c0-1.9-0.7-3.8-2.1-5.1
		C230,129.6,228.2,128.8,226.2,128.9L226.2,128.9z M228.7,150.9c-0.1,1.3-1.1,2.4-2.5,2.4h-14.9c-1.3-0.1-2.4-1.1-2.4-2.5v-14.7
		c0-1.3,1.1-2.4,2.4-2.4h14.9c1.3,0,2.4,1.1,2.5,2.4V150.9z"/>
	<path class="st2" d="M226.2,79.8h-14.9c-1.9,0-3.8,0.8-5.1,2.1c-1.4,1.4-2.1,3.2-2.1,5.1v14.8l0,0c0,1.9,0.8,3.8,2.1,5.1
		c1.3,1.3,3.2,2.2,5.1,2.2h14.9c1.9,0,3.8-0.8,5.1-2.2c1.4-1.4,2.1-3.2,2.1-5.2V87c0-1.9-0.8-3.8-2.1-5.1
		C230,80.5,228.2,79.8,226.2,79.8L226.2,79.8z M228.7,101.8c0,1.3-1.1,2.4-2.5,2.4h-14.9c-1.3,0-2.4-1.1-2.4-2.4V87
		c0-1.3,1-2.4,2.4-2.4h14.9c1.3,0,2.4,1.1,2.5,2.4V101.8z"/>
	<path class="st2" d="M226.2,177.9h-14.9c-1.9,0-3.8,0.8-5.1,2.2c-1.4,1.4-2.1,3.2-2.1,5.1V200c0,1.9,0.8,3.8,2.1,5.1
		c1.4,1.4,3.2,2.1,5.1,2.2h14.9c1.9,0,3.8-0.8,5.1-2.1c1.4-1.4,2.1-3.2,2.1-5.2v-14.8c0-1.9-0.7-3.8-2.1-5.2
		C230,178.7,228.2,177.9,226.2,177.9L226.2,177.9z M228.7,200c0,1.3-1.1,2.4-2.5,2.4h-14.9c-1.3,0-2.4-1.1-2.4-2.4v-14.8
		c0-0.6,0.2-1.3,0.7-1.7c0.4-0.5,1.1-0.7,1.7-0.7h14.9c1.3,0,2.4,1.1,2.5,2.5V200z"/>
</g>
</svg>
