<?xml version="1.0" encoding="utf-8"?>
<!-- Generator: Adobe Illustrator 24.0.1, SVG Export Plug-In . SVG Version: 6.00 Build 0)  -->
<svg version="1.1" id="Layer_1" xmlns="http://www.w3.org/2000/svg" xmlns:xlink="http://www.w3.org/1999/xlink" x="0px" y="0px"
	 viewBox="0 0 320 320" style="enable-background:new 0 0 320 320;" xml:space="preserve">
<style type="text/css">
	.st0{opacity:5.000000e-02;fill:url(#SVGID_3_);enable-background:new    ;}
	.st1{opacity:0.7;}
	.st2{fill:#009FD8;}
	.st3{opacity:0.2;fill:#008CB2;enable-background:new    ;}
	.st4{fill:#E44235;}
	.st5{fill:#FFFFFF;}
	.st6{opacity:0.72;stroke:#FFFFFF;stroke-miterlimit:10;enable-background:new    ;}
	.st7{fill:none;stroke:url(#SVGID_4_);stroke-width:0.5;stroke-miterlimit:10;}
	.st8{fill:#0084A3;}
	.st9{fill:#0094BC;}
	.st10{fill-rule:evenodd;clip-rule:evenodd;fill:#FFFFFF;}
	.st11{opacity:0.8;}
	.st12{opacity:0.72;}
	.st13{fill:none;stroke:#FFFFFF;stroke-miterlimit:10;}
	.st14{fill:url(#SVGID_5_);}
	.st15{fill:url(#SVGID_6_);}
	.st16{fill:url(#SVGID_7_);}
	.st17{fill:url(#SVGID_8_);}
	.st18{fill:url(#SVGID_9_);}
	.st19{fill:url(#SVGID_10_);}
	.st20{fill:url(#SVGID_11_);}
	.st21{fill:url(#SVGID_12_);}
	.st22{fill:url(#SVGID_13_);}
	.st23{fill:url(#SVGID_14_);}
	.st24{fill:url(#SVGID_15_);}
	.st25{fill:url(#SVGID_16_);}
	.st26{fill:url(#SVGID_17_);}
	.st27{fill:url(#SVGID_18_);}
	.st28{opacity:0.1;fill:#0084A3;enable-background:new    ;}
	.st29{opacity:0.4;fill:#EAE9E8;enable-background:new    ;}
	.st30{fill:none;stroke:#999999;stroke-width:0.5;stroke-miterlimit:10;stroke-dasharray:1;}
	.st31{fill:url(#SVGID_19_);}
	.st32{fill:url(#SVGID_20_);}
	.st33{fill:url(#SVGID_21_);}
	.st34{fill:url(#SVGID_22_);}
	.st35{fill:url(#SVGID_23_);}
	.st36{fill:url(#SVGID_24_);}
	.st37{fill:url(#SVGID_25_);}
	.st38{fill:url(#SVGID_26_);}
	.st39{fill:url(#SVGID_27_);}
	.st40{fill:url(#SVGID_28_);}
	.st41{fill:url(#SVGID_29_);}
	.st42{fill:url(#SVGID_30_);}
	.st43{fill:url(#SVGID_31_);}
	.st44{fill:url(#SVGID_32_);}
	.st45{fill:url(#SVGID_33_);}
	.st46{fill:none;stroke:#009FD8;stroke-width:0.5;stroke-miterlimit:10;stroke-dasharray:1;}
	.st47{fill:url(#SVGID_34_);}
	.st48{opacity:0.72;enable-background:new    ;}
	.st49{fill:none;stroke:#009FD8;stroke-miterlimit:10;}
	.st50{fill:none;stroke:#0068D8;stroke-miterlimit:10;}
	.st51{fill:#F4F4F4;}
	.st52{fill-rule:evenodd;clip-rule:evenodd;fill:#009FD8;}
	.st53{opacity:0.4;fill-rule:evenodd;clip-rule:evenodd;fill:#EAE9E8;enable-background:new    ;}
	.st54{opacity:0.2;fill-rule:evenodd;clip-rule:evenodd;fill:url(#SVGID_35_);enable-background:new    ;}
	.st55{fill-rule:evenodd;clip-rule:evenodd;fill:url(#SVGID_36_);}
	.st56{fill-rule:evenodd;clip-rule:evenodd;fill:url(#SVGID_37_);}
	.st57{fill-rule:evenodd;clip-rule:evenodd;fill:url(#SVGID_38_);}
	.st58{fill-rule:evenodd;clip-rule:evenodd;fill:url(#SVGID_39_);}
	.st59{fill-rule:evenodd;clip-rule:evenodd;fill:url(#SVGID_40_);}
	.st60{fill-rule:evenodd;clip-rule:evenodd;fill:url(#SVGID_41_);}
	.st61{fill-rule:evenodd;clip-rule:evenodd;fill:url(#SVGID_42_);}
	.st62{fill-rule:evenodd;clip-rule:evenodd;fill:url(#SVGID_43_);}
	.st63{fill-rule:evenodd;clip-rule:evenodd;fill:url(#SVGID_44_);}
	.st64{fill-rule:evenodd;clip-rule:evenodd;fill:url(#SVGID_45_);}
	.st65{fill-rule:evenodd;clip-rule:evenodd;fill:url(#SVGID_46_);}
	.st66{fill-rule:evenodd;clip-rule:evenodd;fill:url(#SVGID_47_);}
	.st67{fill-rule:evenodd;clip-rule:evenodd;fill:url(#SVGID_48_);}
	.st68{fill-rule:evenodd;clip-rule:evenodd;fill:url(#SVGID_49_);}
	.st69{fill-rule:evenodd;clip-rule:evenodd;fill:url(#SVGID_50_);}
	.st70{fill-rule:evenodd;clip-rule:evenodd;fill:url(#SVGID_51_);}
	.st71{fill-rule:evenodd;clip-rule:evenodd;fill:url(#SVGID_52_);}
	.st72{fill-rule:evenodd;clip-rule:evenodd;fill:url(#SVGID_53_);}
	.st73{fill-rule:evenodd;clip-rule:evenodd;fill:url(#SVGID_54_);}
	.st74{fill-rule:evenodd;clip-rule:evenodd;fill:url(#SVGID_55_);}
	.st75{fill-rule:evenodd;clip-rule:evenodd;fill:url(#SVGID_56_);}
	.st76{fill-rule:evenodd;clip-rule:evenodd;fill:url(#SVGID_57_);}
	.st77{fill-rule:evenodd;clip-rule:evenodd;fill:url(#SVGID_58_);}
	.st78{fill-rule:evenodd;clip-rule:evenodd;fill:url(#SVGID_59_);}
	.st79{fill-rule:evenodd;clip-rule:evenodd;fill:url(#SVGID_60_);}
	.st80{fill-rule:evenodd;clip-rule:evenodd;fill:url(#SVGID_61_);}
	.st81{fill-rule:evenodd;clip-rule:evenodd;fill:url(#SVGID_62_);}
	.st82{fill-rule:evenodd;clip-rule:evenodd;fill:url(#SVGID_63_);}
	.st83{fill-rule:evenodd;clip-rule:evenodd;fill:url(#SVGID_64_);}
	.st84{fill-rule:evenodd;clip-rule:evenodd;fill:url(#SVGID_65_);}
	.st85{fill-rule:evenodd;clip-rule:evenodd;fill:url(#SVGID_66_);}
	.st86{fill-rule:evenodd;clip-rule:evenodd;fill:url(#SVGID_67_);}
	.st87{fill-rule:evenodd;clip-rule:evenodd;fill:url(#SVGID_68_);}
	.st88{fill-rule:evenodd;clip-rule:evenodd;fill:url(#SVGID_69_);}
	.st89{fill-rule:evenodd;clip-rule:evenodd;fill:url(#SVGID_70_);}
	.st90{fill-rule:evenodd;clip-rule:evenodd;fill:url(#SVGID_71_);}
	.st91{fill-rule:evenodd;clip-rule:evenodd;fill:url(#SVGID_72_);}
	.st92{fill-rule:evenodd;clip-rule:evenodd;fill:url(#SVGID_73_);}
	.st93{fill-rule:evenodd;clip-rule:evenodd;fill:url(#SVGID_74_);}
	.st94{fill-rule:evenodd;clip-rule:evenodd;fill:url(#SVGID_75_);}
	.st95{fill-rule:evenodd;clip-rule:evenodd;fill:url(#SVGID_76_);}
	.st96{fill-rule:evenodd;clip-rule:evenodd;fill:url(#SVGID_77_);}
	.st97{fill-rule:evenodd;clip-rule:evenodd;fill:url(#SVGID_78_);}
	.st98{fill-rule:evenodd;clip-rule:evenodd;fill:url(#SVGID_79_);}
	.st99{fill-rule:evenodd;clip-rule:evenodd;fill:url(#SVGID_80_);}
	.st100{fill-rule:evenodd;clip-rule:evenodd;fill:url(#SVGID_81_);}
	.st101{fill-rule:evenodd;clip-rule:evenodd;fill:url(#SVGID_82_);}
	.st102{fill-rule:evenodd;clip-rule:evenodd;fill:url(#SVGID_83_);}
	.st103{fill-rule:evenodd;clip-rule:evenodd;fill:url(#SVGID_84_);}
	.st104{fill-rule:evenodd;clip-rule:evenodd;fill:url(#SVGID_85_);}
	.st105{fill-rule:evenodd;clip-rule:evenodd;fill:url(#SVGID_86_);}
	.st106{fill-rule:evenodd;clip-rule:evenodd;fill:url(#SVGID_87_);}
	.st107{fill-rule:evenodd;clip-rule:evenodd;fill:url(#SVGID_88_);}
	.st108{fill-rule:evenodd;clip-rule:evenodd;fill:url(#SVGID_89_);}
	.st109{fill-rule:evenodd;clip-rule:evenodd;fill:url(#SVGID_90_);}
	.st110{fill-rule:evenodd;clip-rule:evenodd;fill:url(#SVGID_91_);}
	.st111{fill-rule:evenodd;clip-rule:evenodd;fill:url(#SVGID_92_);}
	.st112{fill-rule:evenodd;clip-rule:evenodd;fill:url(#SVGID_93_);}
	.st113{fill-rule:evenodd;clip-rule:evenodd;fill:url(#SVGID_94_);}
	.st114{fill-rule:evenodd;clip-rule:evenodd;fill:url(#SVGID_95_);}
	.st115{fill-rule:evenodd;clip-rule:evenodd;fill:url(#SVGID_96_);}
	.st116{fill-rule:evenodd;clip-rule:evenodd;fill:url(#SVGID_97_);}
	.st117{fill-rule:evenodd;clip-rule:evenodd;fill:url(#SVGID_98_);}
	.st118{fill-rule:evenodd;clip-rule:evenodd;fill:url(#SVGID_99_);}
	.st119{fill-rule:evenodd;clip-rule:evenodd;fill:url(#SVGID_100_);}
	.st120{fill-rule:evenodd;clip-rule:evenodd;fill:url(#SVGID_101_);}
	.st121{fill-rule:evenodd;clip-rule:evenodd;fill:url(#SVGID_102_);}
	.st122{fill-rule:evenodd;clip-rule:evenodd;fill:url(#SVGID_103_);}
	.st123{fill-rule:evenodd;clip-rule:evenodd;fill:url(#SVGID_104_);}
	.st124{fill-rule:evenodd;clip-rule:evenodd;fill:url(#SVGID_105_);}
	.st125{fill-rule:evenodd;clip-rule:evenodd;fill:url(#SVGID_106_);}
	.st126{fill-rule:evenodd;clip-rule:evenodd;fill:url(#SVGID_107_);}
	.st127{fill-rule:evenodd;clip-rule:evenodd;fill:url(#SVGID_108_);}
	.st128{fill-rule:evenodd;clip-rule:evenodd;fill:url(#SVGID_109_);}
	.st129{fill-rule:evenodd;clip-rule:evenodd;fill:url(#SVGID_110_);}
	.st130{fill-rule:evenodd;clip-rule:evenodd;fill:url(#SVGID_111_);}
	.st131{fill-rule:evenodd;clip-rule:evenodd;fill:url(#SVGID_112_);}
	.st132{fill-rule:evenodd;clip-rule:evenodd;fill:url(#SVGID_113_);}
	.st133{opacity:0.2;fill-rule:evenodd;clip-rule:evenodd;fill:url(#SVGID_114_);enable-background:new    ;}
	.st134{fill:#FFFFFF;stroke:url(#SVGID_115_);stroke-miterlimit:10;}
	.st135{fill:url(#SVGID_116_);}
	.st136{fill:url(#SVGID_117_);}
	.st137{fill:url(#SVGID_118_);}
	.st138{fill:url(#SVGID_119_);}
	.st139{fill:#FFFFFF;stroke:url(#SVGID_120_);stroke-miterlimit:10;}
	.st140{fill:url(#SVGID_121_);}
	.st141{fill:url(#SVGID_122_);}
	.st142{fill:url(#SVGID_123_);}
	.st143{fill:url(#SVGID_124_);}
	.st144{fill-rule:evenodd;clip-rule:evenodd;fill:url(#SVGID_125_);}
	.st145{fill-rule:evenodd;clip-rule:evenodd;fill:url(#SVGID_126_);}
	.st146{fill-rule:evenodd;clip-rule:evenodd;fill:url(#SVGID_127_);}
	.st147{fill-rule:evenodd;clip-rule:evenodd;fill:url(#SVGID_128_);}
	.st148{fill-rule:evenodd;clip-rule:evenodd;fill:url(#SVGID_129_);}
	.st149{fill-rule:evenodd;clip-rule:evenodd;fill:url(#SVGID_130_);}
	.st150{fill-rule:evenodd;clip-rule:evenodd;fill:url(#SVGID_131_);}
	.st151{fill-rule:evenodd;clip-rule:evenodd;fill:url(#SVGID_132_);}
	.st152{fill-rule:evenodd;clip-rule:evenodd;fill:url(#SVGID_133_);}
	.st153{fill-rule:evenodd;clip-rule:evenodd;fill:url(#SVGID_134_);}
	.st154{fill-rule:evenodd;clip-rule:evenodd;fill:url(#SVGID_135_);}
	.st155{fill-rule:evenodd;clip-rule:evenodd;fill:url(#SVGID_136_);}
	.st156{fill-rule:evenodd;clip-rule:evenodd;fill:url(#SVGID_137_);}
	.st157{fill-rule:evenodd;clip-rule:evenodd;fill:url(#SVGID_138_);}
	.st158{fill-rule:evenodd;clip-rule:evenodd;fill:url(#SVGID_139_);}
	.st159{fill-rule:evenodd;clip-rule:evenodd;fill:url(#SVGID_140_);}
	.st160{fill-rule:evenodd;clip-rule:evenodd;fill:url(#SVGID_141_);}
	.st161{fill-rule:evenodd;clip-rule:evenodd;fill:url(#SVGID_142_);}
	.st162{fill-rule:evenodd;clip-rule:evenodd;fill:url(#SVGID_143_);}
	.st163{fill-rule:evenodd;clip-rule:evenodd;fill:url(#SVGID_144_);}
	.st164{fill-rule:evenodd;clip-rule:evenodd;fill:url(#SVGID_145_);}
	.st165{fill-rule:evenodd;clip-rule:evenodd;fill:url(#SVGID_146_);}
	.st166{fill-rule:evenodd;clip-rule:evenodd;fill:url(#SVGID_147_);}
	.st167{fill-rule:evenodd;clip-rule:evenodd;fill:url(#SVGID_148_);}
	.st168{fill-rule:evenodd;clip-rule:evenodd;fill:url(#SVGID_149_);}
	.st169{fill-rule:evenodd;clip-rule:evenodd;fill:url(#SVGID_150_);}
	.st170{fill-rule:evenodd;clip-rule:evenodd;fill:url(#SVGID_151_);}
	.st171{fill-rule:evenodd;clip-rule:evenodd;fill:url(#SVGID_152_);}
	.st172{fill-rule:evenodd;clip-rule:evenodd;fill:url(#SVGID_153_);}
	.st173{fill-rule:evenodd;clip-rule:evenodd;fill:url(#SVGID_154_);}
	.st174{fill-rule:evenodd;clip-rule:evenodd;fill:url(#SVGID_155_);}
	.st175{fill-rule:evenodd;clip-rule:evenodd;fill:url(#SVGID_156_);}
	.st176{fill-rule:evenodd;clip-rule:evenodd;fill:url(#SVGID_157_);}
	.st177{fill-rule:evenodd;clip-rule:evenodd;fill:url(#SVGID_158_);}
	.st178{fill-rule:evenodd;clip-rule:evenodd;fill:url(#SVGID_159_);}
	.st179{fill-rule:evenodd;clip-rule:evenodd;fill:url(#SVGID_160_);}
	.st180{fill-rule:evenodd;clip-rule:evenodd;fill:url(#SVGID_161_);}
	.st181{fill-rule:evenodd;clip-rule:evenodd;fill:url(#SVGID_162_);}
	.st182{fill-rule:evenodd;clip-rule:evenodd;fill:url(#SVGID_163_);}
	.st183{fill-rule:evenodd;clip-rule:evenodd;fill:url(#SVGID_164_);}
	.st184{fill-rule:evenodd;clip-rule:evenodd;fill:url(#SVGID_165_);}
	.st185{fill-rule:evenodd;clip-rule:evenodd;fill:url(#SVGID_166_);}
	.st186{fill-rule:evenodd;clip-rule:evenodd;fill:url(#SVGID_167_);}
	.st187{fill-rule:evenodd;clip-rule:evenodd;fill:url(#SVGID_168_);}
	.st188{fill-rule:evenodd;clip-rule:evenodd;fill:url(#SVGID_169_);}
	.st189{fill-rule:evenodd;clip-rule:evenodd;fill:url(#SVGID_170_);}
	.st190{fill-rule:evenodd;clip-rule:evenodd;fill:url(#SVGID_171_);}
	.st191{fill-rule:evenodd;clip-rule:evenodd;fill:url(#SVGID_172_);}
	.st192{fill-rule:evenodd;clip-rule:evenodd;fill:url(#SVGID_173_);}
	.st193{fill-rule:evenodd;clip-rule:evenodd;fill:url(#SVGID_174_);}
	.st194{opacity:0.1;fill:url(#SVGID_175_);enable-background:new    ;}
	.st195{fill:url(#SVGID_176_);}
	.st196{fill:url(#SVGID_177_);}
	.st197{opacity:0.3;}
	.st198{fill:url(#SVGID_178_);}
	.st199{fill:url(#SVGID_179_);}
	.st200{opacity:0.3;fill:#009FD8;enable-background:new    ;}
	.st201{fill:url(#SVGID_180_);}
	.st202{fill:#ECECEC;}
	.st203{fill:#007CFF;}
	.st204{fill:#1A2E35;}
	.st205{opacity:0.2;fill:#007CFF;enable-background:new    ;}
	.st206{opacity:0.5;fill:#FFFFFF;enable-background:new    ;}
	.st207{opacity:0.4;fill:#007CFF;enable-background:new    ;}
	.st208{opacity:0.8;fill:#FFFFFF;enable-background:new    ;}
	.st209{opacity:0.5;fill:#007CFF;enable-background:new    ;}
	.st210{fill:url(#SVGID_181_);}
	.st211{fill:url(#SVGID_182_);}
	.st212{opacity:0.3;fill:#007CFF;enable-background:new    ;}
	.st213{opacity:0.8;fill-rule:evenodd;clip-rule:evenodd;fill:#FFFFFF;enable-background:new    ;}
	.st214{opacity:5.000000e-02;fill:url(#SVGID_183_);enable-background:new    ;}
	.st215{fill:url(#SVGID_184_);}
	.st216{fill:url(#SVGID_185_);}
	.st217{fill:#E7E7E7;}
	.st218{fill:#E1E1E1;}
	.st219{opacity:0.5;fill:#FAFAFA;enable-background:new    ;}
	.st220{opacity:0.6;fill:#FFFFFF;enable-background:new    ;}
	.st221{fill:#F0F0F0;}
	.st222{fill:#121F23;}
	.st223{opacity:0.1;enable-background:new    ;}
	.st224{fill:none;stroke:#007CFF;stroke-linecap:round;stroke-linejoin:round;stroke-miterlimit:10;}
	.st225{fill:none;stroke:#007CFF;stroke-miterlimit:10;}
	.st226{opacity:0.4;fill:#FFFFFF;enable-background:new    ;}
	.st227{opacity:0.3;fill:#FFFFFF;enable-background:new    ;}
	.st228{opacity:0.2;fill:#FFFFFF;enable-background:new    ;}
	.st229{opacity:0.6;fill:#1A2E35;enable-background:new    ;}
</style>
<g>
	<path class="st52" d="M95.4,120h163v122.4l-19.2-33.9c-1.2-2.1-3.4-3.3-5.8-3.3h-65.6c-1.8,0-3.3,1.5-3.3,3.3s1.5,3.3,3.3,3.3h65.6
		l19.1,33.9l0,0c1.5,2.6,4.6,3.9,7.5,3.1c2.9-0.8,5-3.4,4.9-6.5V120c0-1.8-0.7-3.5-1.9-4.7c-1.2-1.2-2.9-1.9-4.7-1.9h-163
		c-3.7,0-6.7,3-6.7,6.7V149c0,1.8,1.5,3.3,3.3,3.3s3.3-1.5,3.3-3.3v-29H95.4z"/>
	<path class="st52" d="M69.9,68.3h-5.1c-2.2,0-4.1,1.4-4.7,3.4c-0.7,2,0.1,4.3,1.8,5.6l4.2,3l-1.6,4.9c-0.7,2.1,0.1,4.3,1.8,5.6
		c1.8,1.3,4.1,1.3,5.9,0l4.1-3l4.2,3l0,0c1.8,1.3,4.1,1.3,5.9,0c1.8-1.3,2.5-3.5,1.8-5.6l-1.6-4.9l4.2-3c1.7-1.3,2.5-3.5,1.8-5.6
		c-0.7-2-2.6-3.4-4.7-3.4h-5.1l-1.6-4.9c-0.7-2-2.6-3.4-4.7-3.4c-2.2,0-4.1,1.4-4.7,3.4L69.9,68.3L69.9,68.3z M76.2,70.3l0.4,1.2
		c0.7,2,2.6,3.3,4.7,3.3h1.2l-1,0.7c-1.7,1.3-2.5,3.5-1.8,5.6l0.4,1.1l-1-0.7c-1.8-1.3-4.1-1.3-5.9,0l-1,0.7l0.4-1.1
		c0.7-2.1-0.1-4.3-1.8-5.6l-1-0.7H71c2.1,0,4-1.3,4.7-3.3L76.2,70.3L76.2,70.3z"/>
	<path class="st52" d="M156.7,68.3h-5c-2.1,0-4,1.3-4.8,3.3c-0.7,2.1,0.1,4.3,1.8,5.6l4.1,3l-1.6,4.9c-0.7,2.1,0.1,4.3,1.8,5.6
		c1.8,1.3,4.1,1.3,5.9,0l4.1-3l4.2,3c1.7,1.3,4.1,1.3,5.9,0c1.8-1.3,2.5-3.5,1.8-5.6l-1.7-4.8l4.2-3c1.7-1.3,2.5-3.5,1.8-5.6
		s-2.6-3.4-4.8-3.4h-5l-1.6-4.9c-0.7-2-2.6-3.4-4.7-3.4c-2.2,0-4.1,1.4-4.7,3.4L156.7,68.3z M163,70.3l0.4,1.2
		c0.7,2,2.6,3.3,4.8,3.3h1.2l-1,0.7c-1.8,1.3-2.4,3.6-1.7,5.7l0.4,1.1l-1-0.7l0,0c-1.7-1.3-4.1-1.3-5.9,0l-1,0.7l0.4-1.1l0,0
		c0.7-2.1-0.1-4.3-1.8-5.6l-1.1-0.7h1.2c2.1,0,4-1.3,4.8-3.3l0.4-1.2L163,70.3z"/>
	<path class="st52" d="M113.5,68.3h-5.2c-2.1,0-4,1.3-4.7,3.3c-0.7,2.1,0,4.3,1.8,5.6l4.2,3l-1.6,4.9c-0.7,2.1,0.1,4.3,1.8,5.6
		c1.8,1.3,4.1,1.3,5.9,0l4.1-3l4.2,3l0,0c1.8,1.3,4.1,1.3,5.9,0c1.8-1.3,2.5-3.5,1.8-5.6l-1.4-4.8l4.2-3c1.7-1.3,2.5-3.5,1.8-5.6
		c-0.7-2-2.6-3.4-4.7-3.4h-5.3l-1.6-4.9c-0.7-2-2.6-3.4-4.7-3.4c-2.2,0-4.1,1.4-4.7,3.4L113.5,68.3z M119.8,70.3l0.4,1.2l0,0
		c0.7,2,2.6,3.3,4.7,3.3h1.2l-1,0.7l0,0c-1.7,1.3-2.5,3.5-1.8,5.6l0.4,1.1l-1-0.7c-1.7-1.3-4.1-1.3-5.9,0l-1,0.7l0.4-1.1
		c0.7-2.1-0.1-4.3-1.8-5.6l-1-0.6h1.2c2.1,0,4-1.3,4.8-3.3L119.8,70.3L119.8,70.3L119.8,70.3z"/>
	<path class="st52" d="M200.3,68.3h-5.1c-2.2,0-4.1,1.4-4.8,3.4c-0.7,2.1,0.1,4.3,1.9,5.6l4.1,3l-1.6,4.9l0,0
		c-0.7,2.1,0.1,4.3,1.8,5.6c1.8,1.3,4.1,1.3,5.9,0l4.1-3l4.2,3c1.7,1.3,4.1,1.3,5.9,0c1.8-1.3,2.5-3.5,1.8-5.6l-1.6-4.9l4.1-3
		c1.8-1.3,2.5-3.5,1.9-5.6c-0.7-2.1-2.6-3.5-4.8-3.4H213l-1.6-4.9c-0.7-2-2.6-3.4-4.7-3.4c-2.2,0-4.1,1.4-4.7,3.4L200.3,68.3
		L200.3,68.3z M206.6,70.3l0.4,1.2l0,0c0.7,2,2.6,3.3,4.8,3.3h1.2l-1,0.7l0,0c-1.8,1.3-2.5,3.5-1.8,5.6l0.4,1.1l-1-0.7
		c-1.7-1.3-4.1-1.3-5.9,0l-1,0.7l0.4-1.1c0.7-2.1-0.1-4.3-1.8-5.6l-1-0.7h1.2c2.1,0,4-1.3,4.8-3.3L206.6,70.3z"/>
	<path class="st52" d="M241.8,68.3h-5.1c-2.2,0-4.1,1.4-4.7,3.4c-0.7,2,0.1,4.3,1.8,5.6l4.2,3l-1.6,4.9c-0.7,2.1,0.1,4.3,1.8,5.6
		c1.8,1.3,4.1,1.3,5.9,0l4.2-3l4.1,3c1.7,1.3,4.1,1.3,5.9,0c1.8-1.3,2.5-3.5,1.8-5.6l-1.6-4.9l4.2-3c1.7-1.3,2.5-3.5,1.8-5.6
		c-0.7-2-2.6-3.4-4.7-3.4h-5.1l-1.6-4.9c-0.7-2-2.6-3.4-4.7-3.4s-4.1,1.4-4.7,3.4L241.8,68.3L241.8,68.3z M248.2,70.3l0.4,1.2
		c0.7,2,2.6,3.3,4.7,3.3h1.2l-1,0.7c-1.7,1.3-2.5,3.5-1.8,5.6l0.4,1.1l-1-0.7c-1.8-1.3-4.1-1.3-5.9,0l-1,0.7l0.4-1.1
		c0.7-2.1-0.1-4.3-1.8-5.6l-1-0.7h1.4c2.1,0,4-1.3,4.7-3.3L248.2,70.3L248.2,70.3z"/>
	<path class="st52" d="M226.8,129.2c-3.3,0-6.4,1.3-8.8,3.6c-2.3,2.3-3.6,5.5-3.6,8.8s1.3,6.4,3.6,8.8c2.3,2.3,5.5,3.6,8.8,3.6
		s6.4-1.3,8.8-3.6c2.3-2.3,3.6-5.5,3.6-8.8s-1.3-6.4-3.6-8.8C233.2,130.5,230.1,129.2,226.8,129.2z M226.8,135.8
		c2.3,0,4.4,1.4,5.3,3.6s0.4,4.6-1.2,6.3c-1.6,1.6-4.1,2.1-6.3,1.2c-2.2-0.9-3.6-3-3.6-5.3C221,138.4,223.6,135.8,226.8,135.8
		L226.8,135.8z"/>
	<path class="st52" d="M243.2,186.3c2.1,0,4-1,5.3-2.6c1.3-1.7,1.7-3.8,1.1-5.8v-0.2c-1.7-4.7-4.7-8.9-8.8-11.8
		c-4.1-2.9-9-4.5-14-4.5s-9.9,1.6-14,4.5s-7.1,7.1-8.7,11.9c-0.5,2-0.1,4,1.1,5.7c1.2,1.6,3.1,2.6,5.1,2.7h33L243.2,186.3z
		 M243.2,179.6h-32.8c1.2-3.4,3.4-6.3,6.3-8.4c2.9-2.1,6.4-3.2,10-3.2s7.2,1.1,10.2,3.2c3,2.1,5.2,5,6.5,8.5L243.2,179.6z"/>
	<path class="st52" d="M164.2,138.2h-27.9c-1.8,0-3.3,1.5-3.3,3.3s1.5,3.3,3.3,3.3h27.9c1.8,0,3.3-1.5,3.3-3.3
		C167.5,139.7,166,138.2,164.2,138.2z"/>
	<path class="st52" d="M190.7,171.3h-54.4c-1.8,0-3.3,1.5-3.3,3.3s1.5,3.3,3.3,3.3h54.4c1.8,0,3.3-1.5,3.3-3.3
		S192.5,171.3,190.7,171.3z"/>
	<path class="st52" d="M190.7,154.8h-54.4c-1.8,0-3.3,1.5-3.3,3.3s1.5,3.3,3.3,3.3h54.4c1.8,0,3.3-1.5,3.3-3.3
		C194,156.3,192.5,154.8,190.7,154.8z"/>
	<path class="st52" d="M111.6,253c-2.3,0-4.7-0.2-7-0.3c-15.3-0.7-30.5-3.4-45.1-8.2c-1.7-0.6-3.6,0.4-4.2,2.1
		c-0.6,1.7,0.4,3.6,2.1,4.2c15.1,5,30.9,7.9,46.8,8.8c2.4,0,4.8,0.2,7.2,0.3c1.8,0.1,3.4-1.4,3.4-3.2c0.1-1.8-1.4-3.4-3.2-3.4
		L111.6,253z M60.2,195.4c13.1-7.3,24.9-16.7,35-27.8c4.1-4.8,7.5-8.7,10.5-11.6l0,0c1.6-1.6,3.3-3,5.2-4.2c0.8-0.6,1.7-0.9,2.7-0.9
		c1.2,0.2,2,1.2,3,2.7l0,0c1.5,2.6,2,5.6,1.5,8.5c-0.7,4.1-1.9,8.2-3.6,12c-0.4,0.8-0.5,1.8-0.1,2.7c0.3,0.9,1,1.6,1.9,1.9
		c0.9,0.3,1.8,0.3,2.7-0.1c0.8-0.4,1.5-1.1,1.7-2c4.2-10.4,6.1-19.4,1.6-26.6l0,0c-1.4-2.7-3.8-4.7-6.7-5.6
		c-2.9-0.6-5.8,0.1-8.2,1.8c-4.4,2.7-10,8.6-17.1,17.1l0,0c-9.6,10.5-20.9,19.4-33.4,26.3c-0.8,0.4-1.3,1.2-1.6,2
		c-0.2,0.9-0.1,1.8,0.3,2.6C56.6,195.7,58.6,196.3,60.2,195.4L60.2,195.4z"/>
	<path class="st52" d="M160.4,192c0-2.4-0.9-4.7-2.6-6.4s-4-2.6-6.4-2.6h-48.3c-2.4,0-4.7,0.9-6.4,2.6c-1.7,1.7-2.6,4-2.6,6.4v6.2
		l0,0c0,2.4,0.9,4.7,2.6,6.4s4,2.6,6.4,2.6h48.3c2.4,0,4.7-0.9,6.4-2.6c1.7-1.7,2.6-4,2.6-6.4V192z M153.8,192v6.2l0,0
		c0,1.3-1,2.3-2.3,2.3h-48.3c-1.3,0-2.3-1.1-2.3-2.3V192c0-1.3,1-2.3,2.3-2.3h48.3C152.7,189.7,153.8,190.7,153.8,192L153.8,192z"/>
	<path class="st52" d="M160.4,209.6c0-2.4-0.9-4.7-2.6-6.4s-4-2.6-6.4-2.6H95.7c-2.4,0-4.7,0.9-6.4,2.6c-1.7,1.7-2.6,4-2.6,6.4v6.2
		c0,2.4,0.9,4.7,2.6,6.4s4,2.6,6.4,2.6h55.7c2.4,0,4.7-0.9,6.4-2.6c1.7-1.7,2.6-4,2.6-6.4V209.6z M153.8,209.6v6.2
		c0,1.3-1,2.3-2.3,2.3H95.8c-1.3,0-2.3-1-2.3-2.3v-6.2c0-1.3,1-2.3,2.3-2.3h55.7C152.7,207.2,153.8,208.3,153.8,209.6z"/>
	<path class="st52" d="M160.4,227.1c0-2.4-0.9-4.7-2.6-6.4s-4-2.6-6.4-2.6h-50.1c-2.4,0-4.7,0.9-6.4,2.6c-1.7,1.7-2.6,4-2.6,6.4v6.2
		c0,2.4,0.9,4.7,2.6,6.4s4,2.6,6.4,2.6h50.1c2.4,0,4.7-0.9,6.4-2.6c1.7-1.7,2.6-4,2.6-6.4V227.1z M153.8,227.1v6.2
		c0,1.3-1,2.3-2.3,2.3h-50.1c-1.3,0-2.3-1-2.3-2.3v-6.2c0-1.3,1-2.3,2.3-2.3h50.1C152.7,224.8,153.8,225.8,153.8,227.1z"/>
	<path class="st52" d="M160.4,244.6c0-2.4-0.9-4.7-2.6-6.4s-4-2.6-6.4-2.6h-41.3c-2.4,0-4.7,0.9-6.4,2.6c-1.7,1.7-2.6,4-2.6,6.4v6.2
		c0,2.4,1,4.6,2.7,6.3c1.7,1.7,3.9,2.6,6.3,2.6h41.3c2.4,0,4.7-0.9,6.4-2.6c1.7-1.7,2.6-4,2.6-6.4V244.6z M153.8,244.6v6.2
		c0,1.3-1,2.3-2.3,2.3h-41.3c-1.3,0-2.3-1-2.3-2.3v-6.2c0-1.3,1-2.3,2.3-2.3h41.3C152.7,242.3,153.8,243.3,153.8,244.6z"/>
	<path class="st52" d="M87.1,213.9c-2.7,6.6-6.7,12.6-11.8,17.6c-0.6,0.6-1,1.5-1,2.4s0.4,1.7,1,2.4c1.3,1.3,3.4,1.3,4.7,0
		c5.8-5.7,10.3-12.5,13.3-20c0.7-1.7-0.1-3.6-1.7-4.4c-1.7-0.7-3.6,0-4.4,1.7L87.1,213.9z"/>
</g>
</svg>
