<?xml version="1.0" encoding="utf-8"?>
<!-- Generator: Adobe Illustrator 24.0.1, SVG Export Plug-In . SVG Version: 6.00 Build 0)  -->
<svg version="1.1" id="Layer_1" xmlns="http://www.w3.org/2000/svg" xmlns:xlink="http://www.w3.org/1999/xlink" x="0px" y="0px"
	 viewBox="0 0 320 320" style="enable-background:new 0 0 320 320;" xml:space="preserve">
<style type="text/css">
	.st0{opacity:5.000000e-02;fill:url(#SVGID_1_);}
	.st1{opacity:0.8;}
	.st2{fill:url(#SVGID_2_);}
	.st3{opacity:0.8;fill:url(#SVGID_3_);}
	.st4{opacity:0.8;fill:url(#SVGID_4_);}
	.st5{opacity:0.2;fill:url(#SVGID_5_);}
	.st6{fill:#0000FF;}
	.st7{fill:#E44235;}
	.st8{fill:#FFFFFF;}
	.st9{opacity:0.7;}
	.st10{opacity:0.72;stroke:#FFFFFF;stroke-miterlimit:10;}
	.st11{fill:none;stroke:url(#SVGID_6_);stroke-width:0.5;stroke-miterlimit:10;}
	.st12{fill:url(#SVGID_7_);}
	.st13{fill:url(#SVGID_8_);}
	.st14{fill:url(#SVGID_9_);}
	.st15{fill:url(#SVGID_10_);}
	.st16{fill:url(#SVGID_11_);}
	.st17{fill:url(#SVGID_12_);}
	.st18{opacity:0.5;fill:url(#SVGID_13_);}
	.st19{opacity:0.15;}
	.st20{fill:url(#SVGID_14_);}
	.st21{fill:#009FD8;}
	.st22{fill-rule:evenodd;clip-rule:evenodd;fill:#FFFFFF;}
	.st23{opacity:0.72;}
	.st24{fill:none;stroke:#FFFFFF;stroke-miterlimit:10;}
	.st25{fill:url(#SVGID_15_);}
	.st26{fill:url(#SVGID_16_);}
	.st27{fill:url(#SVGID_17_);}
	.st28{fill:url(#SVGID_18_);}
	.st29{fill:url(#SVGID_19_);}
	.st30{fill:url(#SVGID_20_);}
	.st31{fill:url(#SVGID_21_);}
	.st32{fill:url(#SVGID_22_);}
	.st33{fill:url(#SVGID_23_);}
	.st34{fill:url(#SVGID_24_);}
	.st35{fill:url(#SVGID_25_);}
	.st36{fill:url(#SVGID_26_);}
	.st37{fill:url(#SVGID_27_);}
	.st38{fill:url(#SVGID_28_);}
	.st39{fill:url(#SVGID_29_);}
	.st40{fill:url(#SVGID_30_);}
	.st41{fill:url(#SVGID_31_);}
	.st42{fill:url(#SVGID_32_);}
	.st43{opacity:0.22;fill:url(#SVGID_33_);}
	.st44{opacity:0.4;fill:#EAE9E8;}
	.st45{fill:url(#SVGID_34_);}
	.st46{fill:url(#SVGID_35_);}
	.st47{fill:url(#SVGID_36_);}
	.st48{fill:url(#SVGID_37_);}
	.st49{fill:url(#SVGID_38_);}
	.st50{fill:url(#SVGID_39_);}
	.st51{fill:url(#SVGID_40_);}
	.st52{fill:url(#SVGID_41_);}
	.st53{fill:url(#SVGID_42_);}
	.st54{fill:none;stroke:#999999;stroke-width:0.5;stroke-miterlimit:10;stroke-dasharray:1;}
	.st55{fill:url(#SVGID_43_);}
	.st56{fill:url(#SVGID_44_);}
	.st57{fill:url(#SVGID_45_);}
	.st58{fill:url(#SVGID_46_);}
	.st59{fill:url(#SVGID_47_);}
	.st60{fill:url(#SVGID_48_);}
	.st61{fill:url(#SVGID_49_);}
	.st62{fill:url(#SVGID_50_);}
	.st63{fill:url(#SVGID_51_);}
	.st64{fill:url(#SVGID_52_);}
	.st65{fill:url(#SVGID_53_);}
	.st66{fill:url(#SVGID_54_);}
	.st67{fill:url(#SVGID_55_);}
	.st68{fill:url(#SVGID_56_);}
	.st69{fill:url(#SVGID_57_);}
	.st70{fill:none;stroke:url(#SVGID_58_);stroke-width:0.5;stroke-miterlimit:10;stroke-dasharray:1;}
	.st71{fill:none;stroke:url(#SVGID_59_);stroke-width:0.5;stroke-miterlimit:10;stroke-dasharray:1;}
	.st72{fill:none;stroke:url(#SVGID_60_);stroke-width:0.5;stroke-miterlimit:10;stroke-dasharray:1;}
	.st73{fill:none;stroke:url(#SVGID_61_);stroke-width:0.5;stroke-miterlimit:10;stroke-dasharray:1;}
	.st74{fill:none;stroke:url(#SVGID_62_);stroke-width:0.5;stroke-miterlimit:10;stroke-dasharray:1;}
	.st75{fill:url(#SVGID_63_);}
	.st76{fill:url(#SVGID_64_);}
	.st77{fill:url(#SVGID_65_);}
	.st78{fill:url(#SVGID_66_);}
	.st79{fill:url(#SVGID_67_);}
	.st80{fill:url(#SVGID_68_);}
	.st81{fill:url(#SVGID_69_);}
	.st82{fill:url(#SVGID_70_);}
	.st83{fill:url(#SVGID_71_);}
	.st84{fill:url(#SVGID_72_);}
	.st85{fill:url(#SVGID_73_);}
	.st86{fill:none;stroke:url(#SVGID_74_);stroke-miterlimit:10;}
	.st87{fill:none;stroke:#0068D8;stroke-miterlimit:10;}
	.st88{fill:#F4F4F4;}
	.st89{fill-rule:evenodd;clip-rule:evenodd;fill:#009FD8;}
	.st90{opacity:0.4;fill-rule:evenodd;clip-rule:evenodd;fill:#EAE9E8;}
	.st91{fill-rule:evenodd;clip-rule:evenodd;fill:url(#SVGID_75_);}
	.st92{fill-rule:evenodd;clip-rule:evenodd;fill:url(#SVGID_76_);}
	.st93{fill-rule:evenodd;clip-rule:evenodd;fill:url(#SVGID_77_);}
	.st94{fill-rule:evenodd;clip-rule:evenodd;fill:url(#SVGID_78_);}
	.st95{fill-rule:evenodd;clip-rule:evenodd;fill:url(#SVGID_79_);}
	.st96{fill-rule:evenodd;clip-rule:evenodd;fill:url(#SVGID_80_);}
	.st97{fill-rule:evenodd;clip-rule:evenodd;fill:url(#SVGID_81_);}
	.st98{fill-rule:evenodd;clip-rule:evenodd;fill:url(#SVGID_82_);}
	.st99{fill-rule:evenodd;clip-rule:evenodd;fill:url(#SVGID_83_);}
	.st100{fill-rule:evenodd;clip-rule:evenodd;fill:url(#SVGID_84_);}
	.st101{fill-rule:evenodd;clip-rule:evenodd;fill:url(#SVGID_85_);}
	.st102{fill-rule:evenodd;clip-rule:evenodd;fill:url(#SVGID_86_);}
	.st103{fill-rule:evenodd;clip-rule:evenodd;fill:url(#SVGID_87_);}
	.st104{fill-rule:evenodd;clip-rule:evenodd;fill:url(#SVGID_88_);}
	.st105{fill-rule:evenodd;clip-rule:evenodd;fill:url(#SVGID_89_);}
	.st106{fill-rule:evenodd;clip-rule:evenodd;fill:url(#SVGID_90_);}
	.st107{fill-rule:evenodd;clip-rule:evenodd;fill:url(#SVGID_91_);}
	.st108{fill-rule:evenodd;clip-rule:evenodd;fill:url(#SVGID_92_);}
	.st109{fill-rule:evenodd;clip-rule:evenodd;fill:url(#SVGID_93_);}
	.st110{fill-rule:evenodd;clip-rule:evenodd;fill:url(#SVGID_94_);}
	.st111{fill-rule:evenodd;clip-rule:evenodd;fill:url(#SVGID_95_);}
	.st112{fill-rule:evenodd;clip-rule:evenodd;fill:url(#SVGID_96_);}
	.st113{fill-rule:evenodd;clip-rule:evenodd;fill:url(#SVGID_97_);}
	.st114{fill-rule:evenodd;clip-rule:evenodd;fill:url(#SVGID_98_);}
	.st115{fill-rule:evenodd;clip-rule:evenodd;fill:url(#SVGID_99_);}
	.st116{fill-rule:evenodd;clip-rule:evenodd;fill:url(#SVGID_100_);}
	.st117{fill-rule:evenodd;clip-rule:evenodd;fill:url(#SVGID_101_);}
	.st118{fill-rule:evenodd;clip-rule:evenodd;fill:url(#SVGID_102_);}
	.st119{fill-rule:evenodd;clip-rule:evenodd;fill:url(#SVGID_103_);}
	.st120{fill-rule:evenodd;clip-rule:evenodd;fill:url(#SVGID_104_);}
	.st121{fill-rule:evenodd;clip-rule:evenodd;fill:url(#SVGID_105_);}
	.st122{fill-rule:evenodd;clip-rule:evenodd;fill:url(#SVGID_106_);}
	.st123{fill-rule:evenodd;clip-rule:evenodd;fill:url(#SVGID_107_);}
	.st124{fill-rule:evenodd;clip-rule:evenodd;fill:url(#SVGID_108_);}
	.st125{fill-rule:evenodd;clip-rule:evenodd;fill:url(#SVGID_109_);}
	.st126{fill-rule:evenodd;clip-rule:evenodd;fill:url(#SVGID_110_);}
	.st127{fill-rule:evenodd;clip-rule:evenodd;fill:url(#SVGID_111_);}
	.st128{fill-rule:evenodd;clip-rule:evenodd;fill:url(#SVGID_112_);}
	.st129{fill-rule:evenodd;clip-rule:evenodd;fill:url(#SVGID_113_);}
	.st130{fill-rule:evenodd;clip-rule:evenodd;fill:url(#SVGID_114_);}
	.st131{fill-rule:evenodd;clip-rule:evenodd;fill:url(#SVGID_115_);}
	.st132{fill-rule:evenodd;clip-rule:evenodd;fill:url(#SVGID_116_);}
	.st133{fill-rule:evenodd;clip-rule:evenodd;fill:url(#SVGID_117_);}
	.st134{fill-rule:evenodd;clip-rule:evenodd;fill:url(#SVGID_118_);}
	.st135{fill-rule:evenodd;clip-rule:evenodd;fill:url(#SVGID_119_);}
	.st136{fill-rule:evenodd;clip-rule:evenodd;fill:url(#SVGID_120_);}
	.st137{fill-rule:evenodd;clip-rule:evenodd;fill:url(#SVGID_121_);}
	.st138{fill-rule:evenodd;clip-rule:evenodd;fill:url(#SVGID_122_);}
	.st139{fill-rule:evenodd;clip-rule:evenodd;fill:url(#SVGID_123_);}
	.st140{fill-rule:evenodd;clip-rule:evenodd;fill:url(#SVGID_124_);}
	.st141{opacity:0.2;fill-rule:evenodd;clip-rule:evenodd;fill:url(#SVGID_125_);}
	.st142{fill-rule:evenodd;clip-rule:evenodd;fill:url(#SVGID_126_);}
	.st143{fill-rule:evenodd;clip-rule:evenodd;fill:url(#SVGID_127_);}
	.st144{fill-rule:evenodd;clip-rule:evenodd;fill:url(#SVGID_128_);}
	.st145{fill-rule:evenodd;clip-rule:evenodd;fill:url(#SVGID_129_);}
	.st146{fill-rule:evenodd;clip-rule:evenodd;fill:url(#SVGID_130_);}
	.st147{fill-rule:evenodd;clip-rule:evenodd;fill:url(#SVGID_131_);}
	.st148{fill-rule:evenodd;clip-rule:evenodd;fill:url(#SVGID_132_);}
	.st149{fill-rule:evenodd;clip-rule:evenodd;fill:url(#SVGID_133_);}
	.st150{fill-rule:evenodd;clip-rule:evenodd;fill:url(#SVGID_134_);}
	.st151{fill-rule:evenodd;clip-rule:evenodd;fill:url(#SVGID_135_);}
	.st152{fill-rule:evenodd;clip-rule:evenodd;fill:url(#SVGID_136_);}
	.st153{fill-rule:evenodd;clip-rule:evenodd;fill:url(#SVGID_137_);}
	.st154{fill-rule:evenodd;clip-rule:evenodd;fill:url(#SVGID_138_);}
	.st155{fill-rule:evenodd;clip-rule:evenodd;fill:url(#SVGID_139_);}
	.st156{fill-rule:evenodd;clip-rule:evenodd;fill:url(#SVGID_140_);}
	.st157{fill-rule:evenodd;clip-rule:evenodd;fill:url(#SVGID_141_);}
	.st158{fill-rule:evenodd;clip-rule:evenodd;fill:url(#SVGID_142_);}
	.st159{fill-rule:evenodd;clip-rule:evenodd;fill:url(#SVGID_143_);}
	.st160{fill-rule:evenodd;clip-rule:evenodd;fill:url(#SVGID_144_);}
	.st161{fill-rule:evenodd;clip-rule:evenodd;fill:url(#SVGID_145_);}
	.st162{fill-rule:evenodd;clip-rule:evenodd;fill:url(#SVGID_146_);}
	.st163{fill-rule:evenodd;clip-rule:evenodd;fill:url(#SVGID_147_);}
	.st164{fill-rule:evenodd;clip-rule:evenodd;fill:url(#SVGID_148_);}
	.st165{fill-rule:evenodd;clip-rule:evenodd;fill:url(#SVGID_149_);}
	.st166{fill-rule:evenodd;clip-rule:evenodd;fill:url(#SVGID_150_);}
	.st167{fill-rule:evenodd;clip-rule:evenodd;fill:url(#SVGID_151_);}
	.st168{fill-rule:evenodd;clip-rule:evenodd;fill:url(#SVGID_152_);}
	.st169{fill-rule:evenodd;clip-rule:evenodd;fill:url(#SVGID_153_);}
	.st170{fill-rule:evenodd;clip-rule:evenodd;fill:url(#SVGID_154_);}
	.st171{fill-rule:evenodd;clip-rule:evenodd;fill:url(#SVGID_155_);}
	.st172{fill-rule:evenodd;clip-rule:evenodd;fill:url(#SVGID_156_);}
	.st173{fill-rule:evenodd;clip-rule:evenodd;fill:url(#SVGID_157_);}
	.st174{fill-rule:evenodd;clip-rule:evenodd;fill:url(#SVGID_158_);}
	.st175{fill-rule:evenodd;clip-rule:evenodd;fill:url(#SVGID_159_);}
	.st176{fill-rule:evenodd;clip-rule:evenodd;fill:url(#SVGID_160_);}
	.st177{fill-rule:evenodd;clip-rule:evenodd;fill:url(#SVGID_161_);}
	.st178{fill-rule:evenodd;clip-rule:evenodd;fill:url(#SVGID_162_);}
	.st179{fill-rule:evenodd;clip-rule:evenodd;fill:url(#SVGID_163_);}
	.st180{fill-rule:evenodd;clip-rule:evenodd;fill:url(#SVGID_164_);}
	.st181{fill-rule:evenodd;clip-rule:evenodd;fill:url(#SVGID_165_);}
	.st182{fill-rule:evenodd;clip-rule:evenodd;fill:url(#SVGID_166_);}
	.st183{fill-rule:evenodd;clip-rule:evenodd;fill:url(#SVGID_167_);}
	.st184{fill-rule:evenodd;clip-rule:evenodd;fill:url(#SVGID_168_);}
	.st185{fill-rule:evenodd;clip-rule:evenodd;fill:url(#SVGID_169_);}
	.st186{fill-rule:evenodd;clip-rule:evenodd;fill:url(#SVGID_170_);}
	.st187{fill-rule:evenodd;clip-rule:evenodd;fill:url(#SVGID_171_);}
	.st188{fill-rule:evenodd;clip-rule:evenodd;fill:url(#SVGID_172_);}
	.st189{fill-rule:evenodd;clip-rule:evenodd;fill:url(#SVGID_173_);}
	.st190{fill-rule:evenodd;clip-rule:evenodd;fill:url(#SVGID_174_);}
	.st191{fill-rule:evenodd;clip-rule:evenodd;fill:url(#SVGID_175_);}
	.st192{fill-rule:evenodd;clip-rule:evenodd;fill:url(#SVGID_176_);}
	.st193{fill-rule:evenodd;clip-rule:evenodd;fill:url(#SVGID_177_);}
	.st194{fill-rule:evenodd;clip-rule:evenodd;fill:url(#SVGID_178_);}
	.st195{fill-rule:evenodd;clip-rule:evenodd;fill:url(#SVGID_179_);}
	.st196{fill-rule:evenodd;clip-rule:evenodd;fill:url(#SVGID_180_);}
	.st197{fill-rule:evenodd;clip-rule:evenodd;fill:url(#SVGID_181_);}
	.st198{fill-rule:evenodd;clip-rule:evenodd;fill:url(#SVGID_182_);}
	.st199{fill-rule:evenodd;clip-rule:evenodd;fill:url(#SVGID_183_);}
	.st200{fill-rule:evenodd;clip-rule:evenodd;fill:url(#SVGID_184_);}
	.st201{fill-rule:evenodd;clip-rule:evenodd;fill:url(#SVGID_185_);}
	.st202{fill-rule:evenodd;clip-rule:evenodd;fill:url(#SVGID_186_);}
	.st203{fill-rule:evenodd;clip-rule:evenodd;fill:url(#SVGID_187_);}
	.st204{fill-rule:evenodd;clip-rule:evenodd;fill:url(#SVGID_188_);}
	.st205{fill-rule:evenodd;clip-rule:evenodd;fill:url(#SVGID_189_);}
	.st206{fill-rule:evenodd;clip-rule:evenodd;fill:url(#SVGID_190_);}
	.st207{fill-rule:evenodd;clip-rule:evenodd;fill:url(#SVGID_191_);}
	.st208{fill-rule:evenodd;clip-rule:evenodd;fill:url(#SVGID_192_);}
	.st209{fill-rule:evenodd;clip-rule:evenodd;fill:url(#SVGID_193_);}
	.st210{fill-rule:evenodd;clip-rule:evenodd;fill:url(#SVGID_194_);}
	.st211{fill-rule:evenodd;clip-rule:evenodd;fill:url(#SVGID_195_);}
	.st212{fill-rule:evenodd;clip-rule:evenodd;fill:url(#SVGID_196_);}
	.st213{fill-rule:evenodd;clip-rule:evenodd;fill:url(#SVGID_197_);}
	.st214{fill-rule:evenodd;clip-rule:evenodd;fill:url(#SVGID_198_);}
	.st215{fill-rule:evenodd;clip-rule:evenodd;fill:url(#SVGID_199_);}
	.st216{fill-rule:evenodd;clip-rule:evenodd;fill:url(#SVGID_200_);}
	.st217{fill-rule:evenodd;clip-rule:evenodd;fill:url(#SVGID_201_);}
	.st218{fill-rule:evenodd;clip-rule:evenodd;fill:url(#SVGID_202_);}
	.st219{fill-rule:evenodd;clip-rule:evenodd;fill:url(#SVGID_203_);}
	.st220{fill-rule:evenodd;clip-rule:evenodd;fill:url(#SVGID_204_);}
	.st221{fill-rule:evenodd;clip-rule:evenodd;fill:url(#SVGID_205_);}
	.st222{fill-rule:evenodd;clip-rule:evenodd;fill:url(#SVGID_206_);}
	.st223{fill-rule:evenodd;clip-rule:evenodd;fill:url(#SVGID_207_);}
	.st224{opacity:0.2;fill-rule:evenodd;clip-rule:evenodd;fill:url(#SVGID_208_);}
	.st225{fill:url(#SVGID_209_);}
	.st226{fill:url(#SVGID_210_);}
	.st227{fill:#FFFFFF;stroke:url(#SVGID_211_);stroke-miterlimit:10;}
	.st228{fill:url(#SVGID_212_);}
	.st229{fill:url(#SVGID_213_);}
	.st230{fill:url(#SVGID_214_);}
	.st231{fill:url(#SVGID_215_);}
	.st232{fill:#FFFFFF;stroke:url(#SVGID_216_);stroke-miterlimit:10;}
	.st233{fill:url(#SVGID_217_);}
	.st234{fill:url(#SVGID_218_);}
	.st235{fill:url(#SVGID_219_);}
	.st236{fill:url(#SVGID_220_);}
	.st237{opacity:0.1;fill:url(#SVGID_221_);}
	.st238{fill:url(#SVGID_222_);}
	.st239{fill:url(#SVGID_223_);}
	.st240{fill:url(#SVGID_224_);}
	.st241{fill:url(#SVGID_225_);}
	.st242{fill:url(#SVGID_226_);}
	.st243{fill:url(#SVGID_227_);}
	.st244{fill:url(#SVGID_228_);}
	.st245{fill:url(#SVGID_229_);}
	.st246{fill:url(#SVGID_230_);}
	.st247{fill:url(#SVGID_231_);}
	.st248{fill:url(#SVGID_232_);}
	.st249{fill:url(#SVGID_233_);}
	.st250{fill:url(#SVGID_234_);}
	.st251{fill:url(#SVGID_235_);}
	.st252{fill:url(#SVGID_236_);}
	.st253{fill:url(#SVGID_237_);}
	.st254{fill:url(#SVGID_238_);}
	.st255{fill:url(#SVGID_239_);}
	.st256{fill:url(#SVGID_240_);}
	.st257{fill:url(#SVGID_241_);}
	.st258{fill:url(#SVGID_242_);}
	.st259{fill:url(#SVGID_243_);}
	.st260{fill:url(#SVGID_244_);}
	.st261{fill:url(#SVGID_245_);}
	.st262{fill:url(#SVGID_246_);}
	.st263{fill:url(#SVGID_247_);}
	.st264{fill:url(#SVGID_248_);}
	.st265{fill:url(#SVGID_249_);}
	.st266{fill:url(#SVGID_250_);}
	.st267{fill:url(#SVGID_251_);}
	.st268{fill:url(#SVGID_252_);}
	.st269{fill:url(#SVGID_253_);}
	.st270{fill:url(#SVGID_254_);}
	.st271{fill:url(#SVGID_255_);}
	.st272{fill:url(#SVGID_256_);}
	.st273{fill:url(#SVGID_257_);}
	.st274{fill:url(#SVGID_258_);}
	.st275{fill:url(#SVGID_259_);}
	.st276{fill:url(#SVGID_260_);}
</style>
<g>
	<linearGradient id="SVGID_1_" gradientUnits="userSpaceOnUse" x1="51.9222" y1="166.9462" x2="123.2803" y2="166.9462">
		<stop  offset="0" style="stop-color:#328AB6"/>
		<stop  offset="1" style="stop-color:#0068D8"/>
	</linearGradient>
	<path style="fill:url(#SVGID_1_);" d="M102.3,262.2c1.2,0.8,2.8,0.4,3.6-0.8c0.8-1.2,0.4-2.8-0.8-3.6c-30-18.8-48-51.2-48-86.6
		c0-42.1,25.3-79.4,64.5-94.9c1.3-0.5,2-2.1,1.5-3.4c-0.5-1.3-2.1-2-3.4-1.5c-40.3,16-67.8,55-67.8,99.8
		C51.9,209.2,71.7,243,102.3,262.2L102.3,262.2z"/>
	<linearGradient id="SVGID_2_" gradientUnits="userSpaceOnUse" x1="38.3189" y1="164.4268" x2="266.5056" y2="164.4268">
		<stop  offset="0" style="stop-color:#328AB6"/>
		<stop  offset="1" style="stop-color:#0068D8"/>
	</linearGradient>
	<path class="st2" d="M266.5,171.2c0-57.7-45.8-104.9-103-107.2l5.3-9.8c0.7-1.3,0.2-2.9-1.1-3.5c-1.3-0.7-2.9-0.2-3.5,1.1
		l-7.3,13.6c-0.4,0.8-0.4,1.7,0,2.5c0.2,0.3,5.5,9.4,7.3,12.6c0.7,1.3,2.3,1.7,3.6,0.9c1.2-0.7,1.7-2.3,0.9-3.6l-5-8.5
		c54.1,2.4,97.4,47.2,97.4,101.9c0,56.3-45.8,102.1-102.1,102.1H40.9c-1.4,0-2.6,1.2-2.6,2.6c0,1.4,1.2,2.6,2.6,2.6h118.3
		C218.4,278.5,266.5,230.4,266.5,171.2L266.5,171.2z"/>
	<linearGradient id="SVGID_3_" gradientUnits="userSpaceOnUse" x1="221.4966" y1="274.8557" x2="279.0616" y2="274.8557">
		<stop  offset="0" style="stop-color:#328AB6"/>
		<stop  offset="1" style="stop-color:#0068D8"/>
	</linearGradient>
	<path style="fill:url(#SVGID_3_);" d="M279.1,274.8c0-0.4-0.1-0.7-0.2-1c-0.3-0.7,0-0.2-11-11.3c-1-1-2.7-1-3.7,0c-1,1-1,2.7,0,3.7
		l6,6h-46c-1.4,0-2.6,1.2-2.6,2.6c0,1.4,1.2,2.6,2.6,2.6h46l-6,6c-1,1-1,2.7,0,3.7c1,1,2.7,1,3.7,0c11.3-11.4,10.8-10.6,11.1-11.4
		C279,275.5,279.1,275.1,279.1,274.8L279.1,274.8z"/>
	<linearGradient id="SVGID_4_" gradientUnits="userSpaceOnUse" x1="78.091" y1="171.2281" x2="240.3329" y2="171.2281">
		<stop  offset="0" style="stop-color:#328AB6"/>
		<stop  offset="1" style="stop-color:#0068D8"/>
	</linearGradient>
	<path style="fill:url(#SVGID_4_);" d="M78.1,171.2c0,44.7,36.4,81.1,81.1,81.1c44.7,0,81.1-36.4,81.1-81.1
		c0-44.7-36.4-81.1-81.1-81.1C114.5,90.1,78.1,126.5,78.1,171.2z M159.2,95.3c41.8,0,75.9,34,75.9,75.9c0,41.8-34,75.9-75.9,75.9
		c-41.8,0-75.9-34-75.9-75.9C83.3,129.4,117.4,95.3,159.2,95.3z"/>
	<linearGradient id="SVGID_5_" gradientUnits="userSpaceOnUse" x1="48.7817" y1="73.3582" x2="69.717" y2="73.3582">
		<stop  offset="0" style="stop-color:#328AB6"/>
		<stop  offset="1" style="stop-color:#0068D8"/>
	</linearGradient>
	<path style="fill:url(#SVGID_5_);" d="M59.2,83.8c5.8,0,10.5-4.7,10.5-10.5S65,62.9,59.2,62.9s-10.5,4.7-10.5,10.5
		S53.5,83.8,59.2,83.8z M59.2,68.1c2.9,0,5.2,2.3,5.2,5.2c0,2.9-2.3,5.2-5.2,5.2c-2.9,0-5.2-2.3-5.2-5.2
		C54,70.5,56.4,68.1,59.2,68.1z"/>
	<linearGradient id="SVGID_6_" gradientUnits="userSpaceOnUse" x1="245.0464" y1="73.3621" x2="281.6811" y2="73.3621">
		<stop  offset="0" style="stop-color:#328AB6"/>
		<stop  offset="1" style="stop-color:#0068D8"/>
	</linearGradient>
	<path style="fill:url(#SVGID_6_);" d="M263.4,91.7c10.1,0,18.3-8.2,18.3-18.3c0-10.1-8.2-18.3-18.3-18.3
		c-10.1,0-18.3,8.2-18.3,18.3S253.3,91.7,263.4,91.7z M263.4,60.3c7.2,0,13.1,5.9,13.1,13.1s-5.9,13.1-13.1,13.1
		s-13.1-5.9-13.1-13.1S256.1,60.3,263.4,60.3z"/>
	<linearGradient id="SVGID_7_" gradientUnits="userSpaceOnUse" x1="43.5471" y1="251.3066" x2="64.4824" y2="251.3066">
		<stop  offset="0" style="stop-color:#328AB6"/>
		<stop  offset="1" style="stop-color:#0068D8"/>
	</linearGradient>
	<path class="st12" d="M43.5,251.3c0,5.8,4.7,10.5,10.5,10.5s10.5-4.7,10.5-10.5c0-5.8-4.7-10.5-10.5-10.5S43.5,245.5,43.5,251.3z
		 M59.2,251.3c0,2.9-2.3,5.2-5.2,5.2s-5.2-2.3-5.2-5.2c0-2.9,2.3-5.2,5.2-5.2S59.2,248.4,59.2,251.3z"/>
	<linearGradient id="SVGID_8_" gradientUnits="userSpaceOnUse" x1="213.6443" y1="61.5837" x2="221.496" y2="61.5837">
		<stop  offset="0" style="stop-color:#328AB6"/>
		<stop  offset="1" style="stop-color:#0068D8"/>
	</linearGradient>
	<path class="st13" d="M221.5,61.6c0,2.2-1.8,3.9-3.9,3.9s-3.9-1.8-3.9-3.9c0-2.2,1.8-3.9,3.9-3.9S221.5,59.4,221.5,61.6"/>
	<linearGradient id="SVGID_9_" gradientUnits="userSpaceOnUse" x1="268.5997" y1="116.5376" x2="276.4514" y2="116.5376">
		<stop  offset="0" style="stop-color:#328AB6"/>
		<stop  offset="1" style="stop-color:#0068D8"/>
	</linearGradient>
	<path class="st14" d="M276.5,116.5c0,2.2-1.8,3.9-3.9,3.9c-2.2,0-3.9-1.8-3.9-3.9c0-2.2,1.8-3.9,3.9-3.9S276.5,114.4,276.5,116.5"
		/>
	<linearGradient id="SVGID_10_" gradientUnits="userSpaceOnUse" x1="260.748" y1="229.062" x2="268.5979" y2="229.062">
		<stop  offset="0" style="stop-color:#328AB6"/>
		<stop  offset="1" style="stop-color:#0068D8"/>
	</linearGradient>
	<path class="st15" d="M268.6,229.1c0,2.2-1.8,3.9-3.9,3.9c-2.2,0-3.9-1.8-3.9-3.9s1.8-3.9,3.9-3.9
		C266.8,225.1,268.6,226.9,268.6,229.1"/>
	<linearGradient id="SVGID_11_" gradientUnits="userSpaceOnUse" x1="40.9314" y1="221.2104" x2="48.7812" y2="221.2104">
		<stop  offset="0" style="stop-color:#328AB6"/>
		<stop  offset="1" style="stop-color:#0068D8"/>
	</linearGradient>
	<path class="st16" d="M48.8,221.2c0,2.2-1.8,3.9-3.9,3.9s-3.9-1.8-3.9-3.9s1.8-3.9,3.9-3.9S48.8,219,48.8,221.2"/>
	<linearGradient id="SVGID_12_" gradientUnits="userSpaceOnUse" x1="93.2702" y1="61.5837" x2="101.1219" y2="61.5837">
		<stop  offset="0" style="stop-color:#328AB6"/>
		<stop  offset="1" style="stop-color:#0068D8"/>
	</linearGradient>
	<path class="st17" d="M101.1,61.6c0,2.2-1.8,3.9-3.9,3.9c-2.2,0-3.9-1.8-3.9-3.9c0-2.2,1.8-3.9,3.9-3.9S101.1,59.4,101.1,61.6"/>
	<linearGradient id="SVGID_13_" gradientUnits="userSpaceOnUse" x1="43.5489" y1="111.3035" x2="51.4006" y2="111.3035">
		<stop  offset="0" style="stop-color:#328AB6"/>
		<stop  offset="1" style="stop-color:#0068D8"/>
	</linearGradient>
	<path style="fill:url(#SVGID_13_);" d="M51.4,111.3c0,2.2-1.8,3.9-3.9,3.9s-3.9-1.8-3.9-3.9c0-2.2,1.8-3.9,3.9-3.9
		S51.4,109.1,51.4,111.3"/>
	<linearGradient id="SVGID_14_" gradientUnits="userSpaceOnUse" x1="106.3521" y1="170.1813" x2="211.0269" y2="170.1813">
		<stop  offset="0" style="stop-color:#328AB6"/>
		<stop  offset="1" style="stop-color:#0068D8"/>
	</linearGradient>
	<path class="st20" d="M115.5,222.5h86.4c5,0,9.2-4.1,9.2-9.2v-13.1c0-5-4.1-9.2-9.2-9.2h-1.3v-5.2h1.3c5,0,9.2-4.1,9.2-9.2v-13.1
		c0-5-4.1-9.2-9.2-9.2h-1.3v-5.2h1.3c5,0,9.2-4.1,9.2-9.2V127c0-5-4.1-9.2-9.2-9.2l-86.4,0c-5,0-9.2,4.1-9.2,9.2v13.1
		c0,5,4.1,9.2,9.2,9.2h1.3v5.2h-1.3c-5,0-9.2,4.1-9.2,9.2v13.1c0,5,4.1,9.2,9.2,9.2h1.3v5.2l-1.3,0c-5,0-9.2,4.1-9.2,9.2v13.1
		C106.4,218.4,110.5,222.5,115.5,222.5L115.5,222.5z M111.6,140.1V127c0-2.2,1.8-3.9,3.9-3.9h86.4c2.2,0,3.9,1.8,3.9,3.9v13.1
		c0,2.2-1.8,3.9-3.9,3.9h-86.4C113.3,144,111.6,142.3,111.6,140.1z M122.1,149.2h73.3v5.2h-73.3V149.2z M111.6,176.7v-13.1
		c0-2.2,1.8-3.9,3.9-3.9h3.9h82.4c2.2,0,3.9,1.8,3.9,3.9v13.1c0,2.2-1.8,3.9-3.9,3.9h-86.4C113.3,180.7,111.6,178.9,111.6,176.7
		L111.6,176.7z M122.1,185.9h73.3v5.2h-73.3V185.9z M111.6,200.3c0-2.2,1.8-3.9,3.9-3.9h86.4c2.2,0,3.9,1.8,3.9,3.9v13.1
		c0,2.2-1.8,3.9-3.9,3.9h-86.4c-2.2,0-3.9-1.8-3.9-3.9V200.3z"/>
	<linearGradient id="SVGID_15_" gradientUnits="userSpaceOnUse" x1="184.8613" y1="206.8233" x2="200.5607" y2="206.8233">
		<stop  offset="0" style="stop-color:#328AB6"/>
		<stop  offset="1" style="stop-color:#0068D8"/>
	</linearGradient>
	<path class="st25" d="M192.7,214.7c4.3,0,7.8-3.5,7.8-7.8c0-4.3-3.5-7.8-7.8-7.8c-4.3,0-7.8,3.5-7.8,7.8
		C184.9,211.1,188.4,214.7,192.7,214.7z M192.7,204.2c1.4,0,2.6,1.2,2.6,2.6c0,1.4-1.2,2.6-2.6,2.6c-1.4,0-2.6-1.2-2.6-2.6
		C190.1,205.4,191.3,204.2,192.7,204.2z"/>
	<linearGradient id="SVGID_16_" gradientUnits="userSpaceOnUse" x1="166.5445" y1="206.8233" x2="182.2438" y2="206.8233">
		<stop  offset="0" style="stop-color:#328AB6"/>
		<stop  offset="1" style="stop-color:#0068D8"/>
	</linearGradient>
	<path class="st26" d="M174.4,214.7c4.3,0,7.8-3.5,7.8-7.8c0-4.3-3.5-7.8-7.8-7.8c-4.3,0-7.8,3.5-7.8,7.8
		C166.5,211.1,170.1,214.7,174.4,214.7z M174.4,204.2c1.4,0,2.6,1.2,2.6,2.6c0,1.4-1.2,2.6-2.6,2.6s-2.6-1.2-2.6-2.6
		C171.8,205.4,172.9,204.2,174.4,204.2z"/>
	<linearGradient id="SVGID_17_" gradientUnits="userSpaceOnUse" x1="116.8228" y1="206.8229" x2="158.6899" y2="206.8229">
		<stop  offset="0" style="stop-color:#328AB6"/>
		<stop  offset="1" style="stop-color:#0068D8"/>
	</linearGradient>
	<path class="st27" d="M119.4,209.4h36.6c1.4,0,2.6-1.2,2.6-2.6c0-1.4-1.2-2.6-2.6-2.6h-36.6c-1.4,0-2.6,1.2-2.6,2.6
		C116.8,208.3,118,209.4,119.4,209.4z"/>
	<linearGradient id="SVGID_18_" gradientUnits="userSpaceOnUse" x1="184.8613" y1="170.1837" x2="200.5607" y2="170.1837">
		<stop  offset="0" style="stop-color:#328AB6"/>
		<stop  offset="1" style="stop-color:#0068D8"/>
	</linearGradient>
	<path class="st28" d="M192.7,178c4.3,0,7.8-3.5,7.8-7.8c0-4.3-3.5-7.9-7.8-7.9c-4.3,0-7.8,3.5-7.8,7.9
		C184.9,174.5,188.4,178,192.7,178z M192.7,167.6c1.4,0,2.6,1.2,2.6,2.6c0,1.4-1.2,2.6-2.6,2.6c-1.4,0-2.6-1.2-2.6-2.6
		C190.1,168.7,191.3,167.6,192.7,167.6z"/>
	<linearGradient id="SVGID_19_" gradientUnits="userSpaceOnUse" x1="166.5445" y1="170.1837" x2="182.2438" y2="170.1837">
		<stop  offset="0" style="stop-color:#328AB6"/>
		<stop  offset="1" style="stop-color:#0068D8"/>
	</linearGradient>
	<path class="st29" d="M174.4,178c4.3,0,7.8-3.5,7.8-7.8c0-4.3-3.5-7.9-7.8-7.9c-4.3,0-7.8,3.5-7.8,7.9
		C166.5,174.5,170.1,178,174.4,178z M174.4,167.6c1.4,0,2.6,1.2,2.6,2.6c0,1.4-1.2,2.6-2.6,2.6s-2.6-1.2-2.6-2.6
		C171.8,168.7,172.9,167.6,174.4,167.6z"/>
	<linearGradient id="SVGID_20_" gradientUnits="userSpaceOnUse" x1="116.8214" y1="170.1843" x2="158.6884" y2="170.1843">
		<stop  offset="0" style="stop-color:#328AB6"/>
		<stop  offset="1" style="stop-color:#0068D8"/>
	</linearGradient>
	<path class="st30" d="M156.1,172.8c1.4,0,2.6-1.2,2.6-2.6c0-1.4-1.2-2.6-2.6-2.6h-36.6c-1.4,0-2.6,1.2-2.6,2.6
		c0,1.4,1.2,2.6,2.6,2.6H156.1z"/>
	<linearGradient id="SVGID_21_" gradientUnits="userSpaceOnUse" x1="184.8613" y1="133.551" x2="200.5607" y2="133.551">
		<stop  offset="0" style="stop-color:#328AB6"/>
		<stop  offset="1" style="stop-color:#0068D8"/>
	</linearGradient>
	<path class="st31" d="M192.7,141.4c4.3,0,7.8-3.5,7.8-7.8c0-4.3-3.5-7.8-7.8-7.8c-4.3,0-7.8,3.5-7.8,7.8
		C184.9,137.9,188.4,141.4,192.7,141.4z M192.7,130.9c1.4,0,2.6,1.2,2.6,2.6s-1.2,2.6-2.6,2.6c-1.4,0-2.6-1.2-2.6-2.6
		C190.1,132.1,191.3,130.9,192.7,130.9z"/>
	<linearGradient id="SVGID_22_" gradientUnits="userSpaceOnUse" x1="166.5445" y1="133.551" x2="182.2438" y2="133.551">
		<stop  offset="0" style="stop-color:#328AB6"/>
		<stop  offset="1" style="stop-color:#0068D8"/>
	</linearGradient>
	<path class="st32" d="M174.4,141.4c4.3,0,7.8-3.5,7.8-7.8c0-4.3-3.5-7.8-7.8-7.8c-4.3,0-7.8,3.5-7.8,7.8
		C166.5,137.9,170.1,141.4,174.4,141.4z M174.4,130.9c1.4,0,2.6,1.2,2.6,2.6s-1.2,2.6-2.6,2.6s-2.6-1.2-2.6-2.6
		C171.8,132.1,172.9,130.9,174.4,130.9z"/>
	<linearGradient id="SVGID_23_" gradientUnits="userSpaceOnUse" x1="116.8214" y1="133.5506" x2="158.6884" y2="133.5506">
		<stop  offset="0" style="stop-color:#328AB6"/>
		<stop  offset="1" style="stop-color:#0068D8"/>
	</linearGradient>
	<path class="st33" d="M156.1,136.2c1.4,0,2.6-1.2,2.6-2.6c0-1.4-1.2-2.6-2.6-2.6h-36.6c-1.4,0-2.6,1.2-2.6,2.6
		c0,1.4,1.2,2.6,2.6,2.6H156.1z"/>
</g>
</svg>
