<?xml version="1.0" encoding="utf-8"?>
<!-- Generator: Adobe Illustrator 24.0.1, SVG Export Plug-In . SVG Version: 6.00 Build 0)  -->
<svg version="1.1" id="Layer_1" xmlns="http://www.w3.org/2000/svg" xmlns:xlink="http://www.w3.org/1999/xlink" x="0px" y="0px"
	 viewBox="0 0 320 320" style="enable-background:new 0 0 320 320;" xml:space="preserve">
<style type="text/css">
	.st0{opacity:5.000000e-02;fill:url(#SVGID_1_);}
	.st1{opacity:0.8;}
	.st2{fill:url(#SVGID_2_);}
	.st3{opacity:0.8;fill:url(#SVGID_3_);}
	.st4{opacity:0.8;fill:url(#SVGID_4_);}
	.st5{opacity:0.2;fill:url(#SVGID_5_);}
	.st6{fill:#0000FF;}
	.st7{fill:#E44235;}
	.st8{fill:#FFFFFF;}
	.st9{opacity:0.7;}
	.st10{opacity:0.72;stroke:#FFFFFF;stroke-miterlimit:10;}
	.st11{fill:none;stroke:url(#SVGID_6_);stroke-width:0.5;stroke-miterlimit:10;}
	.st12{fill:url(#SVGID_7_);}
	.st13{fill:url(#SVGID_8_);}
	.st14{fill:url(#SVGID_9_);}
	.st15{fill:url(#SVGID_10_);}
	.st16{fill:url(#SVGID_11_);}
	.st17{fill:url(#SVGID_12_);}
	.st18{opacity:0.5;fill:url(#SVGID_13_);}
	.st19{opacity:0.15;}
	.st20{fill:url(#SVGID_14_);}
	.st21{fill:#009FD8;}
	.st22{fill-rule:evenodd;clip-rule:evenodd;fill:#FFFFFF;}
	.st23{opacity:0.72;}
	.st24{fill:none;stroke:#FFFFFF;stroke-miterlimit:10;}
	.st25{fill:url(#SVGID_15_);}
	.st26{fill:url(#SVGID_16_);}
	.st27{fill:url(#SVGID_17_);}
	.st28{fill:url(#SVGID_18_);}
	.st29{fill:url(#SVGID_19_);}
	.st30{fill:url(#SVGID_20_);}
	.st31{fill:url(#SVGID_21_);}
	.st32{fill:url(#SVGID_22_);}
	.st33{fill:url(#SVGID_23_);}
	.st34{fill:url(#SVGID_24_);}
	.st35{fill:url(#SVGID_25_);}
	.st36{fill:url(#SVGID_26_);}
	.st37{fill:url(#SVGID_27_);}
	.st38{fill:url(#SVGID_28_);}
	.st39{fill:url(#SVGID_29_);}
	.st40{fill:url(#SVGID_30_);}
	.st41{fill:url(#SVGID_31_);}
	.st42{fill:url(#SVGID_32_);}
	.st43{opacity:0.22;fill:url(#SVGID_33_);}
	.st44{opacity:0.4;fill:#EAE9E8;}
	.st45{fill:url(#SVGID_34_);}
	.st46{fill:url(#SVGID_35_);}
	.st47{fill:url(#SVGID_36_);}
	.st48{fill:url(#SVGID_37_);}
	.st49{fill:url(#SVGID_38_);}
	.st50{fill:url(#SVGID_39_);}
	.st51{fill:url(#SVGID_40_);}
	.st52{fill:url(#SVGID_41_);}
	.st53{fill:url(#SVGID_42_);}
	.st54{fill:none;stroke:#999999;stroke-width:0.5;stroke-miterlimit:10;stroke-dasharray:1;}
	.st55{fill:url(#SVGID_43_);}
	.st56{fill:url(#SVGID_44_);}
	.st57{fill:url(#SVGID_45_);}
	.st58{fill:url(#SVGID_46_);}
	.st59{fill:url(#SVGID_47_);}
	.st60{fill:url(#SVGID_48_);}
	.st61{fill:url(#SVGID_49_);}
	.st62{fill:url(#SVGID_50_);}
	.st63{fill:url(#SVGID_51_);}
	.st64{fill:url(#SVGID_52_);}
	.st65{fill:url(#SVGID_53_);}
	.st66{fill:url(#SVGID_54_);}
	.st67{fill:url(#SVGID_55_);}
	.st68{fill:url(#SVGID_56_);}
	.st69{fill:url(#SVGID_57_);}
	.st70{fill:none;stroke:url(#SVGID_58_);stroke-width:0.5;stroke-miterlimit:10;stroke-dasharray:1;}
	.st71{fill:none;stroke:url(#SVGID_59_);stroke-width:0.5;stroke-miterlimit:10;stroke-dasharray:1;}
	.st72{fill:none;stroke:url(#SVGID_60_);stroke-width:0.5;stroke-miterlimit:10;stroke-dasharray:1;}
	.st73{fill:none;stroke:url(#SVGID_61_);stroke-width:0.5;stroke-miterlimit:10;stroke-dasharray:1;}
	.st74{fill:none;stroke:url(#SVGID_62_);stroke-width:0.5;stroke-miterlimit:10;stroke-dasharray:1;}
	.st75{fill:url(#SVGID_63_);}
	.st76{fill:url(#SVGID_64_);}
	.st77{fill:url(#SVGID_65_);}
	.st78{fill:url(#SVGID_66_);}
	.st79{fill:url(#SVGID_67_);}
	.st80{fill:url(#SVGID_68_);}
	.st81{fill:url(#SVGID_69_);}
	.st82{fill:url(#SVGID_70_);}
	.st83{fill:url(#SVGID_71_);}
	.st84{fill:url(#SVGID_72_);}
	.st85{fill:url(#SVGID_73_);}
	.st86{fill:none;stroke:url(#SVGID_74_);stroke-miterlimit:10;}
	.st87{fill:none;stroke:#0068D8;stroke-miterlimit:10;}
	.st88{fill:#F4F4F4;}
	.st89{fill-rule:evenodd;clip-rule:evenodd;fill:#009FD8;}
	.st90{opacity:0.4;fill-rule:evenodd;clip-rule:evenodd;fill:#EAE9E8;}
	.st91{fill-rule:evenodd;clip-rule:evenodd;fill:url(#SVGID_75_);}
	.st92{fill-rule:evenodd;clip-rule:evenodd;fill:url(#SVGID_76_);}
	.st93{fill-rule:evenodd;clip-rule:evenodd;fill:url(#SVGID_77_);}
	.st94{fill-rule:evenodd;clip-rule:evenodd;fill:url(#SVGID_78_);}
	.st95{fill-rule:evenodd;clip-rule:evenodd;fill:url(#SVGID_79_);}
	.st96{fill-rule:evenodd;clip-rule:evenodd;fill:url(#SVGID_80_);}
	.st97{fill-rule:evenodd;clip-rule:evenodd;fill:url(#SVGID_81_);}
	.st98{fill-rule:evenodd;clip-rule:evenodd;fill:url(#SVGID_82_);}
	.st99{fill-rule:evenodd;clip-rule:evenodd;fill:url(#SVGID_83_);}
	.st100{fill-rule:evenodd;clip-rule:evenodd;fill:url(#SVGID_84_);}
	.st101{fill-rule:evenodd;clip-rule:evenodd;fill:url(#SVGID_85_);}
	.st102{fill-rule:evenodd;clip-rule:evenodd;fill:url(#SVGID_86_);}
	.st103{fill-rule:evenodd;clip-rule:evenodd;fill:url(#SVGID_87_);}
	.st104{fill-rule:evenodd;clip-rule:evenodd;fill:url(#SVGID_88_);}
	.st105{fill-rule:evenodd;clip-rule:evenodd;fill:url(#SVGID_89_);}
	.st106{fill-rule:evenodd;clip-rule:evenodd;fill:url(#SVGID_90_);}
	.st107{fill-rule:evenodd;clip-rule:evenodd;fill:url(#SVGID_91_);}
	.st108{fill-rule:evenodd;clip-rule:evenodd;fill:url(#SVGID_92_);}
	.st109{fill-rule:evenodd;clip-rule:evenodd;fill:url(#SVGID_93_);}
	.st110{fill-rule:evenodd;clip-rule:evenodd;fill:url(#SVGID_94_);}
	.st111{fill-rule:evenodd;clip-rule:evenodd;fill:url(#SVGID_95_);}
	.st112{fill-rule:evenodd;clip-rule:evenodd;fill:url(#SVGID_96_);}
	.st113{fill-rule:evenodd;clip-rule:evenodd;fill:url(#SVGID_97_);}
	.st114{fill-rule:evenodd;clip-rule:evenodd;fill:url(#SVGID_98_);}
	.st115{fill-rule:evenodd;clip-rule:evenodd;fill:url(#SVGID_99_);}
	.st116{fill-rule:evenodd;clip-rule:evenodd;fill:url(#SVGID_100_);}
	.st117{fill-rule:evenodd;clip-rule:evenodd;fill:url(#SVGID_101_);}
	.st118{fill-rule:evenodd;clip-rule:evenodd;fill:url(#SVGID_102_);}
	.st119{fill-rule:evenodd;clip-rule:evenodd;fill:url(#SVGID_103_);}
	.st120{fill-rule:evenodd;clip-rule:evenodd;fill:url(#SVGID_104_);}
	.st121{fill-rule:evenodd;clip-rule:evenodd;fill:url(#SVGID_105_);}
	.st122{fill-rule:evenodd;clip-rule:evenodd;fill:url(#SVGID_106_);}
	.st123{fill-rule:evenodd;clip-rule:evenodd;fill:url(#SVGID_107_);}
	.st124{fill-rule:evenodd;clip-rule:evenodd;fill:url(#SVGID_108_);}
	.st125{fill-rule:evenodd;clip-rule:evenodd;fill:url(#SVGID_109_);}
	.st126{fill-rule:evenodd;clip-rule:evenodd;fill:url(#SVGID_110_);}
	.st127{fill-rule:evenodd;clip-rule:evenodd;fill:url(#SVGID_111_);}
	.st128{fill-rule:evenodd;clip-rule:evenodd;fill:url(#SVGID_112_);}
	.st129{fill-rule:evenodd;clip-rule:evenodd;fill:url(#SVGID_113_);}
	.st130{fill-rule:evenodd;clip-rule:evenodd;fill:url(#SVGID_114_);}
	.st131{fill-rule:evenodd;clip-rule:evenodd;fill:url(#SVGID_115_);}
	.st132{fill-rule:evenodd;clip-rule:evenodd;fill:url(#SVGID_116_);}
	.st133{fill-rule:evenodd;clip-rule:evenodd;fill:url(#SVGID_117_);}
	.st134{fill-rule:evenodd;clip-rule:evenodd;fill:url(#SVGID_118_);}
	.st135{fill-rule:evenodd;clip-rule:evenodd;fill:url(#SVGID_119_);}
	.st136{fill-rule:evenodd;clip-rule:evenodd;fill:url(#SVGID_120_);}
	.st137{fill-rule:evenodd;clip-rule:evenodd;fill:url(#SVGID_121_);}
	.st138{fill-rule:evenodd;clip-rule:evenodd;fill:url(#SVGID_122_);}
	.st139{fill-rule:evenodd;clip-rule:evenodd;fill:url(#SVGID_123_);}
	.st140{fill-rule:evenodd;clip-rule:evenodd;fill:url(#SVGID_124_);}
	.st141{opacity:0.2;fill-rule:evenodd;clip-rule:evenodd;fill:url(#SVGID_125_);}
	.st142{fill-rule:evenodd;clip-rule:evenodd;fill:url(#SVGID_126_);}
	.st143{fill-rule:evenodd;clip-rule:evenodd;fill:url(#SVGID_127_);}
	.st144{fill-rule:evenodd;clip-rule:evenodd;fill:url(#SVGID_128_);}
	.st145{fill-rule:evenodd;clip-rule:evenodd;fill:url(#SVGID_129_);}
	.st146{fill-rule:evenodd;clip-rule:evenodd;fill:url(#SVGID_130_);}
	.st147{fill-rule:evenodd;clip-rule:evenodd;fill:url(#SVGID_131_);}
	.st148{fill-rule:evenodd;clip-rule:evenodd;fill:url(#SVGID_132_);}
	.st149{fill-rule:evenodd;clip-rule:evenodd;fill:url(#SVGID_133_);}
	.st150{fill-rule:evenodd;clip-rule:evenodd;fill:url(#SVGID_134_);}
	.st151{fill-rule:evenodd;clip-rule:evenodd;fill:url(#SVGID_135_);}
	.st152{fill-rule:evenodd;clip-rule:evenodd;fill:url(#SVGID_136_);}
	.st153{fill-rule:evenodd;clip-rule:evenodd;fill:url(#SVGID_137_);}
	.st154{fill-rule:evenodd;clip-rule:evenodd;fill:url(#SVGID_138_);}
	.st155{fill-rule:evenodd;clip-rule:evenodd;fill:url(#SVGID_139_);}
	.st156{fill-rule:evenodd;clip-rule:evenodd;fill:url(#SVGID_140_);}
	.st157{fill-rule:evenodd;clip-rule:evenodd;fill:url(#SVGID_141_);}
	.st158{fill-rule:evenodd;clip-rule:evenodd;fill:url(#SVGID_142_);}
	.st159{fill-rule:evenodd;clip-rule:evenodd;fill:url(#SVGID_143_);}
	.st160{fill-rule:evenodd;clip-rule:evenodd;fill:url(#SVGID_144_);}
	.st161{fill-rule:evenodd;clip-rule:evenodd;fill:url(#SVGID_145_);}
	.st162{fill-rule:evenodd;clip-rule:evenodd;fill:url(#SVGID_146_);}
	.st163{fill-rule:evenodd;clip-rule:evenodd;fill:url(#SVGID_147_);}
	.st164{fill-rule:evenodd;clip-rule:evenodd;fill:url(#SVGID_148_);}
	.st165{fill-rule:evenodd;clip-rule:evenodd;fill:url(#SVGID_149_);}
	.st166{fill-rule:evenodd;clip-rule:evenodd;fill:url(#SVGID_150_);}
	.st167{fill-rule:evenodd;clip-rule:evenodd;fill:url(#SVGID_151_);}
	.st168{fill-rule:evenodd;clip-rule:evenodd;fill:url(#SVGID_152_);}
	.st169{fill-rule:evenodd;clip-rule:evenodd;fill:url(#SVGID_153_);}
	.st170{fill-rule:evenodd;clip-rule:evenodd;fill:url(#SVGID_154_);}
	.st171{fill-rule:evenodd;clip-rule:evenodd;fill:url(#SVGID_155_);}
	.st172{fill-rule:evenodd;clip-rule:evenodd;fill:url(#SVGID_156_);}
	.st173{fill-rule:evenodd;clip-rule:evenodd;fill:url(#SVGID_157_);}
	.st174{fill-rule:evenodd;clip-rule:evenodd;fill:url(#SVGID_158_);}
	.st175{fill-rule:evenodd;clip-rule:evenodd;fill:url(#SVGID_159_);}
	.st176{fill-rule:evenodd;clip-rule:evenodd;fill:url(#SVGID_160_);}
	.st177{fill-rule:evenodd;clip-rule:evenodd;fill:url(#SVGID_161_);}
	.st178{fill-rule:evenodd;clip-rule:evenodd;fill:url(#SVGID_162_);}
	.st179{fill-rule:evenodd;clip-rule:evenodd;fill:url(#SVGID_163_);}
	.st180{fill-rule:evenodd;clip-rule:evenodd;fill:url(#SVGID_164_);}
	.st181{fill-rule:evenodd;clip-rule:evenodd;fill:url(#SVGID_165_);}
	.st182{fill-rule:evenodd;clip-rule:evenodd;fill:url(#SVGID_166_);}
	.st183{fill-rule:evenodd;clip-rule:evenodd;fill:url(#SVGID_167_);}
	.st184{fill-rule:evenodd;clip-rule:evenodd;fill:url(#SVGID_168_);}
	.st185{fill-rule:evenodd;clip-rule:evenodd;fill:url(#SVGID_169_);}
	.st186{fill-rule:evenodd;clip-rule:evenodd;fill:url(#SVGID_170_);}
	.st187{fill-rule:evenodd;clip-rule:evenodd;fill:url(#SVGID_171_);}
	.st188{fill-rule:evenodd;clip-rule:evenodd;fill:url(#SVGID_172_);}
	.st189{fill-rule:evenodd;clip-rule:evenodd;fill:url(#SVGID_173_);}
	.st190{fill-rule:evenodd;clip-rule:evenodd;fill:url(#SVGID_174_);}
	.st191{fill-rule:evenodd;clip-rule:evenodd;fill:url(#SVGID_175_);}
	.st192{fill-rule:evenodd;clip-rule:evenodd;fill:url(#SVGID_176_);}
	.st193{fill-rule:evenodd;clip-rule:evenodd;fill:url(#SVGID_177_);}
	.st194{fill-rule:evenodd;clip-rule:evenodd;fill:url(#SVGID_178_);}
	.st195{fill-rule:evenodd;clip-rule:evenodd;fill:url(#SVGID_179_);}
	.st196{fill-rule:evenodd;clip-rule:evenodd;fill:url(#SVGID_180_);}
	.st197{fill-rule:evenodd;clip-rule:evenodd;fill:url(#SVGID_181_);}
	.st198{fill-rule:evenodd;clip-rule:evenodd;fill:url(#SVGID_182_);}
	.st199{fill-rule:evenodd;clip-rule:evenodd;fill:url(#SVGID_183_);}
	.st200{fill-rule:evenodd;clip-rule:evenodd;fill:url(#SVGID_184_);}
	.st201{fill-rule:evenodd;clip-rule:evenodd;fill:url(#SVGID_185_);}
	.st202{fill-rule:evenodd;clip-rule:evenodd;fill:url(#SVGID_186_);}
	.st203{fill-rule:evenodd;clip-rule:evenodd;fill:url(#SVGID_187_);}
	.st204{fill-rule:evenodd;clip-rule:evenodd;fill:url(#SVGID_188_);}
	.st205{fill-rule:evenodd;clip-rule:evenodd;fill:url(#SVGID_189_);}
	.st206{fill-rule:evenodd;clip-rule:evenodd;fill:url(#SVGID_190_);}
	.st207{fill-rule:evenodd;clip-rule:evenodd;fill:url(#SVGID_191_);}
	.st208{fill-rule:evenodd;clip-rule:evenodd;fill:url(#SVGID_192_);}
	.st209{fill-rule:evenodd;clip-rule:evenodd;fill:url(#SVGID_193_);}
	.st210{fill-rule:evenodd;clip-rule:evenodd;fill:url(#SVGID_194_);}
	.st211{fill-rule:evenodd;clip-rule:evenodd;fill:url(#SVGID_195_);}
	.st212{fill-rule:evenodd;clip-rule:evenodd;fill:url(#SVGID_196_);}
	.st213{fill-rule:evenodd;clip-rule:evenodd;fill:url(#SVGID_197_);}
	.st214{fill-rule:evenodd;clip-rule:evenodd;fill:url(#SVGID_198_);}
	.st215{fill-rule:evenodd;clip-rule:evenodd;fill:url(#SVGID_199_);}
	.st216{fill-rule:evenodd;clip-rule:evenodd;fill:url(#SVGID_200_);}
	.st217{fill-rule:evenodd;clip-rule:evenodd;fill:url(#SVGID_201_);}
	.st218{fill-rule:evenodd;clip-rule:evenodd;fill:url(#SVGID_202_);}
	.st219{fill-rule:evenodd;clip-rule:evenodd;fill:url(#SVGID_203_);}
	.st220{fill-rule:evenodd;clip-rule:evenodd;fill:url(#SVGID_204_);}
	.st221{fill-rule:evenodd;clip-rule:evenodd;fill:url(#SVGID_205_);}
	.st222{fill-rule:evenodd;clip-rule:evenodd;fill:url(#SVGID_206_);}
	.st223{fill-rule:evenodd;clip-rule:evenodd;fill:url(#SVGID_207_);}
	.st224{opacity:0.2;fill-rule:evenodd;clip-rule:evenodd;fill:url(#SVGID_208_);}
	.st225{fill:url(#SVGID_209_);}
	.st226{fill:url(#SVGID_210_);}
	.st227{fill:#FFFFFF;stroke:url(#SVGID_211_);stroke-miterlimit:10;}
	.st228{fill:url(#SVGID_212_);}
	.st229{fill:url(#SVGID_213_);}
	.st230{fill:url(#SVGID_214_);}
	.st231{fill:url(#SVGID_215_);}
	.st232{fill:#FFFFFF;stroke:url(#SVGID_216_);stroke-miterlimit:10;}
	.st233{fill:url(#SVGID_217_);}
	.st234{fill:url(#SVGID_218_);}
	.st235{fill:url(#SVGID_219_);}
	.st236{fill:url(#SVGID_220_);}
	.st237{opacity:0.1;fill:url(#SVGID_221_);}
	.st238{fill:url(#SVGID_222_);}
	.st239{fill:url(#SVGID_223_);}
	.st240{fill:url(#SVGID_224_);}
	.st241{fill:url(#SVGID_225_);}
	.st242{fill:url(#SVGID_226_);}
	.st243{fill:url(#SVGID_227_);}
	.st244{fill:url(#SVGID_228_);}
	.st245{fill:url(#SVGID_229_);}
	.st246{fill:url(#SVGID_230_);}
	.st247{fill:url(#SVGID_231_);}
	.st248{fill:url(#SVGID_232_);}
	.st249{fill:url(#SVGID_233_);}
	.st250{fill:url(#SVGID_234_);}
	.st251{fill:url(#SVGID_235_);}
	.st252{fill:url(#SVGID_236_);}
	.st253{fill:url(#SVGID_237_);}
	.st254{fill:url(#SVGID_238_);}
	.st255{fill:url(#SVGID_239_);}
	.st256{fill:url(#SVGID_240_);}
	.st257{fill:url(#SVGID_241_);}
	.st258{fill:url(#SVGID_242_);}
	.st259{fill:url(#SVGID_243_);}
	.st260{fill:url(#SVGID_244_);}
	.st261{fill:url(#SVGID_245_);}
	.st262{fill:url(#SVGID_246_);}
	.st263{fill:url(#SVGID_247_);}
	.st264{fill:url(#SVGID_248_);}
	.st265{fill:url(#SVGID_249_);}
	.st266{fill:url(#SVGID_250_);}
	.st267{fill:url(#SVGID_251_);}
	.st268{fill:url(#SVGID_252_);}
	.st269{fill:url(#SVGID_253_);}
	.st270{fill:url(#SVGID_254_);}
	.st271{fill:url(#SVGID_255_);}
	.st272{fill:url(#SVGID_256_);}
	.st273{fill:url(#SVGID_257_);}
	.st274{fill:url(#SVGID_258_);}
	.st275{fill:url(#SVGID_259_);}
	.st276{fill:url(#SVGID_260_);}
	.st277{fill:url(#SVGID_261_);}
	.st278{fill:url(#SVGID_262_);}
	.st279{fill:url(#SVGID_263_);}
	.st280{fill:url(#SVGID_264_);}
	.st281{fill:#FFFFFF;stroke:url(#SVGID_265_);stroke-width:9;stroke-miterlimit:10;}
	.st282{fill:url(#SVGID_266_);}
	.st283{fill:url(#SVGID_267_);}
</style>
<g>
	<g>
		<linearGradient id="SVGID_1_" gradientUnits="userSpaceOnUse" x1="39.241" y1="222.7887" x2="276.8465" y2="222.7887">
			<stop  offset="0" style="stop-color:#328AB6"/>
			<stop  offset="1" style="stop-color:#0068D8"/>
		</linearGradient>
		<path style="fill:url(#SVGID_1_);" d="M273.9,176.8c1.8-2,3-4.7,3-7.7c0-6.3-5.2-11.5-11.5-11.5H204c-6.3,0-11.5,5.2-11.5,11.5
			c0,3,1.2,5.6,3,7.7c-1.8,2-3,4.7-3,7.7c0,1.8,0.5,3.5,1.2,5.1c-1.5-0.8-3.2-1.2-5.1-1.2h-61.3c-6.3,0-11.5,5.2-11.5,11.5
			c0,1.8,0.5,3.5,1.2,5.1c-1.5-0.8-3.2-1.2-5.1-1.2H50.7c-6.3,0-11.5,5.2-11.5,11.5c0,3,1.2,5.6,3,7.7c-1.8,2-3,4.7-3,7.7
			s1.2,5.6,3,7.7c-1.8,2-3,4.7-3,7.7c0,3,1.2,5.6,3,7.7c-1.8,2-3,4.7-3,7.7c0,3,1.2,5.6,3,7.7c-1.8,2-3,4.7-3,7.7
			c0,6.3,5.2,11.5,11.5,11.5h61.3c2.2,0,4.3-0.6,6-1.7c0.6-0.4,1.1-0.8,1.7-1.2c1.4,1.2,3,2.2,4.9,2.6c0.9,0.2,1.8,0.4,2.8,0.4h61.3
			c5.2,0,9.5-3.5,11-8.2c7.9,5.2,17.3,8.2,27.4,8.2c27.5,0,49.8-22.4,49.8-49.8c0-10.1-3-19.5-8.2-27.4c4.7-1.4,8.2-5.8,8.2-11
			c0-3-1.2-5.6-3-7.7c1.8-2,3-4.7,3-7.7C276.8,181.5,275.7,178.8,273.9,176.8z M204,165.3h61.3c2.1,0,3.8,1.7,3.8,3.8
			s-1.7,3.8-3.8,3.8H204c-2.1,0-3.8-1.7-3.8-3.8S201.9,165.3,204,165.3z M204,180.6h61.3c2.1,0,3.8,1.7,3.8,3.8
			c0,2.1-1.7,3.8-3.8,3.8H204c-2.1,0-3.8-1.7-3.8-3.8C200.2,182.4,201.9,180.6,204,180.6z M201.2,195.6c-0.5,0.3-1.1,0.6-1.6,1
			c-0.2-0.6-0.4-1.2-0.7-1.8C199.7,195.1,200.4,195.4,201.2,195.6z M127.4,196h61.3c2.1,0,3.8,1.7,3.8,3.8c0,2.1-1.7,3.8-3.8,3.8
			h-61.3c-2.1,0-3.8-1.7-3.8-3.8C123.6,197.7,125.3,196,127.4,196z M127.4,211.3h57.7c-1.6,2.4-2.9,5-4.1,7.7h-53.7
			c-2.1,0-3.8-1.7-3.8-3.8C123.6,213,125.3,211.3,127.4,211.3z M127.4,226.6h51.2c-0.6,2.5-1,5-1.2,7.7h-50c-2.1,0-3.8-1.7-3.8-3.8
			S125.3,226.6,127.4,226.6z M178.6,249.6h-51.2c-2.1,0-3.8-1.7-3.8-3.8c0-2.1,1.7-3.8,3.8-3.8h50
			C177.6,244.6,178,247.1,178.6,249.6z M127.4,257.3h53.7c1.1,2.6,2.4,5.1,4,7.5c0,0.1,0.1,0.1,0.1,0.2h-57.7
			c-2.1,0-3.8-1.7-3.8-3.8S125.3,257.3,127.4,257.3z M50.7,211.3h61.3c2.1,0,3.8,1.7,3.8,3.8c0,2.1-1.7,3.8-3.8,3.8H50.7
			c-2.1,0-3.8-1.7-3.8-3.8C46.9,213,48.6,211.3,50.7,211.3z M50.7,226.6h61.3c2.1,0,3.8,1.7,3.8,3.8s-1.7,3.8-3.8,3.8H50.7
			c-2.1,0-3.8-1.7-3.8-3.8S48.6,226.6,50.7,226.6z M50.7,242h61.3c2.1,0,3.8,1.7,3.8,3.8c0,2.1-1.7,3.8-3.8,3.8H50.7
			c-2.1,0-3.8-1.7-3.8-3.8C46.9,243.7,48.6,242,50.7,242z M50.7,257.3h61.3c2.1,0,3.8,1.7,3.8,3.8s-1.7,3.8-3.8,3.8H50.7
			c-2.1,0-3.8-1.7-3.8-3.8S48.6,257.3,50.7,257.3z M112.1,280.3H50.7c-2.1,0-3.8-1.7-3.8-3.8c0-2.1,1.7-3.8,3.8-3.8h61.3
			c2.1,0,3.8,1.7,3.8,3.8c0,0.1,0,0.2,0,0.4c-0.1,0.6-0.3,1.2-0.6,1.7C114.6,279.6,113.4,280.3,112.1,280.3z M188.7,280.3h-61.3
			c-2.1,0-3.8-1.7-3.8-3.8c0-2.1,1.7-3.8,3.8-3.8h61.3c2.1,0,3.8,1.7,3.8,3.8C192.5,278.6,190.8,280.3,188.7,280.3z M269.2,238.1
			c0,23.2-18.9,42.2-42.2,42.2c-14.4,0-27.1-7.2-34.7-18.3c-2.9-4.2-5-8.9-6.3-14c-0.8-3.2-1.2-6.5-1.2-9.9
			c0-23.2,18.9-42.2,42.2-42.2S269.2,214.9,269.2,238.1z M265.4,203.6h-2.5c-2.8-2.9-6-5.5-9.4-7.7h11.9c2.1,0,3.8,1.7,3.8,3.8
			C269.2,201.9,267.5,203.6,265.4,203.6z"/>
		<linearGradient id="SVGID_2_" gradientUnits="userSpaceOnUse" x1="39.2414" y1="137.5689" x2="123.1817" y2="137.5689">
			<stop  offset="0" style="stop-color:#328AB6"/>
			<stop  offset="1" style="stop-color:#0068D8"/>
		</linearGradient>
		<path class="st2" d="M80,190.9c1.9,3.1,5.4,5.1,9.1,5.1s7.2-2,9.1-5.1l25-40.9l-6.5-4l-25,40.9c-1.1,1.8-4,1.8-5.1,0l-33.6-54.9
			c-3.9-6.4-6-13.8-6-21.4c0-9.6,3.4-19,9.7-26.4l-5.9-4.9c-7.4,8.8-11.5,19.9-11.5,31.4c0,9,2.5,17.7,7.1,25.4L80,190.9z"/>
		<linearGradient id="SVGID_3_" gradientUnits="userSpaceOnUse" x1="56.5842" y1="109.7345" x2="276.8486" y2="109.7345">
			<stop  offset="0" style="stop-color:#328AB6"/>
			<stop  offset="1" style="stop-color:#0068D8"/>
		</linearGradient>
		<path style="fill:url(#SVGID_3_);" d="M87.9,69.5h2.3c22.6,0,41,18.4,41,41c0,7.6-2.1,15-6,21.4l-4.4,7.3l6.5,4l2.7-4.4l13.9,13.9
			c-0.7,1.5-1.2,3.2-1.2,4.9c0,6.3,5.2,11.5,11.5,11.5c6.3,0,11.5-5.2,11.5-11.5c0-3.1-1.2-5.9-3.2-8l13.3-26.7
			c0.5,0.1,0.9,0.1,1.4,0.1c6.3,0,11.5-5.2,11.5-11.5c0-1.4-0.3-2.7-0.8-4l24.8-17.3c1.9,1.3,4.2,2.2,6.7,2.2
			c6.3,0,11.5-5.2,11.5-11.5c0-0.2,0-0.4-0.1-0.6l26.1-10.9c2.1,2.3,5.1,3.8,8.5,3.8c6.3,0,11.5-5.2,11.5-11.5s-5.2-11.5-11.5-11.5
			s-11.5,5.2-11.5,11.5c0,0.2,0,0.4,0.1,0.6l-26.1,10.9c-2.1-2.3-5.1-3.8-8.5-3.8c-6.3,0-11.5,5.2-11.5,11.5c0,1.1,0.2,2.1,0.5,3
			L183,101.8c-1.7-1-3.7-1.6-5.8-1.6c-6.3,0-11.5,5.2-11.5,11.5c0,3.1,1.2,5.9,3.2,8l-13.3,26.7c-0.5-0.1-0.9-0.1-1.4-0.1
			c-1.8,0-3.4,0.4-4.9,1.2l-15.4-15.4c3.3-6.6,5-13.9,5-21.4c0-26.8-21.8-48.7-48.7-48.7h-2.3c-11.5,0-22.6,4.1-31.4,11.5l4.9,5.9
			C68.9,72.9,78.3,69.5,87.9,69.5L87.9,69.5z M265.3,58c2.1,0,3.8,1.7,3.8,3.8c0,2.1-1.7,3.8-3.8,3.8c-2.1,0-3.8-1.7-3.8-3.8
			C261.5,59.7,263.2,58,265.3,58z M219.4,77.2c2.1,0,3.8,1.7,3.8,3.8s-1.7,3.8-3.8,3.8c-2.1,0-3.8-1.7-3.8-3.8
			S217.3,77.2,219.4,77.2z M177.2,107.8c2.1,0,3.8,1.7,3.8,3.8s-1.7,3.8-3.8,3.8c-2.1,0-3.8-1.7-3.8-3.8S175.1,107.8,177.2,107.8z
			 M158,157.6c0,2.1-1.7,3.8-3.8,3.8c-2.1,0-3.8-1.7-3.8-3.8c0-2.1,1.7-3.8,3.8-3.8C156.3,153.8,158,155.5,158,157.6z"/>
		<linearGradient id="SVGID_4_" gradientUnits="userSpaceOnUse" x1="218.8445" y1="116.3222" x2="273.531" y2="116.3222">
			<stop  offset="0" style="stop-color:#328AB6"/>
			<stop  offset="1" style="stop-color:#0068D8"/>
		</linearGradient>
		<path style="fill:url(#SVGID_4_);" d="M250,150h7.7v-34.5h15.8l-27.3-32.8l-27.3,32.8h15.8V150h7.7v-42.2h-7.1l11-13.2l11,13.2
			H250V150z"/>
	</g>
	<linearGradient id="SVGID_5_" gradientUnits="userSpaceOnUse" x1="188.2378" y1="238.118" x2="265.8212" y2="238.118">
		<stop  offset="0" style="stop-color:#328AB6"/>
		<stop  offset="1" style="stop-color:#0068D8"/>
	</linearGradient>
	<circle style="fill:#FFFFFF;stroke:url(#SVGID_5_);stroke-width:9;stroke-miterlimit:10;" cx="227" cy="238.1" r="34.3"/>
	<linearGradient id="SVGID_6_" gradientUnits="userSpaceOnUse" x1="74.7525" y1="119.5724" x2="101.4745" y2="119.5724">
		<stop  offset="0" style="stop-color:#328AB6"/>
		<stop  offset="1" style="stop-color:#0068D8"/>
	</linearGradient>
	<path style="fill:url(#SVGID_6_);" d="M84.8,96.2v6.7h-10v10c0,5.5,4.5,10,10,10h6.7c1.8,0,3.3,1.5,3.3,3.3v3.3h-10
		c-1.8,0-3.3-1.5-3.3-3.3h-6.7c0,5.5,4.5,10,10,10v6.7h6.7v-6.7h10v-10c0-5.5-4.5-10-10-10h-6.7c-1.8,0-3.3-1.5-3.3-3.3v-3.3h10
		c1.8,0,3.3,1.5,3.3,3.3h6.7c0-5.5-4.5-10-10-10v-6.7H84.8z"/>
	<linearGradient id="SVGID_7_" gradientUnits="userSpaceOnUse" x1="216.0808" y1="238.1181" x2="237.9799" y2="238.1181">
		<stop  offset="0" style="stop-color:#328AB6"/>
		<stop  offset="1" style="stop-color:#0068D8"/>
	</linearGradient>
	<path class="st12" d="M224.3,219v5.5h-8.2v8.2c0,4.5,3.7,8.2,8.2,8.2h5.5c1.5,0,2.7,1.2,2.7,2.7v2.7h-8.2c-1.5,0-2.7-1.2-2.7-2.7
		h-5.5c0,4.5,3.7,8.2,8.2,8.2v5.5h5.5v-5.5h8.2v-8.2c0-4.5-3.7-8.2-8.2-8.2h-5.5c-1.5,0-2.7-1.2-2.7-2.7v-2.7h8.2
		c1.5,0,2.7,1.2,2.7,2.7h5.5c0-4.5-3.7-8.2-8.2-8.2V219H224.3z"/>
</g>
</svg>
