<?xml version="1.0" encoding="utf-8"?>
<!-- Generator: Adobe Illustrator 24.0.1, SVG Export Plug-In . SVG Version: 6.00 Build 0)  -->
<svg version="1.1" id="Layer_1" xmlns="http://www.w3.org/2000/svg" xmlns:xlink="http://www.w3.org/1999/xlink" x="0px" y="0px"
	 viewBox="0 0 320 320" style="enable-background:new 0 0 320 320;" xml:space="preserve">
<style type="text/css">
	.st0{opacity:5.000000e-02;fill:url(#SVGID_3_);enable-background:new    ;}
	.st1{opacity:0.7;}
	.st2{fill:#009FD8;}
	.st3{opacity:0.2;fill:#008CB2;enable-background:new    ;}
	.st4{fill:#E44235;}
	.st5{fill:#FFFFFF;}
	.st6{opacity:0.72;stroke:#FFFFFF;stroke-miterlimit:10;enable-background:new    ;}
	.st7{fill:none;stroke:url(#SVGID_4_);stroke-width:0.5;stroke-miterlimit:10;}
	.st8{fill:#0084A3;}
	.st9{fill:#0094BC;}
	.st10{fill-rule:evenodd;clip-rule:evenodd;fill:#FFFFFF;}
	.st11{opacity:0.8;}
	.st12{opacity:0.72;}
	.st13{fill:none;stroke:#FFFFFF;stroke-miterlimit:10;}
	.st14{fill:url(#SVGID_5_);}
	.st15{fill:url(#SVGID_6_);}
	.st16{fill:url(#SVGID_7_);}
	.st17{fill:url(#SVGID_8_);}
	.st18{fill:url(#SVGID_9_);}
	.st19{fill:url(#SVGID_10_);}
	.st20{fill:url(#SVGID_11_);}
	.st21{fill:url(#SVGID_12_);}
	.st22{fill:url(#SVGID_13_);}
	.st23{fill:url(#SVGID_14_);}
	.st24{fill:url(#SVGID_15_);}
	.st25{fill:url(#SVGID_16_);}
	.st26{fill:url(#SVGID_17_);}
	.st27{fill:url(#SVGID_18_);}
	.st28{opacity:0.1;fill:#0084A3;enable-background:new    ;}
	.st29{opacity:0.4;fill:#EAE9E8;enable-background:new    ;}
	.st30{fill:none;stroke:#999999;stroke-width:0.5;stroke-miterlimit:10;stroke-dasharray:1;}
	.st31{fill:url(#SVGID_19_);}
	.st32{fill:url(#SVGID_20_);}
	.st33{fill:url(#SVGID_21_);}
	.st34{fill:url(#SVGID_22_);}
	.st35{fill:url(#SVGID_23_);}
	.st36{fill:url(#SVGID_24_);}
	.st37{fill:url(#SVGID_25_);}
	.st38{fill:url(#SVGID_26_);}
	.st39{fill:url(#SVGID_27_);}
	.st40{fill:url(#SVGID_28_);}
	.st41{fill:url(#SVGID_29_);}
	.st42{fill:url(#SVGID_30_);}
	.st43{fill:url(#SVGID_31_);}
	.st44{fill:url(#SVGID_32_);}
	.st45{fill:url(#SVGID_33_);}
	.st46{fill:none;stroke:#009FD8;stroke-width:0.5;stroke-miterlimit:10;stroke-dasharray:1;}
	.st47{fill:url(#SVGID_34_);}
	.st48{opacity:0.72;enable-background:new    ;}
	.st49{fill:none;stroke:#009FD8;stroke-miterlimit:10;}
	.st50{fill:none;stroke:#0068D8;stroke-miterlimit:10;}
	.st51{fill:#F4F4F4;}
	.st52{fill-rule:evenodd;clip-rule:evenodd;fill:#009FD8;}
	.st53{opacity:0.4;fill-rule:evenodd;clip-rule:evenodd;fill:#EAE9E8;enable-background:new    ;}
	.st54{opacity:0.2;fill-rule:evenodd;clip-rule:evenodd;fill:url(#SVGID_35_);enable-background:new    ;}
	.st55{fill-rule:evenodd;clip-rule:evenodd;fill:url(#SVGID_36_);}
	.st56{fill-rule:evenodd;clip-rule:evenodd;fill:url(#SVGID_37_);}
	.st57{fill-rule:evenodd;clip-rule:evenodd;fill:url(#SVGID_38_);}
	.st58{fill-rule:evenodd;clip-rule:evenodd;fill:url(#SVGID_39_);}
	.st59{fill-rule:evenodd;clip-rule:evenodd;fill:url(#SVGID_40_);}
	.st60{fill-rule:evenodd;clip-rule:evenodd;fill:url(#SVGID_41_);}
	.st61{fill-rule:evenodd;clip-rule:evenodd;fill:url(#SVGID_42_);}
	.st62{fill-rule:evenodd;clip-rule:evenodd;fill:url(#SVGID_43_);}
	.st63{fill-rule:evenodd;clip-rule:evenodd;fill:url(#SVGID_44_);}
	.st64{fill-rule:evenodd;clip-rule:evenodd;fill:url(#SVGID_45_);}
	.st65{fill-rule:evenodd;clip-rule:evenodd;fill:url(#SVGID_46_);}
	.st66{fill-rule:evenodd;clip-rule:evenodd;fill:url(#SVGID_47_);}
	.st67{fill-rule:evenodd;clip-rule:evenodd;fill:url(#SVGID_48_);}
	.st68{fill-rule:evenodd;clip-rule:evenodd;fill:url(#SVGID_49_);}
	.st69{fill-rule:evenodd;clip-rule:evenodd;fill:url(#SVGID_50_);}
	.st70{fill-rule:evenodd;clip-rule:evenodd;fill:url(#SVGID_51_);}
	.st71{fill-rule:evenodd;clip-rule:evenodd;fill:url(#SVGID_52_);}
	.st72{fill-rule:evenodd;clip-rule:evenodd;fill:url(#SVGID_53_);}
	.st73{fill-rule:evenodd;clip-rule:evenodd;fill:url(#SVGID_54_);}
	.st74{fill-rule:evenodd;clip-rule:evenodd;fill:url(#SVGID_55_);}
	.st75{fill-rule:evenodd;clip-rule:evenodd;fill:url(#SVGID_56_);}
	.st76{fill-rule:evenodd;clip-rule:evenodd;fill:url(#SVGID_57_);}
	.st77{fill-rule:evenodd;clip-rule:evenodd;fill:url(#SVGID_58_);}
	.st78{fill-rule:evenodd;clip-rule:evenodd;fill:url(#SVGID_59_);}
	.st79{fill-rule:evenodd;clip-rule:evenodd;fill:url(#SVGID_60_);}
	.st80{fill-rule:evenodd;clip-rule:evenodd;fill:url(#SVGID_61_);}
	.st81{fill-rule:evenodd;clip-rule:evenodd;fill:url(#SVGID_62_);}
	.st82{fill-rule:evenodd;clip-rule:evenodd;fill:url(#SVGID_63_);}
	.st83{fill-rule:evenodd;clip-rule:evenodd;fill:url(#SVGID_64_);}
	.st84{fill-rule:evenodd;clip-rule:evenodd;fill:url(#SVGID_65_);}
	.st85{fill-rule:evenodd;clip-rule:evenodd;fill:url(#SVGID_66_);}
	.st86{fill-rule:evenodd;clip-rule:evenodd;fill:url(#SVGID_67_);}
	.st87{fill-rule:evenodd;clip-rule:evenodd;fill:url(#SVGID_68_);}
	.st88{fill-rule:evenodd;clip-rule:evenodd;fill:url(#SVGID_69_);}
	.st89{fill-rule:evenodd;clip-rule:evenodd;fill:url(#SVGID_70_);}
	.st90{fill-rule:evenodd;clip-rule:evenodd;fill:url(#SVGID_71_);}
	.st91{fill-rule:evenodd;clip-rule:evenodd;fill:url(#SVGID_72_);}
	.st92{fill-rule:evenodd;clip-rule:evenodd;fill:url(#SVGID_73_);}
	.st93{fill-rule:evenodd;clip-rule:evenodd;fill:url(#SVGID_74_);}
	.st94{fill-rule:evenodd;clip-rule:evenodd;fill:url(#SVGID_75_);}
	.st95{fill-rule:evenodd;clip-rule:evenodd;fill:url(#SVGID_76_);}
	.st96{fill-rule:evenodd;clip-rule:evenodd;fill:url(#SVGID_77_);}
	.st97{fill-rule:evenodd;clip-rule:evenodd;fill:url(#SVGID_78_);}
	.st98{fill-rule:evenodd;clip-rule:evenodd;fill:url(#SVGID_79_);}
	.st99{fill-rule:evenodd;clip-rule:evenodd;fill:url(#SVGID_80_);}
	.st100{fill-rule:evenodd;clip-rule:evenodd;fill:url(#SVGID_81_);}
	.st101{fill-rule:evenodd;clip-rule:evenodd;fill:url(#SVGID_82_);}
	.st102{fill-rule:evenodd;clip-rule:evenodd;fill:url(#SVGID_83_);}
	.st103{fill-rule:evenodd;clip-rule:evenodd;fill:url(#SVGID_84_);}
	.st104{fill-rule:evenodd;clip-rule:evenodd;fill:url(#SVGID_85_);}
	.st105{fill-rule:evenodd;clip-rule:evenodd;fill:url(#SVGID_86_);}
	.st106{fill-rule:evenodd;clip-rule:evenodd;fill:url(#SVGID_87_);}
	.st107{fill-rule:evenodd;clip-rule:evenodd;fill:url(#SVGID_88_);}
	.st108{fill-rule:evenodd;clip-rule:evenodd;fill:url(#SVGID_89_);}
	.st109{fill-rule:evenodd;clip-rule:evenodd;fill:url(#SVGID_90_);}
	.st110{fill-rule:evenodd;clip-rule:evenodd;fill:url(#SVGID_91_);}
	.st111{fill-rule:evenodd;clip-rule:evenodd;fill:url(#SVGID_92_);}
	.st112{fill-rule:evenodd;clip-rule:evenodd;fill:url(#SVGID_93_);}
	.st113{fill-rule:evenodd;clip-rule:evenodd;fill:url(#SVGID_94_);}
	.st114{fill-rule:evenodd;clip-rule:evenodd;fill:url(#SVGID_95_);}
	.st115{fill-rule:evenodd;clip-rule:evenodd;fill:url(#SVGID_96_);}
	.st116{fill-rule:evenodd;clip-rule:evenodd;fill:url(#SVGID_97_);}
	.st117{fill-rule:evenodd;clip-rule:evenodd;fill:url(#SVGID_98_);}
	.st118{fill-rule:evenodd;clip-rule:evenodd;fill:url(#SVGID_99_);}
	.st119{fill-rule:evenodd;clip-rule:evenodd;fill:url(#SVGID_100_);}
	.st120{fill-rule:evenodd;clip-rule:evenodd;fill:url(#SVGID_101_);}
	.st121{fill-rule:evenodd;clip-rule:evenodd;fill:url(#SVGID_102_);}
	.st122{fill-rule:evenodd;clip-rule:evenodd;fill:url(#SVGID_103_);}
	.st123{fill-rule:evenodd;clip-rule:evenodd;fill:url(#SVGID_104_);}
	.st124{fill-rule:evenodd;clip-rule:evenodd;fill:url(#SVGID_105_);}
	.st125{fill-rule:evenodd;clip-rule:evenodd;fill:url(#SVGID_106_);}
	.st126{fill-rule:evenodd;clip-rule:evenodd;fill:url(#SVGID_107_);}
	.st127{fill-rule:evenodd;clip-rule:evenodd;fill:url(#SVGID_108_);}
	.st128{fill-rule:evenodd;clip-rule:evenodd;fill:url(#SVGID_109_);}
	.st129{fill-rule:evenodd;clip-rule:evenodd;fill:url(#SVGID_110_);}
	.st130{fill-rule:evenodd;clip-rule:evenodd;fill:url(#SVGID_111_);}
	.st131{fill-rule:evenodd;clip-rule:evenodd;fill:url(#SVGID_112_);}
	.st132{fill-rule:evenodd;clip-rule:evenodd;fill:url(#SVGID_113_);}
	.st133{opacity:0.2;fill-rule:evenodd;clip-rule:evenodd;fill:url(#SVGID_114_);enable-background:new    ;}
	.st134{fill:#FFFFFF;stroke:url(#SVGID_115_);stroke-miterlimit:10;}
	.st135{fill:url(#SVGID_116_);}
	.st136{fill:url(#SVGID_117_);}
	.st137{fill:url(#SVGID_118_);}
	.st138{fill:url(#SVGID_119_);}
	.st139{fill:#FFFFFF;stroke:url(#SVGID_120_);stroke-miterlimit:10;}
	.st140{fill:url(#SVGID_121_);}
	.st141{fill:url(#SVGID_122_);}
	.st142{fill:url(#SVGID_123_);}
	.st143{fill:url(#SVGID_124_);}
	.st144{fill-rule:evenodd;clip-rule:evenodd;fill:url(#SVGID_125_);}
	.st145{fill-rule:evenodd;clip-rule:evenodd;fill:url(#SVGID_126_);}
	.st146{fill-rule:evenodd;clip-rule:evenodd;fill:url(#SVGID_127_);}
	.st147{fill-rule:evenodd;clip-rule:evenodd;fill:url(#SVGID_128_);}
	.st148{fill-rule:evenodd;clip-rule:evenodd;fill:url(#SVGID_129_);}
	.st149{fill-rule:evenodd;clip-rule:evenodd;fill:url(#SVGID_130_);}
	.st150{fill-rule:evenodd;clip-rule:evenodd;fill:url(#SVGID_131_);}
	.st151{fill-rule:evenodd;clip-rule:evenodd;fill:url(#SVGID_132_);}
	.st152{fill-rule:evenodd;clip-rule:evenodd;fill:url(#SVGID_133_);}
	.st153{fill-rule:evenodd;clip-rule:evenodd;fill:url(#SVGID_134_);}
	.st154{fill-rule:evenodd;clip-rule:evenodd;fill:url(#SVGID_135_);}
	.st155{fill-rule:evenodd;clip-rule:evenodd;fill:url(#SVGID_136_);}
	.st156{fill-rule:evenodd;clip-rule:evenodd;fill:url(#SVGID_137_);}
	.st157{fill-rule:evenodd;clip-rule:evenodd;fill:url(#SVGID_138_);}
	.st158{fill-rule:evenodd;clip-rule:evenodd;fill:url(#SVGID_139_);}
	.st159{fill-rule:evenodd;clip-rule:evenodd;fill:url(#SVGID_140_);}
	.st160{fill-rule:evenodd;clip-rule:evenodd;fill:url(#SVGID_141_);}
	.st161{fill-rule:evenodd;clip-rule:evenodd;fill:url(#SVGID_142_);}
	.st162{fill-rule:evenodd;clip-rule:evenodd;fill:url(#SVGID_143_);}
	.st163{fill-rule:evenodd;clip-rule:evenodd;fill:url(#SVGID_144_);}
	.st164{fill-rule:evenodd;clip-rule:evenodd;fill:url(#SVGID_145_);}
	.st165{fill-rule:evenodd;clip-rule:evenodd;fill:url(#SVGID_146_);}
	.st166{fill-rule:evenodd;clip-rule:evenodd;fill:url(#SVGID_147_);}
	.st167{fill-rule:evenodd;clip-rule:evenodd;fill:url(#SVGID_148_);}
	.st168{fill-rule:evenodd;clip-rule:evenodd;fill:url(#SVGID_149_);}
	.st169{fill-rule:evenodd;clip-rule:evenodd;fill:url(#SVGID_150_);}
	.st170{fill-rule:evenodd;clip-rule:evenodd;fill:url(#SVGID_151_);}
	.st171{fill-rule:evenodd;clip-rule:evenodd;fill:url(#SVGID_152_);}
	.st172{fill-rule:evenodd;clip-rule:evenodd;fill:url(#SVGID_153_);}
	.st173{fill-rule:evenodd;clip-rule:evenodd;fill:url(#SVGID_154_);}
	.st174{fill-rule:evenodd;clip-rule:evenodd;fill:url(#SVGID_155_);}
	.st175{fill-rule:evenodd;clip-rule:evenodd;fill:url(#SVGID_156_);}
	.st176{fill-rule:evenodd;clip-rule:evenodd;fill:url(#SVGID_157_);}
	.st177{fill-rule:evenodd;clip-rule:evenodd;fill:url(#SVGID_158_);}
	.st178{fill-rule:evenodd;clip-rule:evenodd;fill:url(#SVGID_159_);}
	.st179{fill-rule:evenodd;clip-rule:evenodd;fill:url(#SVGID_160_);}
	.st180{fill-rule:evenodd;clip-rule:evenodd;fill:url(#SVGID_161_);}
	.st181{fill-rule:evenodd;clip-rule:evenodd;fill:url(#SVGID_162_);}
	.st182{fill-rule:evenodd;clip-rule:evenodd;fill:url(#SVGID_163_);}
	.st183{fill-rule:evenodd;clip-rule:evenodd;fill:url(#SVGID_164_);}
	.st184{fill-rule:evenodd;clip-rule:evenodd;fill:url(#SVGID_165_);}
	.st185{fill-rule:evenodd;clip-rule:evenodd;fill:url(#SVGID_166_);}
	.st186{fill-rule:evenodd;clip-rule:evenodd;fill:url(#SVGID_167_);}
	.st187{fill-rule:evenodd;clip-rule:evenodd;fill:url(#SVGID_168_);}
	.st188{fill-rule:evenodd;clip-rule:evenodd;fill:url(#SVGID_169_);}
	.st189{fill-rule:evenodd;clip-rule:evenodd;fill:url(#SVGID_170_);}
	.st190{fill-rule:evenodd;clip-rule:evenodd;fill:url(#SVGID_171_);}
	.st191{fill-rule:evenodd;clip-rule:evenodd;fill:url(#SVGID_172_);}
	.st192{fill-rule:evenodd;clip-rule:evenodd;fill:url(#SVGID_173_);}
	.st193{fill-rule:evenodd;clip-rule:evenodd;fill:url(#SVGID_174_);}
	.st194{opacity:0.1;fill:url(#SVGID_175_);enable-background:new    ;}
	.st195{fill:url(#SVGID_176_);}
	.st196{fill:url(#SVGID_177_);}
	.st197{opacity:0.3;}
	.st198{fill:url(#SVGID_178_);}
	.st199{fill:url(#SVGID_179_);}
	.st200{opacity:0.3;fill:#009FD8;enable-background:new    ;}
	.st201{fill:url(#SVGID_180_);}
	.st202{fill:#ECECEC;}
	.st203{fill:#007CFF;}
	.st204{fill:#1A2E35;}
	.st205{opacity:0.2;fill:#007CFF;enable-background:new    ;}
	.st206{opacity:0.5;fill:#FFFFFF;enable-background:new    ;}
	.st207{opacity:0.4;fill:#007CFF;enable-background:new    ;}
	.st208{opacity:0.8;fill:#FFFFFF;enable-background:new    ;}
	.st209{opacity:0.5;fill:#007CFF;enable-background:new    ;}
	.st210{fill:url(#SVGID_181_);}
	.st211{fill:url(#SVGID_182_);}
	.st212{opacity:0.3;fill:#007CFF;enable-background:new    ;}
	.st213{opacity:0.8;fill-rule:evenodd;clip-rule:evenodd;fill:#FFFFFF;enable-background:new    ;}
	.st214{opacity:5.000000e-02;fill:url(#SVGID_183_);enable-background:new    ;}
	.st215{fill:url(#SVGID_184_);}
	.st216{fill:url(#SVGID_185_);}
	.st217{fill:#E7E7E7;}
	.st218{fill:#E1E1E1;}
	.st219{opacity:0.5;fill:#FAFAFA;enable-background:new    ;}
	.st220{opacity:0.6;fill:#FFFFFF;enable-background:new    ;}
	.st221{fill:#F0F0F0;}
	.st222{fill:#121F23;}
	.st223{opacity:0.1;enable-background:new    ;}
	.st224{fill:none;stroke:#007CFF;stroke-linecap:round;stroke-linejoin:round;stroke-miterlimit:10;}
	.st225{fill:none;stroke:#007CFF;stroke-miterlimit:10;}
	.st226{opacity:0.4;fill:#FFFFFF;enable-background:new    ;}
	.st227{opacity:0.3;fill:#FFFFFF;enable-background:new    ;}
	.st228{opacity:0.2;fill:#FFFFFF;enable-background:new    ;}
	.st229{opacity:0.6;fill:#1A2E35;enable-background:new    ;}
</style>
<g>
	<g>
		<path class="st2" d="M275.9,167.5c1.8-2,3-4.7,3-7.7c0-6.3-5.2-11.5-11.5-11.5H206c-6.3,0-11.5,5.2-11.5,11.5c0,3,1.2,5.6,3,7.7
			c-1.8,2-3,4.7-3,7.7c0,1.8,0.5,3.5,1.2,5.1c-1.5-0.8-3.2-1.2-5.1-1.2h-61.3c-6.3,0-11.5,5.2-11.5,11.5c0,1.8,0.5,3.5,1.2,5.1
			c-1.5-0.8-3.2-1.2-5.1-1.2H52.6c-6.3,0-11.5,5.2-11.5,11.5c0,3,1.2,5.6,3,7.7c-1.8,2-3,4.7-3,7.7s1.2,5.6,3,7.7
			c-1.8,2-3,4.7-3,7.7s1.2,5.6,3,7.7c-1.8,2-3,4.7-3,7.7s1.2,5.6,3,7.7c-1.8,2-3,4.7-3,7.7c0,6.3,5.2,11.5,11.5,11.5h61.3
			c2.2,0,4.3-0.6,6-1.7c0.6-0.4,1.1-0.8,1.7-1.2c1.4,1.2,3,2.2,4.9,2.6c0.9,0.2,1.8,0.4,2.8,0.4h61.3c5.2,0,9.5-3.5,11-8.2
			c7.9,5.2,17.3,8.2,27.4,8.2c27.5,0,49.8-22.4,49.8-49.8c0-10.1-3-19.5-8.2-27.4c4.7-1.4,8.2-5.8,8.2-11c0-3-1.2-5.6-3-7.7
			c1.8-2,3-4.7,3-7.7C278.8,172.1,277.7,169.5,275.9,167.5z M206,156h61.3c2.1,0,3.8,1.7,3.8,3.8s-1.7,3.8-3.8,3.8H206
			c-2.1,0-3.8-1.7-3.8-3.8S203.9,156,206,156z M206,171.3h61.3c2.1,0,3.8,1.7,3.8,3.8s-1.7,3.8-3.8,3.8H206c-2.1,0-3.8-1.7-3.8-3.8
			S203.9,171.3,206,171.3z M203.2,186.1c-0.5,0.3-1.1,0.6-1.6,1c-0.2-0.6-0.4-1.2-0.7-1.8C201.7,185.6,202.4,186,203.2,186.1z
			 M129.4,186.5h61.3c2.1,0,3.8,1.7,3.8,3.8s-1.7,3.8-3.8,3.8h-61.3c-2.1,0-3.8-1.7-3.8-3.8S127.3,186.5,129.4,186.5z M129.4,201.8
			h57.7c-1.6,2.4-2.9,5-4.1,7.7h-53.7c-2.1,0-3.8-1.7-3.8-3.8S127.3,201.8,129.4,201.8z M129.4,217.3h51.2c-0.6,2.5-1,5-1.2,7.7h-50
			c-2.1,0-3.8-1.7-3.8-3.8C125.6,219,127.3,217.3,129.4,217.3z M180.6,240.3h-51.2c-2.1,0-3.8-1.7-3.8-3.8s1.7-3.8,3.8-3.8h50
			C179.6,235.1,180,237.8,180.6,240.3z M129.4,247.8h53.7c1.1,2.6,2.4,5.1,4,7.5c0,0.1,0.1,0.1,0.1,0.2h-57.7
			c-2.1,0-3.8-1.7-3.8-3.8S127.3,247.8,129.4,247.8z M52.7,201.8H114c2.1,0,3.8,1.7,3.8,3.8s-1.7,3.8-3.8,3.8H52.7
			c-2.1,0-3.8-1.7-3.8-3.8S50.6,201.8,52.7,201.8z M52.7,217.3H114c2.1,0,3.8,1.7,3.8,3.8s-1.7,3.8-3.8,3.8H52.7
			c-2.1,0-3.8-1.7-3.8-3.8S50.6,217.3,52.7,217.3z M52.7,232.5H114c2.1,0,3.8,1.7,3.8,3.8s-1.7,3.8-3.8,3.8H52.7
			c-2.1,0-3.8-1.7-3.8-3.8S50.6,232.5,52.7,232.5z M52.7,247.8H114c2.1,0,3.8,1.7,3.8,3.8s-1.7,3.8-3.8,3.8H52.7
			c-2.1,0-3.8-1.7-3.8-3.8S50.6,247.8,52.7,247.8z M114.1,270.8H52.8c-2.1,0-3.8-1.7-3.8-3.8s1.7-3.8,3.8-3.8h61.3
			c2.1,0,3.8,1.7,3.8,3.8c0,0.1,0,0.2,0,0.4c-0.1,0.6-0.3,1.2-0.6,1.7C116.6,270.1,115.4,270.8,114.1,270.8z M190.7,270.8h-61.3
			c-2.1,0-3.8-1.7-3.8-3.8s1.7-3.8,3.8-3.8h61.3c2.1,0,3.8,1.7,3.8,3.8S192.8,270.8,190.7,270.8z M271.2,228.8
			c0,23.2-18.9,42.2-42.2,42.2c-14.4,0-27.1-7.2-34.7-18.3c-2.9-4.2-5-8.9-6.3-14c-0.8-3.2-1.2-6.5-1.2-9.9
			c0-23.2,18.9-42.2,42.2-42.2C252.3,186.5,271.2,205.5,271.2,228.8z M267.4,194.3h-2.5c-2.8-2.9-6-5.5-9.4-7.7h11.9
			c2.1,0,3.8,1.7,3.8,3.8S269.5,194.3,267.4,194.3z"/>
		<path class="st2" d="M82,181.5c1.9,3.1,5.4,5.1,9.1,5.1s7.2-2,9.1-5.1l25-40.9l-6.5-4l-25,40.9c-1.1,1.8-4,1.8-5.1,0L55,122.5
			c-3.9-6.4-6-13.8-6-21.4c0-9.6,3.4-19,9.7-26.4l-5.9-4.9c-7.4,8.8-11.5,19.9-11.5,31.4c0,9,2.5,17.7,7.1,25.4L82,181.5z"/>
		<path class="st2" d="M89.9,60.1h2.3c22.6,0,41,18.4,41,41c0,7.6-2.1,15-6,21.4l-4.4,7.3l6.5,4l2.7-4.4l13.9,13.9
			c-0.7,1.5-1.2,3.2-1.2,4.9c0,6.3,5.2,11.5,11.5,11.5s11.5-5.2,11.5-11.5c0-3.1-1.2-5.9-3.2-8l13.3-26.7c0.5,0.1,0.9,0.1,1.4,0.1
			c6.3,0,11.5-5.2,11.5-11.5c0-1.4-0.3-2.7-0.8-4l24.8-17.3c1.9,1.3,4.2,2.2,6.7,2.2c6.3,0,11.5-5.2,11.5-11.5c0-0.2,0-0.4-0.1-0.6
			L258.9,60c2.1,2.3,5.1,3.8,8.5,3.8c6.3,0,11.5-5.2,11.5-11.5s-5.2-11.5-11.5-11.5s-11.5,5.2-11.5,11.5c0,0.2,0,0.4,0.1,0.6
			l-26.1,10.9c-2.1-2.3-5.1-3.8-8.5-3.8c-6.3,0-11.5,5.2-11.5,11.5c0,1.1,0.2,2.1,0.5,3L185,92.3c-1.7-1-3.7-1.6-5.8-1.6
			c-6.3,0-11.5,5.2-11.5,11.5c0,3.1,1.2,5.9,3.2,8L157.6,137c-0.5-0.1-0.9-0.1-1.4-0.1c-1.8,0-3.4,0.4-4.9,1.2l-15.4-15.4
			c3.3-6.6,5-13.9,5-21.4c0-26.8-21.8-48.7-48.7-48.7h-2.3c-11.5,0-22.6,4.1-31.4,11.5l4.9,5.9C70.9,63.5,80.3,60,89.9,60.1
			L89.9,60.1z M267.3,48.6c2.1,0,3.8,1.7,3.8,3.8s-1.7,3.8-3.8,3.8s-3.8-1.7-3.8-3.8S265.2,48.6,267.3,48.6z M221.4,67.8
			c2.1,0,3.8,1.7,3.8,3.8s-1.7,3.8-3.8,3.8s-3.8-1.7-3.8-3.8S219.3,67.8,221.4,67.8z M179.2,98.5c2.1,0,3.8,1.7,3.8,3.8
			s-1.7,3.8-3.8,3.8s-3.8-1.7-3.8-3.8S177.1,98.5,179.2,98.5z M160,148.3c0,2.1-1.7,3.8-3.8,3.8s-3.8-1.7-3.8-3.8s1.7-3.8,3.8-3.8
			S160,146.1,160,148.3z"/>
		<path class="st2" d="M252,140.5h7.7V106h15.8l-27.3-32.8L220.9,106h15.8v34.5h7.7V98.3h-7.1l11-13.2l11,13.2h-7.1v42.2H252z"/>
	</g>
	
		<ellipse transform="matrix(0.1602 -0.9871 0.9871 0.1602 -33.478 418.1513)" class="st49" cx="229" cy="228.8" rx="34.3" ry="34.3"/>
	<path class="st2" d="M86.8,86.8v6.7h-10v10c0,5.5,4.5,10,10,10h6.7c1.8,0,3.3,1.5,3.3,3.3v3.3h-10c-1.8,0-3.3-1.5-3.3-3.3h-6.7
		c0,5.5,4.5,10,10,10v6.7h6.7v-6.7h10v-10c0-5.5-4.5-10-10-10h-6.7c-1.8,0-3.3-1.5-3.3-3.3v-3.3h10c1.8,0,3.3,1.5,3.3,3.3h6.7
		c0-5.5-4.5-10-10-10v-6.7H86.8z"/>
	<path class="st2" d="M226.3,209.5v5.5h-8.2v8.2c0,4.5,3.7,8.2,8.2,8.2h5.5c1.5,0,2.7,1.2,2.7,2.7v2.7h-8.2c-1.5,0-2.7-1.2-2.7-2.7
		h-5.5c0,4.5,3.7,8.2,8.2,8.2v5.5h5.5v-5.5h8.2v-8.2c0-4.5-3.7-8.2-8.2-8.2h-5.5c-1.5,0-2.7-1.2-2.7-2.7v-2.7h8.2
		c1.5,0,2.7,1.2,2.7,2.7h5.5c0-4.5-3.7-8.2-8.2-8.2v-5.5H226.3z"/>
</g>
</svg>
