<?xml version="1.0" encoding="utf-8"?>
<!-- Generator: Adobe Illustrator 24.0.1, SVG Export Plug-In . SVG Version: 6.00 Build 0)  -->
<svg version="1.1" id="Layer_1" xmlns="http://www.w3.org/2000/svg" xmlns:xlink="http://www.w3.org/1999/xlink" x="0px" y="0px"
	 viewBox="0 0 320 320" style="enable-background:new 0 0 320 320;" xml:space="preserve">
<style type="text/css">
	.st0{opacity:5.000000e-02;fill:url(#SVGID_1_);}
	.st1{opacity:0.8;}
	.st2{fill:url(#SVGID_2_);}
	.st3{opacity:0.8;fill:url(#SVGID_3_);}
	.st4{opacity:0.8;fill:url(#SVGID_4_);}
	.st5{opacity:0.2;fill:url(#SVGID_5_);}
	.st6{fill:#0000FF;}
	.st7{fill:#E44235;}
	.st8{fill:#FFFFFF;}
	.st9{opacity:0.7;}
	.st10{opacity:0.72;stroke:#FFFFFF;stroke-miterlimit:10;}
	.st11{fill:none;stroke:url(#SVGID_6_);stroke-width:0.5;stroke-miterlimit:10;}
	.st12{fill:url(#SVGID_7_);}
	.st13{fill:url(#SVGID_8_);}
	.st14{fill:url(#SVGID_9_);}
	.st15{fill:url(#SVGID_10_);}
	.st16{fill:url(#SVGID_11_);}
	.st17{fill:url(#SVGID_12_);}
	.st18{opacity:0.5;fill:url(#SVGID_13_);}
	.st19{opacity:0.15;}
	.st20{fill:url(#SVGID_14_);}
	.st21{fill:#009FD8;}
	.st22{fill-rule:evenodd;clip-rule:evenodd;fill:#FFFFFF;}
	.st23{opacity:0.72;}
	.st24{fill:none;stroke:#FFFFFF;stroke-miterlimit:10;}
	.st25{fill:url(#SVGID_15_);}
	.st26{fill:url(#SVGID_16_);}
	.st27{fill:url(#SVGID_17_);}
	.st28{fill:url(#SVGID_18_);}
	.st29{fill:url(#SVGID_19_);}
	.st30{fill:url(#SVGID_20_);}
	.st31{fill:url(#SVGID_21_);}
	.st32{fill:url(#SVGID_22_);}
	.st33{fill:url(#SVGID_23_);}
	.st34{fill:url(#SVGID_24_);}
	.st35{fill:url(#SVGID_25_);}
	.st36{fill:url(#SVGID_26_);}
	.st37{fill:url(#SVGID_27_);}
	.st38{fill:url(#SVGID_28_);}
	.st39{fill:url(#SVGID_29_);}
	.st40{fill:url(#SVGID_30_);}
	.st41{fill:url(#SVGID_31_);}
	.st42{fill:url(#SVGID_32_);}
	.st43{opacity:0.22;fill:url(#SVGID_33_);}
	.st44{opacity:0.4;fill:#EAE9E8;}
	.st45{fill:url(#SVGID_34_);}
	.st46{fill:url(#SVGID_35_);}
	.st47{fill:url(#SVGID_36_);}
	.st48{fill:url(#SVGID_37_);}
	.st49{fill:url(#SVGID_38_);}
	.st50{fill:url(#SVGID_39_);}
	.st51{fill:url(#SVGID_40_);}
	.st52{fill:url(#SVGID_41_);}
	.st53{fill:url(#SVGID_42_);}
	.st54{fill:none;stroke:#999999;stroke-width:0.5;stroke-miterlimit:10;stroke-dasharray:1;}
	.st55{fill:url(#SVGID_43_);}
	.st56{fill:url(#SVGID_44_);}
	.st57{fill:url(#SVGID_45_);}
	.st58{fill:url(#SVGID_46_);}
	.st59{fill:url(#SVGID_47_);}
	.st60{fill:url(#SVGID_48_);}
	.st61{fill:url(#SVGID_49_);}
	.st62{fill:url(#SVGID_50_);}
	.st63{fill:url(#SVGID_51_);}
	.st64{fill:url(#SVGID_52_);}
	.st65{fill:url(#SVGID_53_);}
	.st66{fill:url(#SVGID_54_);}
	.st67{fill:url(#SVGID_55_);}
	.st68{fill:url(#SVGID_56_);}
	.st69{fill:url(#SVGID_57_);}
	.st70{fill:none;stroke:url(#SVGID_58_);stroke-width:0.5;stroke-miterlimit:10;stroke-dasharray:1;}
	.st71{fill:none;stroke:url(#SVGID_59_);stroke-width:0.5;stroke-miterlimit:10;stroke-dasharray:1;}
	.st72{fill:none;stroke:url(#SVGID_60_);stroke-width:0.5;stroke-miterlimit:10;stroke-dasharray:1;}
	.st73{fill:none;stroke:url(#SVGID_61_);stroke-width:0.5;stroke-miterlimit:10;stroke-dasharray:1;}
	.st74{fill:none;stroke:url(#SVGID_62_);stroke-width:0.5;stroke-miterlimit:10;stroke-dasharray:1;}
	.st75{fill:url(#SVGID_63_);}
	.st76{fill:url(#SVGID_64_);}
	.st77{fill:url(#SVGID_65_);}
	.st78{fill:url(#SVGID_66_);}
	.st79{fill:url(#SVGID_67_);}
	.st80{fill:url(#SVGID_68_);}
	.st81{fill:url(#SVGID_69_);}
	.st82{fill:url(#SVGID_70_);}
	.st83{fill:url(#SVGID_71_);}
	.st84{fill:url(#SVGID_72_);}
	.st85{fill:url(#SVGID_73_);}
	.st86{fill:none;stroke:url(#SVGID_74_);stroke-miterlimit:10;}
	.st87{fill:none;stroke:#0068D8;stroke-miterlimit:10;}
	.st88{fill:#F4F4F4;}
	.st89{fill-rule:evenodd;clip-rule:evenodd;fill:#009FD8;}
	.st90{opacity:0.4;fill-rule:evenodd;clip-rule:evenodd;fill:#EAE9E8;}
	.st91{fill-rule:evenodd;clip-rule:evenodd;fill:url(#SVGID_75_);}
	.st92{fill-rule:evenodd;clip-rule:evenodd;fill:url(#SVGID_76_);}
	.st93{fill-rule:evenodd;clip-rule:evenodd;fill:url(#SVGID_77_);}
	.st94{fill-rule:evenodd;clip-rule:evenodd;fill:url(#SVGID_78_);}
	.st95{fill-rule:evenodd;clip-rule:evenodd;fill:url(#SVGID_79_);}
	.st96{fill-rule:evenodd;clip-rule:evenodd;fill:url(#SVGID_80_);}
	.st97{fill-rule:evenodd;clip-rule:evenodd;fill:url(#SVGID_81_);}
	.st98{fill-rule:evenodd;clip-rule:evenodd;fill:url(#SVGID_82_);}
	.st99{fill-rule:evenodd;clip-rule:evenodd;fill:url(#SVGID_83_);}
	.st100{fill-rule:evenodd;clip-rule:evenodd;fill:url(#SVGID_84_);}
	.st101{fill-rule:evenodd;clip-rule:evenodd;fill:url(#SVGID_85_);}
	.st102{fill-rule:evenodd;clip-rule:evenodd;fill:url(#SVGID_86_);}
	.st103{fill-rule:evenodd;clip-rule:evenodd;fill:url(#SVGID_87_);}
	.st104{fill-rule:evenodd;clip-rule:evenodd;fill:url(#SVGID_88_);}
	.st105{fill-rule:evenodd;clip-rule:evenodd;fill:url(#SVGID_89_);}
	.st106{fill-rule:evenodd;clip-rule:evenodd;fill:url(#SVGID_90_);}
	.st107{fill-rule:evenodd;clip-rule:evenodd;fill:url(#SVGID_91_);}
	.st108{fill-rule:evenodd;clip-rule:evenodd;fill:url(#SVGID_92_);}
	.st109{fill-rule:evenodd;clip-rule:evenodd;fill:url(#SVGID_93_);}
	.st110{fill-rule:evenodd;clip-rule:evenodd;fill:url(#SVGID_94_);}
	.st111{fill-rule:evenodd;clip-rule:evenodd;fill:url(#SVGID_95_);}
	.st112{fill-rule:evenodd;clip-rule:evenodd;fill:url(#SVGID_96_);}
	.st113{fill-rule:evenodd;clip-rule:evenodd;fill:url(#SVGID_97_);}
	.st114{fill-rule:evenodd;clip-rule:evenodd;fill:url(#SVGID_98_);}
	.st115{fill-rule:evenodd;clip-rule:evenodd;fill:url(#SVGID_99_);}
	.st116{fill-rule:evenodd;clip-rule:evenodd;fill:url(#SVGID_100_);}
	.st117{fill-rule:evenodd;clip-rule:evenodd;fill:url(#SVGID_101_);}
	.st118{fill-rule:evenodd;clip-rule:evenodd;fill:url(#SVGID_102_);}
	.st119{fill-rule:evenodd;clip-rule:evenodd;fill:url(#SVGID_103_);}
	.st120{fill-rule:evenodd;clip-rule:evenodd;fill:url(#SVGID_104_);}
	.st121{fill-rule:evenodd;clip-rule:evenodd;fill:url(#SVGID_105_);}
	.st122{fill-rule:evenodd;clip-rule:evenodd;fill:url(#SVGID_106_);}
	.st123{fill-rule:evenodd;clip-rule:evenodd;fill:url(#SVGID_107_);}
	.st124{fill-rule:evenodd;clip-rule:evenodd;fill:url(#SVGID_108_);}
	.st125{fill-rule:evenodd;clip-rule:evenodd;fill:url(#SVGID_109_);}
	.st126{fill-rule:evenodd;clip-rule:evenodd;fill:url(#SVGID_110_);}
	.st127{fill-rule:evenodd;clip-rule:evenodd;fill:url(#SVGID_111_);}
	.st128{fill-rule:evenodd;clip-rule:evenodd;fill:url(#SVGID_112_);}
	.st129{fill-rule:evenodd;clip-rule:evenodd;fill:url(#SVGID_113_);}
	.st130{fill-rule:evenodd;clip-rule:evenodd;fill:url(#SVGID_114_);}
	.st131{fill-rule:evenodd;clip-rule:evenodd;fill:url(#SVGID_115_);}
	.st132{fill-rule:evenodd;clip-rule:evenodd;fill:url(#SVGID_116_);}
	.st133{fill-rule:evenodd;clip-rule:evenodd;fill:url(#SVGID_117_);}
	.st134{fill-rule:evenodd;clip-rule:evenodd;fill:url(#SVGID_118_);}
	.st135{fill-rule:evenodd;clip-rule:evenodd;fill:url(#SVGID_119_);}
	.st136{fill-rule:evenodd;clip-rule:evenodd;fill:url(#SVGID_120_);}
	.st137{fill-rule:evenodd;clip-rule:evenodd;fill:url(#SVGID_121_);}
	.st138{fill-rule:evenodd;clip-rule:evenodd;fill:url(#SVGID_122_);}
	.st139{fill-rule:evenodd;clip-rule:evenodd;fill:url(#SVGID_123_);}
	.st140{fill-rule:evenodd;clip-rule:evenodd;fill:url(#SVGID_124_);}
	.st141{opacity:0.2;fill-rule:evenodd;clip-rule:evenodd;fill:url(#SVGID_125_);}
	.st142{fill-rule:evenodd;clip-rule:evenodd;fill:url(#SVGID_126_);}
	.st143{fill-rule:evenodd;clip-rule:evenodd;fill:url(#SVGID_127_);}
	.st144{fill-rule:evenodd;clip-rule:evenodd;fill:url(#SVGID_128_);}
	.st145{fill-rule:evenodd;clip-rule:evenodd;fill:url(#SVGID_129_);}
	.st146{fill-rule:evenodd;clip-rule:evenodd;fill:url(#SVGID_130_);}
	.st147{fill-rule:evenodd;clip-rule:evenodd;fill:url(#SVGID_131_);}
	.st148{fill-rule:evenodd;clip-rule:evenodd;fill:url(#SVGID_132_);}
	.st149{fill-rule:evenodd;clip-rule:evenodd;fill:url(#SVGID_133_);}
	.st150{fill-rule:evenodd;clip-rule:evenodd;fill:url(#SVGID_134_);}
	.st151{fill-rule:evenodd;clip-rule:evenodd;fill:url(#SVGID_135_);}
	.st152{fill-rule:evenodd;clip-rule:evenodd;fill:url(#SVGID_136_);}
	.st153{fill-rule:evenodd;clip-rule:evenodd;fill:url(#SVGID_137_);}
	.st154{fill-rule:evenodd;clip-rule:evenodd;fill:url(#SVGID_138_);}
	.st155{fill-rule:evenodd;clip-rule:evenodd;fill:url(#SVGID_139_);}
	.st156{fill-rule:evenodd;clip-rule:evenodd;fill:url(#SVGID_140_);}
	.st157{fill-rule:evenodd;clip-rule:evenodd;fill:url(#SVGID_141_);}
	.st158{fill-rule:evenodd;clip-rule:evenodd;fill:url(#SVGID_142_);}
	.st159{fill-rule:evenodd;clip-rule:evenodd;fill:url(#SVGID_143_);}
	.st160{fill-rule:evenodd;clip-rule:evenodd;fill:url(#SVGID_144_);}
	.st161{fill-rule:evenodd;clip-rule:evenodd;fill:url(#SVGID_145_);}
	.st162{fill-rule:evenodd;clip-rule:evenodd;fill:url(#SVGID_146_);}
	.st163{fill-rule:evenodd;clip-rule:evenodd;fill:url(#SVGID_147_);}
	.st164{fill-rule:evenodd;clip-rule:evenodd;fill:url(#SVGID_148_);}
	.st165{fill-rule:evenodd;clip-rule:evenodd;fill:url(#SVGID_149_);}
	.st166{fill-rule:evenodd;clip-rule:evenodd;fill:url(#SVGID_150_);}
	.st167{fill-rule:evenodd;clip-rule:evenodd;fill:url(#SVGID_151_);}
	.st168{fill-rule:evenodd;clip-rule:evenodd;fill:url(#SVGID_152_);}
	.st169{fill-rule:evenodd;clip-rule:evenodd;fill:url(#SVGID_153_);}
	.st170{fill-rule:evenodd;clip-rule:evenodd;fill:url(#SVGID_154_);}
	.st171{fill-rule:evenodd;clip-rule:evenodd;fill:url(#SVGID_155_);}
	.st172{fill-rule:evenodd;clip-rule:evenodd;fill:url(#SVGID_156_);}
	.st173{fill-rule:evenodd;clip-rule:evenodd;fill:url(#SVGID_157_);}
	.st174{fill-rule:evenodd;clip-rule:evenodd;fill:url(#SVGID_158_);}
	.st175{fill-rule:evenodd;clip-rule:evenodd;fill:url(#SVGID_159_);}
	.st176{fill-rule:evenodd;clip-rule:evenodd;fill:url(#SVGID_160_);}
	.st177{fill-rule:evenodd;clip-rule:evenodd;fill:url(#SVGID_161_);}
	.st178{fill-rule:evenodd;clip-rule:evenodd;fill:url(#SVGID_162_);}
	.st179{fill-rule:evenodd;clip-rule:evenodd;fill:url(#SVGID_163_);}
	.st180{fill-rule:evenodd;clip-rule:evenodd;fill:url(#SVGID_164_);}
	.st181{fill-rule:evenodd;clip-rule:evenodd;fill:url(#SVGID_165_);}
	.st182{fill-rule:evenodd;clip-rule:evenodd;fill:url(#SVGID_166_);}
	.st183{fill-rule:evenodd;clip-rule:evenodd;fill:url(#SVGID_167_);}
	.st184{fill-rule:evenodd;clip-rule:evenodd;fill:url(#SVGID_168_);}
	.st185{fill-rule:evenodd;clip-rule:evenodd;fill:url(#SVGID_169_);}
	.st186{fill-rule:evenodd;clip-rule:evenodd;fill:url(#SVGID_170_);}
	.st187{fill-rule:evenodd;clip-rule:evenodd;fill:url(#SVGID_171_);}
	.st188{fill-rule:evenodd;clip-rule:evenodd;fill:url(#SVGID_172_);}
	.st189{fill-rule:evenodd;clip-rule:evenodd;fill:url(#SVGID_173_);}
	.st190{fill-rule:evenodd;clip-rule:evenodd;fill:url(#SVGID_174_);}
	.st191{fill-rule:evenodd;clip-rule:evenodd;fill:url(#SVGID_175_);}
	.st192{fill-rule:evenodd;clip-rule:evenodd;fill:url(#SVGID_176_);}
	.st193{fill-rule:evenodd;clip-rule:evenodd;fill:url(#SVGID_177_);}
	.st194{fill-rule:evenodd;clip-rule:evenodd;fill:url(#SVGID_178_);}
	.st195{fill-rule:evenodd;clip-rule:evenodd;fill:url(#SVGID_179_);}
	.st196{fill-rule:evenodd;clip-rule:evenodd;fill:url(#SVGID_180_);}
	.st197{fill-rule:evenodd;clip-rule:evenodd;fill:url(#SVGID_181_);}
	.st198{fill-rule:evenodd;clip-rule:evenodd;fill:url(#SVGID_182_);}
	.st199{fill-rule:evenodd;clip-rule:evenodd;fill:url(#SVGID_183_);}
	.st200{fill-rule:evenodd;clip-rule:evenodd;fill:url(#SVGID_184_);}
	.st201{fill-rule:evenodd;clip-rule:evenodd;fill:url(#SVGID_185_);}
	.st202{fill-rule:evenodd;clip-rule:evenodd;fill:url(#SVGID_186_);}
	.st203{fill-rule:evenodd;clip-rule:evenodd;fill:url(#SVGID_187_);}
	.st204{fill-rule:evenodd;clip-rule:evenodd;fill:url(#SVGID_188_);}
	.st205{fill-rule:evenodd;clip-rule:evenodd;fill:url(#SVGID_189_);}
	.st206{fill-rule:evenodd;clip-rule:evenodd;fill:url(#SVGID_190_);}
	.st207{fill-rule:evenodd;clip-rule:evenodd;fill:url(#SVGID_191_);}
	.st208{fill-rule:evenodd;clip-rule:evenodd;fill:url(#SVGID_192_);}
	.st209{fill-rule:evenodd;clip-rule:evenodd;fill:url(#SVGID_193_);}
	.st210{fill-rule:evenodd;clip-rule:evenodd;fill:url(#SVGID_194_);}
	.st211{fill-rule:evenodd;clip-rule:evenodd;fill:url(#SVGID_195_);}
	.st212{fill-rule:evenodd;clip-rule:evenodd;fill:url(#SVGID_196_);}
	.st213{fill-rule:evenodd;clip-rule:evenodd;fill:url(#SVGID_197_);}
	.st214{fill-rule:evenodd;clip-rule:evenodd;fill:url(#SVGID_198_);}
	.st215{fill-rule:evenodd;clip-rule:evenodd;fill:url(#SVGID_199_);}
	.st216{fill-rule:evenodd;clip-rule:evenodd;fill:url(#SVGID_200_);}
	.st217{fill-rule:evenodd;clip-rule:evenodd;fill:url(#SVGID_201_);}
	.st218{fill-rule:evenodd;clip-rule:evenodd;fill:url(#SVGID_202_);}
	.st219{fill-rule:evenodd;clip-rule:evenodd;fill:url(#SVGID_203_);}
	.st220{fill-rule:evenodd;clip-rule:evenodd;fill:url(#SVGID_204_);}
	.st221{fill-rule:evenodd;clip-rule:evenodd;fill:url(#SVGID_205_);}
	.st222{fill-rule:evenodd;clip-rule:evenodd;fill:url(#SVGID_206_);}
	.st223{fill-rule:evenodd;clip-rule:evenodd;fill:url(#SVGID_207_);}
	.st224{opacity:0.2;fill-rule:evenodd;clip-rule:evenodd;fill:url(#SVGID_208_);}
	.st225{fill:url(#SVGID_209_);}
	.st226{fill:url(#SVGID_210_);}
	.st227{fill:#FFFFFF;stroke:url(#SVGID_211_);stroke-miterlimit:10;}
	.st228{fill:url(#SVGID_212_);}
	.st229{fill:url(#SVGID_213_);}
	.st230{fill:url(#SVGID_214_);}
	.st231{fill:url(#SVGID_215_);}
	.st232{fill:#FFFFFF;stroke:url(#SVGID_216_);stroke-miterlimit:10;}
	.st233{fill:url(#SVGID_217_);}
	.st234{fill:url(#SVGID_218_);}
	.st235{fill:url(#SVGID_219_);}
	.st236{fill:url(#SVGID_220_);}
	.st237{opacity:0.1;fill:url(#SVGID_221_);}
	.st238{fill:url(#SVGID_222_);}
	.st239{fill:url(#SVGID_223_);}
	.st240{fill:url(#SVGID_224_);}
	.st241{fill:url(#SVGID_225_);}
	.st242{fill:url(#SVGID_226_);}
	.st243{fill:url(#SVGID_227_);}
	.st244{fill:url(#SVGID_228_);}
	.st245{fill:url(#SVGID_229_);}
	.st246{fill:url(#SVGID_230_);}
	.st247{fill:url(#SVGID_231_);}
	.st248{fill:url(#SVGID_232_);}
	.st249{fill:url(#SVGID_233_);}
	.st250{fill:url(#SVGID_234_);}
	.st251{fill:url(#SVGID_235_);}
	.st252{fill:url(#SVGID_236_);}
	.st253{fill:url(#SVGID_237_);}
</style>
<linearGradient id="SVGID_1_" gradientUnits="userSpaceOnUse" x1="37.7695" y1="169.1834" x2="275.4698" y2="169.1834">
	<stop  offset="0" style="stop-color:#328AB6"/>
	<stop  offset="1" style="stop-color:#0068D8"/>
</linearGradient>
<path style="fill:url(#SVGID_1_);" d="M257.5,244.8c4-3.5,6.5-8.6,6.5-14.3c0-9.3-6.6-17-15.3-18.8v-11.9c0-6.3-5.2-11.5-11.5-11.5
	h-33.7l4.1-4.1l-5.7-9.5c0.6-1.2,1.1-2.4,1.5-3.7l10.7-2.7v-10.6h7.7c16.9,0,30.7-13.8,30.7-30.7c0-15.7-11.8-28.6-27-30.4
	c-1.9-25.8-23.4-46.2-49.7-46.2c-18.1,0-34.8,10-43.5,25.7c-4.5-1.8-9.1-2.6-14-2.6c-21.1,0-38.3,17.2-38.3,38.3v0.3
	c-10.9,1.8-19.2,11.3-19.2,22.7c0,12.7,10.3,23,23,23h15.3v10.6l10.7,2.7c0.5,1.2,1,2.4,1.5,3.7l-5.7,9.5l4.1,4.1H87.6
	c-6.3,0-11.5,5.2-11.5,11.5v4c-21.5,1.9-38.3,20-38.3,42c0,23.3,18.9,42.2,42.2,42.2s42.2-18.9,42.2-42.2c0-22-16.9-40-38.3-42v-4
	c0-2.1,1.7-3.8,3.8-3.8h29.9l8.7,8.7l9.5-5.7c1.2,0.6,2.4,1.1,3.7,1.5l2.7,10.7h10.6V242h-15.3v46h53.7v-30.7h-15.3v-7.7h-15.3
	v-38.3h10.6l2.7-10.7c1.2-0.5,2.4-1,3.7-1.5l9.5,5.7l8.7-8.7h41.4c2.1,0,3.8,1.7,3.8,3.8v11.9c-8.7,1.8-15.3,9.5-15.3,18.8
	c0,5.7,2.5,10.8,6.5,14.3c-10.6,4.8-18,15.5-18,27.9V288h61.3v-15.3C275.5,260.3,268.1,249.6,257.5,244.8L257.5,244.8z M114.4,245.9
	c0,19-15.5,34.5-34.5,34.5s-34.5-15.5-34.5-34.5s15.5-34.5,34.5-34.5S114.4,226.8,114.4,245.9z M152.8,280.4h-7.7v-30.7h7.7V280.4z
	 M183.5,265v15.3h-7.7V265H183.5z M168.1,257.4v23h-7.7v-23H168.1z M68.4,134.7c0-8.4,6.8-15.2,15.1-15.3l4.7,0l-0.5-4.3
	c-0.1-1.1-0.2-2.3-0.2-3.4c0-16.9,13.8-30.7,30.7-30.7c4.9,0,9.6,1.1,14,3.4l3.6,1.8l1.7-3.6c6.9-14.9,21.9-24.6,38.3-24.6
	C199,58,218,76.9,218,100.2v3.8h3.8c12.7,0,23,10.3,23,23s-10.3,23-23,23h-138C75.3,150,68.4,143.1,68.4,134.7L68.4,134.7z
	 M183.1,157.7c-1.9,13-13,23-26.5,23c-13.5,0-24.7-10-26.5-23H183.1z M185.8,195.1l-8-4.8l-1.9,1c-2.1,1.1-4.3,2-6.5,2.7l-2,0.6
	l-2.3,9h-17l-2.3-9l-2-0.6c-2.1-0.7-4.3-1.6-6.5-2.7l-1.9-1l-8,4.8l-12-12l4.8-8l-1-1.9c-1.1-2.1-2-4.3-2.7-6.5l-0.6-2l-9-2.3v-4.7
	h15.6c1.9,17.2,16.6,30.7,34.3,30.7s32.4-13.4,34.3-30.7h15.6v4.7l-9,2.3l-0.6,2c-0.7,2.1-1.6,4.3-2.7,6.5l-1,1.9l4.8,8L185.8,195.1
	z M233.3,230.5c0-6.3,5.2-11.5,11.5-11.5s11.5,5.2,11.5,11.5c0,6.3-5.2,11.5-11.5,11.5S233.3,236.9,233.3,230.5z M267.8,280.4h-46
	v-7.7c0-12.7,10.3-23,23-23c12.7,0,23,10.3,23,23V280.4z"/>
<linearGradient id="SVGID_2_" gradientUnits="userSpaceOnUse" x1="64.6044" y1="245.8606" x2="95.2753" y2="245.8606">
	<stop  offset="0" style="stop-color:#328AB6"/>
	<stop  offset="1" style="stop-color:#0068D8"/>
</linearGradient>
<path class="st2" d="M76.1,219v7.7H64.6v11.5c0,6.3,5.2,11.5,11.5,11.5h7.7c2.1,0,3.8,1.7,3.8,3.8v3.8H76.1c-2.1,0-3.8-1.7-3.8-3.8
	h-7.7c0,6.3,5.2,11.5,11.5,11.5v7.7h7.7V265h11.5v-11.5c0-6.3-5.2-11.5-11.5-11.5h-7.7c-2.1,0-3.8-1.7-3.8-3.8v-3.8h11.5
	c2.1,0,3.8,1.7,3.8,3.8h7.7c0-6.3-5.2-11.5-11.5-11.5V219H76.1z"/>
<linearGradient id="SVGID_3_" gradientUnits="userSpaceOnUse" x1="114.4447" y1="123.1769" x2="137.4479" y2="123.1769">
	<stop  offset="0" style="stop-color:#328AB6"/>
	<stop  offset="1" style="stop-color:#0068D8"/>
</linearGradient>
<path style="fill:url(#SVGID_3_);" d="M125.9,111.7c-6.3,0-11.5,5.2-11.5,11.5c0,6.3,5.2,11.5,11.5,11.5c6.3,0,11.5-5.2,11.5-11.5
	C137.4,116.8,132.3,111.7,125.9,111.7z M125.9,127c-2.1,0-3.8-1.7-3.8-3.8c0-2.1,1.7-3.8,3.8-3.8c2.1,0,3.8,1.7,3.8,3.8
	C129.8,125.3,128.1,127,125.9,127z"/>
<linearGradient id="SVGID_4_" gradientUnits="userSpaceOnUse" x1="145.1156" y1="123.1769" x2="168.1188" y2="123.1769">
	<stop  offset="0" style="stop-color:#328AB6"/>
	<stop  offset="1" style="stop-color:#0068D8"/>
</linearGradient>
<path style="fill:url(#SVGID_4_);" d="M156.6,111.7c-6.3,0-11.5,5.2-11.5,11.5c0,6.3,5.2,11.5,11.5,11.5c6.3,0,11.5-5.2,11.5-11.5
	C168.1,116.8,163,111.7,156.6,111.7z M156.6,127c-2.1,0-3.8-1.7-3.8-3.8c0-2.1,1.7-3.8,3.8-3.8c2.1,0,3.8,1.7,3.8,3.8
	C160.5,125.3,158.7,127,156.6,127z"/>
<linearGradient id="SVGID_5_" gradientUnits="userSpaceOnUse" x1="175.7866" y1="123.1769" x2="198.7898" y2="123.1769">
	<stop  offset="0" style="stop-color:#328AB6"/>
	<stop  offset="1" style="stop-color:#0068D8"/>
</linearGradient>
<path style="fill:url(#SVGID_5_);" d="M187.3,111.7c-6.3,0-11.5,5.2-11.5,11.5c0,6.3,5.2,11.5,11.5,11.5s11.5-5.2,11.5-11.5
	C198.8,116.8,193.6,111.7,187.3,111.7z M187.3,127c-2.1,0-3.8-1.7-3.8-3.8c0-2.1,1.7-3.8,3.8-3.8c2.1,0,3.8,1.7,3.8,3.8
	C191.1,125.3,189.4,127,187.3,127z"/>
<linearGradient id="SVGID_6_" gradientUnits="userSpaceOnUse" x1="175.7864" y1="85.0761" x2="210.2912" y2="85.0761">
	<stop  offset="0" style="stop-color:#328AB6"/>
	<stop  offset="1" style="stop-color:#0068D8"/>
</linearGradient>
<path style="fill:url(#SVGID_6_);" d="M175.8,65.7v7.7c14.8,0,26.8,12,26.8,26.8c0,1.1-0.1,2.3-0.2,3.4l7.6,1
	c0.2-1.4,0.3-2.9,0.3-4.3C210.3,81.1,194.8,65.7,175.8,65.7L175.8,65.7z"/>
</svg>
