<?xml version="1.0" encoding="utf-8"?>
<!-- Generator: Adobe Illustrator 24.0.1, SVG Export Plug-In . SVG Version: 6.00 Build 0)  -->
<svg version="1.1" id="Layer_1" xmlns="http://www.w3.org/2000/svg" xmlns:xlink="http://www.w3.org/1999/xlink" x="0px" y="0px"
	 viewBox="0 0 320 320" style="enable-background:new 0 0 320 320;" xml:space="preserve">
<style type="text/css">
	.st0{opacity:5.000000e-02;fill:url(#SVGID_3_);enable-background:new    ;}
	.st1{opacity:0.7;}
	.st2{fill:#009FD8;}
	.st3{opacity:0.2;fill:#008CB2;enable-background:new    ;}
	.st4{fill:#E44235;}
	.st5{fill:#FFFFFF;}
	.st6{opacity:0.72;stroke:#FFFFFF;stroke-miterlimit:10;enable-background:new    ;}
	.st7{fill:none;stroke:url(#SVGID_4_);stroke-width:0.5;stroke-miterlimit:10;}
	.st8{fill:#0084A3;}
	.st9{fill:#0094BC;}
	.st10{fill-rule:evenodd;clip-rule:evenodd;fill:#FFFFFF;}
	.st11{opacity:0.8;}
	.st12{opacity:0.72;}
	.st13{fill:none;stroke:#FFFFFF;stroke-miterlimit:10;}
	.st14{fill:url(#SVGID_5_);}
	.st15{fill:url(#SVGID_6_);}
	.st16{fill:url(#SVGID_7_);}
	.st17{fill:url(#SVGID_8_);}
	.st18{fill:url(#SVGID_9_);}
	.st19{fill:url(#SVGID_10_);}
	.st20{fill:url(#SVGID_11_);}
	.st21{fill:url(#SVGID_12_);}
	.st22{fill:url(#SVGID_13_);}
	.st23{fill:url(#SVGID_14_);}
	.st24{fill:url(#SVGID_15_);}
	.st25{fill:url(#SVGID_16_);}
	.st26{fill:url(#SVGID_17_);}
	.st27{fill:url(#SVGID_18_);}
	.st28{opacity:0.1;fill:#0084A3;enable-background:new    ;}
	.st29{opacity:0.4;fill:#EAE9E8;enable-background:new    ;}
	.st30{fill:none;stroke:#999999;stroke-width:0.5;stroke-miterlimit:10;stroke-dasharray:1;}
	.st31{fill:url(#SVGID_19_);}
	.st32{fill:url(#SVGID_20_);}
	.st33{fill:url(#SVGID_21_);}
	.st34{fill:url(#SVGID_22_);}
	.st35{fill:url(#SVGID_23_);}
	.st36{fill:url(#SVGID_24_);}
	.st37{fill:url(#SVGID_25_);}
	.st38{fill:url(#SVGID_26_);}
	.st39{fill:url(#SVGID_27_);}
	.st40{fill:url(#SVGID_28_);}
	.st41{fill:url(#SVGID_29_);}
	.st42{fill:url(#SVGID_30_);}
	.st43{fill:url(#SVGID_31_);}
	.st44{fill:url(#SVGID_32_);}
	.st45{fill:url(#SVGID_33_);}
	.st46{fill:none;stroke:#009FD8;stroke-width:0.5;stroke-miterlimit:10;stroke-dasharray:1;}
	.st47{fill:url(#SVGID_34_);}
	.st48{opacity:0.72;enable-background:new    ;}
	.st49{fill:none;stroke:#009FD8;stroke-miterlimit:10;}
	.st50{fill:none;stroke:#0068D8;stroke-miterlimit:10;}
	.st51{fill:#F4F4F4;}
	.st52{fill-rule:evenodd;clip-rule:evenodd;fill:#009FD8;}
	.st53{opacity:0.4;fill-rule:evenodd;clip-rule:evenodd;fill:#EAE9E8;enable-background:new    ;}
	.st54{opacity:0.2;fill-rule:evenodd;clip-rule:evenodd;fill:url(#SVGID_35_);enable-background:new    ;}
	.st55{fill-rule:evenodd;clip-rule:evenodd;fill:url(#SVGID_36_);}
	.st56{fill-rule:evenodd;clip-rule:evenodd;fill:url(#SVGID_37_);}
	.st57{fill-rule:evenodd;clip-rule:evenodd;fill:url(#SVGID_38_);}
	.st58{fill-rule:evenodd;clip-rule:evenodd;fill:url(#SVGID_39_);}
	.st59{fill-rule:evenodd;clip-rule:evenodd;fill:url(#SVGID_40_);}
	.st60{fill-rule:evenodd;clip-rule:evenodd;fill:url(#SVGID_41_);}
	.st61{fill-rule:evenodd;clip-rule:evenodd;fill:url(#SVGID_42_);}
	.st62{fill-rule:evenodd;clip-rule:evenodd;fill:url(#SVGID_43_);}
	.st63{fill-rule:evenodd;clip-rule:evenodd;fill:url(#SVGID_44_);}
	.st64{fill-rule:evenodd;clip-rule:evenodd;fill:url(#SVGID_45_);}
	.st65{fill-rule:evenodd;clip-rule:evenodd;fill:url(#SVGID_46_);}
	.st66{fill-rule:evenodd;clip-rule:evenodd;fill:url(#SVGID_47_);}
	.st67{fill-rule:evenodd;clip-rule:evenodd;fill:url(#SVGID_48_);}
	.st68{fill-rule:evenodd;clip-rule:evenodd;fill:url(#SVGID_49_);}
	.st69{fill-rule:evenodd;clip-rule:evenodd;fill:url(#SVGID_50_);}
	.st70{fill-rule:evenodd;clip-rule:evenodd;fill:url(#SVGID_51_);}
	.st71{fill-rule:evenodd;clip-rule:evenodd;fill:url(#SVGID_52_);}
	.st72{fill-rule:evenodd;clip-rule:evenodd;fill:url(#SVGID_53_);}
	.st73{fill-rule:evenodd;clip-rule:evenodd;fill:url(#SVGID_54_);}
	.st74{fill-rule:evenodd;clip-rule:evenodd;fill:url(#SVGID_55_);}
	.st75{fill-rule:evenodd;clip-rule:evenodd;fill:url(#SVGID_56_);}
	.st76{fill-rule:evenodd;clip-rule:evenodd;fill:url(#SVGID_57_);}
	.st77{fill-rule:evenodd;clip-rule:evenodd;fill:url(#SVGID_58_);}
	.st78{fill-rule:evenodd;clip-rule:evenodd;fill:url(#SVGID_59_);}
	.st79{fill-rule:evenodd;clip-rule:evenodd;fill:url(#SVGID_60_);}
	.st80{fill-rule:evenodd;clip-rule:evenodd;fill:url(#SVGID_61_);}
	.st81{fill-rule:evenodd;clip-rule:evenodd;fill:url(#SVGID_62_);}
	.st82{fill-rule:evenodd;clip-rule:evenodd;fill:url(#SVGID_63_);}
	.st83{fill-rule:evenodd;clip-rule:evenodd;fill:url(#SVGID_64_);}
	.st84{fill-rule:evenodd;clip-rule:evenodd;fill:url(#SVGID_65_);}
	.st85{fill-rule:evenodd;clip-rule:evenodd;fill:url(#SVGID_66_);}
	.st86{fill-rule:evenodd;clip-rule:evenodd;fill:url(#SVGID_67_);}
	.st87{fill-rule:evenodd;clip-rule:evenodd;fill:url(#SVGID_68_);}
	.st88{fill-rule:evenodd;clip-rule:evenodd;fill:url(#SVGID_69_);}
	.st89{fill-rule:evenodd;clip-rule:evenodd;fill:url(#SVGID_70_);}
	.st90{fill-rule:evenodd;clip-rule:evenodd;fill:url(#SVGID_71_);}
	.st91{fill-rule:evenodd;clip-rule:evenodd;fill:url(#SVGID_72_);}
	.st92{fill-rule:evenodd;clip-rule:evenodd;fill:url(#SVGID_73_);}
	.st93{fill-rule:evenodd;clip-rule:evenodd;fill:url(#SVGID_74_);}
	.st94{fill-rule:evenodd;clip-rule:evenodd;fill:url(#SVGID_75_);}
	.st95{fill-rule:evenodd;clip-rule:evenodd;fill:url(#SVGID_76_);}
	.st96{fill-rule:evenodd;clip-rule:evenodd;fill:url(#SVGID_77_);}
	.st97{fill-rule:evenodd;clip-rule:evenodd;fill:url(#SVGID_78_);}
	.st98{fill-rule:evenodd;clip-rule:evenodd;fill:url(#SVGID_79_);}
	.st99{fill-rule:evenodd;clip-rule:evenodd;fill:url(#SVGID_80_);}
	.st100{fill-rule:evenodd;clip-rule:evenodd;fill:url(#SVGID_81_);}
	.st101{fill-rule:evenodd;clip-rule:evenodd;fill:url(#SVGID_82_);}
	.st102{fill-rule:evenodd;clip-rule:evenodd;fill:url(#SVGID_83_);}
	.st103{fill-rule:evenodd;clip-rule:evenodd;fill:url(#SVGID_84_);}
	.st104{fill-rule:evenodd;clip-rule:evenodd;fill:url(#SVGID_85_);}
	.st105{fill-rule:evenodd;clip-rule:evenodd;fill:url(#SVGID_86_);}
	.st106{fill-rule:evenodd;clip-rule:evenodd;fill:url(#SVGID_87_);}
	.st107{fill-rule:evenodd;clip-rule:evenodd;fill:url(#SVGID_88_);}
	.st108{fill-rule:evenodd;clip-rule:evenodd;fill:url(#SVGID_89_);}
	.st109{fill-rule:evenodd;clip-rule:evenodd;fill:url(#SVGID_90_);}
	.st110{fill-rule:evenodd;clip-rule:evenodd;fill:url(#SVGID_91_);}
	.st111{fill-rule:evenodd;clip-rule:evenodd;fill:url(#SVGID_92_);}
	.st112{fill-rule:evenodd;clip-rule:evenodd;fill:url(#SVGID_93_);}
	.st113{fill-rule:evenodd;clip-rule:evenodd;fill:url(#SVGID_94_);}
	.st114{fill-rule:evenodd;clip-rule:evenodd;fill:url(#SVGID_95_);}
	.st115{fill-rule:evenodd;clip-rule:evenodd;fill:url(#SVGID_96_);}
	.st116{fill-rule:evenodd;clip-rule:evenodd;fill:url(#SVGID_97_);}
	.st117{fill-rule:evenodd;clip-rule:evenodd;fill:url(#SVGID_98_);}
	.st118{fill-rule:evenodd;clip-rule:evenodd;fill:url(#SVGID_99_);}
	.st119{fill-rule:evenodd;clip-rule:evenodd;fill:url(#SVGID_100_);}
	.st120{fill-rule:evenodd;clip-rule:evenodd;fill:url(#SVGID_101_);}
	.st121{fill-rule:evenodd;clip-rule:evenodd;fill:url(#SVGID_102_);}
	.st122{fill-rule:evenodd;clip-rule:evenodd;fill:url(#SVGID_103_);}
	.st123{fill-rule:evenodd;clip-rule:evenodd;fill:url(#SVGID_104_);}
	.st124{fill-rule:evenodd;clip-rule:evenodd;fill:url(#SVGID_105_);}
	.st125{fill-rule:evenodd;clip-rule:evenodd;fill:url(#SVGID_106_);}
	.st126{fill-rule:evenodd;clip-rule:evenodd;fill:url(#SVGID_107_);}
	.st127{fill-rule:evenodd;clip-rule:evenodd;fill:url(#SVGID_108_);}
	.st128{fill-rule:evenodd;clip-rule:evenodd;fill:url(#SVGID_109_);}
	.st129{fill-rule:evenodd;clip-rule:evenodd;fill:url(#SVGID_110_);}
	.st130{fill-rule:evenodd;clip-rule:evenodd;fill:url(#SVGID_111_);}
	.st131{fill-rule:evenodd;clip-rule:evenodd;fill:url(#SVGID_112_);}
	.st132{fill-rule:evenodd;clip-rule:evenodd;fill:url(#SVGID_113_);}
	.st133{opacity:0.2;fill-rule:evenodd;clip-rule:evenodd;fill:url(#SVGID_114_);enable-background:new    ;}
	.st134{fill:#FFFFFF;stroke:url(#SVGID_115_);stroke-miterlimit:10;}
	.st135{fill:url(#SVGID_116_);}
	.st136{fill:url(#SVGID_117_);}
	.st137{fill:url(#SVGID_118_);}
	.st138{fill:url(#SVGID_119_);}
	.st139{fill:#FFFFFF;stroke:url(#SVGID_120_);stroke-miterlimit:10;}
	.st140{fill:url(#SVGID_121_);}
	.st141{fill:url(#SVGID_122_);}
	.st142{fill:url(#SVGID_123_);}
	.st143{fill:url(#SVGID_124_);}
	.st144{fill-rule:evenodd;clip-rule:evenodd;fill:url(#SVGID_125_);}
	.st145{fill-rule:evenodd;clip-rule:evenodd;fill:url(#SVGID_126_);}
	.st146{fill-rule:evenodd;clip-rule:evenodd;fill:url(#SVGID_127_);}
	.st147{fill-rule:evenodd;clip-rule:evenodd;fill:url(#SVGID_128_);}
	.st148{fill-rule:evenodd;clip-rule:evenodd;fill:url(#SVGID_129_);}
	.st149{fill-rule:evenodd;clip-rule:evenodd;fill:url(#SVGID_130_);}
	.st150{fill-rule:evenodd;clip-rule:evenodd;fill:url(#SVGID_131_);}
	.st151{fill-rule:evenodd;clip-rule:evenodd;fill:url(#SVGID_132_);}
	.st152{fill-rule:evenodd;clip-rule:evenodd;fill:url(#SVGID_133_);}
	.st153{fill-rule:evenodd;clip-rule:evenodd;fill:url(#SVGID_134_);}
	.st154{fill-rule:evenodd;clip-rule:evenodd;fill:url(#SVGID_135_);}
	.st155{fill-rule:evenodd;clip-rule:evenodd;fill:url(#SVGID_136_);}
	.st156{fill-rule:evenodd;clip-rule:evenodd;fill:url(#SVGID_137_);}
	.st157{fill-rule:evenodd;clip-rule:evenodd;fill:url(#SVGID_138_);}
	.st158{fill-rule:evenodd;clip-rule:evenodd;fill:url(#SVGID_139_);}
	.st159{fill-rule:evenodd;clip-rule:evenodd;fill:url(#SVGID_140_);}
	.st160{fill-rule:evenodd;clip-rule:evenodd;fill:url(#SVGID_141_);}
	.st161{fill-rule:evenodd;clip-rule:evenodd;fill:url(#SVGID_142_);}
	.st162{fill-rule:evenodd;clip-rule:evenodd;fill:url(#SVGID_143_);}
	.st163{fill-rule:evenodd;clip-rule:evenodd;fill:url(#SVGID_144_);}
	.st164{fill-rule:evenodd;clip-rule:evenodd;fill:url(#SVGID_145_);}
	.st165{fill-rule:evenodd;clip-rule:evenodd;fill:url(#SVGID_146_);}
	.st166{fill-rule:evenodd;clip-rule:evenodd;fill:url(#SVGID_147_);}
	.st167{fill-rule:evenodd;clip-rule:evenodd;fill:url(#SVGID_148_);}
	.st168{fill-rule:evenodd;clip-rule:evenodd;fill:url(#SVGID_149_);}
	.st169{fill-rule:evenodd;clip-rule:evenodd;fill:url(#SVGID_150_);}
	.st170{fill-rule:evenodd;clip-rule:evenodd;fill:url(#SVGID_151_);}
	.st171{fill-rule:evenodd;clip-rule:evenodd;fill:url(#SVGID_152_);}
	.st172{fill-rule:evenodd;clip-rule:evenodd;fill:url(#SVGID_153_);}
	.st173{fill-rule:evenodd;clip-rule:evenodd;fill:url(#SVGID_154_);}
	.st174{fill-rule:evenodd;clip-rule:evenodd;fill:url(#SVGID_155_);}
	.st175{fill-rule:evenodd;clip-rule:evenodd;fill:url(#SVGID_156_);}
	.st176{fill-rule:evenodd;clip-rule:evenodd;fill:url(#SVGID_157_);}
	.st177{fill-rule:evenodd;clip-rule:evenodd;fill:url(#SVGID_158_);}
	.st178{fill-rule:evenodd;clip-rule:evenodd;fill:url(#SVGID_159_);}
	.st179{fill-rule:evenodd;clip-rule:evenodd;fill:url(#SVGID_160_);}
	.st180{fill-rule:evenodd;clip-rule:evenodd;fill:url(#SVGID_161_);}
	.st181{fill-rule:evenodd;clip-rule:evenodd;fill:url(#SVGID_162_);}
	.st182{fill-rule:evenodd;clip-rule:evenodd;fill:url(#SVGID_163_);}
	.st183{fill-rule:evenodd;clip-rule:evenodd;fill:url(#SVGID_164_);}
	.st184{fill-rule:evenodd;clip-rule:evenodd;fill:url(#SVGID_165_);}
	.st185{fill-rule:evenodd;clip-rule:evenodd;fill:url(#SVGID_166_);}
	.st186{fill-rule:evenodd;clip-rule:evenodd;fill:url(#SVGID_167_);}
	.st187{fill-rule:evenodd;clip-rule:evenodd;fill:url(#SVGID_168_);}
	.st188{fill-rule:evenodd;clip-rule:evenodd;fill:url(#SVGID_169_);}
	.st189{fill-rule:evenodd;clip-rule:evenodd;fill:url(#SVGID_170_);}
	.st190{fill-rule:evenodd;clip-rule:evenodd;fill:url(#SVGID_171_);}
	.st191{fill-rule:evenodd;clip-rule:evenodd;fill:url(#SVGID_172_);}
	.st192{fill-rule:evenodd;clip-rule:evenodd;fill:url(#SVGID_173_);}
	.st193{fill-rule:evenodd;clip-rule:evenodd;fill:url(#SVGID_174_);}
	.st194{opacity:0.1;fill:url(#SVGID_175_);enable-background:new    ;}
	.st195{fill:url(#SVGID_176_);}
	.st196{fill:url(#SVGID_177_);}
	.st197{opacity:0.3;}
	.st198{fill:url(#SVGID_178_);}
	.st199{fill:url(#SVGID_179_);}
	.st200{opacity:0.3;fill:#009FD8;enable-background:new    ;}
	.st201{fill:url(#SVGID_180_);}
	.st202{fill:#ECECEC;}
	.st203{fill:#007CFF;}
	.st204{fill:#1A2E35;}
	.st205{opacity:0.2;fill:#007CFF;enable-background:new    ;}
	.st206{opacity:0.5;fill:#FFFFFF;enable-background:new    ;}
	.st207{opacity:0.4;fill:#007CFF;enable-background:new    ;}
	.st208{opacity:0.8;fill:#FFFFFF;enable-background:new    ;}
	.st209{opacity:0.5;fill:#007CFF;enable-background:new    ;}
	.st210{fill:url(#SVGID_181_);}
	.st211{fill:url(#SVGID_182_);}
	.st212{opacity:0.3;fill:#007CFF;enable-background:new    ;}
	.st213{opacity:0.8;fill-rule:evenodd;clip-rule:evenodd;fill:#FFFFFF;enable-background:new    ;}
	.st214{opacity:5.000000e-02;fill:url(#SVGID_183_);enable-background:new    ;}
	.st215{fill:url(#SVGID_184_);}
	.st216{fill:url(#SVGID_185_);}
	.st217{fill:#E7E7E7;}
	.st218{fill:#E1E1E1;}
	.st219{opacity:0.5;fill:#FAFAFA;enable-background:new    ;}
	.st220{opacity:0.6;fill:#FFFFFF;enable-background:new    ;}
	.st221{fill:#F0F0F0;}
	.st222{fill:#121F23;}
	.st223{opacity:0.1;enable-background:new    ;}
	.st224{fill:none;stroke:#007CFF;stroke-linecap:round;stroke-linejoin:round;stroke-miterlimit:10;}
	.st225{fill:none;stroke:#007CFF;stroke-miterlimit:10;}
	.st226{opacity:0.4;fill:#FFFFFF;enable-background:new    ;}
	.st227{opacity:0.3;fill:#FFFFFF;enable-background:new    ;}
	.st228{opacity:0.2;fill:#FFFFFF;enable-background:new    ;}
	.st229{opacity:0.6;fill:#1A2E35;enable-background:new    ;}
</style>
<path class="st2" d="M157.8,60c-4.5,0-7.8,3.2-10.2,7c-2.4,3.8-4.3,8.8-5.9,14.9c-0.2,0.7-0.3,1.3-0.5,2c-3.1-5.4-6.2-9.7-9.4-12.7
	c-3.3-3.1-7.3-5.3-11.6-4.2c-4.3,1.2-6.7,5.1-8,9.4c-1.3,4.3-1.8,9.6-1.8,15.9c0,0.7,0,1.4,0,2.1c-0.6-0.6-1.1-1.2-1.7-1.7
	c-4.4-4.4-8.5-7.8-12.5-10c-4-2.1-8.4-3.3-12.3-1c-3.9,2.2-5.1,6.7-5.3,11.2c-0.1,4.5,0.7,9.8,2.4,15.8c0.6,2.2,1.3,4.5,2.1,6.8
	c-1.3-0.8-2.6-1.6-3.9-2.4c-5.4-3.2-10.3-5.4-14.7-6.4c-4.4-1-9-1-12.2,2.2s-3.2,7.8-2.2,12.2c1,4.4,3.2,9.3,6.4,14.7
	c4,6.8,9.5,14.5,16.3,22.4c-6.2-2.6-12.1-4.7-17.3-6.1c-6-1.6-11.3-2.5-15.8-2.4c-4.5,0.2-8.9,1.4-11.2,5.3c-2.2,3.9-1.1,8.3,1,12.3
	s5.5,8.1,10,12.5c2.5,2.5,5.3,5,8.4,7.6c-2.4-0.2-4.7-0.2-6.8-0.3c-6.3,0-11.6,0.5-15.9,1.8s-8.3,3.6-9.4,8
	c-1.2,4.3,1.1,8.3,4.2,11.6s7.4,6.4,12.9,9.5c1.9,1.1,4,2.2,6.2,3.3c-2,0.4-3.9,0.9-5.7,1.3c-6.1,1.6-11.1,3.5-14.9,5.9
	s-7,5.7-7,10.2s3.2,7.8,7,10.2s8.8,4.3,14.9,5.9c12.1,3.2,28.4,5.1,46.4,5.1s34.3-1.9,46.4-5.1c6.1-1.6,11.1-3.5,14.9-5.9
	s7-5.7,7-10.2c0-1.6-0.4-3.1-1.1-4.4c0.3-0.6,0.6-1.3,0.8-2c0.8-2.9,0-5.6-1.5-8.1c0.2-0.3,0.4-0.6,0.6-0.9c2.2-3.9,1.1-8.3-1-12.3
	c-0.5-1-1.1-1.9-1.8-2.9c1.8-0.4,3.5-1.2,4.9-2.6c1.5-1.5,2.3-3.3,2.6-5.2c0.2-0.1,0.4-0.2,0.6-0.3c0.4-0.2,0.8-0.5,1.1-0.8
	c0.7,0,1.4-0.1,2.1-0.3c1.8-0.5,3.2-1.4,4.4-2.7h0.1c1.2,1.3,2.6,2.2,4.4,2.7c0.7,0.2,1.4,0.3,2.1,0.3c0.4,0.3,0.7,0.6,1.2,0.8
	c0.2,0.1,0.4,0.2,0.6,0.3c0.3,1.9,1.1,3.7,2.6,5.2c1.4,1.4,3.1,2.2,4.9,2.6c-0.7,1-1.2,1.9-1.7,2.9c-2.1,4-3.3,8.4-1,12.3
	c0.2,0.3,0.4,0.6,0.6,0.9c-1.5,2.5-2.3,5.2-1.5,8.1c0.2,0.7,0.5,1.4,0.8,2c-0.7,1.3-1.1,2.8-1.1,4.4c0,4.5,3.2,7.8,7,10.2
	s8.8,4.3,14.9,5.9c12.1,3.2,28.4,5.1,46.4,5.1s34.3-1.9,46.4-5.1c6.1-1.6,11.1-3.5,14.9-5.9s7-5.7,7-10.2s-3.2-7.8-7-10.2
	s-8.8-4.3-14.9-5.9c-1.8-0.5-3.7-0.9-5.7-1.3c2.2-1.1,4.3-2.2,6.2-3.3c5.4-3.1,9.8-6.2,12.9-9.5s5.3-7.3,4.2-11.6
	c-1.2-4.3-5.1-6.7-9.4-8s-9.6-1.8-15.9-1.8c-2.2,0-4.5,0.1-6.8,0.3c3.1-2.6,5.9-5.1,8.4-7.6c4.4-4.4,7.8-8.5,10-12.5
	c2.1-4,3.3-8.4,1-12.3c-2.2-3.9-6.7-5.1-11.2-5.3c-4.5-0.2-9.8,0.7-15.8,2.4c-5.3,1.4-11.1,3.5-17.3,6.1
	c6.8-7.9,12.3-15.6,16.3-22.4c3.2-5.4,5.4-10.3,6.4-14.7c1-4.4,1-9-2.2-12.2c-3.2-3.2-7.8-3.2-12.1-2.2c-4.4,1-9.3,3.2-14.7,6.4
	c-1.3,0.7-2.6,1.5-3.9,2.4c0.8-2.4,1.5-4.6,2.1-6.8c1.6-6,2.5-11.3,2.4-15.8c-0.2-4.5-1.4-8.9-5.3-11.2c-3.9-2.2-8.3-1.1-12.3,1
	s-8.1,5.5-12.5,10c-0.5,0.6-1.1,1.1-1.7,1.7c0-0.7,0-1.4,0-2.1c0-6.3-0.5-11.6-1.8-15.9c-1.3-4.3-3.6-8.3-8-9.4
	c-4.3-1.2-8.3,1.1-11.6,4.2c-3.3,3.1-6.4,7.4-9.5,12.9c-1.1,1.9-2.1,3.9-3.2,6c-0.5-2.9-1.2-5.6-1.8-8.1c-1.6-6.1-3.5-11.1-5.9-14.9
	C165.6,63.3,162.3,60,157.8,60L157.8,60z M157.8,68.4c0.2,0,1.3,0.4,3,3.1c1.7,2.7,3.4,7,4.9,12.6c1.5,5.8,2.8,12.8,3.6,20.7
	c-2.7,7-5.2,14.7-7.4,22.9c-0.6,2.4-1.2,4.8-1.8,7.1c-0.6-2.3-1.2-4.7-1.8-7.1c-3.1-11.6-6.8-22.3-10.8-31.3
	c0.7-4.5,1.5-8.6,2.5-12.2c1.5-5.6,3.2-9.9,4.9-12.6C156.5,68.8,157.7,68.4,157.8,68.4L157.8,68.4z M122.5,75.3c0.2,0,1.4,0,3.7,2.2
	c2.3,2.1,5.1,5.9,8,10.9c1.6,2.7,3.1,5.8,4.7,9.2c-1.3,9.2-2,19.7-2,30.8v2.7c-0.1-0.2-0.2-0.4-0.3-0.5
	c-5.4-9.4-11.1-17.9-16.7-25.1c-0.5-4.7-0.8-9.1-0.8-13c0-5.7,0.5-10.4,1.4-13.4C121.3,75.9,122.3,75.3,122.5,75.3L122.5,75.3z
	 M197.8,75.3c0.2,0,1.2,0.7,2.1,3.7s1.5,7.7,1.4,13.4c0,3.9-0.3,8.3-0.8,13c-5.6,7.2-11.3,15.7-16.7,25.1c-1.8,3.1-3.5,6.3-5.1,9.3
	c0.2-3.7,0.3-7.5,0.3-11.4c0-7.9-0.4-15.4-1-22.4c2.7-6.8,5.5-12.8,8.3-17.6c2.8-5,5.7-8.8,8-10.9C196.3,75.3,197.7,75.3,197.8,75.3
	L197.8,75.3z M88.6,89.1c0.5,0,1.7,0.1,3.8,1.2c2.8,1.5,6.5,4.4,10.5,8.5c2.8,2.8,5.7,6.2,8.8,10c1.1,9.1,3.1,19.3,6,29.8
	c0.8,2.8,1.5,5.6,2.4,8.2c-1.4-1.4-2.8-2.9-4.2-4.3c-6.7-6.7-13.5-12.8-20-17.9c-2.8-6.6-5-12.7-6.5-18c-1.5-5.5-2.2-10.2-2.1-13.3
	s0.9-4,1.1-4.1C88.3,89.2,88.3,89.2,88.6,89.1L88.6,89.1z M231.3,89.1c0.4,0,0.6,0,0.6,0.1c0.1,0.1,1,1,1.1,4.1s-0.6,7.8-2.1,13.3
	c-1.4,5.3-3.6,11.4-6.5,18c-6.5,5.1-13.3,11.1-20,17.9c-1.4,1.4-2.8,2.9-4.2,4.3c0.8-2.7,1.6-5.4,2.4-8.3c2.8-10.6,4.8-20.7,6-29.8
	c3-3.8,6-7.2,8.8-10c4-4.1,7.7-7,10.5-8.5C229.7,89.3,230.8,89.2,231.3,89.1L231.3,89.1z M145.6,114.8c1.6,4.8,3.2,9.8,4.6,15.1
	c2.7,10.1,4.6,19.8,5.7,28.4c-0.6,4.8-0.9,9.4-1,13.5c-2-6.8-4.9-14.6-8.7-22.8c-0.6-6.4-0.9-13.4-0.9-20.6
	C145.2,123.7,145.3,119.2,145.6,114.8L145.6,114.8z M60.1,114.8c0.6,0,1.5,0.1,2.7,0.4c3,0.7,7.4,2.6,12.3,5.5
	c4.2,2.5,8.9,5.7,13.8,9.4c3.1,6.9,6.8,14.2,11.1,21.6c9,15.6,18.8,28.8,27.6,37.7c4.4,4.5,8.5,7.8,12.5,10c0.6,0.3,1.2,0.6,1.8,0.9
	c-0.7,0-1.6,0-2.9-0.3c-0.8-0.2-1.6-0.4-2.6-0.8c-0.1-0.1-0.2-0.2-0.3-0.3c-8.9-8.8-22.1-18.6-37.7-27.6c-1.4-0.8-2.7-1.5-4.1-2.3
	c-0.8-0.8-1.6-1.6-2.4-2.4c-12.3-12.3-22.1-24.8-27.9-34.7c-2.9-5-4.7-9.3-5.5-12.3c-0.7-3.1-0.2-4.2-0.1-4.3
	C58.5,115,59,114.8,60.1,114.8L60.1,114.8z M260.2,114.8c1.1,0,1.5,0.2,1.6,0.3c0.1,0.1,0.7,1.2,0,4.3c-0.7,3.1-2.6,7.4-5.5,12.3
	c-5.8,9.9-15.6,22.4-27.9,34.7c-0.8,0.8-1.6,1.6-2.4,2.4c-1.4,0.7-2.7,1.5-4.1,2.3c-15.6,9-28.8,18.8-37.7,27.6
	c-0.1,0.1-0.2,0.2-0.3,0.3c-0.9,0.3-1.8,0.6-2.6,0.8c-1.3,0.3-2.3,0.4-3,0.3c0.6-0.3,1.2-0.6,1.8-0.9c4-2.1,8.1-5.5,12.5-10
	c8.8-8.9,18.6-22.1,27.6-37.7c4.3-7.4,8-14.7,11-21.6c4.9-3.8,9.6-7,13.8-9.4c5-2.9,9.3-4.7,12.3-5.5
	C258.7,114.8,259.6,114.8,260.2,114.8L260.2,114.8z M122.8,124.5c2.1,3.3,4.2,6.7,6.3,10.3c3.3,5.6,6.2,11.2,8.7,16.5
	c0.8,8.2,2,15.7,3.6,22.1c-1.8-2.7-3.8-5.5-6-8.4c-3.5-8.2-6.9-18-9.7-28.5C124.7,132.3,123.7,128.3,122.8,124.5L122.8,124.5z
	 M197.3,124.5c-0.8,3.9-1.8,7.9-2.9,11.9c-2.8,10.5-6.2,20.3-9.7,28.5c-3.7,4.9-6.9,9.6-9.5,14c-1.7,2.9-3.1,5.7-4.2,8.3
	c0.1-1.6,0.3-3.4,0.6-5.4c0.8-2.2,1.5-4.5,2.2-7c0.5-2,1-4.2,1.5-6.4c3.4-9.9,8.8-21.6,15.8-33.7
	C193.2,131.1,195.3,127.8,197.3,124.5L197.3,124.5z M170.5,128.3L170.5,128.3c0,14.3-1.3,27.4-3.3,37.8c-0.7,2-1.3,3.8-1.8,5.7
	c-0.1-4.2-0.4-8.7-1-13.6c1.1-8.6,3-18.3,5.7-28.4C170.2,129.3,170.3,128.8,170.5,128.3L170.5,128.3z M105.5,144.3
	c1.4,1.3,2.8,2.7,4.2,4.1c7,7,13.2,14.1,18.4,20.7c2.1,4.8,4.2,9.1,6.4,12.9c1,1.8,2.1,3.5,3.1,5c-1.3-1.1-2.7-2.4-4.1-3.8
	c-8.1-8.2-17.6-20.9-26.3-35.9C106.6,146.3,106.1,145.3,105.5,144.3L105.5,144.3z M214.8,144.3c-0.6,1-1.1,2-1.7,3
	c-8.7,15.1-18.2,27.8-26.3,35.9c-1.4,1.4-2.8,2.7-4.1,3.8c1-1.6,2.1-3.2,3.1-5c2.2-3.8,4.3-8.1,6.4-12.9
	c5.1-6.6,11.3-13.7,18.4-20.7C211.8,147.1,213.3,145.6,214.8,144.3L214.8,144.3z M279,158.3h1.2c3.1,0.1,4.1,0.9,4.1,1.1
	c0.1,0.1,0.3,1.4-1.1,4.1c-1.5,2.8-4.4,6.5-8.5,10.5c-4.9,4.8-11.3,10.1-19,15.5c-7.2,1.2-14.9,2.8-22.8,4.9
	c-17.4,4.7-32.6,10.7-43.5,16.9c-3.2,1.8-6,3.7-8.5,5.6c0.2-0.5,0.4-1.1,0.8-1.8c1.3-2.4,3.7-5.5,6.9-9c2.9-1.2,6-2.7,9.3-4.7
	c9.9-5.8,21.4-14.7,33.1-25.9c13.3-7.3,26-12.5,35.9-15.2C271.7,159.1,275.8,158.3,279,158.3L279,158.3z M40.1,158.3
	c3.1-0.1,7.8,0.6,13.3,2.1c9.9,2.7,22.5,8,35.9,15.2c11.6,11.2,23.2,20.2,33,25.9c3.3,1.9,6.4,3.5,9.3,4.7c3.3,3.4,5.7,6.6,6.9,9
	c0.4,0.7,0.6,1.3,0.8,1.7c-2.4-1.9-5.2-3.7-8.5-5.6c-10.9-6.2-26.1-12.3-43.5-16.9c-7.9-2.1-15.6-3.8-22.8-5
	c-7.6-5.4-14.1-10.7-19-15.5c-4.1-4-7-7.7-8.5-10.5s-1.2-4-1.1-4.1C36,159.1,36.8,158.3,40.1,158.3L40.1,158.3z M41.2,195.8
	c5.8,0,12.6,0.6,20.1,1.8c4.9,3.4,10.3,6.8,16,10.1c7.3,4.2,14.5,7.9,21.3,10.9c-5.9-0.5-12.2-0.7-18.7-0.7c-9,0-17.5,0.5-25.3,1.3
	c-6.7-2.7-12.7-5.5-17.5-8.2c-5-2.8-8.8-5.7-10.9-8s-2.2-3.5-2.2-3.7s0.7-1.2,3.7-2.1C30.8,196.3,35.3,195.8,41.2,195.8L41.2,195.8z
	 M279.1,195.8c5.7,0,10.4,0.5,13.4,1.4s3.7,1.9,3.7,2.1c0,0.2,0,1.4-2.2,3.7c-2.1,2.3-5.9,5.1-10.9,8c-4.8,2.7-10.7,5.5-17.5,8.2
	c-7.8-0.9-16.3-1.3-25.3-1.3c-6.5,0-12.8,0.3-18.7,0.7c6.8-3.1,14-6.7,21.3-10.9c5.7-3.3,11-6.7,16-10.1
	C266.5,196.3,273.3,195.8,279.1,195.8L279.1,195.8z M86,202.8c16.5,4.5,30.9,10.3,40.7,15.9c0.6,0.3,1.1,0.7,1.7,1
	c-1.9-0.3-3.9-0.8-6.1-1.4C112.3,215.5,99.3,210.1,86,202.8L86,202.8z M234.3,202.8c-13.5,7.4-26.3,12.7-36.3,15.5
	c-2.2,0.6-4.2,1.1-6.1,1.4c0.5-0.3,1.1-0.6,1.7-1C203.3,213,217.8,207.3,234.3,202.8L234.3,202.8z M79.8,226.3
	c17.4,0,33.2,1.9,44.3,4.8c2.7,0.7,5.1,1.5,7.2,2.3c-2.5,0.3-5.4,0.5-8.7,0.5c-11.5,0-27.2-2.3-44-6.8c-0.9-0.3-1.8-0.5-2.7-0.7
	C77.3,226.3,78.6,226.3,79.8,226.3L79.8,226.3z M240.3,226.3c1.3,0,2.7,0,4,0c-0.9,0.3-1.8,0.5-2.7,0.7c-16.8,4.5-32.5,6.8-44,6.8
	c-3.3,0-6.3-0.2-8.7-0.5c2.1-0.8,4.5-1.6,7.2-2.3C207.2,228,223,226.3,240.3,226.3L240.3,226.3z M53.5,227.8c7,2.7,14.7,5.2,23,7.4
	c17.4,4.7,33.6,7,46.2,7.1c6.3,0,11.6-0.5,15.9-1.8c0.1,0,0.2-0.1,0.2-0.1c-0.5,0.4-1.1,0.9-2,1.5c-2.7,1.7-7,3.4-12.6,4.9
	c-11.1,2.9-26.9,4.8-44.3,4.8s-33.2-1.9-44.3-4.8c-5.5-1.5-9.9-3.2-12.6-4.9s-3.1-2.8-3.1-3s0.4-1.3,3.1-3s7-3.4,12.6-4.9
	C40.7,229.8,46.8,228.5,53.5,227.8L53.5,227.8z M266.8,227.8c6.7,0.8,12.8,1.9,17.9,3.3c5.5,1.5,9.9,3.2,12.6,4.9s3.1,2.8,3.1,3
	s-0.4,1.3-3.1,3s-7,3.4-12.6,4.9c-11.1,2.9-26.9,4.8-44.3,4.8s-33.2-1.9-44.3-4.8c-5.5-1.5-9.9-3.2-12.6-4.9c-0.9-0.6-1.5-1.1-2-1.5
	c0.1,0,0.2,0.1,0.2,0.1c4.3,1.3,9.6,1.8,15.9,1.8c12.5-0.1,28.8-2.5,46.1-7.1C252,232.9,259.8,230.4,266.8,227.8L266.8,227.8z"/>
</svg>
