<?xml version="1.0" encoding="utf-8"?>
<!-- Generator: Adobe Illustrator 24.0.1, SVG Export Plug-In . SVG Version: 6.00 Build 0)  -->
<svg version="1.1" id="Layer_1" xmlns="http://www.w3.org/2000/svg" xmlns:xlink="http://www.w3.org/1999/xlink" x="0px" y="0px"
	 viewBox="0 0 320 320" style="enable-background:new 0 0 320 320;" xml:space="preserve">
<style type="text/css">
	.st0{opacity:5.000000e-02;fill:url(#SVGID_3_);enable-background:new    ;}
	.st1{opacity:0.7;}
	.st2{fill:#009FD8;}
	.st3{opacity:0.2;fill:#008CB2;enable-background:new    ;}
	.st4{fill:#E44235;}
	.st5{fill:#FFFFFF;}
	.st6{opacity:0.72;stroke:#FFFFFF;stroke-miterlimit:10;enable-background:new    ;}
	.st7{fill:none;stroke:url(#SVGID_4_);stroke-width:0.5;stroke-miterlimit:10;}
	.st8{fill:#0084A3;}
	.st9{fill:#0094BC;}
	.st10{fill-rule:evenodd;clip-rule:evenodd;fill:#FFFFFF;}
	.st11{opacity:0.8;}
	.st12{opacity:0.72;}
	.st13{fill:none;stroke:#FFFFFF;stroke-miterlimit:10;}
	.st14{fill:url(#SVGID_5_);}
	.st15{fill:url(#SVGID_6_);}
	.st16{fill:url(#SVGID_7_);}
	.st17{fill:url(#SVGID_8_);}
	.st18{fill:url(#SVGID_9_);}
	.st19{fill:url(#SVGID_10_);}
	.st20{fill:url(#SVGID_11_);}
	.st21{fill:url(#SVGID_12_);}
	.st22{fill:url(#SVGID_13_);}
	.st23{fill:url(#SVGID_14_);}
	.st24{fill:url(#SVGID_15_);}
	.st25{fill:url(#SVGID_16_);}
	.st26{fill:url(#SVGID_17_);}
	.st27{fill:url(#SVGID_18_);}
	.st28{opacity:0.1;fill:#0084A3;enable-background:new    ;}
	.st29{opacity:0.4;fill:#EAE9E8;enable-background:new    ;}
	.st30{fill:none;stroke:#999999;stroke-width:0.5;stroke-miterlimit:10;stroke-dasharray:1;}
	.st31{fill:url(#SVGID_19_);}
	.st32{fill:url(#SVGID_20_);}
	.st33{fill:url(#SVGID_21_);}
	.st34{fill:url(#SVGID_22_);}
	.st35{fill:url(#SVGID_23_);}
	.st36{fill:url(#SVGID_24_);}
	.st37{fill:url(#SVGID_25_);}
	.st38{fill:url(#SVGID_26_);}
	.st39{fill:url(#SVGID_27_);}
	.st40{fill:url(#SVGID_28_);}
	.st41{fill:url(#SVGID_29_);}
	.st42{fill:url(#SVGID_30_);}
	.st43{fill:url(#SVGID_31_);}
	.st44{fill:url(#SVGID_32_);}
	.st45{fill:url(#SVGID_33_);}
	.st46{fill:none;stroke:#009FD8;stroke-width:0.5;stroke-miterlimit:10;stroke-dasharray:1;}
	.st47{fill:url(#SVGID_34_);}
	.st48{opacity:0.72;enable-background:new    ;}
	.st49{fill:none;stroke:#009FD8;stroke-miterlimit:10;}
	.st50{fill:none;stroke:#0068D8;stroke-miterlimit:10;}
	.st51{fill:#F4F4F4;}
	.st52{fill-rule:evenodd;clip-rule:evenodd;fill:#009FD8;}
	.st53{opacity:0.4;fill-rule:evenodd;clip-rule:evenodd;fill:#EAE9E8;enable-background:new    ;}
	.st54{opacity:0.2;fill-rule:evenodd;clip-rule:evenodd;fill:url(#SVGID_35_);enable-background:new    ;}
	.st55{fill-rule:evenodd;clip-rule:evenodd;fill:url(#SVGID_36_);}
	.st56{fill-rule:evenodd;clip-rule:evenodd;fill:url(#SVGID_37_);}
	.st57{fill-rule:evenodd;clip-rule:evenodd;fill:url(#SVGID_38_);}
	.st58{fill-rule:evenodd;clip-rule:evenodd;fill:url(#SVGID_39_);}
	.st59{fill-rule:evenodd;clip-rule:evenodd;fill:url(#SVGID_40_);}
	.st60{fill-rule:evenodd;clip-rule:evenodd;fill:url(#SVGID_41_);}
	.st61{fill-rule:evenodd;clip-rule:evenodd;fill:url(#SVGID_42_);}
	.st62{fill-rule:evenodd;clip-rule:evenodd;fill:url(#SVGID_43_);}
	.st63{fill-rule:evenodd;clip-rule:evenodd;fill:url(#SVGID_44_);}
	.st64{fill-rule:evenodd;clip-rule:evenodd;fill:url(#SVGID_45_);}
	.st65{fill-rule:evenodd;clip-rule:evenodd;fill:url(#SVGID_46_);}
	.st66{fill-rule:evenodd;clip-rule:evenodd;fill:url(#SVGID_47_);}
	.st67{fill-rule:evenodd;clip-rule:evenodd;fill:url(#SVGID_48_);}
	.st68{fill-rule:evenodd;clip-rule:evenodd;fill:url(#SVGID_49_);}
	.st69{fill-rule:evenodd;clip-rule:evenodd;fill:url(#SVGID_50_);}
	.st70{fill-rule:evenodd;clip-rule:evenodd;fill:url(#SVGID_51_);}
	.st71{fill-rule:evenodd;clip-rule:evenodd;fill:url(#SVGID_52_);}
	.st72{fill-rule:evenodd;clip-rule:evenodd;fill:url(#SVGID_53_);}
	.st73{fill-rule:evenodd;clip-rule:evenodd;fill:url(#SVGID_54_);}
	.st74{fill-rule:evenodd;clip-rule:evenodd;fill:url(#SVGID_55_);}
	.st75{fill-rule:evenodd;clip-rule:evenodd;fill:url(#SVGID_56_);}
	.st76{fill-rule:evenodd;clip-rule:evenodd;fill:url(#SVGID_57_);}
	.st77{fill-rule:evenodd;clip-rule:evenodd;fill:url(#SVGID_58_);}
	.st78{fill-rule:evenodd;clip-rule:evenodd;fill:url(#SVGID_59_);}
	.st79{fill-rule:evenodd;clip-rule:evenodd;fill:url(#SVGID_60_);}
	.st80{fill-rule:evenodd;clip-rule:evenodd;fill:url(#SVGID_61_);}
	.st81{fill-rule:evenodd;clip-rule:evenodd;fill:url(#SVGID_62_);}
	.st82{fill-rule:evenodd;clip-rule:evenodd;fill:url(#SVGID_63_);}
	.st83{fill-rule:evenodd;clip-rule:evenodd;fill:url(#SVGID_64_);}
	.st84{fill-rule:evenodd;clip-rule:evenodd;fill:url(#SVGID_65_);}
	.st85{fill-rule:evenodd;clip-rule:evenodd;fill:url(#SVGID_66_);}
	.st86{fill-rule:evenodd;clip-rule:evenodd;fill:url(#SVGID_67_);}
	.st87{fill-rule:evenodd;clip-rule:evenodd;fill:url(#SVGID_68_);}
	.st88{fill-rule:evenodd;clip-rule:evenodd;fill:url(#SVGID_69_);}
	.st89{fill-rule:evenodd;clip-rule:evenodd;fill:url(#SVGID_70_);}
	.st90{fill-rule:evenodd;clip-rule:evenodd;fill:url(#SVGID_71_);}
	.st91{fill-rule:evenodd;clip-rule:evenodd;fill:url(#SVGID_72_);}
	.st92{fill-rule:evenodd;clip-rule:evenodd;fill:url(#SVGID_73_);}
	.st93{fill-rule:evenodd;clip-rule:evenodd;fill:url(#SVGID_74_);}
	.st94{fill-rule:evenodd;clip-rule:evenodd;fill:url(#SVGID_75_);}
	.st95{fill-rule:evenodd;clip-rule:evenodd;fill:url(#SVGID_76_);}
	.st96{fill-rule:evenodd;clip-rule:evenodd;fill:url(#SVGID_77_);}
	.st97{fill-rule:evenodd;clip-rule:evenodd;fill:url(#SVGID_78_);}
	.st98{fill-rule:evenodd;clip-rule:evenodd;fill:url(#SVGID_79_);}
	.st99{fill-rule:evenodd;clip-rule:evenodd;fill:url(#SVGID_80_);}
	.st100{fill-rule:evenodd;clip-rule:evenodd;fill:url(#SVGID_81_);}
	.st101{fill-rule:evenodd;clip-rule:evenodd;fill:url(#SVGID_82_);}
	.st102{fill-rule:evenodd;clip-rule:evenodd;fill:url(#SVGID_83_);}
	.st103{fill-rule:evenodd;clip-rule:evenodd;fill:url(#SVGID_84_);}
	.st104{fill-rule:evenodd;clip-rule:evenodd;fill:url(#SVGID_85_);}
	.st105{fill-rule:evenodd;clip-rule:evenodd;fill:url(#SVGID_86_);}
	.st106{fill-rule:evenodd;clip-rule:evenodd;fill:url(#SVGID_87_);}
	.st107{fill-rule:evenodd;clip-rule:evenodd;fill:url(#SVGID_88_);}
	.st108{fill-rule:evenodd;clip-rule:evenodd;fill:url(#SVGID_89_);}
	.st109{fill-rule:evenodd;clip-rule:evenodd;fill:url(#SVGID_90_);}
	.st110{fill-rule:evenodd;clip-rule:evenodd;fill:url(#SVGID_91_);}
	.st111{fill-rule:evenodd;clip-rule:evenodd;fill:url(#SVGID_92_);}
	.st112{fill-rule:evenodd;clip-rule:evenodd;fill:url(#SVGID_93_);}
	.st113{fill-rule:evenodd;clip-rule:evenodd;fill:url(#SVGID_94_);}
	.st114{fill-rule:evenodd;clip-rule:evenodd;fill:url(#SVGID_95_);}
	.st115{fill-rule:evenodd;clip-rule:evenodd;fill:url(#SVGID_96_);}
	.st116{fill-rule:evenodd;clip-rule:evenodd;fill:url(#SVGID_97_);}
	.st117{fill-rule:evenodd;clip-rule:evenodd;fill:url(#SVGID_98_);}
	.st118{fill-rule:evenodd;clip-rule:evenodd;fill:url(#SVGID_99_);}
	.st119{fill-rule:evenodd;clip-rule:evenodd;fill:url(#SVGID_100_);}
	.st120{fill-rule:evenodd;clip-rule:evenodd;fill:url(#SVGID_101_);}
	.st121{fill-rule:evenodd;clip-rule:evenodd;fill:url(#SVGID_102_);}
	.st122{fill-rule:evenodd;clip-rule:evenodd;fill:url(#SVGID_103_);}
	.st123{fill-rule:evenodd;clip-rule:evenodd;fill:url(#SVGID_104_);}
	.st124{fill-rule:evenodd;clip-rule:evenodd;fill:url(#SVGID_105_);}
	.st125{fill-rule:evenodd;clip-rule:evenodd;fill:url(#SVGID_106_);}
	.st126{fill-rule:evenodd;clip-rule:evenodd;fill:url(#SVGID_107_);}
	.st127{fill-rule:evenodd;clip-rule:evenodd;fill:url(#SVGID_108_);}
	.st128{fill-rule:evenodd;clip-rule:evenodd;fill:url(#SVGID_109_);}
	.st129{fill-rule:evenodd;clip-rule:evenodd;fill:url(#SVGID_110_);}
	.st130{fill-rule:evenodd;clip-rule:evenodd;fill:url(#SVGID_111_);}
	.st131{fill-rule:evenodd;clip-rule:evenodd;fill:url(#SVGID_112_);}
	.st132{fill-rule:evenodd;clip-rule:evenodd;fill:url(#SVGID_113_);}
	.st133{opacity:0.2;fill-rule:evenodd;clip-rule:evenodd;fill:url(#SVGID_114_);enable-background:new    ;}
	.st134{fill:#FFFFFF;stroke:url(#SVGID_115_);stroke-miterlimit:10;}
	.st135{fill:url(#SVGID_116_);}
	.st136{fill:url(#SVGID_117_);}
	.st137{fill:url(#SVGID_118_);}
	.st138{fill:url(#SVGID_119_);}
	.st139{fill:#FFFFFF;stroke:url(#SVGID_120_);stroke-miterlimit:10;}
	.st140{fill:url(#SVGID_121_);}
	.st141{fill:url(#SVGID_122_);}
	.st142{fill:url(#SVGID_123_);}
	.st143{fill:url(#SVGID_124_);}
	.st144{fill-rule:evenodd;clip-rule:evenodd;fill:url(#SVGID_125_);}
	.st145{fill-rule:evenodd;clip-rule:evenodd;fill:url(#SVGID_126_);}
	.st146{fill-rule:evenodd;clip-rule:evenodd;fill:url(#SVGID_127_);}
	.st147{fill-rule:evenodd;clip-rule:evenodd;fill:url(#SVGID_128_);}
	.st148{fill-rule:evenodd;clip-rule:evenodd;fill:url(#SVGID_129_);}
	.st149{fill-rule:evenodd;clip-rule:evenodd;fill:url(#SVGID_130_);}
	.st150{fill-rule:evenodd;clip-rule:evenodd;fill:url(#SVGID_131_);}
	.st151{fill-rule:evenodd;clip-rule:evenodd;fill:url(#SVGID_132_);}
	.st152{fill-rule:evenodd;clip-rule:evenodd;fill:url(#SVGID_133_);}
	.st153{fill-rule:evenodd;clip-rule:evenodd;fill:url(#SVGID_134_);}
	.st154{fill-rule:evenodd;clip-rule:evenodd;fill:url(#SVGID_135_);}
	.st155{fill-rule:evenodd;clip-rule:evenodd;fill:url(#SVGID_136_);}
	.st156{fill-rule:evenodd;clip-rule:evenodd;fill:url(#SVGID_137_);}
	.st157{fill-rule:evenodd;clip-rule:evenodd;fill:url(#SVGID_138_);}
	.st158{fill-rule:evenodd;clip-rule:evenodd;fill:url(#SVGID_139_);}
	.st159{fill-rule:evenodd;clip-rule:evenodd;fill:url(#SVGID_140_);}
	.st160{fill-rule:evenodd;clip-rule:evenodd;fill:url(#SVGID_141_);}
	.st161{fill-rule:evenodd;clip-rule:evenodd;fill:url(#SVGID_142_);}
	.st162{fill-rule:evenodd;clip-rule:evenodd;fill:url(#SVGID_143_);}
	.st163{fill-rule:evenodd;clip-rule:evenodd;fill:url(#SVGID_144_);}
	.st164{fill-rule:evenodd;clip-rule:evenodd;fill:url(#SVGID_145_);}
	.st165{fill-rule:evenodd;clip-rule:evenodd;fill:url(#SVGID_146_);}
	.st166{fill-rule:evenodd;clip-rule:evenodd;fill:url(#SVGID_147_);}
	.st167{fill-rule:evenodd;clip-rule:evenodd;fill:url(#SVGID_148_);}
	.st168{fill-rule:evenodd;clip-rule:evenodd;fill:url(#SVGID_149_);}
	.st169{fill-rule:evenodd;clip-rule:evenodd;fill:url(#SVGID_150_);}
	.st170{fill-rule:evenodd;clip-rule:evenodd;fill:url(#SVGID_151_);}
	.st171{fill-rule:evenodd;clip-rule:evenodd;fill:url(#SVGID_152_);}
	.st172{fill-rule:evenodd;clip-rule:evenodd;fill:url(#SVGID_153_);}
	.st173{fill-rule:evenodd;clip-rule:evenodd;fill:url(#SVGID_154_);}
	.st174{fill-rule:evenodd;clip-rule:evenodd;fill:url(#SVGID_155_);}
	.st175{fill-rule:evenodd;clip-rule:evenodd;fill:url(#SVGID_156_);}
	.st176{fill-rule:evenodd;clip-rule:evenodd;fill:url(#SVGID_157_);}
	.st177{fill-rule:evenodd;clip-rule:evenodd;fill:url(#SVGID_158_);}
	.st178{fill-rule:evenodd;clip-rule:evenodd;fill:url(#SVGID_159_);}
	.st179{fill-rule:evenodd;clip-rule:evenodd;fill:url(#SVGID_160_);}
	.st180{fill-rule:evenodd;clip-rule:evenodd;fill:url(#SVGID_161_);}
	.st181{fill-rule:evenodd;clip-rule:evenodd;fill:url(#SVGID_162_);}
	.st182{fill-rule:evenodd;clip-rule:evenodd;fill:url(#SVGID_163_);}
	.st183{fill-rule:evenodd;clip-rule:evenodd;fill:url(#SVGID_164_);}
	.st184{fill-rule:evenodd;clip-rule:evenodd;fill:url(#SVGID_165_);}
	.st185{fill-rule:evenodd;clip-rule:evenodd;fill:url(#SVGID_166_);}
	.st186{fill-rule:evenodd;clip-rule:evenodd;fill:url(#SVGID_167_);}
	.st187{fill-rule:evenodd;clip-rule:evenodd;fill:url(#SVGID_168_);}
	.st188{fill-rule:evenodd;clip-rule:evenodd;fill:url(#SVGID_169_);}
	.st189{fill-rule:evenodd;clip-rule:evenodd;fill:url(#SVGID_170_);}
	.st190{fill-rule:evenodd;clip-rule:evenodd;fill:url(#SVGID_171_);}
	.st191{fill-rule:evenodd;clip-rule:evenodd;fill:url(#SVGID_172_);}
	.st192{fill-rule:evenodd;clip-rule:evenodd;fill:url(#SVGID_173_);}
	.st193{fill-rule:evenodd;clip-rule:evenodd;fill:url(#SVGID_174_);}
	.st194{opacity:0.1;fill:url(#SVGID_175_);enable-background:new    ;}
	.st195{fill:url(#SVGID_176_);}
	.st196{fill:url(#SVGID_177_);}
	.st197{opacity:0.3;}
	.st198{fill:url(#SVGID_178_);}
	.st199{fill:url(#SVGID_179_);}
	.st200{opacity:0.3;fill:#009FD8;enable-background:new    ;}
	.st201{fill:url(#SVGID_180_);}
	.st202{fill:#ECECEC;}
	.st203{fill:#007CFF;}
	.st204{fill:#1A2E35;}
	.st205{opacity:0.2;fill:#007CFF;enable-background:new    ;}
	.st206{opacity:0.5;fill:#FFFFFF;enable-background:new    ;}
	.st207{opacity:0.4;fill:#007CFF;enable-background:new    ;}
	.st208{opacity:0.8;fill:#FFFFFF;enable-background:new    ;}
	.st209{opacity:0.5;fill:#007CFF;enable-background:new    ;}
	.st210{fill:url(#SVGID_181_);}
	.st211{fill:url(#SVGID_182_);}
	.st212{opacity:0.3;fill:#007CFF;enable-background:new    ;}
	.st213{opacity:0.8;fill-rule:evenodd;clip-rule:evenodd;fill:#FFFFFF;enable-background:new    ;}
	.st214{opacity:5.000000e-02;fill:url(#SVGID_183_);enable-background:new    ;}
	.st215{fill:url(#SVGID_184_);}
	.st216{fill:url(#SVGID_185_);}
	.st217{fill:#E7E7E7;}
	.st218{fill:#E1E1E1;}
	.st219{opacity:0.5;fill:#FAFAFA;enable-background:new    ;}
	.st220{opacity:0.6;fill:#FFFFFF;enable-background:new    ;}
	.st221{fill:#F0F0F0;}
	.st222{fill:#121F23;}
	.st223{opacity:0.1;enable-background:new    ;}
	.st224{fill:none;stroke:#007CFF;stroke-linecap:round;stroke-linejoin:round;stroke-miterlimit:10;}
	.st225{fill:none;stroke:#007CFF;stroke-miterlimit:10;}
	.st226{opacity:0.4;fill:#FFFFFF;enable-background:new    ;}
	.st227{opacity:0.3;fill:#FFFFFF;enable-background:new    ;}
	.st228{opacity:0.2;fill:#FFFFFF;enable-background:new    ;}
	.st229{opacity:0.6;fill:#1A2E35;enable-background:new    ;}
</style>
<g>
	<path class="st2" d="M243.4,86.7H240v6.7h3.3c2.7,0,5.2,1.1,7.1,2.9c1.9,1.9,2.9,4.4,2.9,7.1v90h-6.7v6.7h6.7v6.7
		c0,3.6-1.9,6.9-5,8.7l3.3,5.8c5.2-3,8.4-8.5,8.4-14.4V103.3c0-4.4-1.8-8.7-4.9-11.8C252,88.3,247.9,86.7,243.4,86.7L243.4,86.7z"/>
	<path class="st2" d="M60,206.7c0,4.4,1.8,8.7,4.9,11.8c3.1,3.1,7.4,4.9,11.8,4.9h61.9l-10.9,30h-11v6.7h86.7v-6.7h-11l-4.1-11.1
		l-6.3,2.3l3.2,8.9h-50.5l11.7-32.2c0.4-1,0.2-2.2-0.4-3.1c-0.6-0.9-1.6-1.4-2.7-1.4H76.6c-2.7,0-5.2-1.1-7.1-2.9
		c-1.9-1.9-2.9-4.4-2.9-7.1v-6.7H130v-6.7H66.6v-90c0-2.7,1.1-5.2,2.9-7.1c1.9-1.9,4.4-2.9,7.1-2.9h3.3v-6.7h-3.3
		c-4.4,0-8.7,1.8-11.8,4.9s-4.9,7.4-4.9,11.8v93.3L60,206.7z"/>
	<path class="st2" d="M233.4,136.6v-60c0-4.4-1.8-8.7-4.9-11.8S221,60,216.6,60H103.4c-4.4,0-8.7,1.8-11.8,4.9s-4.9,7.4-4.9,11.8
		v110h6.7v-110c0-2.7,1.1-5.2,2.9-7.1c1.9-1.9,4.4-2.9,7.1-2.9h113.3c2.7,0,5.2,1.1,7.1,2.9c1.9,1.9,2.9,4.4,2.9,7.1v60
		C226.8,136.7,233.4,136.7,233.4,136.6z"/>
	<path class="st2" d="M103.4,73.3h6.7V80h-6.7V73.3z"/>
	<path class="st2" d="M116.7,73.3h6.7V80h-6.7V73.3z"/>
	<path class="st2" d="M130,73.3h6.7V80H130V73.3z"/>
	<path class="st2" d="M130,166.6v-26.7c0-0.9-0.4-1.7-1-2.4c-0.6-0.6-1.5-1-2.4-1h-13.3c-1.8,0-3.3,1.5-3.3,3.3v23.3h-6.7v6.7H130
		V166.6z M123.4,163.3h-6.7v-20h6.7V163.3z"/>
	<path class="st2" d="M156.7,133.3v-16.6c0-0.9-0.4-1.7-1-2.4s-1.5-1-2.4-1H140c-1.8,0-3.3,1.5-3.3,3.3v30h6.7V120h6.7v13.3
		C150.1,133.3,156.7,133.3,156.7,133.3z"/>
	<path class="st2" d="M183.4,123.3v-10c0-0.9-0.4-1.7-1-2.4s-1.5-1-2.4-1h-13.3c-1.8,0-3.3,1.5-3.3,3.3v13.3h6.7v-10h6.7v6.7
		L183.4,123.3L183.4,123.3z"/>
	<path class="st2" d="M210,123.3v-20c0-0.9-0.4-1.7-1-2.4c-0.6-0.7-1.5-1-2.4-1h-13.3c-1.8,0-3.3,1.5-3.3,3.3v20h6.7v-16.5h6.7v16.7
		h6.6V123.3z"/>
	<path class="st2" d="M232.9,214.9c10.4-14.2,13.2-32.6,7.5-49.2s-19.3-29.4-36.2-34.1c-16.9-4.7-35.1-0.8-48.7,10.4
		c-13.5,11.3-20.6,28.4-19,46c1.6,17.5,11.7,33.1,27,41.8c15.3,8.6,33.9,9.2,49.7,1.5l25,25c2.4,2.4,5.6,3.7,9,3.7s6.6-1.3,9-3.7
		c2.4-2.4,3.7-5.6,3.7-9s-1.4-6.6-3.7-9L232.9,214.9z M190,229.9c-12.4,0-24.2-4.9-33-13.7s-13.7-20.6-13.7-33s4.9-24.2,13.7-33
		s20.6-13.7,33-13.7s24.2,4.9,33,13.7c8.8,8.8,13.7,20.6,13.7,33c0,12.4-4.9,24.2-13.7,33C214.2,225.1,202.4,229.9,190,229.9z
		 M251.6,251.4L251.6,251.4c-1.2,1.1-2.7,1.7-4.3,1.7c-1.6,0-3.1-0.6-4.3-1.7l-23.7-23.7c3.4-2.3,6.6-4.9,9.4-7.9l22.9,22.9
		c1.1,1.1,1.8,2.7,1.8,4.3C253.4,248.8,252.7,250.4,251.6,251.4L251.6,251.4z"/>
	<path class="st2" d="M190,143.3c-10.6,0-20.8,4.2-28.3,11.7S150,172.6,150,183.3s4.2,20.8,11.7,28.3s17.7,11.7,28.3,11.7
		s20.8-4.2,28.3-11.7s11.7-17.7,11.7-28.3s-4.2-20.8-11.7-28.3C210.9,147.6,200.6,143.3,190,143.3L190,143.3z M190,216.7
		c-8.8,0-17.3-3.5-23.6-9.8s-9.8-14.7-9.8-23.6s3.5-17.3,9.8-23.6c6.3-6.3,14.7-9.8,23.6-9.8c8.8,0,17.3,3.5,23.6,9.8
		c6.2,6.3,9.8,14.7,9.8,23.6c0,8.8-3.5,17.3-9.8,23.6C207.3,213.1,198.9,216.6,190,216.7L190,216.7z"/>
	<path class="st2" d="M184.3,164.1c1.8-0.6,3.8-0.8,5.7-0.8v-6.7c-2.6,0-5.1,0.4-7.6,1.1L184.3,164.1z"/>
	<path class="st2" d="M163.4,183.3h6.7c0-6.5,3.2-12.7,8.6-16.4l-3.8-5.5C167.6,166.4,163.4,174.6,163.4,183.3L163.4,183.3z"/>
	<path class="st2" d="M103.4,176.7h13.3v6.7h-13.3V176.7z"/>
	<path class="st2" d="M123.4,176.7h6.7v6.7h-6.7V176.7z"/>
	<path class="st2" d="M103.4,86.7h113.3v6.7H103.4V86.7z"/>
	<path class="st2" d="M103.4,100h13.3v6.7h-13.3V100z"/>
</g>
</svg>
