<?xml version="1.0" encoding="utf-8"?>
<!-- Generator: Adobe Illustrator 24.0.1, SVG Export Plug-In . SVG Version: 6.00 Build 0)  -->
<svg version="1.1" id="Layer_1" xmlns="http://www.w3.org/2000/svg" xmlns:xlink="http://www.w3.org/1999/xlink" x="0px" y="0px"
	 viewBox="0 0 320 320" style="enable-background:new 0 0 320 320;" xml:space="preserve">
<style type="text/css">
	.st0{opacity:5.000000e-02;fill:url(#SVGID_3_);enable-background:new    ;}
	.st1{opacity:0.7;}
	.st2{fill:#009FD8;}
	.st3{opacity:0.2;fill:#008CB2;enable-background:new    ;}
	.st4{fill:#E44235;}
	.st5{fill:#FFFFFF;}
	.st6{opacity:0.72;stroke:#FFFFFF;stroke-miterlimit:10;enable-background:new    ;}
	.st7{fill:none;stroke:url(#SVGID_4_);stroke-width:0.5;stroke-miterlimit:10;}
	.st8{fill:#0084A3;}
	.st9{fill:#0094BC;}
	.st10{fill-rule:evenodd;clip-rule:evenodd;fill:#FFFFFF;}
	.st11{opacity:0.8;}
	.st12{opacity:0.72;}
	.st13{fill:none;stroke:#FFFFFF;stroke-miterlimit:10;}
	.st14{fill:url(#SVGID_5_);}
	.st15{fill:url(#SVGID_6_);}
	.st16{fill:url(#SVGID_7_);}
	.st17{fill:url(#SVGID_8_);}
	.st18{fill:url(#SVGID_9_);}
	.st19{fill:url(#SVGID_10_);}
	.st20{fill:url(#SVGID_11_);}
	.st21{fill:url(#SVGID_12_);}
	.st22{fill:url(#SVGID_13_);}
	.st23{fill:url(#SVGID_14_);}
	.st24{fill:url(#SVGID_15_);}
	.st25{fill:url(#SVGID_16_);}
	.st26{fill:url(#SVGID_17_);}
	.st27{fill:url(#SVGID_18_);}
	.st28{opacity:0.1;fill:#0084A3;enable-background:new    ;}
	.st29{opacity:0.4;fill:#EAE9E8;enable-background:new    ;}
	.st30{fill:none;stroke:#999999;stroke-width:0.5;stroke-miterlimit:10;stroke-dasharray:1;}
	.st31{fill:url(#SVGID_19_);}
	.st32{fill:url(#SVGID_20_);}
	.st33{fill:url(#SVGID_21_);}
	.st34{fill:url(#SVGID_22_);}
	.st35{fill:url(#SVGID_23_);}
	.st36{fill:url(#SVGID_24_);}
	.st37{fill:url(#SVGID_25_);}
	.st38{fill:url(#SVGID_26_);}
	.st39{fill:url(#SVGID_27_);}
	.st40{fill:url(#SVGID_28_);}
	.st41{fill:url(#SVGID_29_);}
	.st42{fill:url(#SVGID_30_);}
	.st43{fill:url(#SVGID_31_);}
	.st44{fill:url(#SVGID_32_);}
	.st45{fill:url(#SVGID_33_);}
	.st46{fill:none;stroke:#009FD8;stroke-width:0.5;stroke-miterlimit:10;stroke-dasharray:1;}
	.st47{fill:url(#SVGID_34_);}
	.st48{opacity:0.72;enable-background:new    ;}
	.st49{fill:none;stroke:#009FD8;stroke-miterlimit:10;}
	.st50{fill:none;stroke:#0068D8;stroke-miterlimit:10;}
	.st51{fill:#F4F4F4;}
	.st52{fill-rule:evenodd;clip-rule:evenodd;fill:#009FD8;}
	.st53{opacity:0.4;fill-rule:evenodd;clip-rule:evenodd;fill:#EAE9E8;enable-background:new    ;}
	.st54{opacity:0.2;fill-rule:evenodd;clip-rule:evenodd;fill:url(#SVGID_35_);enable-background:new    ;}
	.st55{fill-rule:evenodd;clip-rule:evenodd;fill:url(#SVGID_36_);}
	.st56{fill-rule:evenodd;clip-rule:evenodd;fill:url(#SVGID_37_);}
	.st57{fill-rule:evenodd;clip-rule:evenodd;fill:url(#SVGID_38_);}
	.st58{fill-rule:evenodd;clip-rule:evenodd;fill:url(#SVGID_39_);}
	.st59{fill-rule:evenodd;clip-rule:evenodd;fill:url(#SVGID_40_);}
	.st60{fill-rule:evenodd;clip-rule:evenodd;fill:url(#SVGID_41_);}
	.st61{fill-rule:evenodd;clip-rule:evenodd;fill:url(#SVGID_42_);}
	.st62{fill-rule:evenodd;clip-rule:evenodd;fill:url(#SVGID_43_);}
	.st63{fill-rule:evenodd;clip-rule:evenodd;fill:url(#SVGID_44_);}
	.st64{fill-rule:evenodd;clip-rule:evenodd;fill:url(#SVGID_45_);}
	.st65{fill-rule:evenodd;clip-rule:evenodd;fill:url(#SVGID_46_);}
	.st66{fill-rule:evenodd;clip-rule:evenodd;fill:url(#SVGID_47_);}
	.st67{fill-rule:evenodd;clip-rule:evenodd;fill:url(#SVGID_48_);}
	.st68{fill-rule:evenodd;clip-rule:evenodd;fill:url(#SVGID_49_);}
	.st69{fill-rule:evenodd;clip-rule:evenodd;fill:url(#SVGID_50_);}
	.st70{fill-rule:evenodd;clip-rule:evenodd;fill:url(#SVGID_51_);}
	.st71{fill-rule:evenodd;clip-rule:evenodd;fill:url(#SVGID_52_);}
	.st72{fill-rule:evenodd;clip-rule:evenodd;fill:url(#SVGID_53_);}
	.st73{fill-rule:evenodd;clip-rule:evenodd;fill:url(#SVGID_54_);}
	.st74{fill-rule:evenodd;clip-rule:evenodd;fill:url(#SVGID_55_);}
	.st75{fill-rule:evenodd;clip-rule:evenodd;fill:url(#SVGID_56_);}
	.st76{fill-rule:evenodd;clip-rule:evenodd;fill:url(#SVGID_57_);}
	.st77{fill-rule:evenodd;clip-rule:evenodd;fill:url(#SVGID_58_);}
	.st78{fill-rule:evenodd;clip-rule:evenodd;fill:url(#SVGID_59_);}
	.st79{fill-rule:evenodd;clip-rule:evenodd;fill:url(#SVGID_60_);}
	.st80{fill-rule:evenodd;clip-rule:evenodd;fill:url(#SVGID_61_);}
	.st81{fill-rule:evenodd;clip-rule:evenodd;fill:url(#SVGID_62_);}
	.st82{fill-rule:evenodd;clip-rule:evenodd;fill:url(#SVGID_63_);}
	.st83{fill-rule:evenodd;clip-rule:evenodd;fill:url(#SVGID_64_);}
	.st84{fill-rule:evenodd;clip-rule:evenodd;fill:url(#SVGID_65_);}
	.st85{fill-rule:evenodd;clip-rule:evenodd;fill:url(#SVGID_66_);}
	.st86{fill-rule:evenodd;clip-rule:evenodd;fill:url(#SVGID_67_);}
	.st87{fill-rule:evenodd;clip-rule:evenodd;fill:url(#SVGID_68_);}
	.st88{fill-rule:evenodd;clip-rule:evenodd;fill:url(#SVGID_69_);}
	.st89{fill-rule:evenodd;clip-rule:evenodd;fill:url(#SVGID_70_);}
	.st90{fill-rule:evenodd;clip-rule:evenodd;fill:url(#SVGID_71_);}
	.st91{fill-rule:evenodd;clip-rule:evenodd;fill:url(#SVGID_72_);}
	.st92{fill-rule:evenodd;clip-rule:evenodd;fill:url(#SVGID_73_);}
	.st93{fill-rule:evenodd;clip-rule:evenodd;fill:url(#SVGID_74_);}
	.st94{fill-rule:evenodd;clip-rule:evenodd;fill:url(#SVGID_75_);}
	.st95{fill-rule:evenodd;clip-rule:evenodd;fill:url(#SVGID_76_);}
	.st96{fill-rule:evenodd;clip-rule:evenodd;fill:url(#SVGID_77_);}
	.st97{fill-rule:evenodd;clip-rule:evenodd;fill:url(#SVGID_78_);}
	.st98{fill-rule:evenodd;clip-rule:evenodd;fill:url(#SVGID_79_);}
	.st99{fill-rule:evenodd;clip-rule:evenodd;fill:url(#SVGID_80_);}
	.st100{fill-rule:evenodd;clip-rule:evenodd;fill:url(#SVGID_81_);}
	.st101{fill-rule:evenodd;clip-rule:evenodd;fill:url(#SVGID_82_);}
	.st102{fill-rule:evenodd;clip-rule:evenodd;fill:url(#SVGID_83_);}
	.st103{fill-rule:evenodd;clip-rule:evenodd;fill:url(#SVGID_84_);}
	.st104{fill-rule:evenodd;clip-rule:evenodd;fill:url(#SVGID_85_);}
	.st105{fill-rule:evenodd;clip-rule:evenodd;fill:url(#SVGID_86_);}
	.st106{fill-rule:evenodd;clip-rule:evenodd;fill:url(#SVGID_87_);}
	.st107{fill-rule:evenodd;clip-rule:evenodd;fill:url(#SVGID_88_);}
	.st108{fill-rule:evenodd;clip-rule:evenodd;fill:url(#SVGID_89_);}
	.st109{fill-rule:evenodd;clip-rule:evenodd;fill:url(#SVGID_90_);}
	.st110{fill-rule:evenodd;clip-rule:evenodd;fill:url(#SVGID_91_);}
	.st111{fill-rule:evenodd;clip-rule:evenodd;fill:url(#SVGID_92_);}
	.st112{fill-rule:evenodd;clip-rule:evenodd;fill:url(#SVGID_93_);}
	.st113{fill-rule:evenodd;clip-rule:evenodd;fill:url(#SVGID_94_);}
	.st114{fill-rule:evenodd;clip-rule:evenodd;fill:url(#SVGID_95_);}
	.st115{fill-rule:evenodd;clip-rule:evenodd;fill:url(#SVGID_96_);}
	.st116{fill-rule:evenodd;clip-rule:evenodd;fill:url(#SVGID_97_);}
	.st117{fill-rule:evenodd;clip-rule:evenodd;fill:url(#SVGID_98_);}
	.st118{fill-rule:evenodd;clip-rule:evenodd;fill:url(#SVGID_99_);}
	.st119{fill-rule:evenodd;clip-rule:evenodd;fill:url(#SVGID_100_);}
	.st120{fill-rule:evenodd;clip-rule:evenodd;fill:url(#SVGID_101_);}
	.st121{fill-rule:evenodd;clip-rule:evenodd;fill:url(#SVGID_102_);}
	.st122{fill-rule:evenodd;clip-rule:evenodd;fill:url(#SVGID_103_);}
	.st123{fill-rule:evenodd;clip-rule:evenodd;fill:url(#SVGID_104_);}
	.st124{fill-rule:evenodd;clip-rule:evenodd;fill:url(#SVGID_105_);}
	.st125{fill-rule:evenodd;clip-rule:evenodd;fill:url(#SVGID_106_);}
	.st126{fill-rule:evenodd;clip-rule:evenodd;fill:url(#SVGID_107_);}
	.st127{fill-rule:evenodd;clip-rule:evenodd;fill:url(#SVGID_108_);}
	.st128{fill-rule:evenodd;clip-rule:evenodd;fill:url(#SVGID_109_);}
	.st129{fill-rule:evenodd;clip-rule:evenodd;fill:url(#SVGID_110_);}
	.st130{fill-rule:evenodd;clip-rule:evenodd;fill:url(#SVGID_111_);}
	.st131{fill-rule:evenodd;clip-rule:evenodd;fill:url(#SVGID_112_);}
	.st132{fill-rule:evenodd;clip-rule:evenodd;fill:url(#SVGID_113_);}
	.st133{opacity:0.2;fill-rule:evenodd;clip-rule:evenodd;fill:url(#SVGID_114_);enable-background:new    ;}
	.st134{fill:#FFFFFF;stroke:url(#SVGID_115_);stroke-miterlimit:10;}
	.st135{fill:url(#SVGID_116_);}
	.st136{fill:url(#SVGID_117_);}
	.st137{fill:url(#SVGID_118_);}
	.st138{fill:url(#SVGID_119_);}
	.st139{fill:#FFFFFF;stroke:url(#SVGID_120_);stroke-miterlimit:10;}
	.st140{fill:url(#SVGID_121_);}
	.st141{fill:url(#SVGID_122_);}
	.st142{fill:url(#SVGID_123_);}
	.st143{fill:url(#SVGID_124_);}
	.st144{fill-rule:evenodd;clip-rule:evenodd;fill:url(#SVGID_125_);}
	.st145{fill-rule:evenodd;clip-rule:evenodd;fill:url(#SVGID_126_);}
	.st146{fill-rule:evenodd;clip-rule:evenodd;fill:url(#SVGID_127_);}
	.st147{fill-rule:evenodd;clip-rule:evenodd;fill:url(#SVGID_128_);}
	.st148{fill-rule:evenodd;clip-rule:evenodd;fill:url(#SVGID_129_);}
	.st149{fill-rule:evenodd;clip-rule:evenodd;fill:url(#SVGID_130_);}
	.st150{fill-rule:evenodd;clip-rule:evenodd;fill:url(#SVGID_131_);}
	.st151{fill-rule:evenodd;clip-rule:evenodd;fill:url(#SVGID_132_);}
	.st152{fill-rule:evenodd;clip-rule:evenodd;fill:url(#SVGID_133_);}
	.st153{fill-rule:evenodd;clip-rule:evenodd;fill:url(#SVGID_134_);}
	.st154{fill-rule:evenodd;clip-rule:evenodd;fill:url(#SVGID_135_);}
	.st155{fill-rule:evenodd;clip-rule:evenodd;fill:url(#SVGID_136_);}
	.st156{fill-rule:evenodd;clip-rule:evenodd;fill:url(#SVGID_137_);}
	.st157{fill-rule:evenodd;clip-rule:evenodd;fill:url(#SVGID_138_);}
	.st158{fill-rule:evenodd;clip-rule:evenodd;fill:url(#SVGID_139_);}
	.st159{fill-rule:evenodd;clip-rule:evenodd;fill:url(#SVGID_140_);}
	.st160{fill-rule:evenodd;clip-rule:evenodd;fill:url(#SVGID_141_);}
	.st161{fill-rule:evenodd;clip-rule:evenodd;fill:url(#SVGID_142_);}
	.st162{fill-rule:evenodd;clip-rule:evenodd;fill:url(#SVGID_143_);}
	.st163{fill-rule:evenodd;clip-rule:evenodd;fill:url(#SVGID_144_);}
	.st164{fill-rule:evenodd;clip-rule:evenodd;fill:url(#SVGID_145_);}
	.st165{fill-rule:evenodd;clip-rule:evenodd;fill:url(#SVGID_146_);}
	.st166{fill-rule:evenodd;clip-rule:evenodd;fill:url(#SVGID_147_);}
	.st167{fill-rule:evenodd;clip-rule:evenodd;fill:url(#SVGID_148_);}
	.st168{fill-rule:evenodd;clip-rule:evenodd;fill:url(#SVGID_149_);}
	.st169{fill-rule:evenodd;clip-rule:evenodd;fill:url(#SVGID_150_);}
	.st170{fill-rule:evenodd;clip-rule:evenodd;fill:url(#SVGID_151_);}
	.st171{fill-rule:evenodd;clip-rule:evenodd;fill:url(#SVGID_152_);}
	.st172{fill-rule:evenodd;clip-rule:evenodd;fill:url(#SVGID_153_);}
	.st173{fill-rule:evenodd;clip-rule:evenodd;fill:url(#SVGID_154_);}
	.st174{fill-rule:evenodd;clip-rule:evenodd;fill:url(#SVGID_155_);}
	.st175{fill-rule:evenodd;clip-rule:evenodd;fill:url(#SVGID_156_);}
	.st176{fill-rule:evenodd;clip-rule:evenodd;fill:url(#SVGID_157_);}
	.st177{fill-rule:evenodd;clip-rule:evenodd;fill:url(#SVGID_158_);}
	.st178{fill-rule:evenodd;clip-rule:evenodd;fill:url(#SVGID_159_);}
	.st179{fill-rule:evenodd;clip-rule:evenodd;fill:url(#SVGID_160_);}
	.st180{fill-rule:evenodd;clip-rule:evenodd;fill:url(#SVGID_161_);}
	.st181{fill-rule:evenodd;clip-rule:evenodd;fill:url(#SVGID_162_);}
	.st182{fill-rule:evenodd;clip-rule:evenodd;fill:url(#SVGID_163_);}
	.st183{fill-rule:evenodd;clip-rule:evenodd;fill:url(#SVGID_164_);}
	.st184{fill-rule:evenodd;clip-rule:evenodd;fill:url(#SVGID_165_);}
	.st185{fill-rule:evenodd;clip-rule:evenodd;fill:url(#SVGID_166_);}
	.st186{fill-rule:evenodd;clip-rule:evenodd;fill:url(#SVGID_167_);}
	.st187{fill-rule:evenodd;clip-rule:evenodd;fill:url(#SVGID_168_);}
	.st188{fill-rule:evenodd;clip-rule:evenodd;fill:url(#SVGID_169_);}
	.st189{fill-rule:evenodd;clip-rule:evenodd;fill:url(#SVGID_170_);}
	.st190{fill-rule:evenodd;clip-rule:evenodd;fill:url(#SVGID_171_);}
	.st191{fill-rule:evenodd;clip-rule:evenodd;fill:url(#SVGID_172_);}
	.st192{fill-rule:evenodd;clip-rule:evenodd;fill:url(#SVGID_173_);}
	.st193{fill-rule:evenodd;clip-rule:evenodd;fill:url(#SVGID_174_);}
	.st194{opacity:0.1;fill:url(#SVGID_175_);enable-background:new    ;}
	.st195{fill:url(#SVGID_176_);}
	.st196{fill:url(#SVGID_177_);}
	.st197{opacity:0.3;}
	.st198{fill:url(#SVGID_178_);}
	.st199{fill:url(#SVGID_179_);}
	.st200{opacity:0.3;fill:#009FD8;enable-background:new    ;}
	.st201{fill:url(#SVGID_180_);}
	.st202{fill:#ECECEC;}
	.st203{fill:#007CFF;}
	.st204{fill:#1A2E35;}
	.st205{opacity:0.2;fill:#007CFF;enable-background:new    ;}
	.st206{opacity:0.5;fill:#FFFFFF;enable-background:new    ;}
	.st207{opacity:0.4;fill:#007CFF;enable-background:new    ;}
	.st208{opacity:0.8;fill:#FFFFFF;enable-background:new    ;}
	.st209{opacity:0.5;fill:#007CFF;enable-background:new    ;}
	.st210{fill:url(#SVGID_181_);}
	.st211{fill:url(#SVGID_182_);}
	.st212{opacity:0.3;fill:#007CFF;enable-background:new    ;}
	.st213{opacity:0.8;fill-rule:evenodd;clip-rule:evenodd;fill:#FFFFFF;enable-background:new    ;}
	.st214{opacity:5.000000e-02;fill:url(#SVGID_183_);enable-background:new    ;}
	.st215{fill:url(#SVGID_184_);}
	.st216{fill:url(#SVGID_185_);}
	.st217{fill:#E7E7E7;}
	.st218{fill:#E1E1E1;}
	.st219{opacity:0.5;fill:#FAFAFA;enable-background:new    ;}
	.st220{opacity:0.6;fill:#FFFFFF;enable-background:new    ;}
	.st221{fill:#F0F0F0;}
	.st222{fill:#121F23;}
	.st223{opacity:0.1;enable-background:new    ;}
	.st224{fill:none;stroke:#007CFF;stroke-linecap:round;stroke-linejoin:round;stroke-miterlimit:10;}
	.st225{fill:none;stroke:#007CFF;stroke-miterlimit:10;}
	.st226{opacity:0.4;fill:#FFFFFF;enable-background:new    ;}
	.st227{opacity:0.3;fill:#FFFFFF;enable-background:new    ;}
	.st228{opacity:0.2;fill:#FFFFFF;enable-background:new    ;}
	.st229{opacity:0.6;fill:#1A2E35;enable-background:new    ;}
</style>
<g>
	<path class="st2" d="M147.5,237.5H97.3c-5.4,0-9.8-4.4-9.8-9.8V69.8c0-5.4,4.4-9.8,9.8-9.8h125.3c5.4,0,9.8,4.4,9.8,9.8v157.9
		c0,5.4-4.4,9.8-9.8,9.8h-50.2c-1.8,0-3.2-1.4-3.2-3.2s1.4-3.2,3.2-3.2h50.2c1.9,0,3.4-1.5,3.4-3.4V69.8c0-1.9-1.5-3.4-3.4-3.4H97.3
		c-1.9,0-3.4,1.5-3.4,3.4v157.9c0,1.9,1.5,3.4,3.4,3.4h50.2c1.8,0,3.2,1.4,3.2,3.2S149.3,237.5,147.5,237.5L147.5,237.5z"/>
	<path class="st2" d="M112.2,141.1h-1.8c-1.8,0-3.2-1.4-3.2-3.2s1.4-3.2,3.2-3.2h1.8c1.8,0,3.2,1.4,3.2,3.2S114,141.1,112.2,141.1
		L112.2,141.1z"/>
	<path class="st2" d="M112.2,161.7h-1.8c-1.8,0-3.2-1.4-3.2-3.2s1.4-3.2,3.2-3.2h1.8c1.8,0,3.2,1.4,3.2,3.2
		C115.4,160.2,114,161.7,112.2,161.7L112.2,161.7z"/>
	<path class="st2" d="M209.6,141.1h-80.2c-1.8,0-3.2-1.4-3.2-3.2s1.4-3.2,3.2-3.2h80.2c1.8,0,3.2,1.4,3.2,3.2
		S211.3,141.1,209.6,141.1z"/>
	<path class="st2" d="M209.6,161.7h-80.2c-1.8,0-3.2-1.4-3.2-3.2s1.4-3.2,3.2-3.2h80.2c1.8,0,3.2,1.4,3.2,3.2
		C212.8,160.2,211.3,161.7,209.6,161.7z"/>
	<path class="st2" d="M160,226.7c-3.3,0-5.5-2.5-7.3-4.5c-0.7-0.8-1.7-1.9-2.2-2.1c-0.6-0.2-2.1-0.2-3.3-0.1
		c-2.6,0.2-5.9,0.4-8.1-1.9c-2.3-2.3-2.1-5.5-1.9-8.1c0.1-1.2,0.2-2.7-0.1-3.3c-0.2-0.5-1.3-1.5-2.1-2.2c-2-1.8-4.5-3.9-4.5-7.3
		s2.5-5.5,4.5-7.3c0.8-0.7,1.9-1.7,2.1-2.2c0.2-0.6,0.2-2.1,0.1-3.3c-0.2-2.6-0.4-5.9,1.9-8.1c2.3-2.3,5.5-2.1,8.1-1.9
		c1.2,0.1,2.7,0.2,3.3-0.1c0.5-0.2,1.5-1.3,2.2-2.1c1.8-2,3.9-4.5,7.3-4.5s5.5,2.5,7.3,4.5c0.7,0.8,1.7,1.9,2.2,2.1
		c0.6,0.2,2.1,0.2,3.3,0.1c2.6-0.2,5.9-0.4,8.1,1.9c2.3,2.3,2.1,5.5,1.9,8.1c-0.1,1.2-0.2,2.7,0.1,3.3c0.2,0.5,1.3,1.5,2.1,2.2
		c2,1.8,4.5,3.9,4.5,7.3c0,3.3-2.5,5.5-4.5,7.3c-0.8,0.7-1.9,1.7-2.1,2.2c-0.2,0.6-0.2,2.1-0.1,3.3c0.2,2.6,0.4,5.9-1.9,8.1
		c-2.3,2.3-5.5,2.1-8.1,1.9c-1.2-0.1-2.7-0.2-3.3,0.1c-0.5,0.2-1.5,1.3-2.2,2.1C165.5,224.3,163.3,226.7,160,226.7L160,226.7z
		 M149.1,213.5c1.3,0,2.6,0.1,3.9,0.6c1.9,0.8,3.3,2.3,4.6,3.8c0.7,0.8,1.9,2.1,2.4,2.3c0.5-0.2,1.8-1.6,2.4-2.3
		c1.3-1.5,2.7-3.1,4.6-3.8c2-0.8,4.2-0.7,6.1-0.6c0.9,0.1,2.6,0.2,3.2-0.1c0.2-0.6,0.1-2.2,0.1-3.2c-0.1-1.9-0.3-4.2,0.6-6.1
		c0.8-1.9,2.3-3.3,3.8-4.6c0.8-0.7,2.1-1.9,2.3-2.4c-0.2-0.5-1.6-1.8-2.3-2.4c-1.5-1.3-3.1-2.7-3.8-4.6c-0.8-2-0.7-4.2-0.6-6.1
		c0.1-0.9,0.2-2.6-0.1-3.2c-0.6-0.2-2.2-0.1-3.2-0.1c-1.9,0.1-4.2,0.3-6.1-0.6c-1.9-0.8-3.3-2.3-4.6-3.8c-0.7-0.8-1.9-2.1-2.4-2.3
		c-0.5,0.2-1.8,1.6-2.4,2.3c-1.3,1.5-2.7,3.1-4.6,3.8c-2,0.8-4.2,0.7-6.1,0.6c-0.9-0.1-2.6-0.2-3.2,0.1c-0.2,0.6-0.1,2.2-0.1,3.2
		c0.1,1.9,0.3,4.2-0.6,6.1c-0.8,1.9-2.3,3.3-3.8,4.6c-0.8,0.7-2.1,1.9-2.3,2.4c0.2,0.5,1.6,1.8,2.3,2.4c1.5,1.3,3.1,2.7,3.8,4.6
		c0.8,2,0.7,4.2,0.6,6.1c-0.1,0.9-0.2,2.6,0.1,3.2c0.6,0.2,2.2,0.1,3.2,0.1C147.6,213.6,148.4,213.5,149.1,213.5L149.1,213.5z
		 M183,197.3L183,197.3L183,197.3z"/>
	<path class="st2" d="M160,208.5c-6.2,0-11.3-5.1-11.3-11.3s5.1-11.3,11.3-11.3c6.2,0,11.3,5.1,11.3,11.3
		C171.3,203.5,166.2,208.5,160,208.5z M160,192.4c-2.7,0-4.8,2.2-4.8,4.8c0,2.7,2.2,4.8,4.8,4.8c2.7,0,4.8-2.2,4.8-4.8
		S162.7,192.4,160,192.4z"/>
	<path class="st2" d="M172.5,260c-0.8,0-1.5-0.3-2.1-0.8l-10.4-8.9l-10.4,8.9c-1,0.8-2.3,1-3.4,0.5s-1.9-1.7-1.9-2.9v-40
		c0-1.8,1.4-3.2,3.2-3.2c1.8,0,3.2,1.4,3.2,3.2v33l7.2-6.1c1.2-1,3-1,4.2,0l7.2,6.1v-33c0-1.8,1.4-3.2,3.2-3.2
		c1.8,0,3.2,1.4,3.2,3.2v40c0,1.3-0.7,2.4-1.9,2.9C173.4,259.9,172.9,260,172.5,260L172.5,260z"/>
	<path class="st2" d="M143.6,120.7c-0.7,0-1.4-0.2-2-0.7c-1.4-1.1-1.7-3.1-0.6-4.5c4.4-5.7,11-8.9,18.2-8.9h1.5
		c7.2,0,13.8,3.2,18.2,8.9c1.1,1.4,0.8,3.4-0.6,4.5s-3.4,0.8-4.5-0.6c-3.2-4.1-8-6.4-13.1-6.4h-1.5c-5.2,0-10,2.3-13.1,6.4
		C145.5,120.3,144.5,120.7,143.6,120.7L143.6,120.7z"/>
	<path class="st2" d="M160,113.1c-7.8,0-14.1-6.3-14.1-14.1c0-7.8,6.3-14.1,14.1-14.1s14.1,6.3,14.1,14.1
		C174.1,106.7,167.8,113.1,160,113.1z M160,91.3c-4.2,0-7.7,3.5-7.7,7.7s3.5,7.7,7.7,7.7s7.7-3.5,7.7-7.7S164.3,91.3,160,91.3z"/>
	<path class="st2" d="M160,127.3c-14.9,0-27-12.1-27-27v-0.7c0-14.9,12.1-27,27-27s27,12.1,27,27v0.7
		C187,115.2,174.9,127.3,160,127.3z M160,79.1c-11.3,0-20.6,9.2-20.6,20.6v0.7c0,11.3,9.2,20.6,20.6,20.6c11.3,0,20.6-9.2,20.6-20.6
		v-0.7C180.6,88.4,171.3,79.1,160,79.1z"/>
</g>
</svg>
